<svg width="20" height="20" viewBox="0 0 20 20" fill="none" xmlns="http://www.w3.org/2000/svg">
<g clip-path="url(#clip0_2163_4636)">
<path d="M1.66654 1.66675L18.3332 18.3334M4.8182 4.81841C3.65676 5.41894 2.73075 6.39226 2.18878 7.58216C1.64682 8.77206 1.52033 10.1095 1.82962 11.3799C2.1389 12.6503 2.86603 13.78 3.8943 14.5876C4.92257 15.3952 6.19236 15.834 7.49987 15.8334H14.5832C14.9522 15.8337 15.3192 15.7795 15.6724 15.6726M17.9432 13.7501C18.2269 13.1783 18.3599 12.5436 18.3297 11.906C18.2995 11.2684 18.1071 10.6491 17.7706 10.1067C17.4342 9.56427 16.9648 9.11672 16.407 8.80641C15.8493 8.49609 15.2215 8.33329 14.5832 8.33341H13.0915C12.7728 7.26614 12.1554 6.31229 11.3123 5.58436C10.4692 4.85644 9.43555 4.3848 8.3332 4.22508" stroke="black" stroke-width="1.6" stroke-linecap="round" stroke-linejoin="round"/>
</g>
<defs>
<clipPath id="clip0_2163_4636">
<rect width="20" height="20" fill="white"/>
</clipPath>
</defs>
</svg>
