<svg width="108" height="12" viewBox="0 0 108 12" fill="none" xmlns="http://www.w3.org/2000/svg">
<rect width="108" height="12" fill="#777777"/>
<rect x="-162" y="-505" width="430" height="932" rx="30" fill="white"/>
<rect x="-140" y="-232" width="387" height="318" rx="30" fill="#EFEFEF"/>
<rect x="-117" y="-136" width="341" height="194" rx="20" fill="white"/>
<circle cx="53.5" cy="-38.5" r="86.5" fill="#EFEFEF"/>
<path d="M5.979 6.604C6.10033 7.024 6.161 7.458 6.161 7.906C6.161 8.34467 6.10033 8.76 5.979 9.152C5.783 9.74933 5.42367 10.2253 4.901 10.58C4.37833 10.9253 3.767 11.098 3.067 11.098C2.37633 11.098 1.77433 10.93 1.261 10.594C0.747665 10.2487 0.388332 9.78667 0.182999 9.208C0.108332 9.00267 0.0476654 8.76933 0.000998788 8.508V8.48C0.000998788 8.37733 0.0569988 8.326 0.168999 8.326H1.499C1.59233 8.326 1.653 8.37733 1.681 8.48C1.69033 8.536 1.71367 8.62 1.751 8.732C1.85367 9.04 2.017 9.278 2.241 9.446C2.465 9.614 2.73567 9.698 3.053 9.698C3.37967 9.698 3.65967 9.60933 3.893 9.432C4.12633 9.24533 4.28967 8.99333 4.383 8.676C4.467 8.452 4.509 8.19533 4.509 7.906C4.509 7.63533 4.47167 7.36933 4.397 7.108C4.33167 6.8 4.18233 6.56667 3.949 6.408C3.71567 6.24 3.431 6.156 3.095 6.156C2.77767 6.156 2.48833 6.23067 2.227 6.38C1.975 6.52 1.81167 6.70667 1.737 6.94C1.69967 7.03333 1.63433 7.08 1.541 7.08H0.182999C0.136332 7.08 0.0943321 7.066 0.0569988 7.038C0.0289988 7.00067 0.0149988 6.95867 0.0149988 6.912V1.368C0.0149988 1.32133 0.0289988 1.284 0.0569988 1.256C0.0943321 1.21867 0.136332 1.2 0.182999 1.2H5.629C5.67567 1.2 5.713 1.21867 5.741 1.256C5.77833 1.284 5.797 1.32133 5.797 1.368V2.432C5.797 2.47867 5.77833 2.52067 5.741 2.558C5.713 2.586 5.67567 2.6 5.629 2.6H1.709C1.66233 2.6 1.639 2.62333 1.639 2.67L1.625 5.19C1.625 5.22733 1.63433 5.25067 1.653 5.26C1.67167 5.26 1.69033 5.25067 1.709 5.232C2.14767 4.90533 2.675 4.742 3.291 4.742C3.94433 4.742 4.509 4.91 4.985 5.246C5.47033 5.57267 5.80167 6.02533 5.979 6.604ZM18.0474 3.734C18.7661 3.734 19.3261 3.95333 19.7274 4.392C20.1381 4.82133 20.3434 5.42333 20.3434 6.198V10.832C20.3434 10.8787 20.3247 10.9207 20.2874 10.958C20.2594 10.986 20.2221 11 20.1754 11H18.9014C18.8547 11 18.8127 10.986 18.7754 10.958C18.7474 10.9207 18.7334 10.8787 18.7334 10.832V6.534C18.7334 6.10467 18.6167 5.764 18.3834 5.512C18.1594 5.26 17.8561 5.134 17.4734 5.134C17.0907 5.134 16.7781 5.26 16.5354 5.512C16.2927 5.764 16.1714 6.1 16.1714 6.52V10.832C16.1714 10.8787 16.1527 10.9207 16.1154 10.958C16.0874 10.986 16.0501 11 16.0034 11H14.7294C14.6827 11 14.6407 10.986 14.6034 10.958C14.5754 10.9207 14.5614 10.8787 14.5614 10.832V6.534C14.5614 6.10467 14.4447 5.764 14.2114 5.512C13.9781 5.26 13.6701 5.134 13.2874 5.134C12.9327 5.134 12.6387 5.23667 12.4054 5.442C12.1814 5.64733 12.0507 5.92733 12.0134 6.282V10.832C12.0134 10.8787 11.9947 10.9207 11.9574 10.958C11.9294 10.986 11.8921 11 11.8454 11H10.5574C10.5107 11 10.4687 10.986 10.4314 10.958C10.4034 10.9207 10.3894 10.8787 10.3894 10.832V4.014C10.3894 3.96733 10.4034 3.93 10.4314 3.902C10.4687 3.86467 10.5107 3.846 10.5574 3.846H11.8454C11.8921 3.846 11.9294 3.86467 11.9574 3.902C11.9947 3.93 12.0134 3.96733 12.0134 4.014V4.476C12.0134 4.504 12.0227 4.52267 12.0414 4.532C12.0601 4.54133 12.0787 4.532 12.0974 4.504C12.3027 4.24267 12.5547 4.05133 12.8534 3.93C13.1614 3.79933 13.5021 3.734 13.8754 3.734C14.3327 3.734 14.7341 3.82733 15.0794 4.014C15.4247 4.20067 15.6907 4.47133 15.8774 4.826C15.9054 4.86333 15.9381 4.86333 15.9754 4.826C16.1807 4.45267 16.4654 4.17733 16.8294 4C17.1934 3.82267 17.5994 3.734 18.0474 3.734ZM28.0211 5.694C28.1797 6.21667 28.2591 6.786 28.2591 7.402C28.2591 8.06467 28.1704 8.648 27.9931 9.152C27.7877 9.768 27.4564 10.2487 26.9991 10.594C26.5417 10.9393 25.9817 11.112 25.3191 11.112C24.6657 11.112 24.1291 10.8647 23.7091 10.37C23.6904 10.342 23.6717 10.3327 23.6531 10.342C23.6344 10.3513 23.6251 10.37 23.6251 10.398V10.832C23.6251 10.8787 23.6064 10.9207 23.5691 10.958C23.5411 10.986 23.5037 11 23.4571 11H22.1691C22.1224 11 22.0804 10.986 22.0431 10.958C22.0151 10.9207 22.0011 10.8787 22.0011 10.832V1.368C22.0011 1.32133 22.0151 1.284 22.0431 1.256C22.0804 1.21867 22.1224 1.2 22.1691 1.2H23.4571C23.5037 1.2 23.5411 1.21867 23.5691 1.256C23.6064 1.284 23.6251 1.32133 23.6251 1.368V4.406C23.6251 4.434 23.6344 4.45267 23.6531 4.462C23.6717 4.47133 23.6904 4.46667 23.7091 4.448C24.1104 3.972 24.6424 3.734 25.3051 3.734C25.9957 3.734 26.5651 3.90667 27.0131 4.252C27.4704 4.59733 27.8064 5.078 28.0211 5.694ZM26.2571 9.04C26.4811 8.648 26.5931 8.11133 26.5931 7.43C26.5931 6.702 26.4531 6.13267 26.1731 5.722C25.9211 5.33 25.5477 5.134 25.0531 5.134C24.5957 5.134 24.2457 5.33933 24.0031 5.75C23.7697 6.13267 23.6531 6.688 23.6531 7.416C23.6531 8.13467 23.7604 8.676 23.9751 9.04C24.2177 9.488 24.5817 9.712 25.0671 9.712C25.3284 9.712 25.5617 9.656 25.7671 9.544C25.9724 9.42267 26.1357 9.25467 26.2571 9.04ZM40.276 3.734C40.9946 3.734 41.5546 3.95333 41.956 4.392C42.3666 4.82133 42.572 5.42333 42.572 6.198V10.832C42.572 10.8787 42.5533 10.9207 42.516 10.958C42.488 10.986 42.4506 11 42.404 11H41.13C41.0833 11 41.0413 10.986 41.004 10.958C40.976 10.9207 40.962 10.8787 40.962 10.832V6.534C40.962 6.10467 40.8453 5.764 40.612 5.512C40.388 5.26 40.0846 5.134 39.702 5.134C39.3193 5.134 39.0066 5.26 38.764 5.512C38.5213 5.764 38.4 6.1 38.4 6.52V10.832C38.4 10.8787 38.3813 10.9207 38.344 10.958C38.316 10.986 38.2786 11 38.232 11H36.958C36.9113 11 36.8693 10.986 36.832 10.958C36.804 10.9207 36.79 10.8787 36.79 10.832V6.534C36.79 6.10467 36.6733 5.764 36.44 5.512C36.2066 5.26 35.8986 5.134 35.516 5.134C35.1613 5.134 34.8673 5.23667 34.634 5.442C34.41 5.64733 34.2793 5.92733 34.242 6.282V10.832C34.242 10.8787 34.2233 10.9207 34.186 10.958C34.158 10.986 34.1206 11 34.074 11H32.786C32.7393 11 32.6973 10.986 32.66 10.958C32.632 10.9207 32.618 10.8787 32.618 10.832V4.014C32.618 3.96733 32.632 3.93 32.66 3.902C32.6973 3.86467 32.7393 3.846 32.786 3.846H34.074C34.1206 3.846 34.158 3.86467 34.186 3.902C34.2233 3.93 34.242 3.96733 34.242 4.014V4.476C34.242 4.504 34.2513 4.52267 34.27 4.532C34.2886 4.54133 34.3073 4.532 34.326 4.504C34.5313 4.24267 34.7833 4.05133 35.082 3.93C35.39 3.79933 35.7306 3.734 36.104 3.734C36.5613 3.734 36.9626 3.82733 37.308 4.014C37.6533 4.20067 37.9193 4.47133 38.106 4.826C38.134 4.86333 38.1666 4.86333 38.204 4.826C38.4093 4.45267 38.694 4.17733 39.058 4C39.422 3.82267 39.828 3.734 40.276 3.734ZM46.9593 3.734C47.5473 3.734 48.0653 3.83667 48.5133 4.042C48.9613 4.24733 49.3066 4.532 49.5493 4.896C49.792 5.25067 49.9133 5.65667 49.9133 6.114V10.832C49.9133 10.8787 49.8946 10.9207 49.8573 10.958C49.8293 10.986 49.792 11 49.7453 11H48.4573C48.4106 11 48.3686 10.986 48.3313 10.958C48.3033 10.9207 48.2893 10.8787 48.2893 10.832V10.384C48.2893 10.356 48.28 10.342 48.2613 10.342C48.2426 10.3327 48.224 10.3373 48.2053 10.356C47.748 10.86 47.0853 11.112 46.2173 11.112C45.5173 11.112 44.9386 10.9347 44.4813 10.58C44.0333 10.2253 43.8093 9.698 43.8093 8.998C43.8093 8.27 44.0613 7.70533 44.5653 7.304C45.0786 6.89333 45.7973 6.688 46.7213 6.688H48.2193C48.266 6.688 48.2893 6.66467 48.2893 6.618V6.282C48.2893 5.918 48.182 5.638 47.9673 5.442C47.7526 5.23667 47.4306 5.134 47.0013 5.134C46.6466 5.134 46.3573 5.19933 46.1333 5.33C45.9186 5.45133 45.7833 5.624 45.7273 5.848C45.6993 5.96 45.634 6.00667 45.5313 5.988L44.1733 5.82C44.1266 5.81067 44.0846 5.79667 44.0473 5.778C44.0193 5.75 44.01 5.71733 44.0193 5.68C44.094 5.11067 44.3973 4.644 44.9293 4.28C45.4706 3.916 46.1473 3.734 46.9593 3.734ZM46.6233 9.824C47.0806 9.824 47.4726 9.70267 47.7993 9.46C48.126 9.21733 48.2893 8.90933 48.2893 8.536V7.878C48.2893 7.83133 48.266 7.808 48.2193 7.808H47.0433C46.5486 7.808 46.1566 7.90133 45.8673 8.088C45.5873 8.27467 45.4473 8.54067 45.4473 8.886C45.4473 9.18467 45.5546 9.418 45.7693 9.586C45.9933 9.74467 46.278 9.824 46.6233 9.824ZM51.1697 11C51.1043 11 51.0577 10.9813 51.0297 10.944C51.011 10.8973 51.0203 10.846 51.0577 10.79L53.3257 7.458C53.3443 7.43 53.3443 7.402 53.3257 7.374L51.0577 4.056C51.039 4.01867 51.0297 3.986 51.0297 3.958C51.0297 3.88333 51.0763 3.846 51.1697 3.846H52.5417C52.6257 3.846 52.691 3.88333 52.7377 3.958L54.1937 6.114C54.2123 6.13267 54.231 6.142 54.2497 6.142C54.2683 6.142 54.2823 6.13267 54.2917 6.114L55.7477 3.958C55.7943 3.88333 55.8597 3.846 55.9437 3.846H57.4137C57.479 3.846 57.521 3.86933 57.5397 3.916C57.5677 3.95333 57.563 4 57.5257 4.056L55.2577 7.374C55.2483 7.402 55.2483 7.43 55.2577 7.458L57.5257 10.79C57.5443 10.8273 57.5537 10.86 57.5537 10.888C57.5537 10.9627 57.507 11 57.4137 11H56.0417C55.9577 11 55.8923 10.9627 55.8457 10.888L54.3897 8.732C54.3803 8.71333 54.3663 8.704 54.3477 8.704C54.329 8.704 54.3103 8.71333 54.2917 8.732L52.8357 10.888C52.789 10.9627 52.7237 11 52.6397 11H51.1697ZM65.301 3.832C65.3477 3.832 65.385 3.85067 65.413 3.888C65.4503 3.916 65.469 3.95333 65.469 4V5.106C65.469 5.15267 65.4503 5.19467 65.413 5.232C65.385 5.26 65.3477 5.274 65.301 5.274H63.915C63.8683 5.274 63.845 5.29733 63.845 5.344V10.832C63.845 10.8787 63.8263 10.9207 63.789 10.958C63.761 10.986 63.7237 11 63.677 11H62.389C62.3423 11 62.3003 10.986 62.263 10.958C62.235 10.9207 62.221 10.8787 62.221 10.832V5.344C62.221 5.29733 62.1977 5.274 62.151 5.274H61.283C61.2363 5.274 61.1943 5.26 61.157 5.232C61.129 5.19467 61.115 5.15267 61.115 5.106V4C61.115 3.95333 61.129 3.916 61.157 3.888C61.1943 3.85067 61.2363 3.832 61.283 3.832H62.151C62.1977 3.832 62.221 3.80867 62.221 3.762V3.51C62.221 2.90333 62.3003 2.43667 62.459 2.11C62.6177 1.774 62.879 1.536 63.243 1.396C63.607 1.256 64.1203 1.19067 64.783 1.2H65.273C65.3197 1.2 65.357 1.21867 65.385 1.256C65.4223 1.284 65.441 1.32133 65.441 1.368V2.348C65.441 2.39467 65.4223 2.43667 65.385 2.474C65.357 2.502 65.3197 2.516 65.273 2.516H64.909C64.5077 2.516 64.2277 2.59533 64.069 2.754C63.9197 2.91267 63.845 3.202 63.845 3.622V3.762C63.845 3.80867 63.8683 3.832 63.915 3.832H65.301ZM67.765 2.866C67.4757 2.866 67.2377 2.77267 67.051 2.586C66.8643 2.39933 66.771 2.16133 66.771 1.872C66.771 1.58267 66.8643 1.34467 67.051 1.158C67.2377 0.971333 67.4757 0.877999 67.765 0.877999C68.0543 0.877999 68.2923 0.971333 68.479 1.158C68.6657 1.34467 68.759 1.58267 68.759 1.872C68.759 2.16133 68.6657 2.39933 68.479 2.586C68.2923 2.77267 68.0543 2.866 67.765 2.866ZM67.093 11C67.0463 11 67.0043 10.986 66.967 10.958C66.939 10.9207 66.925 10.8787 66.925 10.832V4C66.925 3.95333 66.939 3.916 66.967 3.888C67.0043 3.85067 67.0463 3.832 67.093 3.832H68.381C68.4277 3.832 68.465 3.85067 68.493 3.888C68.5303 3.916 68.549 3.95333 68.549 4V10.832C68.549 10.8787 68.5303 10.9207 68.493 10.958C68.465 10.986 68.4277 11 68.381 11H67.093ZM70.581 11C70.5343 11 70.4923 10.986 70.455 10.958C70.427 10.9207 70.413 10.8787 70.413 10.832V1.368C70.413 1.32133 70.427 1.284 70.455 1.256C70.4923 1.21867 70.5343 1.2 70.581 1.2H71.869C71.9156 1.2 71.953 1.21867 71.981 1.256C72.0183 1.284 72.037 1.32133 72.037 1.368V10.832C72.037 10.8787 72.0183 10.9207 71.981 10.958C71.953 10.986 71.9156 11 71.869 11H70.581ZM79.8005 6.618C79.8378 6.85133 79.8565 7.11267 79.8565 7.402L79.8425 7.836C79.8425 7.948 79.7865 8.004 79.6745 8.004H75.2925C75.2458 8.004 75.2225 8.02733 75.2225 8.074C75.2505 8.382 75.2925 8.592 75.3485 8.704C75.5725 9.376 76.1185 9.71667 76.9865 9.726C77.6212 9.726 78.1252 9.46467 78.4985 8.942C78.5358 8.886 78.5825 8.858 78.6385 8.858C78.6758 8.858 78.7085 8.872 78.7365 8.9L79.6045 9.614C79.6885 9.67933 79.7025 9.754 79.6465 9.838C79.3572 10.2487 78.9698 10.566 78.4845 10.79C78.0085 11.014 77.4765 11.126 76.8885 11.126C76.1605 11.126 75.5398 10.9627 75.0265 10.636C74.5225 10.3093 74.1538 9.852 73.9205 9.264C73.7058 8.76 73.5985 8.06 73.5985 7.164C73.5985 6.62267 73.6545 6.184 73.7665 5.848C73.9531 5.19467 74.3032 4.68133 74.8165 4.308C75.3392 3.92533 75.9645 3.734 76.6925 3.734C78.5312 3.734 79.5672 4.69533 79.8005 6.618ZM76.6925 5.134C76.3472 5.134 76.0578 5.22267 75.8245 5.4C75.6005 5.568 75.4418 5.806 75.3485 6.114C75.2925 6.27267 75.2552 6.478 75.2365 6.73C75.2178 6.77667 75.2365 6.8 75.2925 6.8H78.1345C78.1812 6.8 78.2045 6.77667 78.2045 6.73C78.1858 6.49667 78.1578 6.31933 78.1205 6.198C78.0365 5.862 77.8685 5.60067 77.6165 5.414C77.3738 5.22733 77.0658 5.134 76.6925 5.134ZM86.8113 11.084C86.2233 11.084 85.7053 11 85.2573 10.832C84.8186 10.6547 84.4779 10.4167 84.2353 10.118C83.9926 9.81 83.8713 9.46933 83.8713 9.096V8.97C83.8713 8.92333 83.8853 8.886 83.9133 8.858C83.9506 8.82067 83.9926 8.802 84.0393 8.802H85.2713C85.3179 8.802 85.3553 8.82067 85.3833 8.858C85.4206 8.886 85.4393 8.92333 85.4393 8.97V8.998C85.4393 9.23133 85.5653 9.43667 85.8173 9.614C86.0786 9.782 86.4053 9.866 86.7973 9.866C87.1706 9.866 87.4739 9.79133 87.7073 9.642C87.9406 9.48333 88.0573 9.28733 88.0573 9.054C88.0573 8.83933 87.9593 8.68067 87.7633 8.578C87.5766 8.466 87.2686 8.34933 86.8393 8.228L86.3073 8.06C85.8313 7.92 85.4299 7.77067 85.1033 7.612C84.7766 7.45333 84.5013 7.23867 84.2773 6.968C84.0533 6.688 83.9413 6.33333 83.9413 5.904C83.9413 5.25067 84.1979 4.73267 84.7113 4.35C85.2246 3.958 85.9013 3.762 86.7413 3.762C87.3106 3.762 87.8099 3.85533 88.2393 4.042C88.6686 4.21933 88.9999 4.47133 89.2333 4.798C89.4666 5.11533 89.5833 5.47933 89.5833 5.89C89.5833 5.93667 89.5646 5.97867 89.5273 6.016C89.4993 6.044 89.4619 6.058 89.4153 6.058H88.2253C88.1786 6.058 88.1366 6.044 88.0993 6.016C88.0713 5.97867 88.0573 5.93667 88.0573 5.89C88.0573 5.64733 87.9359 5.44667 87.6933 5.288C87.4599 5.12 87.1379 5.036 86.7273 5.036C86.3633 5.036 86.0646 5.106 85.8313 5.246C85.6073 5.37667 85.4953 5.56333 85.4953 5.806C85.4953 6.03 85.6026 6.20267 85.8173 6.324C86.0413 6.436 86.4099 6.562 86.9233 6.702L87.2313 6.786C87.7259 6.93533 88.1413 7.08933 88.4773 7.248C88.8133 7.39733 89.0979 7.612 89.3313 7.892C89.5646 8.16267 89.6813 8.51733 89.6813 8.956C89.6813 9.61867 89.4199 10.1413 88.8973 10.524C88.3746 10.8973 87.6793 11.084 86.8113 11.084ZM91.9835 2.866C91.6941 2.866 91.4561 2.77267 91.2695 2.586C91.0828 2.39933 90.9895 2.16133 90.9895 1.872C90.9895 1.58267 91.0828 1.34467 91.2695 1.158C91.4561 0.971333 91.6941 0.877999 91.9835 0.877999C92.2728 0.877999 92.5108 0.971333 92.6975 1.158C92.8841 1.34467 92.9775 1.58267 92.9775 1.872C92.9775 2.16133 92.8841 2.39933 92.6975 2.586C92.5108 2.77267 92.2728 2.866 91.9835 2.866ZM91.3115 11C91.2648 11 91.2228 10.986 91.1855 10.958C91.1575 10.9207 91.1435 10.8787 91.1435 10.832V4C91.1435 3.95333 91.1575 3.916 91.1855 3.888C91.2228 3.85067 91.2648 3.832 91.3115 3.832H92.5995C92.6461 3.832 92.6835 3.85067 92.7115 3.888C92.7488 3.916 92.7675 3.95333 92.7675 4V10.832C92.7675 10.8787 92.7488 10.9207 92.7115 10.958C92.6835 10.986 92.6461 11 92.5995 11H91.3115ZM94.3238 11C94.2771 11 94.2351 10.986 94.1978 10.958C94.1698 10.9207 94.1558 10.8787 94.1558 10.832V9.642C94.1558 9.558 94.1791 9.49267 94.2258 9.446L97.6698 5.4C97.7164 5.344 97.7024 5.316 97.6278 5.316H94.3938C94.3471 5.316 94.3051 5.302 94.2678 5.274C94.2398 5.23667 94.2258 5.19467 94.2258 5.148V4.014C94.2258 3.96733 94.2398 3.93 94.2678 3.902C94.3051 3.86467 94.3471 3.846 94.3938 3.846H99.4898C99.5364 3.846 99.5738 3.86467 99.6018 3.902C99.6391 3.93 99.6578 3.96733 99.6578 4.014V5.204C99.6578 5.27867 99.6298 5.344 99.5738 5.4L96.0598 9.446C96.0224 9.502 96.0364 9.53 96.1018 9.53H99.5318C99.5784 9.53 99.6158 9.54867 99.6438 9.586C99.6811 9.614 99.6998 9.65133 99.6998 9.698V10.832C99.6998 10.8787 99.6811 10.9207 99.6438 10.958C99.6158 10.986 99.5784 11 99.5318 11H94.3238ZM107.041 6.618C107.078 6.85133 107.097 7.11267 107.097 7.402L107.083 7.836C107.083 7.948 107.027 8.004 106.915 8.004H102.533C102.486 8.004 102.463 8.02733 102.463 8.074C102.491 8.382 102.533 8.592 102.589 8.704C102.813 9.376 103.359 9.71667 104.227 9.726C104.861 9.726 105.365 9.46467 105.739 8.942C105.776 8.886 105.823 8.858 105.879 8.858C105.916 8.858 105.949 8.872 105.977 8.9L106.845 9.614C106.929 9.67933 106.943 9.754 106.887 9.838C106.597 10.2487 106.21 10.566 105.725 10.79C105.249 11.014 104.717 11.126 104.129 11.126C103.401 11.126 102.78 10.9627 102.267 10.636C101.763 10.3093 101.394 9.852 101.161 9.264C100.946 8.76 100.839 8.06 100.839 7.164C100.839 6.62267 100.895 6.184 101.007 5.848C101.193 5.19467 101.543 4.68133 102.057 4.308C102.579 3.92533 103.205 3.734 103.933 3.734C105.771 3.734 106.807 4.69533 107.041 6.618ZM103.933 5.134C103.587 5.134 103.298 5.22267 103.065 5.4C102.841 5.568 102.682 5.806 102.589 6.114C102.533 6.27267 102.495 6.478 102.477 6.73C102.458 6.77667 102.477 6.8 102.533 6.8H105.375C105.421 6.8 105.445 6.77667 105.445 6.73C105.426 6.49667 105.398 6.31933 105.361 6.198C105.277 5.862 105.109 5.60067 104.857 5.414C104.614 5.22733 104.306 5.134 103.933 5.134Z" fill="#909091"/>
</svg>
