<svg width="32" height="32" viewBox="0 0 32 32" fill="none" xmlns="http://www.w3.org/2000/svg">
<circle cx="16" cy="16" r="16" fill="#EFEFEF"/>
<path d="M16 17C14.9 17 13.9583 16.6083 13.175 15.825C12.3917 15.0417 12 14.1 12 13C12 11.9 12.3917 10.9583 13.175 10.175C13.9583 9.39167 14.9 9 16 9C17.1 9 18.0417 9.39167 18.825 10.175C19.6083 10.9583 20 11.9 20 13C20 14.1 19.6083 15.0417 18.825 15.825C18.0417 16.6083 17.1 17 16 17ZM8 23V22.2C8 21.6333 8.146 21.1127 8.438 20.638C8.73 20.1633 9.11733 19.8007 9.6 19.55C10.6333 19.0333 11.6833 18.646 12.75 18.388C13.8167 18.13 14.9 18.0007 16 18C17.1 17.9993 18.1833 18.1287 19.25 18.388C20.3167 18.6473 21.3667 19.0347 22.4 19.55C22.8833 19.8 23.271 20.1627 23.563 20.638C23.855 21.1133 24.0007 21.634 24 22.2V23C24 23.55 23.8043 24.021 23.413 24.413C23.0217 24.805 22.5507 25.0007 22 25H10C9.45 25 8.97933 24.8043 8.588 24.413C8.19667 24.0217 8.00067 23.5507 8 23Z" fill="#201E43"/>
</svg>
