<svg width="32" height="32" viewBox="0 0 32 32" fill="none" xmlns="http://www.w3.org/2000/svg">
<circle cx="16" cy="16" r="16" fill="#EFEFEF"/>
<path fill-rule="evenodd" clip-rule="evenodd" d="M13 10.0004C12.2044 10.0004 11.4413 10.3164 10.8787 10.8791C10.3161 11.4417 10 12.2047 10 13.0004C10 13.796 10.3161 14.5591 10.8787 15.1217C11.4413 15.6843 12.2044 16.0004 13 16.0004C13.7956 16.0004 14.5587 15.6843 15.1213 15.1217C15.6839 14.5591 16 13.796 16 13.0004C16 12.2047 15.6839 11.4417 15.1213 10.8791C14.5587 10.3164 13.7956 10.0004 13 10.0004ZM11.5 16.7504C10.7044 16.7504 9.94129 17.0664 9.37868 17.6291C8.81607 18.1917 8.5 18.9547 8.5 19.7504V20.5004C8.5 20.8982 8.65804 21.2797 8.93934 21.561C9.22064 21.8423 9.60218 22.0004 10 22.0004H16C16.3978 22.0004 16.7794 21.8423 17.0607 21.561C17.342 21.2797 17.5 20.8982 17.5 20.5004V19.7504C17.5 18.9547 17.1839 18.1917 16.6213 17.6291C16.0587 17.0664 15.2956 16.7504 14.5 16.7504H11.5ZM16.9375 15.1791C17.296 14.5341 17.5 13.7916 17.5 13.0004C17.5002 12.238 17.3066 11.488 16.9375 10.8209C17.3634 10.4179 17.898 10.1486 18.4752 10.0461C19.0525 9.94371 19.6471 10.0127 20.1856 10.2445C20.7241 10.4763 21.1829 10.8608 21.5053 11.3506C21.8276 11.8403 21.9994 12.4137 21.9994 13C21.9994 13.5863 21.8276 14.1597 21.5053 14.6494C21.1829 15.1392 20.7241 15.5237 20.1856 15.7555C19.6471 15.9873 19.0525 16.0563 18.4752 15.9539C17.898 15.8514 17.3634 15.5821 16.9375 15.1791ZM18.5995 22.0004C18.8545 21.5594 19.0007 21.0471 19.0007 20.5004V19.7504C19.0021 18.6432 18.5939 17.5746 17.8547 16.7504H20.5C21.2956 16.7504 22.0587 17.0664 22.6213 17.6291C23.1839 18.1917 23.5 18.9547 23.5 19.7504V20.5004C23.5 20.8982 23.342 21.2797 23.0607 21.561C22.7794 21.8423 22.3978 22.0004 22 22.0004H18.5995Z" fill="#201E43"/>
</svg>
