<svg width="33" height="33" viewBox="0 0 33 33" fill="none" xmlns="http://www.w3.org/2000/svg">
<circle cx="16.5" cy="16.5" r="16.5" fill="#E2E2E2" fill-opacity="0.31"/>
<path d="M17 26.75C15.0716 26.75 13.1866 26.1782 11.5832 25.1068C9.97982 24.0355 8.73013 22.5127 7.99218 20.7312C7.25422 18.9496 7.06114 16.9892 7.43735 15.0979C7.81355 13.2066 8.74215 11.4693 10.1057 10.1057C11.4693 8.74215 13.2066 7.81355 15.0979 7.43735C16.9892 7.06114 18.9496 7.25422 20.7312 7.99218C22.5127 8.73013 24.0355 9.97982 25.1068 11.5832C26.1782 13.1866 26.75 15.0716 26.75 17C26.75 19.5859 25.7228 22.0658 23.8943 23.8943C22.0658 25.7228 19.5859 26.75 17 26.75ZM17 8.75C15.3683 8.75 13.7733 9.23386 12.4165 10.1404C11.0598 11.0469 10.0024 12.3354 9.378 13.8429C8.75358 15.3504 8.5902 17.0092 8.90853 18.6095C9.22685 20.2098 10.0126 21.6799 11.1664 22.8336C12.3202 23.9874 13.7902 24.7732 15.3905 25.0915C16.9909 25.4098 18.6497 25.2464 20.1571 24.622C21.6646 23.9976 22.9531 22.9402 23.8596 21.5835C24.7661 20.2268 25.25 18.6317 25.25 17C25.25 14.812 24.3808 12.7135 22.8336 11.1664C21.2865 9.6192 19.188 8.75 17 8.75Z" fill="black"/>
<path d="M17 22.25C16.8011 22.25 16.6103 22.171 16.4697 22.0303C16.329 21.8897 16.25 21.6989 16.25 21.5V12.5C16.25 12.3011 16.329 12.1103 16.4697 11.9697C16.6103 11.829 16.8011 11.75 17 11.75C17.1989 11.75 17.3897 11.829 17.5303 11.9697C17.671 12.1103 17.75 12.3011 17.75 12.5V21.5C17.75 21.6989 17.671 21.8897 17.5303 22.0303C17.3897 22.171 17.1989 22.25 17 22.25Z" fill="black"/>
<path d="M21.5 17.75H12.5C12.3011 17.75 12.1103 17.671 11.9697 17.5303C11.829 17.3897 11.75 17.1989 11.75 17C11.75 16.8011 11.829 16.6103 11.9697 16.4697C12.1103 16.329 12.3011 16.25 12.5 16.25H21.5C21.6989 16.25 21.8897 16.329 22.0303 16.4697C22.171 16.6103 22.25 16.8011 22.25 17C22.25 17.1989 22.171 17.3897 22.0303 17.5303C21.8897 17.671 21.6989 17.75 21.5 17.75Z" fill="black"/>
</svg>
