<svg width="20" height="20" viewBox="0 0 20 20" fill="none" xmlns="http://www.w3.org/2000/svg">
<path d="M5.4375 11C6.5625 11 7.5 10.0625 7.5 8.9375C7.5 7.8125 6.5625 6.875 5.4375 6.875C4.3125 6.875 3.375 7.8125 3.375 8.9375C3.375 10.0625 4.3125 11 5.4375 11ZM5.4375 7.96875C5.96875 7.96875 6.40625 8.40625 6.40625 8.9375C6.40625 9.46875 5.96875 9.90628 5.4375 9.90628C4.90625 9.90628 4.46875 9.46875 4.46875 8.9375C4.46875 8.40625 4.90625 7.96875 5.4375 7.96875Z" fill="#A9A9A9"/>
<path d="M15.3125 12.9688H4.28125C3.96875 12.9688 3.71875 13.2187 3.71875 13.5312C3.71875 13.8437 3.96875 14.0937 4.28125 14.0937H15.3125C15.625 14.0937 15.875 13.8437 15.875 13.5312C15.875 13.2187 15.625 12.9688 15.3125 12.9688Z" fill="#A9A9A9"/>
<path d="M15.3125 6.90625H12.2812C11.9687 6.90625 11.7188 7.15625 11.7188 7.46875C11.7188 7.78125 11.9687 8.03125 12.2812 8.03125H15.3125C15.625 8.03125 15.875 7.78125 15.875 7.46875C15.875 7.15625 15.625 6.90625 15.3125 6.90625Z" fill="#A9A9A9"/>
<path d="M15.3125 9.9375H12.2812C11.9687 9.9375 11.7188 10.1875 11.7188 10.5C11.7188 10.8125 11.9687 11.0625 12.2812 11.0625H15.3125C15.625 11.0625 15.875 10.8125 15.875 10.5C15.875 10.1875 15.625 9.9375 15.3125 9.9375Z" fill="#A9A9A9"/>
<path d="M17.8125 3.375H2.1875C1.1875 3.375 0.375 4.1875 0.375 5.1875V14.8125C0.375 15.8125 1.1875 16.625 2.1875 16.625H17.8125C18.8125 16.625 19.625 15.8125 19.625 14.8125V5.1875C19.625 4.1875 18.8125 3.375 17.8125 3.375ZM18.5312 14.8125C18.5312 15.1875 18.2187 15.5313 17.8125 15.5313H2.1875C1.8125 15.5313 1.46875 15.2188 1.46875 14.8125V5.1875C1.46875 4.8125 1.78125 4.46875 2.1875 4.46875H17.8125C18.1875 4.46875 18.5312 4.78125 18.5312 5.1875V14.8125Z" fill="#A9A9A9"/>
</svg>
