<svg width="20" height="20" viewBox="0 0 20 20" fill="none" xmlns="http://www.w3.org/2000/svg">
<path d="M10.0001 3.12492C9.80857 3.12492 9.61893 3.16264 9.442 3.23593C9.26507 3.30922 9.1043 3.41664 8.96888 3.55205C8.83346 3.68747 8.72605 3.84824 8.65276 4.02517C8.57947 4.20211 8.54175 4.39174 8.54175 4.58325C8.54175 4.77476 8.57947 4.9644 8.65276 5.14133C8.72605 5.31826 8.83346 5.47903 8.96888 5.61445C9.1043 5.74987 9.26507 5.85729 9.442 5.93058C9.61893 6.00386 9.80857 6.04159 10.0001 6.04159C10.3869 6.04159 10.7578 5.88794 11.0313 5.61445C11.3048 5.34096 11.4584 4.97003 11.4584 4.58325C11.4584 4.19648 11.3048 3.82555 11.0313 3.55205C10.7578 3.27856 10.3869 3.12492 10.0001 3.12492ZM7.50008 4.58325C7.50008 3.92021 7.76347 3.28433 8.23231 2.81549C8.70115 2.34664 9.33704 2.08325 10.0001 2.08325C10.6631 2.08325 11.299 2.34664 11.7678 2.81549C12.2367 3.28433 12.5001 3.92021 12.5001 4.58325C12.5001 5.24629 12.2367 5.88218 11.7678 6.35102C11.299 6.81986 10.6631 7.08325 10.0001 7.08325C9.33704 7.08325 8.70115 6.81986 8.23231 6.35102C7.76347 5.88218 7.50008 5.24629 7.50008 4.58325ZM15.4167 3.95825C15.1405 3.95825 14.8755 4.068 14.6802 4.26335C14.4848 4.4587 14.3751 4.72365 14.3751 4.99992C14.3751 5.27619 14.4848 5.54114 14.6802 5.73649C14.8755 5.93184 15.1405 6.04159 15.4167 6.04159C15.693 6.04159 15.958 5.93184 16.1533 5.73649C16.3487 5.54114 16.4584 5.27619 16.4584 4.99992C16.4584 4.72365 16.3487 4.4587 16.1533 4.26335C15.958 4.068 15.693 3.95825 15.4167 3.95825ZM13.3334 4.99992C13.3334 4.44738 13.5529 3.91748 13.9436 3.52678C14.3343 3.13608 14.8642 2.91659 15.4167 2.91659C15.9693 2.91659 16.4992 3.13608 16.8899 3.52678C17.2806 3.91748 17.5001 4.44738 17.5001 4.99992C17.5001 5.55245 17.2806 6.08236 16.8899 6.47306C16.4992 6.86376 15.9693 7.08325 15.4167 7.08325C14.8642 7.08325 14.3343 6.86376 13.9436 6.47306C13.5529 6.08236 13.3334 5.55245 13.3334 4.99992ZM3.54175 4.99992C3.54175 4.72365 3.65149 4.4587 3.84685 4.26335C4.0422 4.068 4.30715 3.95825 4.58341 3.95825C4.85968 3.95825 5.12463 4.068 5.31998 4.26335C5.51533 4.4587 5.62508 4.72365 5.62508 4.99992C5.62508 5.27619 5.51533 5.54114 5.31998 5.73649C5.12463 5.93184 4.85968 6.04159 4.58341 6.04159C4.30715 6.04159 4.0422 5.93184 3.84685 5.73649C3.65149 5.54114 3.54175 5.27619 3.54175 4.99992ZM4.58341 2.91659C4.03088 2.91659 3.50098 3.13608 3.11028 3.52678C2.71957 3.91748 2.50008 4.44738 2.50008 4.99992C2.50008 5.55245 2.71957 6.08236 3.11028 6.47306C3.50098 6.86376 4.03088 7.08325 4.58341 7.08325C5.13595 7.08325 5.66585 6.86376 6.05655 6.47306C6.44725 6.08236 6.66675 5.55245 6.66675 4.99992C6.66675 4.44738 6.44725 3.91748 6.05655 3.52678C5.66585 3.13608 5.13595 2.91659 4.58341 2.91659ZM6.25008 9.68742C6.25008 9.21776 6.43665 8.76735 6.76875 8.43525C7.10084 8.10315 7.55126 7.91658 8.02091 7.91658H11.9792C12.4489 7.91658 12.8993 8.10315 13.2314 8.43525C13.5635 8.76735 13.7501 9.21776 13.7501 9.68742V14.1666C13.7501 15.1611 13.355 16.115 12.6517 16.8182C11.9485 17.5215 10.9946 17.9166 10.0001 17.9166C9.00552 17.9166 8.05169 17.5215 7.34843 16.8182C6.64517 16.115 6.25008 15.1611 6.25008 14.1666V9.68742ZM10.0001 16.8749C10.7184 16.8749 11.4073 16.5896 11.9152 16.0817C12.4231 15.5738 12.7084 14.8849 12.7084 14.1666V9.68742C12.7084 9.49403 12.6316 9.30857 12.4948 9.17182C12.3581 9.03507 12.1726 8.95825 11.9792 8.95825H8.02091C7.82753 8.95825 7.64206 9.03507 7.50532 9.17182C7.36857 9.30857 7.29175 9.49403 7.29175 9.68742V14.1666C7.29175 14.8849 7.57709 15.5738 8.085 16.0817C8.59291 16.5896 9.28179 16.8749 10.0001 16.8749ZM4.58341 15.6249C4.93179 15.625 5.27331 15.5281 5.56966 15.3449C5.66091 15.6891 5.79133 16.017 5.9555 16.3241C5.51105 16.561 5.01283 16.6788 4.50934 16.666C4.00585 16.6532 3.51425 16.5103 3.08241 16.2511C2.65057 15.9919 2.29321 15.6253 2.04512 15.187C1.79704 14.7487 1.66668 14.2536 1.66675 13.7499V9.68783C1.66669 9.45525 1.71246 9.22493 1.80143 9.01004C1.89039 8.79514 2.02082 8.59988 2.18527 8.4354C2.34971 8.27092 2.54494 8.14044 2.75982 8.05142C2.97469 7.9624 3.205 7.91658 3.43758 7.91658H5.72925C5.84953 7.91686 5.96633 7.92839 6.07966 7.95117C5.82017 8.24079 5.62895 8.58493 5.52008 8.95825H3.43758C3.24419 8.95825 3.05873 9.03507 2.92198 9.17182C2.78524 9.30857 2.70841 9.49403 2.70841 9.68742V13.7499C2.70841 14.2472 2.90596 14.7241 3.25759 15.0757C3.60922 15.4274 4.08613 15.6249 4.58341 15.6249ZM15.4167 16.6666C14.9383 16.6668 14.467 16.5494 14.0447 16.3245C14.2088 16.017 14.3392 15.6891 14.4305 15.3449C14.7145 15.5206 15.0403 15.6172 15.3742 15.6248C15.7081 15.6323 16.038 15.5506 16.3297 15.388C16.6214 15.2254 16.8644 14.9878 17.0335 14.6998C17.2027 14.4118 17.2918 14.0839 17.2917 13.7499V9.68742C17.2917 9.49403 17.2149 9.30857 17.0782 9.17182C16.9414 9.03507 16.756 8.95825 16.5626 8.95825H14.4801C14.3711 8.5849 14.1797 8.24075 13.9201 7.95117C14.034 7.92839 14.1509 7.91686 14.2709 7.91658H16.5626C17.0322 7.91658 17.4827 8.10315 17.8147 8.43525C18.1468 8.76735 18.3334 9.21776 18.3334 9.68742V13.7499C18.3334 14.5235 18.0261 15.2653 17.4791 15.8123C16.9322 16.3593 16.1903 16.6666 15.4167 16.6666Z" fill="#201E43"/>
</svg>
