<svg width="20" height="20" viewBox="0 0 20 20" fill="none" xmlns="http://www.w3.org/2000/svg">
<path d="M6.68182 13.5999H5.59091C4.5 13.5999 4.5 13.5 4.5 14.7999C4.5 15.9998 4.5 15.9998 5.59091 15.9999H6.68182C7.75 16 7.75 15.9998 7.77273 14.7999C7.79545 13.6001 7.77273 13.5999 6.68182 13.5999Z" fill="#201E43"/>
<path d="M11.0451 12.3999H9.95419C8.86328 12.3999 8.86328 12.3999 8.86328 13.5999V14.7999C8.86328 15.9999 8.86328 15.9999 9.95419 15.9999H11.0451C12.136 15.9999 12.136 15.9999 12.136 14.7999V13.5999C12.136 12.3999 12.136 12.3999 11.0451 12.3999Z" fill="#201E43"/>
<path d="M15.4094 10H14.3184C13.25 10 13.25 10 13.2275 11.2V14.8C13.25 16 13.25 16 14.3184 16H15.4094C16.5 16 16.5 16 16.5003 14.8V11.2C16.5 10 16.5003 10 15.4094 10Z" fill="#201E43"/>
<path d="M15.9545 4H12.3545C11.8636 4 11.6455 4.66 11.9727 5.02L13.0091 6.16C10.9909 8.68 8.1 10.6 5.04545 10.6C4.71818 10.6 4.5 10.84 4.5 11.2C4.5 11.56 4.71818 11.8 5.04545 11.8C8.7 11.8 12.0818 10.66 14.5364 7.84L15.5182 8.92C15.8455 9.28 16.4455 9.04 16.4455 8.5V4.6C16.5 4.24 16.2818 4 15.9545 4Z" fill="#201E43"/>
</svg>
