<svg width="30" height="37" viewBox="0 0 30 37" fill="none" xmlns="http://www.w3.org/2000/svg">
<path d="M7.43536 36.2472C6.70765 35.762 6.06142 35.1646 5.52073 34.4772C4.93125 33.7646 4.38488 33.0151 3.88313 32.2394C2.70485 30.5159 1.7821 28.631 1.14355 26.6432C0.374 24.3315 0 22.1183 0 19.9528C0 17.5364 0.523292 15.4279 1.54217 13.6579C2.30192 12.2711 3.41758 11.1119 4.77427 10.2996C6.08885 9.48421 7.59866 9.03765 9.14529 9.00677C9.68397 9.00677 10.2688 9.08373 10.8845 9.23764C11.3308 9.36076 11.8695 9.56084 12.5313 9.8071C13.3778 10.1303 13.8395 10.3304 13.9934 10.3766C14.4859 10.5613 14.9015 10.6382 15.2247 10.6382C15.471 10.6382 15.825 10.5613 16.2174 10.4381C16.4406 10.3612 16.8638 10.2227 17.4641 9.96101C18.0582 9.74554 18.5291 9.56084 18.9031 9.42233C19.4726 9.25303 20.0236 9.09912 20.5192 9.02216C21.1194 8.92982 21.7151 8.89903 22.2861 8.94521C23.3788 9.02216 24.3792 9.25303 25.2719 9.59163C26.8418 10.2227 28.1085 11.2077 29.0535 12.6082C28.6533 12.8545 28.2839 13.1408 27.9376 13.4548C27.1881 14.1166 26.5524 14.9015 26.0445 15.7711C25.3845 16.9565 25.043 18.2928 25.0534 19.6496C25.0764 21.3164 25.4997 22.7817 26.3462 24.0514C26.9627 24.993 27.7663 25.7977 28.7072 26.4155C29.1843 26.7387 29.6029 26.9618 30 27.108C29.8153 27.6852 29.6121 28.247 29.3767 28.801C28.8426 30.0431 28.207 31.2328 27.4528 32.3563C26.7879 33.326 26.2646 34.0494 25.8675 34.5265C25.2488 35.2652 24.6517 35.8193 24.0514 36.2149C23.3896 36.6535 22.6124 36.8859 21.8166 36.8859C21.278 36.909 20.7393 36.8397 20.2252 36.6904C19.7789 36.5442 19.3387 36.3795 18.9078 36.1933C18.4562 35.9867 17.9908 35.8119 17.5149 35.67C16.9301 35.5171 16.3278 35.441 15.7234 35.4438C15.1077 35.4438 14.5075 35.5207 13.938 35.6669C13.4609 35.8024 12.9992 35.9686 12.5421 36.1671C11.8956 36.4365 11.4724 36.6135 11.2261 36.6904C10.73 36.8372 10.2189 36.9276 9.70244 36.9598C8.90211 36.9598 8.15719 36.7289 7.41535 36.2672L7.43536 36.2472ZM17.9843 7.83552C16.9377 8.35881 15.9435 8.58044 14.9477 8.50657C14.7938 7.51231 14.9477 6.49035 15.3632 5.37143C15.7326 4.4172 16.2251 3.5553 16.9023 2.78576C17.6103 1.98543 18.4568 1.32362 19.411 0.846501C20.4268 0.32321 21.3965 0.0461728 22.3199 0C22.4431 1.04658 22.3199 2.07778 21.9352 3.18592C21.5809 4.17029 21.0603 5.08654 20.3961 5.89473C19.7266 6.69505 18.8954 7.35686 17.9551 7.83398L17.9843 7.83552Z" fill="#201E43"/>
</svg>
