<svg width="14" height="11" viewBox="0 0 14 11" fill="none" xmlns="http://www.w3.org/2000/svg">
<path d="M13.1771 4.95007H1.74768L6.12419 0.948323C6.35336 0.738775 6.36224 0.390629 6.14396 0.170632C5.92596 -0.0490903 5.56331 -0.0578903 5.33385 0.151657L0.335729 4.7221C0.119453 4.93 0 5.2061 0 5.50007C0 5.79376 0.119453 6.07014 0.345755 6.28711L5.33414 10.8482C5.445 10.9497 5.58708 11 5.72917 11C5.88042 11 6.03167 10.9428 6.14424 10.8292C6.36253 10.6092 6.35365 10.2614 6.12448 10.0518L1.72964 6.05006H13.1771C13.4933 6.05006 13.75 5.80366 13.75 5.50007C13.75 5.19647 13.4933 4.95007 13.1771 4.95007Z" fill="black"/>
</svg>
