<svg width="136" height="52" viewBox="0 0 136 52" fill="none" xmlns="http://www.w3.org/2000/svg">
<path fill-rule="evenodd" clip-rule="evenodd" d="M105.331 51.018V3.42045C105.331 1.53139 106.862 0 108.751 0C110.64 0 112.171 1.53139 112.171 3.42046V51.018H105.331Z" fill="#3A2F2F"/>
<path fill-rule="evenodd" clip-rule="evenodd" d="M94.3305 51.0182V19.5816C94.3305 17.6925 95.8619 16.1611 97.751 16.1611C99.64 16.1611 101.171 17.6925 101.171 19.5816V51.0182H94.3305Z" fill="black"/>
<path fill-rule="evenodd" clip-rule="evenodd" d="M81.7678 51.0183V10.0752C81.7678 8.18617 83.2992 6.65479 85.1882 6.65479C87.0773 6.65479 88.6087 8.18618 88.6087 10.0752V51.0183H81.7678Z" fill="#3A2F2F"/>
<path fill-rule="evenodd" clip-rule="evenodd" d="M70.7678 51.0185V29.0884C70.7678 27.1994 72.2992 25.668 74.1882 25.668C76.0773 25.668 77.6087 27.1994 77.6087 29.0884V51.0185H70.7678Z" fill="black"/>
<path fill-rule="evenodd" clip-rule="evenodd" d="M58.205 51.018V16.4126C58.205 14.5236 59.7364 12.9922 61.6255 12.9922C63.5146 12.9922 65.0459 14.5236 65.0459 16.4126V51.018H58.205Z" fill="#3A2F2F"/>
<path fill-rule="evenodd" clip-rule="evenodd" d="M47.205 51.0179V25.919C47.205 24.0299 48.7364 22.4985 50.6255 22.4985C52.5146 22.4985 54.0459 24.0299 54.0459 25.919V51.0179H47.205Z" fill="black"/>
<path fill-rule="evenodd" clip-rule="evenodd" d="M34.6423 51.0182V6.90629C34.6423 5.01723 36.1737 3.48584 38.0627 3.48584C39.9518 3.48584 41.4832 5.01723 41.4832 6.9063V51.0182H34.6423Z" fill="#3A2F2F"/>
<path fill-rule="evenodd" clip-rule="evenodd" d="M23.6423 51.0184V13.2442C23.6423 11.3551 25.1737 9.82373 27.0627 9.82373C28.9518 9.82373 30.4832 11.3551 30.4832 13.2442V51.0184H23.6423Z" fill="black"/>
<path fill-rule="evenodd" clip-rule="evenodd" d="M128.814 51.018L128.814 3.5C128.814 1.567 130.381 0 132.314 0C134.247 0 135.814 1.567 135.814 3.5V51.018H128.814Z" fill="#3A2F2F"/>
<path fill-rule="evenodd" clip-rule="evenodd" d="M117.814 51.0181L117.814 29.1675C117.814 27.2345 119.381 25.6675 121.314 25.6675C123.247 25.6675 124.814 27.2345 124.814 29.1675V51.0181H117.814Z" fill="black"/>
<path fill-rule="evenodd" clip-rule="evenodd" d="M11.0795 51.0179V13.2437C11.0795 11.3546 12.6109 9.82324 14.5 9.82324C16.3891 9.82324 17.9205 11.3546 17.9205 13.2437V51.0179H11.0795Z" fill="#3A2F2F"/>
<path fill-rule="evenodd" clip-rule="evenodd" d="M0.0795455 51.0181V29.0879C0.0795455 27.1989 1.61093 25.6675 3.5 25.6675C5.38907 25.6675 6.92045 27.1989 6.92045 29.0879V51.0181H0.0795455Z" fill="black"/>
</svg>
