<svg width="20" height="20" viewBox="0 0 20 20" fill="none" xmlns="http://www.w3.org/2000/svg">
<g clip-path="url(#clip0_8001_4069)">
<path d="M2.78817 13.4984L13.479 2.80675M15.5265 9.21342L13.6932 11.0468M12.129 12.5918L11.3132 13.4076M3.33317 18.3334H16.6665M2.64567 13.4509C2.33525 13.1406 2.08899 12.7722 1.92099 12.3667C1.75298 11.9612 1.6665 11.5265 1.6665 11.0876C1.6665 10.6487 1.75298 10.214 1.92099 9.80851C2.08899 9.403 2.33525 9.03457 2.64567 8.72425L8.72401 2.64592C9.03433 2.33549 9.40276 2.08924 9.80827 1.92123C10.2138 1.75322 10.6484 1.66675 11.0873 1.66675C11.5263 1.66675 11.9609 1.75322 12.3664 1.92123C12.7719 2.08924 13.1404 2.33549 13.4507 2.64592L17.354 6.54925C17.6644 6.85957 17.9107 7.228 18.0787 7.63351C18.2467 8.03902 18.3332 8.47365 18.3332 8.91258C18.3332 9.35152 18.2467 9.78615 18.0787 10.1917C17.9107 10.5972 17.6644 10.9656 17.354 11.2759L11.2757 17.3543C10.9654 17.6647 10.5969 17.9109 10.1914 18.0789C9.78591 18.2469 9.35127 18.3334 8.91234 18.3334C8.47341 18.3334 8.03877 18.2469 7.63327 18.0789C7.22776 17.9109 6.85933 17.6647 6.54901 17.3543L2.64567 13.4509Z" stroke="#727272" stroke-width="1.5" stroke-linecap="round" stroke-linejoin="round"/>
</g>
<defs>
<clipPath id="clip0_8001_4069">
<rect width="20" height="20" fill="white"/>
</clipPath>
</defs>
</svg>
