<svg width="78" height="40" viewBox="0 0 78 40" fill="none" xmlns="http://www.w3.org/2000/svg">
<path d="M36.3333 8H28.3333C27.9797 8 27.6406 8.14048 27.3905 8.39052C27.1405 8.64057 27 8.97971 27 9.33333V17.3333C27 17.687 27.1405 18.0261 27.3905 18.2761C27.6406 18.5262 27.9797 18.6667 28.3333 18.6667H36.3333C36.687 18.6667 37.0261 18.5262 37.2761 18.2761C37.5262 18.0261 37.6667 17.687 37.6667 17.3333V9.33333C37.6667 8.97971 37.5262 8.64057 37.2761 8.39052C37.0261 8.14048 36.687 8 36.3333 8ZM49.6667 21.3333H41.6667C41.313 21.3333 40.9739 21.4738 40.7239 21.7239C40.4738 21.9739 40.3333 22.313 40.3333 22.6667V30.6667C40.3333 31.0203 40.4738 31.3594 40.7239 31.6095C40.9739 31.8595 41.313 32 41.6667 32H49.6667C50.0203 32 50.3594 31.8595 50.6095 31.6095C50.8595 31.3594 51 31.0203 51 30.6667V22.6667C51 22.313 50.8595 21.9739 50.6095 21.7239C50.3594 21.4738 50.0203 21.3333 49.6667 21.3333ZM45.6667 8C42.7253 8 40.3333 10.392 40.3333 13.3333C40.3333 16.2747 42.7253 18.6667 45.6667 18.6667C48.608 18.6667 51 16.2747 51 13.3333C51 10.392 48.608 8 45.6667 8ZM32.3333 21.3333C29.392 21.3333 27 23.7253 27 26.6667C27 29.608 29.392 32 32.3333 32C35.2747 32 37.6667 29.608 37.6667 26.6667C37.6667 23.7253 35.2747 21.3333 32.3333 21.3333Z" fill="black"/>
</svg>
