<svg width="47" height="46" viewBox="0 0 47 46" fill="none" xmlns="http://www.w3.org/2000/svg">
<path d="M34.6185 9H12.0516C11.5075 9 10.9857 9.23416 10.6009 9.65096C10.2162 10.0678 10 10.6331 10 11.2225V33.4475C9.99767 33.8713 10.1083 34.2868 10.3187 34.6441C10.5291 35.0015 10.8303 35.2853 11.1861 35.4616C11.4572 35.5984 11.7525 35.6695 12.0516 35.67C12.5332 35.6686 12.9987 35.4826 13.3658 35.1449L13.3774 35.1352L17.5651 31.225H34.6185C35.1626 31.225 35.6844 30.9908 36.0691 30.574C36.4539 30.1572 36.67 29.5919 36.67 29.0025V11.2225C36.67 10.6331 36.4539 10.0678 36.0691 9.65096C35.6844 9.23416 35.1626 9 34.6185 9ZM27.4381 23.4463H19.2319C18.9599 23.4463 18.699 23.3292 18.5066 23.1208C18.3143 22.9124 18.2062 22.6297 18.2062 22.335C18.2062 22.0403 18.3143 21.7576 18.5066 21.5492C18.699 21.3408 18.9599 21.2238 19.2319 21.2238H27.4381C27.7101 21.2238 27.971 21.3408 28.1634 21.5492C28.3558 21.7576 28.4639 22.0403 28.4639 22.335C28.4639 22.6297 28.3558 22.9124 28.1634 23.1208C27.971 23.3292 27.7101 23.4463 27.4381 23.4463ZM27.4381 19.0013H19.2319C18.9599 19.0013 18.699 18.8842 18.5066 18.6758C18.3143 18.4674 18.2062 18.1847 18.2062 17.89C18.2062 17.5953 18.3143 17.3126 18.5066 17.1042C18.699 16.8958 18.9599 16.7788 19.2319 16.7788H27.4381C27.7101 16.7788 27.971 16.8958 28.1634 17.1042C28.3558 17.3126 28.4639 17.5953 28.4639 17.89C28.4639 18.1847 28.3558 18.4674 28.1634 18.6758C27.971 18.8842 27.7101 19.0013 27.4381 19.0013Z" fill="#201E43"/>
</svg>
