<svg width="78" height="40" viewBox="0 0 78 40" fill="none" xmlns="http://www.w3.org/2000/svg">
<path fill-rule="evenodd" clip-rule="evenodd" d="M40.8587 31.235L41.5362 30.09C42.0612 29.2025 42.3238 28.7575 42.7463 28.5125C43.1688 28.2662 43.7 28.2575 44.7625 28.2387C46.3325 28.2125 47.3163 28.1162 48.1413 27.7737C48.8995 27.4597 49.5885 26.9993 50.1689 26.4189C50.7493 25.8385 51.2097 25.1495 51.5237 24.3913C52 23.2438 52 21.7875 52 18.875V17.625C52 13.5337 52 11.4875 51.0788 9.985C50.5637 9.144 49.8569 8.43681 49.0163 7.92125C47.5125 7 45.4663 7 41.375 7H37.625C33.5337 7 31.4875 7 29.985 7.92125C29.144 8.4363 28.4368 9.14306 27.9212 9.98375C27 11.4875 27 13.535 27 17.625V18.875C27 21.7875 27 23.2438 27.475 24.3913C27.7892 25.1497 28.2498 25.8387 28.8304 26.4191C29.411 26.9995 30.1002 27.4598 30.8587 27.7737C31.6837 28.1162 32.6675 28.2112 34.2375 28.2387C35.3 28.2575 35.8312 28.2662 36.2537 28.5125C36.675 28.7575 36.9388 29.2013 37.4638 30.09L38.1413 31.235C38.745 32.255 40.2537 32.255 40.8587 31.235ZM44.5 19.5C44.8315 19.5 45.1495 19.3683 45.3839 19.1339C45.6183 18.8995 45.75 18.5815 45.75 18.25C45.75 17.9185 45.6183 17.6005 45.3839 17.3661C45.1495 17.1317 44.8315 17 44.5 17C44.1685 17 43.8505 17.1317 43.6161 17.3661C43.3817 17.6005 43.25 17.9185 43.25 18.25C43.25 18.5815 43.3817 18.8995 43.6161 19.1339C43.8505 19.3683 44.1685 19.5 44.5 19.5ZM40.75 18.25C40.75 18.5815 40.6183 18.8995 40.3839 19.1339C40.1495 19.3683 39.8315 19.5 39.5 19.5C39.1685 19.5 38.8505 19.3683 38.6161 19.1339C38.3817 18.8995 38.25 18.5815 38.25 18.25C38.25 17.9185 38.3817 17.6005 38.6161 17.3661C38.8505 17.1317 39.1685 17 39.5 17C39.8315 17 40.1495 17.1317 40.3839 17.3661C40.6183 17.6005 40.75 17.9185 40.75 18.25ZM34.5 19.5C34.8315 19.5 35.1495 19.3683 35.3839 19.1339C35.6183 18.8995 35.75 18.5815 35.75 18.25C35.75 17.9185 35.6183 17.6005 35.3839 17.3661C35.1495 17.1317 34.8315 17 34.5 17C34.1685 17 33.8505 17.1317 33.6161 17.3661C33.3817 17.6005 33.25 17.9185 33.25 18.25C33.25 18.5815 33.3817 18.8995 33.6161 19.1339C33.8505 19.3683 34.1685 19.5 34.5 19.5Z" fill="black"/>
</svg>
