<svg width="32" height="32" viewBox="0 0 32 32" fill="none" xmlns="http://www.w3.org/2000/svg">
<circle cx="16" cy="16" r="16" fill="#EFEFEF"/>
<path d="M14.8033 11.51V13.5644C14.8087 13.8146 14.7384 14.0606 14.6017 14.2702C14.4649 14.4798 14.2681 14.6433 14.0369 14.7392C13.8834 14.8031 13.7188 14.8362 13.5524 14.8366H11.4941C11.162 14.8366 10.8434 14.7054 10.6077 14.4715C10.3719 14.2377 10.2381 13.9202 10.2354 13.5881V11.5337C10.2351 11.3685 10.2676 11.2048 10.3308 11.0521C10.394 10.8995 10.4868 10.7608 10.6037 10.644C10.7207 10.5273 10.8595 10.4348 11.0123 10.3719C11.1651 10.309 11.3289 10.2768 11.4941 10.2773H13.5524C13.8804 10.2793 14.1947 10.4093 14.4283 10.6395C14.6619 10.8697 14.7965 11.182 14.8033 11.51ZM14.8033 17.4435V19.4979C14.8037 19.8303 14.6722 20.1492 14.4377 20.3848C14.2032 20.6203 13.8848 20.7532 13.5524 20.7543H11.4941C11.1607 20.7543 10.8409 20.622 10.6049 20.3864C10.3689 20.1509 10.236 19.8313 10.2354 19.4979V17.4435C10.237 17.1111 10.3705 16.793 10.6065 16.5589C10.8425 16.3249 11.1617 16.194 11.4941 16.1951H13.5524C13.8838 16.1951 14.2016 16.3265 14.4361 16.5606C14.6706 16.7946 14.8026 17.1122 14.8033 17.4435ZM20.7724 11.51V13.5644C20.7771 13.8941 20.6519 14.2124 20.4237 14.4505C20.1956 14.6885 19.8829 14.8272 19.5533 14.8366H17.5029C17.1708 14.8366 16.8522 14.7054 16.6164 14.4715C16.3806 14.2377 16.2468 13.9202 16.2441 13.5881V11.5337C16.2439 11.3685 16.2763 11.2048 16.3395 11.0521C16.4028 10.8995 16.4955 10.7608 16.6125 10.644C16.7294 10.5273 16.8683 10.4348 17.0211 10.3719C17.1739 10.309 17.3376 10.2768 17.5029 10.2773H19.5533C19.8757 10.2874 20.182 10.4209 20.4089 10.6503C20.6358 10.8797 20.7659 11.1874 20.7724 11.51ZM20.7724 17.4594V19.5137C20.773 19.8407 20.6459 20.155 20.4182 20.3897C20.1904 20.6243 19.8801 20.7608 19.5533 20.7701H17.5029C17.1694 20.7701 16.8496 20.6378 16.6136 20.4023C16.3776 20.1667 16.2447 19.8472 16.2441 19.5137V17.4594C16.246 17.127 16.3795 16.809 16.6155 16.575C16.8514 16.341 17.1705 16.21 17.5029 16.2109H19.5533C19.8784 16.2211 20.187 16.3568 20.4143 16.5896C20.6416 16.8223 20.7699 17.134 20.7724 17.4594Z" fill="#201E43"/>
<path d="M22.8229 13.6751C22.6662 13.6731 22.5164 13.61 22.4056 13.4992C22.2947 13.3885 22.2314 13.2389 22.2291 13.0822V10.6407C22.2348 10.3933 22.19 10.1473 22.0974 9.91785C22.0049 9.68836 21.8665 9.48014 21.6908 9.30592C21.343 8.96198 20.8737 8.76887 20.3845 8.76838H17.9699C17.8127 8.76838 17.662 8.70604 17.5507 8.59503C17.4394 8.48402 17.3766 8.33341 17.3762 8.17621C17.3764 8.01888 17.4391 7.86806 17.5504 7.75688C17.6617 7.6457 17.8126 7.58325 17.9699 7.58325H20.4083C21.2105 7.60347 21.9726 7.93845 22.5299 8.51584C22.8119 8.79633 23.0354 9.12994 23.1876 9.49738C23.3398 9.86482 23.4177 10.2588 23.4166 10.6565V13.098C23.4123 13.2526 23.3478 13.3994 23.2369 13.5071C23.1261 13.6149 22.9775 13.6752 22.8229 13.6751ZM20.3845 23.4166H17.9699C17.8127 23.4166 17.662 23.3542 17.5507 23.2432C17.4394 23.1322 17.3766 22.9816 17.3762 22.8244C17.3764 22.6671 17.4391 22.5163 17.5504 22.4051C17.6617 22.2939 17.8126 22.2315 17.9699 22.2315H20.4083C20.7734 22.2285 21.1293 22.1169 21.4307 21.9107C21.732 21.7046 21.9651 21.4133 22.1001 21.074C22.1896 20.8493 22.2335 20.609 22.2291 20.3671V17.9493C22.2293 17.792 22.292 17.6412 22.4033 17.53C22.5146 17.4188 22.6655 17.3564 22.8229 17.3564C22.9802 17.3564 23.1311 17.4188 23.2424 17.53C23.3538 17.6412 23.4164 17.792 23.4166 17.9493V20.3671C23.4181 20.9665 23.2409 21.5528 22.9078 22.0511C22.5746 22.5494 22.1004 22.9372 21.5459 23.1648C21.1778 23.316 20.7827 23.3944 20.3845 23.3928V23.4166ZM13.0616 23.4166H10.6233C10.2229 23.4163 9.82658 23.3372 9.45683 23.1837C9.08709 23.0302 8.7512 22.8053 8.46836 22.522C8.18614 22.239 7.96266 21.903 7.81076 21.5333C7.65886 21.1636 7.58156 20.7675 7.58328 20.3679V17.9501C7.58349 17.7928 7.64614 17.642 7.75747 17.5308C7.86879 17.4196 8.01969 17.3572 8.17703 17.3572C8.33437 17.3572 8.48527 17.4196 8.5966 17.5308C8.70792 17.642 8.77057 17.7928 8.77078 17.9501V20.3679C8.77267 20.8575 8.96882 21.3264 9.31617 21.6715C9.66351 22.0166 10.1336 22.2098 10.6233 22.2085H13.0616C13.2189 22.2085 13.3699 22.2709 13.4812 22.3821C13.5925 22.4933 13.6552 22.6441 13.6554 22.8015C13.6555 22.8794 13.6402 22.9566 13.6103 23.0286C13.5805 23.1006 13.5368 23.1659 13.4816 23.221C13.4264 23.276 13.3609 23.3196 13.2888 23.3492C13.2168 23.3788 13.1395 23.3939 13.0616 23.3936V23.4166ZM8.17703 13.6751C8.02033 13.6731 7.87061 13.61 7.75973 13.4992C7.64884 13.3885 7.58554 13.2389 7.58328 13.0822V10.6407C7.58538 9.84284 7.90432 9.07852 8.46995 8.51584C9.04087 7.95016 9.81166 7.63217 10.6154 7.63075H13.0537C13.211 7.63075 13.3619 7.6932 13.4733 7.80438C13.5846 7.91556 13.6472 8.06638 13.6474 8.22371C13.647 8.38091 13.5843 8.53152 13.473 8.64253C13.3617 8.75354 13.2109 8.81588 13.0537 8.81588H10.6154C10.1257 8.8144 9.65541 9.00748 9.30802 9.35264C8.96063 9.6978 8.76454 10.1668 8.76286 10.6565V13.098C8.75858 13.2512 8.69522 13.3968 8.58603 13.5044C8.47685 13.612 8.33029 13.6731 8.17703 13.6751Z" fill="#201E43"/>
</svg>
