<svg width="32" height="32" viewBox="0 0 32 32" fill="none" xmlns="http://www.w3.org/2000/svg">
<circle cx="16" cy="16" r="16" fill="#EFEFEF"/>
<path d="M20.4445 8H19.5556C19.0223 8 18.6667 8.35556 18.6667 8.88889C18.6667 9.42222 19.0223 9.77778 19.5556 9.77778H20.4445C21.4223 9.77778 22.2223 10.5778 22.2223 11.5556V12.5333C22.2223 13.0667 22.5779 13.4222 23.1112 13.4222C23.6445 13.4222 24.0001 13.0667 24.0001 12.5333V11.5556C24.0001 9.6 22.4001 8 20.4445 8Z" fill="black"/>
<path d="M23.1112 18.6666C22.5779 18.6666 22.2223 19.0222 22.2223 19.5555V20.4444C22.2223 21.4222 21.4223 22.2222 20.4445 22.2222H19.5556C19.0223 22.2222 18.6667 22.5777 18.6667 23.1111C18.6667 23.6444 19.0223 24 19.5556 24H20.4445C22.4001 24 24.0001 22.4 24.0001 20.4444V19.5555C24.0001 19.0222 23.6445 18.6666 23.1112 18.6666Z" fill="black"/>
<path d="M12.4444 22.2222H11.5556C10.5778 22.2222 9.77778 21.4222 9.77778 20.4444V19.5555C9.77778 19.0222 9.42222 18.6666 8.88889 18.6666C8.35556 18.6666 8 19.0222 8 19.5555V20.4444C8 22.4 9.6 24 11.5556 24H12.4444C12.9778 24 13.3333 23.6444 13.3333 23.1111C13.3333 22.5777 12.9778 22.2222 12.4444 22.2222Z" fill="black"/>
<path d="M8.88889 13.3333C9.42222 13.3333 9.77778 12.9778 9.77778 12.4444V11.5556C9.77778 10.5778 10.5778 9.77778 11.5556 9.77778H12.4444C12.9778 9.77778 13.3333 9.42222 13.3333 8.88889C13.3333 8.35556 12.9778 8 12.4444 8H11.5556C9.6 8 8 9.6 8 11.5556V12.4444C8 12.8889 8.35556 13.3333 8.88889 13.3333Z" fill="black"/>
<path d="M16.0001 12.4444C16.0001 11.4666 15.2001 10.6666 14.2223 10.6666H12.4445C11.4667 10.6666 10.6667 11.4666 10.6667 12.4444V14.2222C10.6667 15.2 11.4667 16 12.4445 16H14.2223C15.2001 16 16.0001 15.2 16.0001 14.2222V12.4444ZM12.4445 14.2222V12.4444H14.2223V14.2222H12.4445Z" fill="black"/>
<path d="M21.3333 19.5556V17.7778C21.3333 16.8 20.5333 16 19.5556 16H17.7778C16.8 16 16 16.8 16 17.7778V19.5556C16 20.5333 16.8 21.3333 17.7778 21.3333H19.5556C20.5333 21.3333 21.3333 20.5333 21.3333 19.5556ZM17.7778 17.7778H19.5556V19.5556H17.7778V17.7778Z" fill="black"/>
<path d="M17.7778 15.1111H18.6667C19.2 15.1111 19.5556 14.7555 19.5556 14.2222V12.4444H20.4445C20.9778 12.4444 21.3334 12.0888 21.3334 11.5555C21.3334 11.0222 20.9778 10.6666 20.4445 10.6666H18.6667C18.1334 10.6666 17.7778 11.0222 17.7778 11.5555V13.3333C17.2445 13.3333 16.8889 13.6888 16.8889 14.2222C16.8889 14.7555 17.2445 15.1111 17.7778 15.1111Z" fill="black"/>
<path d="M14.2223 16.8889H11.5556C11.0223 16.8889 10.6667 17.2445 10.6667 17.7778C10.6667 18.3111 11.0223 18.6667 11.5556 18.6667H13.3334V20.4445C13.3334 20.9778 13.689 21.3334 14.2223 21.3334C14.7556 21.3334 15.1112 20.9778 15.1112 20.4445V17.7778C15.1112 17.2445 14.7556 16.8889 14.2223 16.8889Z" fill="black"/>
</svg>
