<svg width="96" height="96" viewBox="0 0 96 96" fill="none" xmlns="http://www.w3.org/2000/svg">
<g filter="url(#filter0_d_3542_2324)">
<circle cx="48" cy="44" r="36" fill="#202020"/>
</g>
<path d="M58.3333 36.3333V32.3333C58.3333 31.9797 58.1929 31.6406 57.9428 31.3905C57.6928 31.1405 57.3536 31 57 31H39.6667C38.9594 31 38.2811 31.281 37.781 31.781C37.281 32.2811 37 32.9594 37 33.6667M37 33.6667C37 34.3739 37.281 35.0522 37.781 35.5523C38.2811 36.0524 38.9594 36.3333 39.6667 36.3333H59.6667C60.0203 36.3333 60.3594 36.4738 60.6095 36.7239C60.8595 36.9739 61 37.313 61 37.6667V43M37 33.6667V52.3333C37 53.0406 37.281 53.7189 37.781 54.219C38.2811 54.719 38.9594 55 39.6667 55H59.6667C60.0203 55 60.3594 54.8595 60.6095 54.6095C60.8595 54.3594 61 54.0203 61 53.6667V48.3333M61 43H57C56.2928 43 55.6145 43.281 55.1144 43.781C54.6143 44.2811 54.3333 44.9594 54.3333 45.6667C54.3333 46.3739 54.6143 47.0522 55.1144 47.5523C55.6145 48.0524 56.2928 48.3333 57 48.3333H61M61 43C61.3536 43 61.6928 43.1405 61.9428 43.3905C62.1929 43.6406 62.3333 43.9797 62.3333 44.3333V47C62.3333 47.3536 62.1929 47.6928 61.9428 47.9428C61.6928 48.1929 61.3536 48.3333 61 48.3333" stroke="white" stroke-width="2" stroke-linecap="round" stroke-linejoin="round"/>
<defs>
<filter id="filter0_d_3542_2324" x="0" y="0" width="96" height="96" filterUnits="userSpaceOnUse" color-interpolation-filters="sRGB">
<feFlood flood-opacity="0" result="BackgroundImageFix"/>
<feColorMatrix in="SourceAlpha" type="matrix" values="0 0 0 0 0 0 0 0 0 0 0 0 0 0 0 0 0 0 127 0" result="hardAlpha"/>
<feOffset dy="4"/>
<feGaussianBlur stdDeviation="6"/>
<feComposite in2="hardAlpha" operator="out"/>
<feColorMatrix type="matrix" values="0 0 0 0 0 0 0 0 0 0 0 0 0 0 0 0 0 0 0.2 0"/>
<feBlend mode="normal" in2="BackgroundImageFix" result="effect1_dropShadow_3542_2324"/>
<feBlend mode="normal" in="SourceGraphic" in2="effect1_dropShadow_3542_2324" result="shape"/>
</filter>
</defs>
</svg>
