<svg width="20" height="20" viewBox="0 0 20 20" fill="none" xmlns="http://www.w3.org/2000/svg">
<path d="M7.50008 10.8334C7.50064 11.069 7.58064 11.2668 7.74008 11.4268C7.89953 11.5868 8.0973 11.6668 8.33341 11.6668C8.56897 11.6673 8.76675 11.5876 8.92675 11.4276M7.50008 10.8334H8.00008C8.00008 10.8332 8.00008 10.833 8.00008 10.8328M7.50008 10.8334L8.00008 10.8322C8.00008 10.8324 8.00008 10.8326 8.00008 10.8328M7.50008 10.8334L8.00008 10.8328M8.00008 10.8328C8.00044 10.9424 8.03235 11.0117 8.09425 11.0738C8.15524 11.135 8.2235 11.1668 8.33341 11.1668H8.33459C8.44322 11.167 8.51147 11.1358 8.57319 11.074L8.92675 11.4276M8.00008 10.8328C8.00023 9.10175 8.59535 7.65359 9.79113 6.45781C10.9871 5.26187 12.4354 4.66675 14.1667 4.66675C14.2772 4.66675 14.3463 4.69864 14.408 4.76009C14.4686 4.82053 14.5003 4.88847 14.5001 4.99891C14.4998 5.11067 14.4675 5.17977 14.4065 5.2407C14.3457 5.30157 14.2772 5.33342 14.1667 5.33342C12.6468 5.33342 11.3386 5.87115 10.2715 6.9382C9.20447 8.00526 8.66675 9.31344 8.66675 10.8334C8.66675 10.9433 8.63498 11.0122 8.57319 11.074L8.92675 11.4276M8.00008 10.8328L8.92675 11.4276M13.8334 16.4584V16.098L13.4915 15.9841C13.0104 15.8237 12.581 15.5813 12.1998 15.2557C11.8222 14.9331 11.5242 14.5472 11.304 14.094L11.2998 14.0856L11.2954 14.0773C11.2627 14.016 11.2627 13.9842 11.2954 13.9229C11.3518 13.8172 11.4316 13.7416 11.5528 13.6881C11.607 13.6652 11.6475 13.6641 11.714 13.6973C11.8165 13.7486 11.8968 13.823 11.9602 13.9329C12.224 14.4095 12.5899 14.7921 13.0531 15.0733C13.5208 15.3573 14.0343 15.5001 14.5834 15.5001H17.0834C17.2994 15.5001 17.4671 15.57 17.6157 15.7186C17.7643 15.8672 17.8338 16.0344 17.8334 16.2493V16.2501V17.5001C17.8334 17.61 17.8016 17.6789 17.7399 17.7407C17.6781 17.8024 17.6099 17.8337 17.5013 17.8334H17.5001H14.1667C14.0568 17.8334 13.9886 17.8017 13.9276 17.7405C13.8657 17.6783 13.8337 17.609 13.8334 17.4993C13.8334 17.4991 13.8334 17.499 13.8334 17.4989L13.8334 16.4584ZM15.8358 13.6668H15.8334C15.5086 13.6668 15.2433 13.557 15.0103 13.324C14.7773 13.091 14.6671 12.8252 14.6667 12.4995C14.6664 12.1747 14.776 11.9101 15.0094 11.6779C15.2442 11.4442 15.5106 11.3342 15.8346 11.3334C16.1568 11.3326 16.4222 11.4418 16.6574 11.677C16.8925 11.9121 17.0013 12.1771 17.0001 12.4983C16.9989 12.8224 16.8888 13.0898 16.6553 13.3261C16.4251 13.5591 16.1616 13.6683 15.8358 13.6668ZM8.50977 4.45397L8.51768 4.45659L8.52566 4.45894C8.65458 4.49685 8.73223 4.55899 8.78783 4.64547C8.82788 4.70778 8.82785 4.73966 8.80765 4.7911C8.60118 5.28765 8.30108 5.70008 7.90576 6.0355C7.49723 6.38213 7.03283 6.64268 6.50863 6.81741L6.16675 6.93137V7.29175V8.33342C6.16675 8.44335 6.13498 8.51225 6.07319 8.57403C6.01147 8.63576 5.94322 8.66701 5.83459 8.66675H5.83341H2.50008C2.39017 8.66675 2.32191 8.63502 2.26092 8.57382C2.19902 8.5117 2.1671 8.4424 2.16675 8.33274V7.08342C2.16675 6.86749 2.23665 6.70029 2.3849 6.55238C2.53374 6.40388 2.70161 6.33382 2.91728 6.33342C2.91737 6.33342 2.91746 6.33342 2.91755 6.33342L5.41675 6.33342C5.96587 6.33342 6.47935 6.19062 6.94707 5.90665C7.41024 5.62543 7.77619 5.24282 8.03995 4.76624C8.10808 4.64801 8.19965 4.55413 8.32162 4.48025C8.39612 4.43513 8.44595 4.43287 8.50977 4.45397ZM4.16916 4.50009V4.50009H4.16675C3.84195 4.50009 3.57664 4.39037 3.34363 4.15737C3.11062 3.92435 3.00048 3.65856 3.00008 3.33281C2.99969 3.00807 3.10935 2.7434 3.34273 2.51121C3.57756 2.27758 3.84389 2.16754 4.16796 2.16675C4.4901 2.16597 4.75552 2.27513 4.99069 2.51031C5.22585 2.74546 5.33459 3.01041 5.33342 3.3316C5.33223 3.65575 5.22211 3.92316 4.98859 4.15948C4.75843 4.3924 4.4949 4.50166 4.16916 4.50009ZM11.6679 11.1668H11.6667C11.5568 11.1668 11.4886 11.135 11.4276 11.0738C11.3657 11.0117 11.3337 10.9424 11.3334 10.8326C11.3336 10.05 11.6066 9.39238 12.1661 8.83281C12.7259 8.27305 13.3837 8.00009 14.1667 8.00009C14.2767 8.00009 14.3456 8.03186 14.4074 8.09364C14.4691 8.15536 14.5003 8.22361 14.5001 8.33224C14.4998 8.44221 14.4679 8.51226 14.4053 8.57526C14.3448 8.6362 14.2777 8.66727 14.1691 8.66675H14.1667C13.5746 8.66675 13.0554 8.88363 12.6362 9.3035C12.2176 9.72289 12.0008 10.2416 12.0001 10.8328V10.8334C12.0001 10.9433 11.9683 11.0122 11.9065 11.074C11.8448 11.1358 11.7766 11.167 11.6679 11.1668Z" stroke="#201E43"/>
</svg>
