<svg width="3" height="11" viewBox="0 0 3 11" fill="none" xmlns="http://www.w3.org/2000/svg">
<path d="M3 5.5C3 5.78202 2.91203 6.05771 2.7472 6.2922C2.58238 6.52669 2.34811 6.70946 2.07402 6.81738C1.79994 6.92531 1.49834 6.95355 1.20736 6.89853C0.916393 6.84351 0.649119 6.7077 0.439341 6.50828C0.229562 6.30886 0.0867005 6.05479 0.0288227 5.77818C-0.0290551 5.50158 0.000649925 5.21488 0.114181 4.95432C0.227713 4.69377 0.419971 4.47107 0.666645 4.31439C0.913319 4.1577 1.20333 4.07407 1.5 4.07407C1.89739 4.07542 2.2781 4.22608 2.5591 4.4932C2.8401 4.76032 2.99859 5.12223 3 5.5ZM1.5 2.85185C1.79667 2.85185 2.08668 2.76822 2.33336 2.61154C2.58003 2.45486 2.77229 2.23216 2.88582 1.9716C2.99935 1.71105 3.02906 1.42434 2.97118 1.14774C2.9133 0.87114 2.77044 0.617064 2.56066 0.417645C2.35088 0.218225 2.08361 0.0824191 1.79264 0.0273994C1.50166 -0.0276203 1.20006 0.000617828 0.925975 0.108543C0.651886 0.216468 0.417618 0.399232 0.252796 0.633725C0.0879741 0.868217 8.07989e-07 1.1439 8.07989e-07 1.42593C0.00141251 1.80369 0.159901 2.1656 0.4409 2.43273C0.721899 2.69985 1.10261 2.85051 1.5 2.85185ZM1.5 8.14815C1.20333 8.14815 0.913319 8.23178 0.666645 8.38846C0.419971 8.54514 0.227713 8.76784 0.114181 9.02839C0.000649925 9.28895 -0.0290551 9.57565 0.0288227 9.85226C0.0867005 10.1289 0.229562 10.3829 0.439341 10.5824C0.649119 10.7818 0.916393 10.9176 1.20736 10.9726C1.49834 11.0276 1.79994 10.9994 2.07402 10.8915C2.34811 10.7835 2.58238 10.6008 2.7472 10.3663C2.91203 10.1318 3 9.85609 3 9.57407C2.99859 9.19631 2.8401 8.8344 2.5591 8.56727C2.2781 8.30015 1.89739 8.14949 1.5 8.14815Z" fill="#909091"/>
</svg>
