<svg width="20" height="20" viewBox="0 0 20 20" fill="none" xmlns="http://www.w3.org/2000/svg">
<mask id="mask0_6575_6472" style="mask-type:alpha" maskUnits="userSpaceOnUse" x="0" y="0" width="20" height="20">
<rect width="20" height="20" fill="#D9D9D9"/>
</mask>
<g mask="url(#mask0_6575_6472)">
<path d="M16.6249 13.2923L15.3333 12.0007C15.9444 11.4312 16.4235 10.7576 16.7708 9.97982C17.118 9.20204 17.2916 8.37565 17.2916 7.50065C17.2916 6.62565 17.118 5.80621 16.7708 5.04232C16.4235 4.27843 15.9444 3.61176 15.3333 3.04232L16.6249 1.70898C17.4027 2.4451 18.0208 3.31315 18.4791 4.31315C18.9374 5.31315 19.1666 6.37565 19.1666 7.50065C19.1666 8.62565 18.9374 9.68815 18.4791 10.6882C18.0208 11.6882 17.4027 12.5562 16.6249 13.2923ZM13.9583 10.6257L12.6249 9.29232C12.8749 9.05621 13.0763 8.78885 13.2291 8.49023C13.3819 8.19162 13.4583 7.86176 13.4583 7.50065C13.4583 7.13954 13.3819 6.80968 13.2291 6.51107C13.0763 6.21246 12.8749 5.9451 12.6249 5.70898L13.9583 4.37565C14.4027 4.77843 14.7499 5.24718 14.9999 5.7819C15.2499 6.31662 15.3749 6.88954 15.3749 7.50065C15.3749 8.11176 15.2499 8.68468 14.9999 9.2194C14.7499 9.75412 14.4027 10.2229 13.9583 10.6257ZM7.49992 10.834C6.58325 10.834 5.79853 10.5076 5.14575 9.85482C4.49297 9.20204 4.16659 8.41732 4.16659 7.50065C4.16659 6.58398 4.49297 5.79926 5.14575 5.14648C5.79853 4.49371 6.58325 4.16732 7.49992 4.16732C8.41659 4.16732 9.20131 4.49371 9.85409 5.14648C10.5069 5.79926 10.8333 6.58398 10.8333 7.50065C10.8333 8.41732 10.5069 9.20204 9.85409 9.85482C9.20131 10.5076 8.41659 10.834 7.49992 10.834ZM0.833252 17.5007V15.1673C0.833252 14.709 0.951308 14.2784 1.18742 13.8757C1.42353 13.4729 1.74992 13.1673 2.16659 12.959C2.87492 12.5979 3.67353 12.2923 4.56242 12.0423C5.45131 11.7923 6.43047 11.6673 7.49992 11.6673C8.56936 11.6673 9.54853 11.7923 10.4374 12.0423C11.3263 12.2923 12.1249 12.5979 12.8333 12.959C13.2499 13.1673 13.5763 13.4729 13.8124 13.8757C14.0485 14.2784 14.1666 14.709 14.1666 15.1673V17.5007H0.833252ZM2.49992 15.834H12.4999V15.1673C12.4999 15.0145 12.4617 14.8757 12.3853 14.7507C12.3089 14.6257 12.2083 14.5284 12.0833 14.459C11.5833 14.209 10.9409 13.959 10.1562 13.709C9.37145 13.459 8.48603 13.334 7.49992 13.334C6.51381 13.334 5.62839 13.459 4.84367 13.709C4.05895 13.959 3.41659 14.209 2.91659 14.459C2.79159 14.5284 2.69089 14.6257 2.6145 14.7507C2.53811 14.8757 2.49992 15.0145 2.49992 15.1673V15.834ZM7.49992 9.16732C7.95825 9.16732 8.35061 9.00412 8.677 8.67773C9.00339 8.35135 9.16659 7.95898 9.16659 7.50065C9.16659 7.04232 9.00339 6.64996 8.677 6.32357C8.35061 5.99718 7.95825 5.83398 7.49992 5.83398C7.04159 5.83398 6.64922 5.99718 6.32284 6.32357C5.99645 6.64996 5.83325 7.04232 5.83325 7.50065C5.83325 7.95898 5.99645 8.35135 6.32284 8.67773C6.64922 9.00412 7.04159 9.16732 7.49992 9.16732Z" fill="#201E43"/>
</g>
</svg>
