<svg width="20" height="20" viewBox="0 0 20 20" fill="none" xmlns="http://www.w3.org/2000/svg">
<path d="M18.3334 7.50008V5.83341C18.3334 5.39139 18.1578 4.96746 17.8453 4.6549C17.5327 4.34234 17.1088 4.16675 16.6667 4.16675H3.33341C2.89139 4.16675 2.46746 4.34234 2.1549 4.6549C1.84234 4.96746 1.66675 5.39139 1.66675 5.83341V14.1667C1.66675 14.6088 1.84234 15.0327 2.1549 15.3453C2.46746 15.6578 2.89139 15.8334 3.33341 15.8334H10.0001M18.3334 7.50008H5.00008M18.3334 7.50008V10.8334M17.5001 13.3751C17.232 13.1015 16.9126 12.8834 16.5602 12.7332C16.2078 12.5831 15.8293 12.5038 15.4462 12.4999C15.0632 12.4961 14.6831 12.5677 14.3278 12.7107C13.9724 12.8537 13.6487 13.0653 13.3751 13.3334C13.1015 13.6015 12.8834 13.9209 12.7332 14.2733C12.5831 14.6257 12.5038 15.0042 12.4999 15.3873C12.4921 16.1609 12.7919 16.9059 13.3334 17.4584M17.5001 13.3751C18.0416 13.9276 18.3414 14.6726 18.3336 15.4462C18.3257 16.2198 18.0109 16.9586 17.4584 17.5001C16.9059 18.0416 16.1609 18.3414 15.3873 18.3336C14.6137 18.3257 13.8749 18.0109 13.3334 17.4584M17.5001 13.3751L13.3334 17.4584" stroke="#201E43" stroke-width="1.25" stroke-linecap="round" stroke-linejoin="round"/>
</svg>
