<svg width="40" height="40" viewBox="0 0 40 40" fill="none" xmlns="http://www.w3.org/2000/svg">
<g style="mix-blend-mode:soft-light">
<circle cx="20" cy="20" r="20" fill="#BBBBBB"/>
</g>
<path d="M27.0374 22.3196L30 25.1596L27.0374 28L26.0811 27.0827L27.4964 25.7258C25.7423 25.5301 24.2081 24.9877 22.8324 24.0825C21.286 23.0637 20.1243 21.7167 19.0005 20.4142C16.8167 17.8817 14.7536 15.4908 10.0009 15.4908V14.1913C12.4171 14.1913 14.4491 14.7562 16.2122 15.9188C17.7577 16.9367 18.9189 18.2837 20.045 19.5863C21.9369 21.7815 23.7414 23.8709 27.2833 24.3883L26.0811 23.239L27.0374 22.3196ZM24.2829 16.5791C25.1883 16.0924 26.1793 15.7728 27.2806 15.6122L26.0811 16.761L27.0383 17.6787L30 14.8404L27.0374 12L26.0811 12.9173L27.4955 14.2734C26.0658 14.4319 24.7878 14.8197 23.6216 15.4468C22.8171 15.8786 21.6896 16.5994 20.0977 18.3403L21.1162 19.1954C21.9275 18.3079 22.9392 17.3017 24.2829 16.5791ZM14.7599 23.4209C13.3959 24.155 11.8387 24.5109 10 24.5109V25.8087C12.077 25.8087 13.8505 25.398 15.4221 24.5528C16.9446 23.7322 18.0577 22.6301 18.9459 21.6593L17.9279 20.8029C17.1171 21.6921 16.1036 22.6983 14.7599 23.4209Z" fill="white"/>
</svg>
