<svg width="20" height="16" viewBox="0 0 20 16" fill="none" xmlns="http://www.w3.org/2000/svg">
<path d="M17.0374 10.3196L20 13.1596L17.0374 16L16.0811 15.0827L17.4964 13.7258C15.7423 13.5301 14.2081 12.9877 12.8324 12.0825C11.286 11.0637 10.1243 9.71669 9.00045 8.41417C6.81667 5.88167 4.7536 3.49082 0.000900922 3.49082V2.19132C2.41712 2.19132 4.4491 2.75621 6.21216 3.91881C7.75766 4.93673 8.91892 6.28374 10.045 7.58627C11.9369 9.78147 13.7414 11.8709 17.2833 12.3883L16.0811 11.239L17.0374 10.3196ZM14.2829 4.57914C15.1883 4.09242 16.1793 3.77284 17.2806 3.61218L16.0811 4.76096L17.0383 5.67869L20 2.84042L17.0374 0L16.0811 0.917296L17.4955 2.27338C16.0658 2.43187 14.7878 2.81969 13.6216 3.44677C12.8171 3.87864 11.6896 4.59944 10.0977 6.34032L11.1162 7.19542C11.9275 6.30792 12.9392 5.30166 14.2829 4.57914ZM4.75991 11.4209C3.39595 12.155 1.83874 12.5109 0 12.5109V13.8087C2.07703 13.8087 3.85045 13.398 5.42207 12.5528C6.94459 11.7322 8.05766 10.6301 8.94595 9.65925L7.92793 8.80285C7.11712 9.69208 6.1036 10.6983 4.75991 11.4209Z" fill="black"/>
</svg>
