<svg width="24" height="24" viewBox="0 0 24 24" fill="none" xmlns="http://www.w3.org/2000/svg">
<path d="M12 22.0002V13.0002M20 13.0002V16.8702C20.0004 17.2477 19.8971 17.618 19.7013 17.9407C19.5056 18.2634 19.2249 18.5262 18.89 18.7002L12.89 21.7802C12.6151 21.9231 12.3098 21.9977 12 21.9977C11.6902 21.9977 11.3849 21.9231 11.11 21.7802L5.11002 18.7002C4.7751 18.5262 4.49445 18.2634 4.2987 17.9407C4.10295 17.618 3.99963 17.2477 4.00002 16.8702V13.0002M15.17 2.21024C15.4191 2.07098 15.6997 1.99787 15.985 1.99787C16.2704 1.99787 16.551 2.07098 16.8 2.21024L21 4.57024C21.2975 4.73844 21.5449 4.9826 21.7171 5.27777C21.8893 5.57294 21.98 5.90853 21.98 6.25024C21.98 6.59196 21.8893 6.92755 21.7171 7.22271C21.5449 7.51788 21.2975 7.76204 21 7.93024L8.82002 14.7902C8.57022 14.9327 8.2876 15.0077 8.00002 15.0077C7.71244 15.0077 7.42982 14.9327 7.18002 14.7902L3.00002 12.4302C2.70257 12.262 2.45511 12.0179 2.28293 11.7227C2.11075 11.4275 2.02002 11.092 2.02002 10.7502C2.02002 10.4085 2.11075 10.0729 2.28293 9.77777C2.45511 9.4826 2.70257 9.23844 3.00002 9.07024L15.17 2.21024ZM21 12.4302C21.2975 12.262 21.5449 12.0179 21.7171 11.7227C21.8893 11.4275 21.98 11.092 21.98 10.7502C21.98 10.4085 21.8893 10.0729 21.7171 9.77777C21.5449 9.4826 21.2975 9.23844 21 9.07024L8.83002 2.20024C8.5819 2.05815 8.30094 1.9834 8.01502 1.9834C7.7291 1.9834 7.44814 2.05815 7.20002 2.20024L3.00002 4.57024C2.70257 4.73844 2.45511 4.9826 2.28293 5.27777C2.11075 5.57294 2.02002 5.90853 2.02002 6.25024C2.02002 6.59196 2.11075 6.92755 2.28293 7.22271C2.45511 7.51788 2.70257 7.76204 3.00002 7.93024L15.18 14.7902C15.428 14.9327 15.709 15.0077 15.995 15.0077C16.281 15.0077 16.562 14.9327 16.81 14.7902L21 12.4302Z" stroke="#727272" stroke-width="2" stroke-linecap="round" stroke-linejoin="round"/>
</svg>
