<svg width="32" height="30" viewBox="0 0 32 30" fill="none" xmlns="http://www.w3.org/2000/svg">
<ellipse cx="16" cy="15" rx="16" ry="15" fill="#201E43"/>
<path d="M26.5009 12.9795H5.50085C5.33067 12.9795 5.17601 12.8808 5.10426 12.7264C5.03251 12.572 5.05679 12.39 5.16638 12.26L10.2029 6.28639C10.286 6.18773 10.4083 6.13086 10.5374 6.13086H21.4654C21.5945 6.13086 21.7168 6.18773 21.7999 6.28639L26.8353 12.26C26.9449 12.3902 26.9692 12.5722 26.8974 12.7264C26.8257 12.8806 26.671 12.9795 26.5009 12.9795ZM6.44213 12.1045H25.56L21.2622 7.00586H10.7408L6.44213 12.1045Z" fill="white"/>
<path d="M16.0012 25.6904L5.1665 12.8238L5.83588 12.2603L16.0012 24.3318L26.1665 12.2603L26.8359 12.8238L16.0012 25.6904Z" fill="white"/>
<path d="M16.001 25.4484C15.8153 25.4484 15.6502 25.3314 15.5885 25.1564L11.1925 12.6874C11.1441 12.5507 11.1669 12.3993 11.2526 12.2825L15.6486 6.30887C15.8131 6.08487 16.1883 6.08487 16.3532 6.30887L20.7501 12.2825C20.8361 12.3991 20.8586 12.5507 20.8102 12.6874L16.4134 25.1564C16.3519 25.3314 16.1867 25.4484 16.001 25.4484ZM12.0946 12.6148L16.0008 23.6953L19.9079 12.6148L16.001 7.30637L12.0946 12.6148Z" fill="white"/>
<path d="M12.0356 12.4647L10.9683 6.49121L10.1069 6.64512L11.1743 12.6186L12.0356 12.4647Z" fill="white"/>
<path d="M21.897 6.64497L21.0356 6.49097L19.9676 12.4646L20.829 12.6186L21.897 6.64497Z" fill="white"/>
</svg>
