<svg width="19" height="18" viewBox="0 0 19 18" fill="none" xmlns="http://www.w3.org/2000/svg">
<path d="M10.238 4.74818C10.6729 4.02969 10.823 3.17443 10.6589 2.35077C10.5825 1.94707 10.4214 1.56417 10.1861 1.22738C9.95075 0.890581 9.64664 0.607559 9.29383 0.397014C7.85766 -0.456157 5.93802 0.112623 5.02797 1.65402L4.37103 2.76314L9.58106 5.85731L10.238 4.74818ZM9.03788 3.77272L6.45277 2.23702C6.97036 1.55448 7.85766 1.30706 8.53166 1.70521C8.70184 1.80842 8.84799 1.94682 8.96031 2.11114C9.07263 2.27545 9.14853 2.46187 9.18291 2.65792C9.25342 3.03551 9.20265 3.42574 9.03788 3.77272Z" fill="black"/>
<path d="M0.429429 15.3359L0.875922 15.5578L5.21856 13.2115L8.8161 7.16256L3.589 4.06555L0 10.1174L0.0227512 14.6193C0.0245053 14.7633 0.062721 14.9046 0.133834 15.03C0.204947 15.1553 0.30664 15.2605 0.429429 15.3359ZM4.1265 6.14444L6.73436 7.69153L4.1265 12.0768L1.53286 13.4789L1.51864 10.5212L4.1265 6.14444Z" fill="black"/>
<path d="M17.4417 15.9702H0.759322C0.33996 15.9702 0 16.3095 0 16.7281C0 17.1467 0.33996 17.486 0.759322 17.486H17.4417C17.861 17.486 18.201 17.1467 18.201 16.7281C18.201 16.3095 17.861 15.9702 17.4417 15.9702Z" fill="black"/>
</svg>
