<svg width="173" height="173" viewBox="0 0 173 173" fill="none" xmlns="http://www.w3.org/2000/svg">
<rect width="173" height="173" fill="#777777"/>
<rect x="-129" y="-380" width="430" height="932" rx="30" fill="white"/>
<rect x="-107" y="-107" width="387" height="318" rx="30" fill="#EFEFEF"/>
<rect x="-84" y="-11" width="341" height="194" rx="20" fill="white"/>
<circle cx="86.5" cy="86.5" r="86.5" fill="#EFEFEF"/>
<path d="M63.125 70C66.457 69.4447 71.7626 69.3048 77.2445 70.5764M77.2445 70.5764C83.4849 72.024 89.9542 75.3003 94 81.875M77.2445 70.5764C81.8747 65.2149 90.5745 60.5 105.875 60.5H108.25M76.1875 48.625C75 48.625 72.625 49.3375 72.625 52.1875C72.625 55.0375 75 55.75 76.1875 55.75C77.375 55.75 79.75 55.0375 79.75 52.1875C79.75 49.3375 77.375 48.625 76.1875 48.625Z" stroke="black" stroke-width="2" stroke-linecap="round" stroke-linejoin="round"/>
<path d="M108.25 60.5C108.25 73.6166 97.6166 84.25 84.5 84.25C71.3832 84.25 60.75 73.6166 60.75 60.5C60.75 47.3832 71.3832 36.75 84.5 36.75" stroke="black" stroke-width="2" stroke-linecap="round" stroke-linejoin="round"/>
<path d="M101.125 36.75V43.875M101.125 43.875V51M101.125 43.875H108.25M101.125 43.875H94" stroke="black" stroke-width="2" stroke-linecap="round" stroke-linejoin="round"/>
<path d="M49.6287 114.112C48.938 114.112 48.3267 113.977 47.7947 113.706C47.2627 113.435 46.8473 113.053 46.5487 112.558C46.2593 112.054 46.1147 111.475 46.1147 110.822V104.368C46.1147 104.321 46.1287 104.284 46.1567 104.256C46.194 104.219 46.236 104.2 46.2827 104.2H47.5707C47.6173 104.2 47.6547 104.219 47.6827 104.256C47.72 104.284 47.7387 104.321 47.7387 104.368V110.85C47.7387 111.401 47.9113 111.849 48.2567 112.194C48.602 112.539 49.0593 112.712 49.6287 112.712C50.198 112.712 50.6553 112.539 51.0007 112.194C51.346 111.849 51.5187 111.401 51.5187 110.85V104.368C51.5187 104.321 51.5327 104.284 51.5607 104.256C51.598 104.219 51.64 104.2 51.6867 104.2H52.9747C53.0213 104.2 53.0587 104.219 53.0867 104.256C53.124 104.284 53.1427 104.321 53.1427 104.368V110.822C53.1427 111.475 52.998 112.054 52.7087 112.558C52.4193 113.053 52.0087 113.435 51.4767 113.706C50.9447 113.977 50.3287 114.112 49.6287 114.112ZM61.011 108.694C61.179 109.17 61.263 109.753 61.263 110.444C61.263 111.107 61.1837 111.676 61.025 112.152C60.8197 112.768 60.4883 113.249 60.031 113.594C59.583 113.939 59.0137 114.112 58.323 114.112C57.6603 114.112 57.1283 113.874 56.727 113.398C56.7083 113.379 56.6897 113.375 56.671 113.384C56.6523 113.393 56.643 113.412 56.643 113.44V116.478C56.643 116.525 56.6243 116.562 56.587 116.59C56.559 116.627 56.5217 116.646 56.475 116.646H55.187C55.1403 116.646 55.0983 116.627 55.061 116.59C55.033 116.562 55.019 116.525 55.019 116.478V107.014C55.019 106.967 55.033 106.93 55.061 106.902C55.0983 106.865 55.1403 106.846 55.187 106.846H56.475C56.5217 106.846 56.559 106.865 56.587 106.902C56.6243 106.93 56.643 106.967 56.643 107.014V107.434C56.643 107.462 56.6523 107.481 56.671 107.49C56.6897 107.499 56.7083 107.49 56.727 107.462C57.1377 106.977 57.6743 106.734 58.337 106.734C58.9997 106.734 59.5597 106.907 60.017 107.252C60.4743 107.597 60.8057 108.078 61.011 108.694ZM59.191 112.124C59.471 111.695 59.611 111.125 59.611 110.416C59.611 109.735 59.499 109.198 59.275 108.806C59.0137 108.349 58.617 108.12 58.085 108.12C57.5997 108.12 57.2357 108.344 56.993 108.792C56.7783 109.156 56.671 109.697 56.671 110.416C56.671 111.153 56.7877 111.713 57.021 112.096C57.2637 112.507 57.6137 112.712 58.071 112.712C58.5657 112.712 58.939 112.516 59.191 112.124ZM63.0096 114C62.9629 114 62.9209 113.986 62.8836 113.958C62.8556 113.921 62.8416 113.879 62.8416 113.832V104.368C62.8416 104.321 62.8556 104.284 62.8836 104.256C62.9209 104.219 62.9629 104.2 63.0096 104.2H64.2976C64.3442 104.2 64.3816 104.219 64.4096 104.256C64.4469 104.284 64.4656 104.321 64.4656 104.368V113.832C64.4656 113.879 64.4469 113.921 64.4096 113.958C64.3816 113.986 64.3442 114 64.2976 114H63.0096ZM69.2331 114.112C68.4958 114.112 67.8611 113.925 67.3291 113.552C66.8064 113.179 66.4378 112.661 66.2231 111.998C66.0644 111.494 65.9851 110.962 65.9851 110.402C65.9851 109.805 66.0598 109.273 66.2091 108.806C66.4238 108.153 66.7971 107.644 67.3291 107.28C67.8611 106.916 68.5004 106.734 69.2471 106.734C69.9564 106.734 70.5678 106.916 71.0811 107.28C71.6038 107.644 71.9724 108.148 72.1871 108.792C72.3551 109.24 72.4391 109.772 72.4391 110.388C72.4391 110.976 72.3598 111.508 72.2011 111.984C71.9864 112.647 71.6178 113.169 71.0951 113.552C70.5724 113.925 69.9518 114.112 69.2331 114.112ZM69.2331 112.712C69.5784 112.712 69.8724 112.614 70.1151 112.418C70.3671 112.222 70.5491 111.947 70.6611 111.592C70.7544 111.284 70.8011 110.892 70.8011 110.416C70.8011 109.912 70.7544 109.52 70.6611 109.24C70.5584 108.885 70.3811 108.615 70.1291 108.428C69.8771 108.232 69.5691 108.134 69.2051 108.134C68.8598 108.134 68.5611 108.232 68.3091 108.428C68.0571 108.615 67.8751 108.885 67.7631 109.24C67.6698 109.567 67.6231 109.959 67.6231 110.416C67.6231 110.873 67.6698 111.265 67.7631 111.592C67.8658 111.947 68.0431 112.222 68.2951 112.418C68.5564 112.614 68.8691 112.712 69.2331 112.712ZM76.7083 106.734C77.2963 106.734 77.8143 106.837 78.2623 107.042C78.7103 107.247 79.0557 107.532 79.2983 107.896C79.541 108.251 79.6623 108.657 79.6623 109.114V113.832C79.6623 113.879 79.6437 113.921 79.6063 113.958C79.5783 113.986 79.541 114 79.4943 114H78.2063C78.1597 114 78.1177 113.986 78.0803 113.958C78.0523 113.921 78.0383 113.879 78.0383 113.832V113.384C78.0383 113.356 78.029 113.342 78.0103 113.342C77.9917 113.333 77.973 113.337 77.9543 113.356C77.497 113.86 76.8343 114.112 75.9663 114.112C75.2663 114.112 74.6877 113.935 74.2303 113.58C73.7823 113.225 73.5583 112.698 73.5583 111.998C73.5583 111.27 73.8103 110.705 74.3143 110.304C74.8277 109.893 75.5463 109.688 76.4703 109.688H77.9683C78.015 109.688 78.0383 109.665 78.0383 109.618V109.282C78.0383 108.918 77.931 108.638 77.7163 108.442C77.5017 108.237 77.1797 108.134 76.7503 108.134C76.3957 108.134 76.1063 108.199 75.8823 108.33C75.6677 108.451 75.5323 108.624 75.4763 108.848C75.4483 108.96 75.383 109.007 75.2803 108.988L73.9223 108.82C73.8757 108.811 73.8337 108.797 73.7963 108.778C73.7683 108.75 73.759 108.717 73.7683 108.68C73.843 108.111 74.1463 107.644 74.6783 107.28C75.2197 106.916 75.8963 106.734 76.7083 106.734ZM76.3723 112.824C76.8297 112.824 77.2217 112.703 77.5483 112.46C77.875 112.217 78.0383 111.909 78.0383 111.536V110.878C78.0383 110.831 78.015 110.808 77.9683 110.808H76.7923C76.2977 110.808 75.9057 110.901 75.6163 111.088C75.3363 111.275 75.1963 111.541 75.1963 111.886C75.1963 112.185 75.3037 112.418 75.5183 112.586C75.7423 112.745 76.027 112.824 76.3723 112.824ZM85.7347 104.368C85.7347 104.321 85.7487 104.284 85.7767 104.256C85.814 104.219 85.856 104.2 85.9027 104.2H87.1907C87.2374 104.2 87.2747 104.219 87.3027 104.256C87.34 104.284 87.3587 104.321 87.3587 104.368V113.832C87.3587 113.879 87.34 113.921 87.3027 113.958C87.2747 113.986 87.2374 114 87.1907 114H85.9027C85.856 114 85.814 113.986 85.7767 113.958C85.7487 113.921 85.7347 113.879 85.7347 113.832V113.412C85.7347 113.384 85.7254 113.365 85.7067 113.356C85.688 113.347 85.6694 113.356 85.6507 113.384C85.24 113.869 84.7034 114.112 84.0407 114.112C83.378 114.112 82.818 113.939 82.3607 113.594C81.9034 113.249 81.572 112.768 81.3667 112.152C81.1987 111.629 81.1147 111.046 81.1147 110.402C81.1147 109.739 81.194 109.17 81.3527 108.694C81.558 108.078 81.8894 107.597 82.3467 107.252C82.804 106.907 83.378 106.734 84.0687 106.734C84.7127 106.734 85.24 106.967 85.6507 107.434C85.6694 107.453 85.688 107.462 85.7067 107.462C85.7254 107.453 85.7347 107.434 85.7347 107.406V104.368ZM85.3987 112.04C85.6134 111.657 85.7207 111.116 85.7207 110.416C85.7207 109.688 85.604 109.133 85.3707 108.75C85.1187 108.339 84.764 108.134 84.3067 108.134C83.8307 108.134 83.4574 108.33 83.1867 108.722C82.9067 109.133 82.7667 109.702 82.7667 110.43C82.7667 111.083 82.8787 111.62 83.1027 112.04C83.364 112.488 83.7607 112.712 84.2927 112.712C84.7687 112.712 85.1374 112.488 85.3987 112.04ZM92.8516 105.866C92.5623 105.866 92.3243 105.773 92.1376 105.586C91.9509 105.399 91.8576 105.161 91.8576 104.872C91.8576 104.583 91.9509 104.345 92.1376 104.158C92.3243 103.971 92.5623 103.878 92.8516 103.878C93.1409 103.878 93.3789 103.971 93.5656 104.158C93.7523 104.345 93.8456 104.583 93.8456 104.872C93.8456 105.161 93.7523 105.399 93.5656 105.586C93.3789 105.773 93.1409 105.866 92.8516 105.866ZM92.1796 114C92.1329 114 92.0909 113.986 92.0536 113.958C92.0256 113.921 92.0116 113.879 92.0116 113.832V107C92.0116 106.953 92.0256 106.916 92.0536 106.888C92.0909 106.851 92.1329 106.832 92.1796 106.832H93.4676C93.5143 106.832 93.5516 106.851 93.5796 106.888C93.6169 106.916 93.6356 106.953 93.6356 107V113.832C93.6356 113.879 93.6169 113.921 93.5796 113.958C93.5516 113.986 93.5143 114 93.4676 114H92.1796ZM103.158 106.734C103.877 106.734 104.437 106.953 104.838 107.392C105.249 107.821 105.454 108.423 105.454 109.198V113.832C105.454 113.879 105.435 113.921 105.398 113.958C105.37 113.986 105.333 114 105.286 114H104.012C103.965 114 103.923 113.986 103.886 113.958C103.858 113.921 103.844 113.879 103.844 113.832V109.534C103.844 109.105 103.727 108.764 103.494 108.512C103.27 108.26 102.967 108.134 102.584 108.134C102.201 108.134 101.889 108.26 101.646 108.512C101.403 108.764 101.282 109.1 101.282 109.52V113.832C101.282 113.879 101.263 113.921 101.226 113.958C101.198 113.986 101.161 114 101.114 114H99.8399C99.7932 114 99.7512 113.986 99.7139 113.958C99.6859 113.921 99.6719 113.879 99.6719 113.832V109.534C99.6719 109.105 99.5552 108.764 99.3219 108.512C99.0885 108.26 98.7805 108.134 98.3979 108.134C98.0432 108.134 97.7492 108.237 97.5159 108.442C97.2919 108.647 97.1612 108.927 97.1239 109.282V113.832C97.1239 113.879 97.1052 113.921 97.0679 113.958C97.0399 113.986 97.0025 114 96.9559 114H95.6679C95.6212 114 95.5792 113.986 95.5419 113.958C95.5139 113.921 95.4999 113.879 95.4999 113.832V107.014C95.4999 106.967 95.5139 106.93 95.5419 106.902C95.5792 106.865 95.6212 106.846 95.6679 106.846H96.9559C97.0025 106.846 97.0399 106.865 97.0679 106.902C97.1052 106.93 97.1239 106.967 97.1239 107.014V107.476C97.1239 107.504 97.1332 107.523 97.1519 107.532C97.1705 107.541 97.1892 107.532 97.2079 107.504C97.4132 107.243 97.6652 107.051 97.9639 106.93C98.2719 106.799 98.6125 106.734 98.9859 106.734C99.4432 106.734 99.8445 106.827 100.19 107.014C100.535 107.201 100.801 107.471 100.988 107.826C101.016 107.863 101.049 107.863 101.086 107.826C101.291 107.453 101.576 107.177 101.94 107C102.304 106.823 102.71 106.734 103.158 106.734ZM109.841 106.734C110.429 106.734 110.947 106.837 111.395 107.042C111.843 107.247 112.189 107.532 112.431 107.896C112.674 108.251 112.795 108.657 112.795 109.114V113.832C112.795 113.879 112.777 113.921 112.739 113.958C112.711 113.986 112.674 114 112.627 114H111.339C111.293 114 111.251 113.986 111.213 113.958C111.185 113.921 111.171 113.879 111.171 113.832V113.384C111.171 113.356 111.162 113.342 111.143 113.342C111.125 113.333 111.106 113.337 111.087 113.356C110.63 113.86 109.967 114.112 109.099 114.112C108.399 114.112 107.821 113.935 107.363 113.58C106.915 113.225 106.691 112.698 106.691 111.998C106.691 111.27 106.943 110.705 107.447 110.304C107.961 109.893 108.679 109.688 109.603 109.688H111.101C111.148 109.688 111.171 109.665 111.171 109.618V109.282C111.171 108.918 111.064 108.638 110.849 108.442C110.635 108.237 110.313 108.134 109.883 108.134C109.529 108.134 109.239 108.199 109.015 108.33C108.801 108.451 108.665 108.624 108.609 108.848C108.581 108.96 108.516 109.007 108.413 108.988L107.055 108.82C107.009 108.811 106.967 108.797 106.929 108.778C106.901 108.75 106.892 108.717 106.901 108.68C106.976 108.111 107.279 107.644 107.811 107.28C108.353 106.916 109.029 106.734 109.841 106.734ZM109.505 112.824C109.963 112.824 110.355 112.703 110.681 112.46C111.008 112.217 111.171 111.909 111.171 111.536V110.878C111.171 110.831 111.148 110.808 111.101 110.808H109.925C109.431 110.808 109.039 110.901 108.749 111.088C108.469 111.275 108.329 111.541 108.329 111.886C108.329 112.185 108.437 112.418 108.651 112.586C108.875 112.745 109.16 112.824 109.505 112.824ZM118.812 107.014C118.812 106.967 118.826 106.93 118.854 106.902C118.891 106.865 118.933 106.846 118.98 106.846H120.268C120.314 106.846 120.352 106.865 120.38 106.902C120.417 106.93 120.436 106.967 120.436 107.014V113.524C120.436 114.691 120.1 115.521 119.428 116.016C118.765 116.52 117.892 116.772 116.81 116.772C116.52 116.772 116.236 116.758 115.956 116.73C115.853 116.721 115.802 116.66 115.802 116.548L115.844 115.4C115.844 115.297 115.909 115.246 116.04 115.246C116.31 115.274 116.553 115.288 116.768 115.288C117.468 115.288 117.981 115.148 118.308 114.868C118.644 114.597 118.812 114.135 118.812 113.482V113.37C118.812 113.342 118.802 113.328 118.784 113.328C118.765 113.319 118.746 113.323 118.728 113.342C118.345 113.753 117.804 113.958 117.104 113.958C116.497 113.958 115.942 113.804 115.438 113.496C114.934 113.188 114.584 112.717 114.388 112.082C114.266 111.643 114.206 111.079 114.206 110.388C114.206 109.613 114.28 109.021 114.43 108.61C114.616 108.041 114.938 107.588 115.396 107.252C115.853 106.907 116.39 106.734 117.006 106.734C117.743 106.734 118.317 106.949 118.728 107.378C118.746 107.406 118.765 107.415 118.784 107.406C118.802 107.397 118.812 107.378 118.812 107.35V107.014ZM118.714 111.62C118.751 111.48 118.774 111.331 118.784 111.172C118.802 111.004 118.812 110.738 118.812 110.374C118.812 110.019 118.802 109.767 118.784 109.618C118.774 109.459 118.746 109.305 118.7 109.156C118.625 108.848 118.471 108.601 118.238 108.414C118.014 108.227 117.724 108.134 117.37 108.134C117.034 108.134 116.749 108.227 116.516 108.414C116.282 108.601 116.114 108.848 116.012 109.156C115.9 109.417 115.844 109.828 115.844 110.388C115.844 110.967 115.89 111.373 115.984 111.606C116.077 111.905 116.245 112.152 116.488 112.348C116.74 112.535 117.038 112.628 117.384 112.628C117.748 112.628 118.042 112.535 118.266 112.348C118.49 112.161 118.639 111.919 118.714 111.62ZM128.151 109.618C128.188 109.851 128.207 110.113 128.207 110.402L128.193 110.836C128.193 110.948 128.137 111.004 128.025 111.004H123.643C123.596 111.004 123.573 111.027 123.573 111.074C123.601 111.382 123.643 111.592 123.699 111.704C123.923 112.376 124.469 112.717 125.337 112.726C125.972 112.726 126.476 112.465 126.849 111.942C126.886 111.886 126.933 111.858 126.989 111.858C127.026 111.858 127.059 111.872 127.087 111.9L127.955 112.614C128.039 112.679 128.053 112.754 127.997 112.838C127.708 113.249 127.32 113.566 126.835 113.79C126.359 114.014 125.827 114.126 125.239 114.126C124.511 114.126 123.89 113.963 123.377 113.636C122.873 113.309 122.504 112.852 122.271 112.264C122.056 111.76 121.949 111.06 121.949 110.164C121.949 109.623 122.005 109.184 122.117 108.848C122.304 108.195 122.654 107.681 123.167 107.308C123.69 106.925 124.315 106.734 125.043 106.734C126.882 106.734 127.918 107.695 128.151 109.618ZM125.043 108.134C124.698 108.134 124.408 108.223 124.175 108.4C123.951 108.568 123.792 108.806 123.699 109.114C123.643 109.273 123.606 109.478 123.587 109.73C123.568 109.777 123.587 109.8 123.643 109.8H126.485C126.532 109.8 126.555 109.777 126.555 109.73C126.536 109.497 126.508 109.319 126.471 109.198C126.387 108.862 126.219 108.601 125.967 108.414C125.724 108.227 125.416 108.134 125.043 108.134Z" fill="#909091"/>
<path d="M38.979 131.604C39.1003 132.024 39.161 132.458 39.161 132.906C39.161 133.345 39.1003 133.76 38.979 134.152C38.783 134.749 38.4237 135.225 37.901 135.58C37.3783 135.925 36.767 136.098 36.067 136.098C35.3763 136.098 34.7743 135.93 34.261 135.594C33.7477 135.249 33.3883 134.787 33.183 134.208C33.1083 134.003 33.0477 133.769 33.001 133.508V133.48C33.001 133.377 33.057 133.326 33.169 133.326H34.499C34.5923 133.326 34.653 133.377 34.681 133.48C34.6903 133.536 34.7137 133.62 34.751 133.732C34.8537 134.04 35.017 134.278 35.241 134.446C35.465 134.614 35.7357 134.698 36.053 134.698C36.3797 134.698 36.6597 134.609 36.893 134.432C37.1263 134.245 37.2897 133.993 37.383 133.676C37.467 133.452 37.509 133.195 37.509 132.906C37.509 132.635 37.4717 132.369 37.397 132.108C37.3317 131.8 37.1823 131.567 36.949 131.408C36.7157 131.24 36.431 131.156 36.095 131.156C35.7777 131.156 35.4883 131.231 35.227 131.38C34.975 131.52 34.8117 131.707 34.737 131.94C34.6997 132.033 34.6343 132.08 34.541 132.08H33.183C33.1363 132.08 33.0943 132.066 33.057 132.038C33.029 132.001 33.015 131.959 33.015 131.912V126.368C33.015 126.321 33.029 126.284 33.057 126.256C33.0943 126.219 33.1363 126.2 33.183 126.2H38.629C38.6757 126.2 38.713 126.219 38.741 126.256C38.7783 126.284 38.797 126.321 38.797 126.368V127.432C38.797 127.479 38.7783 127.521 38.741 127.558C38.713 127.586 38.6757 127.6 38.629 127.6H34.709C34.6623 127.6 34.639 127.623 34.639 127.67L34.625 130.19C34.625 130.227 34.6343 130.251 34.653 130.26C34.6717 130.26 34.6903 130.251 34.709 130.232C35.1477 129.905 35.675 129.742 36.291 129.742C36.9443 129.742 37.509 129.91 37.985 130.246C38.4703 130.573 38.8017 131.025 38.979 131.604ZM51.0474 128.734C51.7661 128.734 52.3261 128.953 52.7274 129.392C53.1381 129.821 53.3434 130.423 53.3434 131.198V135.832C53.3434 135.879 53.3247 135.921 53.2874 135.958C53.2594 135.986 53.2221 136 53.1754 136H51.9014C51.8547 136 51.8127 135.986 51.7754 135.958C51.7474 135.921 51.7334 135.879 51.7334 135.832V131.534C51.7334 131.105 51.6167 130.764 51.3834 130.512C51.1594 130.26 50.8561 130.134 50.4734 130.134C50.0907 130.134 49.7781 130.26 49.5354 130.512C49.2927 130.764 49.1714 131.1 49.1714 131.52V135.832C49.1714 135.879 49.1527 135.921 49.1154 135.958C49.0874 135.986 49.0501 136 49.0034 136H47.7294C47.6827 136 47.6407 135.986 47.6034 135.958C47.5754 135.921 47.5614 135.879 47.5614 135.832V131.534C47.5614 131.105 47.4447 130.764 47.2114 130.512C46.9781 130.26 46.6701 130.134 46.2874 130.134C45.9327 130.134 45.6387 130.237 45.4054 130.442C45.1814 130.647 45.0507 130.927 45.0134 131.282V135.832C45.0134 135.879 44.9947 135.921 44.9574 135.958C44.9294 135.986 44.8921 136 44.8454 136H43.5574C43.5107 136 43.4687 135.986 43.4314 135.958C43.4034 135.921 43.3894 135.879 43.3894 135.832V129.014C43.3894 128.967 43.4034 128.93 43.4314 128.902C43.4687 128.865 43.5107 128.846 43.5574 128.846H44.8454C44.8921 128.846 44.9294 128.865 44.9574 128.902C44.9947 128.93 45.0134 128.967 45.0134 129.014V129.476C45.0134 129.504 45.0227 129.523 45.0414 129.532C45.0601 129.541 45.0787 129.532 45.0974 129.504C45.3027 129.243 45.5547 129.051 45.8534 128.93C46.1614 128.799 46.5021 128.734 46.8754 128.734C47.3327 128.734 47.7341 128.827 48.0794 129.014C48.4247 129.201 48.6907 129.471 48.8774 129.826C48.9054 129.863 48.9381 129.863 48.9754 129.826C49.1807 129.453 49.4654 129.177 49.8294 129C50.1934 128.823 50.5994 128.734 51.0474 128.734ZM61.0211 130.694C61.1797 131.217 61.2591 131.786 61.2591 132.402C61.2591 133.065 61.1704 133.648 60.9931 134.152C60.7877 134.768 60.4564 135.249 59.9991 135.594C59.5417 135.939 58.9817 136.112 58.3191 136.112C57.6657 136.112 57.1291 135.865 56.7091 135.37C56.6904 135.342 56.6717 135.333 56.6531 135.342C56.6344 135.351 56.6251 135.37 56.6251 135.398V135.832C56.6251 135.879 56.6064 135.921 56.5691 135.958C56.5411 135.986 56.5037 136 56.4571 136H55.1691C55.1224 136 55.0804 135.986 55.0431 135.958C55.0151 135.921 55.0011 135.879 55.0011 135.832V126.368C55.0011 126.321 55.0151 126.284 55.0431 126.256C55.0804 126.219 55.1224 126.2 55.1691 126.2H56.4571C56.5037 126.2 56.5411 126.219 56.5691 126.256C56.6064 126.284 56.6251 126.321 56.6251 126.368V129.406C56.6251 129.434 56.6344 129.453 56.6531 129.462C56.6717 129.471 56.6904 129.467 56.7091 129.448C57.1104 128.972 57.6424 128.734 58.3051 128.734C58.9957 128.734 59.5651 128.907 60.0131 129.252C60.4704 129.597 60.8064 130.078 61.0211 130.694ZM59.2571 134.04C59.4811 133.648 59.5931 133.111 59.5931 132.43C59.5931 131.702 59.4531 131.133 59.1731 130.722C58.9211 130.33 58.5477 130.134 58.0531 130.134C57.5957 130.134 57.2457 130.339 57.0031 130.75C56.7697 131.133 56.6531 131.688 56.6531 132.416C56.6531 133.135 56.7604 133.676 56.9751 134.04C57.2177 134.488 57.5817 134.712 58.0671 134.712C58.3284 134.712 58.5617 134.656 58.7671 134.544C58.9724 134.423 59.1357 134.255 59.2571 134.04ZM73.276 128.734C73.9946 128.734 74.5546 128.953 74.956 129.392C75.3666 129.821 75.572 130.423 75.572 131.198V135.832C75.572 135.879 75.5533 135.921 75.516 135.958C75.488 135.986 75.4506 136 75.404 136H74.13C74.0833 136 74.0413 135.986 74.004 135.958C73.976 135.921 73.962 135.879 73.962 135.832V131.534C73.962 131.105 73.8453 130.764 73.612 130.512C73.388 130.26 73.0846 130.134 72.702 130.134C72.3193 130.134 72.0066 130.26 71.764 130.512C71.5213 130.764 71.4 131.1 71.4 131.52V135.832C71.4 135.879 71.3813 135.921 71.344 135.958C71.316 135.986 71.2786 136 71.232 136H69.958C69.9113 136 69.8693 135.986 69.832 135.958C69.804 135.921 69.79 135.879 69.79 135.832V131.534C69.79 131.105 69.6733 130.764 69.44 130.512C69.2066 130.26 68.8986 130.134 68.516 130.134C68.1613 130.134 67.8673 130.237 67.634 130.442C67.41 130.647 67.2793 130.927 67.242 131.282V135.832C67.242 135.879 67.2233 135.921 67.186 135.958C67.158 135.986 67.1206 136 67.074 136H65.786C65.7393 136 65.6973 135.986 65.66 135.958C65.632 135.921 65.618 135.879 65.618 135.832V129.014C65.618 128.967 65.632 128.93 65.66 128.902C65.6973 128.865 65.7393 128.846 65.786 128.846H67.074C67.1206 128.846 67.158 128.865 67.186 128.902C67.2233 128.93 67.242 128.967 67.242 129.014V129.476C67.242 129.504 67.2513 129.523 67.27 129.532C67.2886 129.541 67.3073 129.532 67.326 129.504C67.5313 129.243 67.7833 129.051 68.082 128.93C68.39 128.799 68.7306 128.734 69.104 128.734C69.5613 128.734 69.9626 128.827 70.308 129.014C70.6533 129.201 70.9193 129.471 71.106 129.826C71.134 129.863 71.1666 129.863 71.204 129.826C71.4093 129.453 71.694 129.177 72.058 129C72.422 128.823 72.828 128.734 73.276 128.734ZM79.9593 128.734C80.5473 128.734 81.0653 128.837 81.5133 129.042C81.9613 129.247 82.3066 129.532 82.5493 129.896C82.792 130.251 82.9133 130.657 82.9133 131.114V135.832C82.9133 135.879 82.8946 135.921 82.8573 135.958C82.8293 135.986 82.792 136 82.7453 136H81.4573C81.4106 136 81.3686 135.986 81.3313 135.958C81.3033 135.921 81.2893 135.879 81.2893 135.832V135.384C81.2893 135.356 81.28 135.342 81.2613 135.342C81.2426 135.333 81.224 135.337 81.2053 135.356C80.748 135.86 80.0853 136.112 79.2173 136.112C78.5173 136.112 77.9386 135.935 77.4813 135.58C77.0333 135.225 76.8093 134.698 76.8093 133.998C76.8093 133.27 77.0613 132.705 77.5653 132.304C78.0786 131.893 78.7973 131.688 79.7213 131.688H81.2193C81.266 131.688 81.2893 131.665 81.2893 131.618V131.282C81.2893 130.918 81.182 130.638 80.9673 130.442C80.7526 130.237 80.4306 130.134 80.0013 130.134C79.6466 130.134 79.3573 130.199 79.1333 130.33C78.9186 130.451 78.7833 130.624 78.7273 130.848C78.6993 130.96 78.634 131.007 78.5313 130.988L77.1733 130.82C77.1266 130.811 77.0846 130.797 77.0473 130.778C77.0193 130.75 77.01 130.717 77.0193 130.68C77.094 130.111 77.3973 129.644 77.9293 129.28C78.4706 128.916 79.1473 128.734 79.9593 128.734ZM79.6233 134.824C80.0806 134.824 80.4726 134.703 80.7993 134.46C81.126 134.217 81.2893 133.909 81.2893 133.536V132.878C81.2893 132.831 81.266 132.808 81.2193 132.808H80.0433C79.5486 132.808 79.1566 132.901 78.8673 133.088C78.5873 133.275 78.4473 133.541 78.4473 133.886C78.4473 134.185 78.5546 134.418 78.7693 134.586C78.9933 134.745 79.278 134.824 79.6233 134.824ZM84.1697 136C84.1043 136 84.0577 135.981 84.0297 135.944C84.011 135.897 84.0203 135.846 84.0577 135.79L86.3257 132.458C86.3443 132.43 86.3443 132.402 86.3257 132.374L84.0577 129.056C84.039 129.019 84.0297 128.986 84.0297 128.958C84.0297 128.883 84.0763 128.846 84.1697 128.846H85.5417C85.6257 128.846 85.691 128.883 85.7377 128.958L87.1937 131.114C87.2123 131.133 87.231 131.142 87.2497 131.142C87.2683 131.142 87.2823 131.133 87.2917 131.114L88.7477 128.958C88.7943 128.883 88.8597 128.846 88.9437 128.846H90.4137C90.479 128.846 90.521 128.869 90.5397 128.916C90.5677 128.953 90.563 129 90.5257 129.056L88.2577 132.374C88.2483 132.402 88.2483 132.43 88.2577 132.458L90.5257 135.79C90.5443 135.827 90.5537 135.86 90.5537 135.888C90.5537 135.963 90.507 136 90.4137 136H89.0417C88.9577 136 88.8923 135.963 88.8457 135.888L87.3897 133.732C87.3803 133.713 87.3663 133.704 87.3477 133.704C87.329 133.704 87.3103 133.713 87.2917 133.732L85.8357 135.888C85.789 135.963 85.7237 136 85.6397 136H84.1697ZM98.301 128.832C98.3477 128.832 98.385 128.851 98.413 128.888C98.4503 128.916 98.469 128.953 98.469 129V130.106C98.469 130.153 98.4503 130.195 98.413 130.232C98.385 130.26 98.3477 130.274 98.301 130.274H96.915C96.8683 130.274 96.845 130.297 96.845 130.344V135.832C96.845 135.879 96.8263 135.921 96.789 135.958C96.761 135.986 96.7237 136 96.677 136H95.389C95.3423 136 95.3003 135.986 95.263 135.958C95.235 135.921 95.221 135.879 95.221 135.832V130.344C95.221 130.297 95.1977 130.274 95.151 130.274H94.283C94.2363 130.274 94.1943 130.26 94.157 130.232C94.129 130.195 94.115 130.153 94.115 130.106V129C94.115 128.953 94.129 128.916 94.157 128.888C94.1943 128.851 94.2363 128.832 94.283 128.832H95.151C95.1977 128.832 95.221 128.809 95.221 128.762V128.51C95.221 127.903 95.3003 127.437 95.459 127.11C95.6177 126.774 95.879 126.536 96.243 126.396C96.607 126.256 97.1203 126.191 97.783 126.2H98.273C98.3197 126.2 98.357 126.219 98.385 126.256C98.4223 126.284 98.441 126.321 98.441 126.368V127.348C98.441 127.395 98.4223 127.437 98.385 127.474C98.357 127.502 98.3197 127.516 98.273 127.516H97.909C97.5077 127.516 97.2277 127.595 97.069 127.754C96.9197 127.913 96.845 128.202 96.845 128.622V128.762C96.845 128.809 96.8683 128.832 96.915 128.832H98.301ZM100.765 127.866C100.476 127.866 100.238 127.773 100.051 127.586C99.8643 127.399 99.771 127.161 99.771 126.872C99.771 126.583 99.8643 126.345 100.051 126.158C100.238 125.971 100.476 125.878 100.765 125.878C101.054 125.878 101.292 125.971 101.479 126.158C101.666 126.345 101.759 126.583 101.759 126.872C101.759 127.161 101.666 127.399 101.479 127.586C101.292 127.773 101.054 127.866 100.765 127.866ZM100.093 136C100.046 136 100.004 135.986 99.967 135.958C99.939 135.921 99.925 135.879 99.925 135.832V129C99.925 128.953 99.939 128.916 99.967 128.888C100.004 128.851 100.046 128.832 100.093 128.832H101.381C101.428 128.832 101.465 128.851 101.493 128.888C101.53 128.916 101.549 128.953 101.549 129V135.832C101.549 135.879 101.53 135.921 101.493 135.958C101.465 135.986 101.428 136 101.381 136H100.093ZM103.581 136C103.534 136 103.492 135.986 103.455 135.958C103.427 135.921 103.413 135.879 103.413 135.832V126.368C103.413 126.321 103.427 126.284 103.455 126.256C103.492 126.219 103.534 126.2 103.581 126.2H104.869C104.916 126.2 104.953 126.219 104.981 126.256C105.018 126.284 105.037 126.321 105.037 126.368V135.832C105.037 135.879 105.018 135.921 104.981 135.958C104.953 135.986 104.916 136 104.869 136H103.581ZM112.8 131.618C112.838 131.851 112.856 132.113 112.856 132.402L112.842 132.836C112.842 132.948 112.786 133.004 112.674 133.004H108.292C108.246 133.004 108.222 133.027 108.222 133.074C108.25 133.382 108.292 133.592 108.348 133.704C108.572 134.376 109.118 134.717 109.986 134.726C110.621 134.726 111.125 134.465 111.498 133.942C111.536 133.886 111.582 133.858 111.638 133.858C111.676 133.858 111.708 133.872 111.736 133.9L112.604 134.614C112.688 134.679 112.702 134.754 112.646 134.838C112.357 135.249 111.97 135.566 111.484 135.79C111.008 136.014 110.476 136.126 109.888 136.126C109.16 136.126 108.54 135.963 108.026 135.636C107.522 135.309 107.154 134.852 106.92 134.264C106.706 133.76 106.598 133.06 106.598 132.164C106.598 131.623 106.654 131.184 106.766 130.848C106.953 130.195 107.303 129.681 107.816 129.308C108.339 128.925 108.964 128.734 109.692 128.734C111.531 128.734 112.567 129.695 112.8 131.618ZM109.692 130.134C109.347 130.134 109.058 130.223 108.824 130.4C108.6 130.568 108.442 130.806 108.348 131.114C108.292 131.273 108.255 131.478 108.236 131.73C108.218 131.777 108.236 131.8 108.292 131.8H111.134C111.181 131.8 111.204 131.777 111.204 131.73C111.186 131.497 111.158 131.319 111.12 131.198C111.036 130.862 110.868 130.601 110.616 130.414C110.374 130.227 110.066 130.134 109.692 130.134ZM119.811 136.084C119.223 136.084 118.705 136 118.257 135.832C117.819 135.655 117.478 135.417 117.235 135.118C116.993 134.81 116.871 134.469 116.871 134.096V133.97C116.871 133.923 116.885 133.886 116.913 133.858C116.951 133.821 116.993 133.802 117.039 133.802H118.271C118.318 133.802 118.355 133.821 118.383 133.858C118.421 133.886 118.439 133.923 118.439 133.97V133.998C118.439 134.231 118.565 134.437 118.817 134.614C119.079 134.782 119.405 134.866 119.797 134.866C120.171 134.866 120.474 134.791 120.707 134.642C120.941 134.483 121.057 134.287 121.057 134.054C121.057 133.839 120.959 133.681 120.763 133.578C120.577 133.466 120.269 133.349 119.839 133.228L119.307 133.06C118.831 132.92 118.43 132.771 118.103 132.612C117.777 132.453 117.501 132.239 117.277 131.968C117.053 131.688 116.941 131.333 116.941 130.904C116.941 130.251 117.198 129.733 117.711 129.35C118.225 128.958 118.901 128.762 119.741 128.762C120.311 128.762 120.81 128.855 121.239 129.042C121.669 129.219 122 129.471 122.233 129.798C122.467 130.115 122.583 130.479 122.583 130.89C122.583 130.937 122.565 130.979 122.527 131.016C122.499 131.044 122.462 131.058 122.415 131.058H121.225C121.179 131.058 121.137 131.044 121.099 131.016C121.071 130.979 121.057 130.937 121.057 130.89C121.057 130.647 120.936 130.447 120.693 130.288C120.46 130.12 120.138 130.036 119.727 130.036C119.363 130.036 119.065 130.106 118.831 130.246C118.607 130.377 118.495 130.563 118.495 130.806C118.495 131.03 118.603 131.203 118.817 131.324C119.041 131.436 119.41 131.562 119.923 131.702L120.231 131.786C120.726 131.935 121.141 132.089 121.477 132.248C121.813 132.397 122.098 132.612 122.331 132.892C122.565 133.163 122.681 133.517 122.681 133.956C122.681 134.619 122.42 135.141 121.897 135.524C121.375 135.897 120.679 136.084 119.811 136.084ZM124.983 127.866C124.694 127.866 124.456 127.773 124.269 127.586C124.083 127.399 123.989 127.161 123.989 126.872C123.989 126.583 124.083 126.345 124.269 126.158C124.456 125.971 124.694 125.878 124.983 125.878C125.273 125.878 125.511 125.971 125.697 126.158C125.884 126.345 125.977 126.583 125.977 126.872C125.977 127.161 125.884 127.399 125.697 127.586C125.511 127.773 125.273 127.866 124.983 127.866ZM124.311 136C124.265 136 124.223 135.986 124.185 135.958C124.157 135.921 124.143 135.879 124.143 135.832V129C124.143 128.953 124.157 128.916 124.185 128.888C124.223 128.851 124.265 128.832 124.311 128.832H125.599C125.646 128.832 125.683 128.851 125.711 128.888C125.749 128.916 125.767 128.953 125.767 129V135.832C125.767 135.879 125.749 135.921 125.711 135.958C125.683 135.986 125.646 136 125.599 136H124.311ZM127.324 136C127.277 136 127.235 135.986 127.198 135.958C127.17 135.921 127.156 135.879 127.156 135.832V134.642C127.156 134.558 127.179 134.493 127.226 134.446L130.67 130.4C130.716 130.344 130.702 130.316 130.628 130.316H127.394C127.347 130.316 127.305 130.302 127.268 130.274C127.24 130.237 127.226 130.195 127.226 130.148V129.014C127.226 128.967 127.24 128.93 127.268 128.902C127.305 128.865 127.347 128.846 127.394 128.846H132.49C132.536 128.846 132.574 128.865 132.602 128.902C132.639 128.93 132.658 128.967 132.658 129.014V130.204C132.658 130.279 132.63 130.344 132.574 130.4L129.06 134.446C129.022 134.502 129.036 134.53 129.102 134.53H132.532C132.578 134.53 132.616 134.549 132.644 134.586C132.681 134.614 132.7 134.651 132.7 134.698V135.832C132.7 135.879 132.681 135.921 132.644 135.958C132.616 135.986 132.578 136 132.532 136H127.324ZM140.041 131.618C140.078 131.851 140.097 132.113 140.097 132.402L140.083 132.836C140.083 132.948 140.027 133.004 139.915 133.004H135.533C135.486 133.004 135.463 133.027 135.463 133.074C135.491 133.382 135.533 133.592 135.589 133.704C135.813 134.376 136.359 134.717 137.227 134.726C137.861 134.726 138.365 134.465 138.739 133.942C138.776 133.886 138.823 133.858 138.879 133.858C138.916 133.858 138.949 133.872 138.977 133.9L139.845 134.614C139.929 134.679 139.943 134.754 139.887 134.838C139.597 135.249 139.21 135.566 138.725 135.79C138.249 136.014 137.717 136.126 137.129 136.126C136.401 136.126 135.78 135.963 135.267 135.636C134.763 135.309 134.394 134.852 134.161 134.264C133.946 133.76 133.839 133.06 133.839 132.164C133.839 131.623 133.895 131.184 134.007 130.848C134.193 130.195 134.543 129.681 135.057 129.308C135.579 128.925 136.205 128.734 136.933 128.734C138.771 128.734 139.807 129.695 140.041 131.618ZM136.933 130.134C136.587 130.134 136.298 130.223 136.065 130.4C135.841 130.568 135.682 130.806 135.589 131.114C135.533 131.273 135.495 131.478 135.477 131.73C135.458 131.777 135.477 131.8 135.533 131.8H138.375C138.421 131.8 138.445 131.777 138.445 131.73C138.426 131.497 138.398 131.319 138.361 131.198C138.277 130.862 138.109 130.601 137.857 130.414C137.614 130.227 137.306 130.134 136.933 130.134Z" fill="#909091"/>
</svg>
