<svg width="21" height="14" viewBox="0 0 21 14" fill="none" xmlns="http://www.w3.org/2000/svg">
<path d="M18.755 0H1.80723C0.808715 0 0 0.764716 0 1.69836V11.8885C0 12.8277 0.814659 13.5869 1.80723 13.5869H18.755C19.7452 13.5869 20.5623 12.8309 20.5623 11.8885V1.69836C20.5623 0.766377 19.7567 0 18.755 0ZM18.5019 1.13224C18.1327 1.47739 11.7784 7.41743 11.559 7.62252C11.2177 7.94332 10.7639 8.11995 10.2811 8.11995C9.79839 8.11995 9.34458 7.94328 9.00209 7.62146C8.85454 7.48351 2.5704 1.60907 2.06032 1.13224H18.5019ZM1.20482 11.6581V1.92953L6.41117 6.79647L1.20482 11.6581ZM2.06108 12.4547L7.26538 7.59496L8.15129 8.42312C8.7202 8.95777 9.47659 9.25219 10.2811 9.25219C11.0857 9.25219 11.842 8.95777 12.4098 8.42418L13.2969 7.59496L18.5012 12.4547H2.06108ZM19.3574 11.6581L14.1511 6.79647L19.3574 1.92953V11.6581Z" fill="black"/>
</svg>
