<svg width="44" height="45" viewBox="0 0 44 45" fill="none" xmlns="http://www.w3.org/2000/svg">
<rect width="44" height="45" rx="22" fill="#EFEFEF"/>
<path d="M14 27.5H22.1C22.5 29.2 24.1 30.5 26 30.5C27.9 30.5 29.4 29.2 29.9 27.5H30C30.6 27.5 31 27.1 31 26.5C31 25.9 30.6 25.5 30 25.5H29.9C29.5 23.8 27.9 22.5 26 22.5C24.1 22.5 22.6 23.8 22.1 25.5H14C13.4 25.5 13 25.9 13 26.5C13 27.1 13.4 27.5 14 27.5ZM26 24.5C27.1 24.5 28 25.4 28 26.5C28 27.6 27.1 28.5 26 28.5C24.9 28.5 24 27.6 24 26.5C24 25.4 24.9 24.5 26 24.5Z" fill="#909091"/>
<path d="M14 19H14.1C14.5 20.7 16.1 22 18 22C19.9 22 21.4 20.7 21.9 19H30C30.6 19 31 18.6 31 18C31 17.4 30.6 17 30 17H21.9C21.5 15.3 19.9 14 18 14C16.1 14 14.6 15.3 14.1 17H14C13.4 17 13 17.4 13 18C13 18.6 13.4 19 14 19ZM18 16C19.1 16 20 16.9 20 18C20 19.1 19.1 20 18 20C16.9 20 16 19.1 16 18C16 16.9 16.9 16 18 16Z" fill="#909091"/>
</svg>
