<svg width="47" height="46" viewBox="0 0 47 46" fill="none" xmlns="http://www.w3.org/2000/svg">
<path d="M14.849 30.336H12.4245C10 30.336 10 30.1139 10 33.003C10 35.6698 10 35.6698 12.4245 35.67H14.849C17.223 35.6702 17.223 35.6698 17.2735 33.003C17.324 30.3365 17.2735 30.336 14.849 30.336Z" fill="#201E43"/>
<path d="M24.5462 27.6687H22.1218C19.6973 27.6687 19.6973 27.6687 19.6973 30.3357V33.0027C19.6973 35.6697 19.6973 35.6697 22.1218 35.6697H24.5462C26.9707 35.6697 26.9707 35.6697 26.9707 33.0027V30.3357C26.9707 27.6687 26.9707 27.6687 24.5462 27.6687Z" fill="#201E43"/>
<path d="M34.2455 22.335H31.821C29.4464 22.335 29.4464 22.335 29.3965 25.002V33.003C29.4464 35.67 29.4464 35.67 31.821 35.67H34.2455C36.6694 35.67 36.6694 35.67 36.67 33.003V25.002C36.6694 22.335 36.67 22.335 34.2455 22.335Z" fill="#201E43"/>
<path d="M35.4572 9H27.4563C26.3653 9 25.8804 10.4669 26.6078 11.267L28.911 13.8006C24.4257 19.4013 18.0008 23.6685 11.2122 23.6685C10.4849 23.6685 10 24.2019 10 25.002C10 25.8021 10.4849 26.3355 11.2122 26.3355C19.3343 26.3355 26.8502 23.8018 32.3053 17.5344L34.4874 19.9347C35.2147 20.7348 36.5482 20.2014 36.5482 19.0013V10.3335C36.6694 9.5334 36.1845 9 35.4572 9Z" fill="#201E43"/>
</svg>
