<svg width="78" height="40" viewBox="0 0 78 40" fill="none" xmlns="http://www.w3.org/2000/svg">
<path d="M30.8 27.2H28.4C27.08 27.2 26 28.28 26 29.6C26 30.92 27.08 32 28.4 32H30.8C32.12 32 33.2 30.92 33.2 29.6C33.2 28.28 32.12 27.2 30.8 27.2Z" fill="black"/>
<path d="M40.4001 24.8H38.0001C36.6801 24.8 35.6001 25.88 35.6001 27.2V29.6C35.6001 30.92 36.6801 32 38.0001 32H40.4001C41.7201 32 42.8001 30.92 42.8001 29.6V27.2C42.8001 25.88 41.7201 24.8 40.4001 24.8Z" fill="black"/>
<path d="M50.0002 20H47.6002C46.2802 20 45.2002 21.08 45.2002 22.4V29.6C45.2002 30.92 46.2802 32 47.6002 32H50.0002C51.3202 32 52.4002 30.92 52.4002 29.6V22.4C52.4002 21.08 51.3202 20 50.0002 20Z" fill="black"/>
<path d="M51.2 8H43.28C42.2 8 41.72 9.32 42.44 10.04L44.72 12.32C40.28 17.36 33.92 21.2 27.2 21.2C26.48 21.2 26 21.68 26 22.4C26 23.12 26.48 23.6 27.2 23.6C35.24 23.6 42.68 21.32 48.08 15.68L50.24 17.84C50.96 18.56 52.28 18.08 52.28 17V9.2C52.4 8.48 51.92 8 51.2 8Z" fill="black"/>
</svg>
