<svg width="78" height="40" viewBox="0 0 78 40" fill="none" xmlns="http://www.w3.org/2000/svg">
<path d="M39.3333 8C39.3333 8 31.0853 15.12 26.476 18.976C26.2053 19.2213 26 19.5787 26 20C26 20.7373 26.596 21.3333 27.3333 21.3333H30V30.6667C30 31.404 30.596 32 31.3333 32H35.3333C36.0707 32 36.6667 31.4027 36.6667 30.6667V25.3333H42V30.6667C42 31.4027 42.596 32 43.3333 32H47.3333C48.0707 32 48.6667 31.404 48.6667 30.6667V21.3333H51.3333C52.0707 21.3333 52.6667 20.7373 52.6667 20C52.6667 19.5787 52.4613 19.2213 52.156 18.976C47.5787 15.12 39.3333 8 39.3333 8Z" fill="black"/>
</svg>
