<svg width="47" height="46" viewBox="0 0 47 46" fill="none" xmlns="http://www.w3.org/2000/svg">
<path d="M23.3333 9C23.3333 9 15.0853 16.9121 10.476 21.1971C10.2053 21.4697 10 21.8668 10 22.335C10 23.1544 10.596 23.8167 11.3333 23.8167H14V34.1883C14 35.0077 14.596 35.67 15.3333 35.67H19.3333C20.0707 35.67 20.6667 35.0062 20.6667 34.1883V28.2617H26V34.1883C26 35.0062 26.596 35.67 27.3333 35.67H31.3333C32.0707 35.67 32.6667 35.0077 32.6667 34.1883V23.8167H35.3333C36.0707 23.8167 36.6667 23.1544 36.6667 22.335C36.6667 21.8668 36.4613 21.4697 36.156 21.1971C31.5787 16.9121 23.3333 9 23.3333 9Z" fill="#201E43"/>
</svg>
