<svg width="16" height="16" viewBox="0 0 16 16" fill="none" xmlns="http://www.w3.org/2000/svg">
<path d="M8 0C3.58667 0 0 3.58667 0 8C0 12.4133 3.58667 16 8 16C12.4133 16 16 12.4133 16 8C16 3.58667 12.4133 0 8 0ZM8 14.6667C4.32 14.6667 1.33333 11.68 1.33333 8C1.33333 4.32 4.32 1.33333 8 1.33333C11.68 1.33333 14.6667 4.32 14.6667 8C14.6667 11.68 11.68 14.6667 8 14.6667Z" fill="black"/>
<path d="M7.99967 6.46667C7.62634 6.46667 7.33301 6.76001 7.33301 7.13334V11.6667C7.33301 12.04 7.62634 12.3333 7.99967 12.3333C8.37301 12.3333 8.66634 12.04 8.66634 11.6667V7.13334C8.66634 6.77334 8.37301 6.46667 7.99967 6.46667Z" fill="black"/>
<path d="M8.01301 3.73333C7.66634 3.70666 7.34634 4.06666 7.33301 4.42666C7.33301 4.44 7.33301 4.52 7.33301 4.53333C7.33301 4.89333 7.61301 5.16 7.98634 5.17333H7.99967C8.35967 5.17333 8.65301 4.85333 8.66634 4.50666C8.66634 4.49333 8.66634 4.36 8.66634 4.36C8.66634 3.97333 8.38634 3.73333 8.01301 3.73333Z" fill="black"/>
</svg>
