<svg width="32" height="32" viewBox="0 0 32 32" fill="none" xmlns="http://www.w3.org/2000/svg">
<circle cx="16" cy="16" r="16" fill="#EFEFEF"/>
<path d="M21.2734 11H19C19 11 20.2188 11.7969 20.4813 13.25H21.25H21.2734C22.0984 13.25 22.75 13.9016 22.75 14.7266V16.2266C22.75 17.0516 22.0984 17.75 21.2734 17.75H16.0234C15.1984 17.75 14.5 17.0516 14.5 16.2266V14.75H12.25V16.2266C12.25 16.7656 12.3672 17.2812 12.5734 17.75C13.1641 19.0719 14.4906 20 16.0234 20H21.2734C23.3453 20 25 18.2984 25 16.2266V14.7266C25 12.6547 23.3453 11 21.2734 11Z" fill="black"/>
<path d="M19.45 13.25C18.8828 11.9234 17.5703 11 16.0234 11H10.7734C8.70156 11 7 12.6547 7 14.7266V16.2266C7 18.2984 8.70156 20 10.7734 20H13C13 20 11.7906 19.2031 11.4953 17.75H10.7734C9.94844 17.75 9.25 17.0516 9.25 16.2266V14.7266C9.25 13.9016 9.94844 13.25 10.7734 13.25H16H16.0234C16.8484 13.25 17.5 13.9016 17.5 14.7266V16.2266C17.5 16.2359 17.5 16.2406 17.5 16.25H19.75C19.75 16.2406 19.75 16.2359 19.75 16.2266V14.7266C19.75 14.2016 19.6422 13.7 19.45 13.25Z" fill="black"/>
</svg>
