<svg width="32" height="32" viewBox="0 0 32 32" fill="none" xmlns="http://www.w3.org/2000/svg">
<circle cx="16" cy="16" r="16" fill="#EFEFEF"/>
<path d="M14.6739 14.6733C15.3543 13.993 16.2701 13.6002 17.2319 13.5762C18.1937 13.5522 19.128 13.8988 19.8414 14.5443L19.9772 14.6733L22.0982 16.795C22.789 17.487 23.1821 18.4214 23.1939 19.3991C23.2057 20.3769 22.8351 21.3205 22.1612 22.0289C21.4873 22.7374 20.5633 23.1546 19.5863 23.1916C18.6092 23.2287 17.6563 22.8826 16.9307 22.2273L16.7957 22.0983L15.2042 20.5068C15.0697 20.3718 14.9916 20.1907 14.9858 20.0002C14.9799 19.8098 15.0468 19.6242 15.1729 19.4813C15.2989 19.3384 15.4746 19.2488 15.6643 19.2307C15.854 19.2126 16.0434 19.2675 16.1942 19.384L16.2647 19.4463L17.8562 21.0378C18.2687 21.4527 18.8267 21.6906 19.4118 21.701C19.9968 21.7115 20.5629 21.4935 20.99 21.0935C21.417 20.6935 21.6714 20.1428 21.6992 19.5583C21.7271 18.9739 21.5261 18.4015 21.1389 17.9628L21.0377 17.8555L18.9167 15.7345C18.7077 15.5255 18.4597 15.3598 18.1867 15.2467C17.9137 15.1336 17.6211 15.0754 17.3256 15.0754C17.03 15.0754 16.7374 15.1336 16.4644 15.2467C16.1914 15.3598 15.9434 15.5255 15.7344 15.7345C15.5937 15.8751 15.4029 15.9541 15.2039 15.954C15.005 15.954 14.8142 15.8749 14.6736 15.7341C14.5329 15.5934 14.454 15.4026 14.454 15.2036C14.4541 15.0047 14.5332 14.8139 14.6739 14.6733ZM9.90093 9.90026C10.5813 9.21996 11.4971 8.82718 12.4589 8.80317C13.4207 8.77916 14.355 9.12575 15.0684 9.77126L15.2042 9.90026L16.7949 11.4925C16.9294 11.6275 17.0075 11.8086 17.0133 11.999C17.0192 12.1895 16.9523 12.375 16.8262 12.518C16.7002 12.6609 16.5245 12.7505 16.3348 12.7686C16.1451 12.7866 15.9557 12.7318 15.8049 12.6153L15.7344 12.553L14.1437 10.9623C13.7304 10.5517 13.174 10.3174 12.5915 10.3087C12.009 10.3 11.4459 10.5175 11.0205 10.9156C10.5951 11.3137 10.3408 11.8612 10.3109 12.443C10.281 13.0247 10.4779 13.5954 10.8602 14.035L10.9614 14.143L13.0832 16.2648C13.5051 16.6866 14.0773 16.9235 14.6739 16.9235C15.2705 16.9235 15.8427 16.6866 16.2647 16.2648C16.3343 16.1951 16.417 16.1398 16.508 16.1021C16.599 16.0643 16.6965 16.0449 16.795 16.0449C16.8935 16.0448 16.9911 16.0642 17.0821 16.1019C17.1732 16.1395 17.2559 16.1948 17.3256 16.2644C17.3952 16.334 17.4505 16.4167 17.4883 16.5077C17.526 16.5987 17.5454 16.6962 17.5455 16.7947C17.5455 16.8933 17.5261 16.9908 17.4885 17.0818C17.4508 17.1729 17.3956 17.2556 17.3259 17.3253C16.6456 18.0056 15.7298 18.3983 14.768 18.4223C13.8061 18.4464 12.8719 18.0998 12.1584 17.4543L12.0219 17.3253L9.90093 15.2035C9.19791 14.5003 8.80298 13.5466 8.80298 12.5523C8.80298 11.5579 9.19791 10.6035 9.90093 9.90026Z" fill="#201E43"/>
</svg>
