<svg width="8" height="14" viewBox="0 0 8 14" fill="none" xmlns="http://www.w3.org/2000/svg">
<path d="M0.803707 14C0.698543 14.0006 0.594294 13.981 0.496937 13.9423C0.39958 13.9036 0.31103 13.8466 0.236365 13.7745C0.161469 13.7022 0.102022 13.6162 0.0614545 13.5214C0.0208866 13.4267 0 13.325 0 13.2224C0 13.1197 0.0208866 13.0181 0.0614545 12.9233C0.102022 12.8286 0.161469 12.7426 0.236365 12.6703L6.0696 7.00158L0.236365 1.33288C0.0858961 1.18645 0.00136408 0.987858 0.00136408 0.780782C0.00136408 0.678248 0.0221168 0.576719 0.0624383 0.48199C0.10276 0.387261 0.16186 0.301188 0.236365 0.228686C0.310869 0.156183 0.399318 0.0986717 0.496663 0.0594337C0.594008 0.0201958 0.698341 0 0.803707 0C1.0165 0 1.22058 0.0822608 1.37105 0.228686L7.76363 6.44949C7.83853 6.52178 7.89798 6.60778 7.93855 6.70254C7.97911 6.79729 8 6.89893 8 7.00158C8 7.10424 7.97911 7.20587 7.93855 7.30063C7.89798 7.39539 7.83853 7.48139 7.76363 7.55368L1.37105 13.7745C1.29638 13.8466 1.20783 13.9036 1.11048 13.9423C1.01312 13.981 0.90887 14.0006 0.803707 14Z" fill="black"/>
</svg>
