<svg width="39" height="36" viewBox="0 0 39 36" fill="none" xmlns="http://www.w3.org/2000/svg">
<path d="M32 35.9375C31.7 35.9375 31.3 35.8375 31 35.6375C30 35.1375 29.7 33.8375 30.2 32.9375C30.2 32.8375 33.9 26.1375 33.9 17.9375C33.9 9.73752 30.3 2.93752 30.3 2.93752C29.8 1.93752 30.1 0.73752 31.1 0.23752C32.1 -0.26248 33.3 0.0375196 33.8 1.03752C34 1.33752 38.1 8.63752 38.1 18.0375C38.1 27.4375 34 34.7375 33.8 35.0375C33.4 35.5375 32.7 35.9375 32 35.9375ZM27.8 29.7375C27.9 29.5375 30 24.7375 30 17.9375C30 11.1375 27.9 6.33752 27.8 6.13752C27.4 5.13752 26.2 4.63752 25.2 5.13752C24.2 5.53752 23.7 6.73752 24.2 7.73752C24.2 7.73752 26 12.0375 26 17.9375C26 23.8375 24.2 28.1375 24.2 28.1375C23.8 29.1375 24.2 30.3375 25.2 30.7375C25.5 30.8375 25.7 30.9375 26 30.9375C26.8 30.9375 27.5 30.5375 27.8 29.7375ZM18.3 26.9375C18.9 26.8375 19.4 26.4375 19.7 25.9375C19.8 25.7375 22 22.0375 22 17.9375C22 13.8375 19.8 10.0375 19.7 9.93752C19.1 8.93752 17.9 8.63752 17 9.23752C16 9.83752 15.7 11.0375 16.3 11.9375C16.3 11.9375 18 14.9375 18 17.9375C18 19.2375 17.7 20.6375 17.3 21.6375L4.3 10.4375C3.8 10.0375 3.1 9.83752 2.5 10.0375C1.9 10.2375 1.3 10.6375 1.1 11.3375C1.1 11.4375 0 14.4375 0 17.9375C0 21.4375 1.1 24.4375 1.1 24.6375C1.5 25.6375 2.6 26.2375 3.7 25.8375C4.7 25.4375 5.3 24.3375 4.9 23.2375C4.9 23.2375 4 20.6375 4 17.9375C4 17.1375 4.1 16.3375 4.2 15.6375L16.7 26.4375C17.1 26.7375 17.5 26.9375 18 26.9375C18.1 26.9375 18.2 26.9375 18.3 26.9375Z" fill="black"/>
</svg>
