<svg width="26" height="26" viewBox="0 0 26 26" fill="none" xmlns="http://www.w3.org/2000/svg">
<path d="M20.0416 22.7501C19.8791 22.7501 19.6624 22.6959 19.4999 22.5876C18.9583 22.3168 18.7958 21.6126 19.0666 21.1251C19.0666 21.0709 21.0708 17.4418 21.0708 13.0001C21.0708 8.55843 19.1208 4.87509 19.1208 4.87509C18.8499 4.33343 19.0124 3.68343 19.5541 3.41259C20.0958 3.14176 20.7458 3.30426 21.0166 3.84593C21.1249 4.00843 23.3458 7.96259 23.3458 13.0543C23.3458 18.1459 21.1249 22.1001 21.0166 22.2626C20.7999 22.5334 20.4208 22.7501 20.0416 22.7501ZM17.7666 19.3918C17.8208 19.2834 18.9583 16.6834 18.9583 13.0001C18.9583 9.31676 17.8208 6.71676 17.7666 6.60843C17.5499 6.06676 16.8999 5.79593 16.3583 6.06676C15.8166 6.28343 15.5458 6.93343 15.8166 7.47509C15.8166 7.47509 16.7916 9.80426 16.7916 13.0001C16.7916 16.1959 15.8166 18.5251 15.8166 18.5251C15.5999 19.0668 15.8166 19.7168 16.3583 19.9334C16.5208 19.9876 16.6291 20.0418 16.7916 20.0418C17.2249 20.0418 17.6041 19.8251 17.7666 19.3918ZM12.6208 17.8751C12.9458 17.8209 13.2166 17.6043 13.3791 17.3334C13.4333 17.2251 14.6249 15.2209 14.6249 13.0001C14.6249 10.7793 13.4333 8.72093 13.3791 8.66676C13.0541 8.12509 12.4041 7.96259 11.9166 8.28759C11.3749 8.61259 11.2124 9.26259 11.5374 9.75009C11.5374 9.75009 12.4583 11.3751 12.4583 13.0001C12.4583 13.7043 12.2958 14.4626 12.0791 15.0043L5.03742 8.93759C4.76659 8.72093 4.38742 8.61259 4.06242 8.72093C3.73742 8.82926 3.41242 9.04593 3.30409 9.42509C3.30409 9.47926 2.70825 11.1043 2.70825 13.0001C2.70825 14.8959 3.30409 16.5209 3.30409 16.6293C3.52075 17.1709 4.11659 17.4959 4.71242 17.2793C5.25409 17.0626 5.57909 16.4668 5.36242 15.8709C5.36242 15.8709 4.87492 14.4626 4.87492 13.0001C4.87492 12.5668 4.92909 12.1334 4.98325 11.7543L11.7541 17.6043C11.9708 17.7668 12.1874 17.8751 12.4583 17.8751H12.6208Z" fill="#201E43"/>
</svg>
