<svg width="20" height="20" viewBox="0 0 20 20" fill="none" xmlns="http://www.w3.org/2000/svg">
<path d="M6.66675 5H2.50008C2.03984 5 1.66675 5.3731 1.66675 5.83333V14.1667C1.66675 14.6269 2.03984 15 2.50008 15H6.66675C7.12699 15 7.50008 14.6269 7.50008 14.1667V5.83333C7.50008 5.3731 7.12699 5 6.66675 5Z" stroke="#201E43" stroke-width="1.66667" stroke-linecap="round" stroke-linejoin="round"/>
<path d="M10.8335 6.93341C11.3662 7.8677 11.6463 8.92462 11.6463 10.0001C11.6463 11.0755 11.3662 12.1325 10.8335 13.0667M13.7168 5.17508C14.5494 6.6469 14.9869 8.30911 14.9869 10.0001C14.9869 11.6911 14.5494 13.3533 13.7168 14.8251M16.5918 3.41675C17.7398 5.42061 18.3445 7.68957 18.3459 9.99897C18.3474 12.3084 17.7456 14.5781 16.6002 16.5834" stroke="#201E43" stroke-width="1.66667" stroke-linecap="round" stroke-linejoin="round"/>
</svg>
