<svg width="20" height="20" viewBox="0 0 20 20" fill="none" xmlns="http://www.w3.org/2000/svg">
<g clip-path="url(#clip0_6575_6428)">
<path d="M2.78842 13.4984L13.4793 2.80675M15.5268 9.21342L13.6934 11.0468M12.1293 12.5918L11.3134 13.4076M3.33342 18.3334H16.6668M2.64592 13.4509C2.33549 13.1406 2.08924 12.7722 1.92123 12.3667C1.75322 11.9612 1.66675 11.5265 1.66675 11.0876C1.66675 10.6487 1.75322 10.214 1.92123 9.80851C2.08924 9.403 2.33549 9.03457 2.64592 8.72425L8.72425 2.64592C9.03457 2.33549 9.403 2.08924 9.80851 1.92123C10.214 1.75322 10.6487 1.66675 11.0876 1.66675C11.5265 1.66675 11.9612 1.75322 12.3667 1.92123C12.7722 2.08924 13.1406 2.33549 13.4509 2.64592L17.3543 6.54925C17.6647 6.85957 17.9109 7.228 18.0789 7.63351C18.2469 8.03902 18.3334 8.47365 18.3334 8.91258C18.3334 9.35152 18.2469 9.78615 18.0789 10.1917C17.9109 10.5972 17.6647 10.9656 17.3543 11.2759L11.2759 17.3543C10.9656 17.6647 10.5972 17.9109 10.1917 18.0789C9.78615 18.2469 9.35152 18.3334 8.91258 18.3334C8.47365 18.3334 8.03902 18.2469 7.63351 18.0789C7.228 17.9109 6.85957 17.6647 6.54925 17.3543L2.64592 13.4509Z" stroke="#201E43" stroke-width="1.5" stroke-linecap="round" stroke-linejoin="round"/>
</g>
<defs>
<clipPath id="clip0_6575_6428">
<rect width="20" height="20" fill="white"/>
</clipPath>
</defs>
</svg>
