<svg width="20" height="20" viewBox="0 0 20 20" fill="none" xmlns="http://www.w3.org/2000/svg">
<path d="M5.5454 15.2003H4.2727C3 15.2003 3 15.0837 3 16.6003C3 18.0002 3 18.0002 4.2727 18.0003H5.5454C6.79158 18.0004 6.79158 18.0002 6.8181 16.6003C6.84461 15.2006 6.8181 15.2003 5.5454 15.2003Z" fill="#201E43"/>
<path d="M10.636 13.8H9.36328C8.09058 13.8 8.09058 13.8 8.09058 15.2V16.6C8.09058 18 8.09058 18 9.36328 18H10.636C11.9087 18 11.9087 18 11.9087 16.6V15.2C11.9087 13.8 11.9087 13.8 10.636 13.8Z" fill="#201E43"/>
<path d="M15.7273 11H14.4546C13.2081 11 13.2081 11 13.1819 12.4V16.5999C13.2081 17.9999 13.2081 17.9999 14.4546 17.9999H15.7273C16.9997 17.9999 16.9997 17.9999 17 16.5999V12.4C16.9997 11 17 11 15.7273 11Z" fill="#201E43"/>
<path d="M16.3633 4H12.1634C11.5907 4 11.3362 4.76999 11.718 5.18999L12.9271 6.51997C10.5726 9.45993 7.19991 11.6999 3.63635 11.6999C3.25454 11.6999 3 11.9799 3 12.3999C3 12.8199 3.25454 13.0999 3.63635 13.0999C7.89989 13.0999 11.8453 11.7699 14.7088 8.47995L15.8543 9.73993C16.2361 10.1599 16.9361 9.87993 16.9361 9.24994V4.69999C16.9997 4.28 16.7451 4 16.3633 4Z" fill="#201E43"/>
<path d="M17.5557 3.68896L3.25234 17.7157" stroke="#EF2D28" stroke-width="1.6" stroke-linecap="round"/>
</svg>
