<svg width="20" height="20" viewBox="0 0 20 20" fill="none" xmlns="http://www.w3.org/2000/svg">
<mask id="mask0_6586_120" style="mask-type:alpha" maskUnits="userSpaceOnUse" x="0" y="0" width="20" height="20">
<rect width="20" height="20" fill="#D9D9D9"/>
</mask>
<g mask="url(#mask0_6586_120)">
<path d="M14.1666 14.1667C14.5138 14.1667 14.8089 14.0452 15.052 13.8022C15.2951 13.5591 15.4166 13.264 15.4166 12.9167C15.4166 12.5695 15.2951 12.2744 15.052 12.0313C14.8089 11.7883 14.5138 11.6667 14.1666 11.6667C13.8194 11.6667 13.5242 11.7883 13.2812 12.0313C13.0381 12.2744 12.9166 12.5695 12.9166 12.9167C12.9166 13.264 13.0381 13.5591 13.2812 13.8022C13.5242 14.0452 13.8194 14.1667 14.1666 14.1667ZM14.1666 16.6667C14.5971 16.6667 14.993 16.5661 15.3541 16.3647C15.7152 16.1633 16.0069 15.8959 16.2291 15.5626C15.9235 15.382 15.5971 15.2431 15.2499 15.1459C14.9027 15.0487 14.5416 15.0001 14.1666 15.0001C13.7916 15.0001 13.4305 15.0487 13.0833 15.1459C12.736 15.2431 12.4096 15.382 12.1041 15.5626C12.3263 15.8959 12.618 16.1633 12.9791 16.3647C13.3402 16.5661 13.736 16.6667 14.1666 16.6667ZM9.99992 18.3334C8.06936 17.8473 6.47561 16.7397 5.21867 15.0105C3.96172 13.2813 3.33325 11.3612 3.33325 9.25008V4.16675L9.99992 1.66675L16.6666 4.16675V8.89591C16.4027 8.7848 16.1319 8.68411 15.8541 8.59383C15.5763 8.50355 15.2916 8.43758 14.9999 8.39591V5.33341L9.99992 3.45841L4.99992 5.33341V9.25008C4.99992 9.90286 5.08672 10.5556 5.26034 11.2084C5.43395 11.8612 5.677 12.4827 5.9895 13.073C6.302 13.6633 6.68047 14.2084 7.12492 14.7084C7.56936 15.2084 8.06242 15.6251 8.60409 15.9584C8.75686 16.4029 8.95825 16.8265 9.20825 17.2292C9.45825 17.632 9.74297 17.9931 10.0624 18.3126C10.0485 18.3126 10.0381 18.3161 10.0312 18.323C10.0242 18.3299 10.0138 18.3334 9.99992 18.3334ZM14.1666 18.3334C13.0138 18.3334 12.0312 17.9272 11.2187 17.1147C10.4062 16.3022 9.99992 15.3195 9.99992 14.1667C9.99992 13.014 10.4062 12.0313 11.2187 11.2188C12.0312 10.4063 13.0138 10.0001 14.1666 10.0001C15.3194 10.0001 16.302 10.4063 17.1145 11.2188C17.927 12.0313 18.3333 13.014 18.3333 14.1667C18.3333 15.3195 17.927 16.3022 17.1145 17.1147C16.302 17.9272 15.3194 18.3334 14.1666 18.3334Z" fill="#201E43"/>
</g>
<path d="M18.9102 2L2.00022 19.031" stroke="#EF2D28" stroke-width="1.6" stroke-linecap="round"/>
</svg>
