<svg width="20" height="20" viewBox="0 0 20 20" fill="none" xmlns="http://www.w3.org/2000/svg">
<g clip-path="url(#clip0_6575_6425)">
<path d="M3.33323 12.5001C3.33323 15.2642 5.56906 17.5001 8.33323 17.5001L7.61906 16.0717M16.6666 7.50008C16.6666 4.73591 14.4307 2.50008 11.6666 2.50008L12.3807 3.92841M3.1574 7.53091C2.5674 7.85008 1.0224 8.50175 1.96323 9.31675C2.42323 9.71508 2.93573 10.0001 3.5799 10.0001H7.25406C7.8974 10.0001 8.4099 9.71508 8.8699 9.31675C9.81156 8.50175 8.26573 7.85008 7.67573 7.53091C6.29323 6.78258 4.5399 6.78258 3.1574 7.53091ZM7.29156 3.56091C7.29288 3.80838 7.24541 4.05367 7.15188 4.28278C7.05834 4.51189 6.92057 4.72032 6.74644 4.89616C6.57231 5.07199 6.36523 5.21178 6.13704 5.30754C5.90885 5.40331 5.66403 5.45316 5.41656 5.45425C5.1691 5.45316 4.92427 5.40331 4.69609 5.30754C4.4679 5.21178 4.26082 5.07199 4.08669 4.89616C3.91256 4.72032 3.77478 4.51189 3.68125 4.28278C3.58771 4.05367 3.54025 3.80838 3.54156 3.56091C3.54014 3.31338 3.58752 3.068 3.68101 2.83879C3.7745 2.60958 3.91225 2.40106 4.08639 2.22513C4.26054 2.04921 4.46765 1.90934 4.69589 1.81353C4.92414 1.71772 5.16903 1.66784 5.41656 1.66675C5.6641 1.66784 5.90899 1.71772 6.13723 1.81353C6.36547 1.90934 6.57259 2.04921 6.74673 2.22513C6.92088 2.40106 7.05863 2.60958 7.15212 2.83879C7.2456 3.068 7.29299 3.31338 7.29156 3.56091ZM12.3241 15.8642C11.7341 16.1834 10.1891 16.8351 11.1299 17.6501C11.5899 18.0484 12.1024 18.3334 12.7466 18.3334H16.4207C17.0641 18.3334 17.5766 18.0484 18.0366 17.6501C18.9782 16.8351 17.4324 16.1834 16.8424 15.8642C15.4599 15.1159 13.7066 15.1159 12.3241 15.8642ZM16.4582 11.8942C16.4597 12.1418 16.4123 12.3872 16.3188 12.6164C16.2253 12.8456 16.0875 13.0541 15.9134 13.23C15.7393 13.406 15.5321 13.5458 15.3039 13.6416C15.0757 13.7374 14.8308 13.7873 14.5832 13.7884C14.3357 13.7873 14.0908 13.7374 13.8626 13.6416C13.6343 13.5458 13.4272 13.406 13.2531 13.23C13.0789 13.0541 12.9412 12.8456 12.8477 12.6164C12.7542 12.3872 12.7068 12.1418 12.7082 11.8942C12.7068 11.6467 12.7542 11.4013 12.8477 11.1721C12.9412 10.9429 13.0789 10.7344 13.2531 10.5585C13.4272 10.3825 13.6343 10.2427 13.8626 10.1469C14.0908 10.0511 14.3357 10.0012 14.5832 10.0001C14.8308 10.0012 15.0757 10.0511 15.3039 10.1469C15.5321 10.2427 15.7393 10.3825 15.9134 10.5585C16.0875 10.7344 16.2253 10.9429 16.3188 11.1721C16.4123 11.4013 16.4597 11.6467 16.4582 11.8942Z" stroke="#201E43" stroke-width="1.5" stroke-linecap="round" stroke-linejoin="round"/>
<path d="M18.9099 1L1.99997 18.031" stroke="#EF2D28" stroke-width="1.6" stroke-linecap="round"/>
</g>
<defs>
<clipPath id="clip0_6575_6425">
<rect width="20" height="20" fill="white"/>
</clipPath>
</defs>
</svg>
