<svg width="32" height="30" viewBox="0 0 32 30" fill="none" xmlns="http://www.w3.org/2000/svg">
<ellipse cx="16" cy="15" rx="16" ry="15" fill="#201E43"/>
<path d="M6.83301 15.0003C6.83301 11.5436 6.83301 9.81474 7.90734 8.74133C8.98167 7.66791 10.7096 7.66699 14.1663 7.66699H17.833C21.2898 7.66699 23.0186 7.66699 24.092 8.74133C25.1654 9.81566 25.1663 11.5436 25.1663 15.0003C25.1663 18.4571 25.1663 20.1859 24.092 21.2593C23.0177 22.3327 21.2898 22.3337 17.833 22.3337H14.1663C10.7096 22.3337 8.98076 22.3337 7.90734 21.2593C6.83392 20.185 6.83301 18.4571 6.83301 15.0003Z" stroke="white" stroke-width="1.5"/>
<path d="M14.1663 18.667H10.4997M17.833 18.667H16.458M6.83301 13.167H25.1663" stroke="white" stroke-width="1.5" stroke-linecap="round"/>
</svg>
