<svg width="17" height="16" viewBox="0 0 17 16" fill="none" xmlns="http://www.w3.org/2000/svg">
<path d="M3.41812 10.5369C5.0881 12.4059 7.0984 13.8774 9.39288 14.9186C10.2665 15.3061 11.4347 15.766 12.7364 15.8448C12.817 15.8481 12.8942 15.8514 12.9749 15.8514C13.8485 15.8514 14.5502 15.5689 15.122 14.9875C15.1256 14.9843 15.1326 14.9777 15.1361 14.9711C15.3396 14.7412 15.5711 14.5343 15.8132 14.3142C15.9781 14.1664 16.1465 14.012 16.3079 13.8544C17.0552 13.1252 17.0552 12.1989 16.3009 11.4927L14.1923 9.51871C13.8345 9.17055 13.4065 8.98661 12.9574 8.98661C12.5083 8.98661 12.0768 9.17055 11.7084 9.51543L10.4524 10.6913C10.3366 10.6289 10.2173 10.5731 10.1051 10.5205C9.96474 10.4548 9.83493 10.3924 9.71915 10.3234C8.57543 9.64353 7.53695 8.75669 6.54408 7.61694C6.04238 7.02243 5.70558 6.52318 5.47052 6.01407C5.8003 5.73488 6.10904 5.44255 6.40725 5.15679C6.5125 5.05497 6.62126 4.95315 6.73002 4.85132C7.10893 4.49659 7.31241 4.08602 7.31241 3.66888C7.31241 3.25173 7.11243 2.84116 6.73002 2.48643L5.68453 1.50762C5.56173 1.39266 5.44596 1.28099 5.32667 1.16603C5.09512 0.942674 4.85304 0.712754 4.61447 0.505825C4.25311 0.174083 3.8286 0 3.37952 0C2.93396 0 2.50594 0.174083 2.13054 0.50911L0.818412 1.73754C0.341273 2.18425 0.0711285 2.7262 0.0149945 3.35356C-0.0516646 4.13857 0.102704 4.97285 0.502658 5.98122C1.11662 7.5414 2.04283 8.98989 3.41812 10.5369ZM0.871038 3.42253C0.913138 2.98568 1.09207 2.62109 1.42887 2.30577L2.73398 1.08391C2.93747 0.899975 3.16201 0.804722 3.37952 0.804722C3.59354 0.804722 3.81105 0.899975 4.01103 1.09048C4.24609 1.29412 4.46712 1.50762 4.70569 1.73426C4.82497 1.84922 4.94777 1.96418 5.07056 2.08242L6.11606 3.06123C6.33357 3.26487 6.44584 3.4718 6.44584 3.67544C6.44584 3.87909 6.33357 4.08602 6.11606 4.28966C6.0073 4.39148 5.89854 4.49659 5.78978 4.59841C5.4635 4.90716 5.15827 5.19949 4.82147 5.47868C4.81445 5.48525 4.81094 5.48853 4.80392 5.4951C4.51273 5.76772 4.55834 6.0272 4.62851 6.22428C4.63201 6.23413 4.63552 6.2407 4.63903 6.25056C4.90918 6.8582 5.28457 7.43629 5.87047 8.12605C6.92298 9.34134 8.03163 10.284 9.25254 11.0099C9.4034 11.1019 9.56479 11.1741 9.71565 11.2464C9.85598 11.3121 9.98579 11.3745 10.1016 11.4435C10.1156 11.45 10.1261 11.4566 10.1402 11.4632C10.2559 11.519 10.3682 11.5453 10.4805 11.5453C10.7611 11.5453 10.9436 11.3778 11.0032 11.3219L12.3154 10.0935C12.5188 9.90301 12.7399 9.80119 12.9574 9.80119C13.224 9.80119 13.4415 9.95556 13.5784 10.0935L15.6939 12.0708C16.1149 12.465 16.1114 12.892 15.6834 13.3091C15.536 13.4569 15.3817 13.5982 15.2168 13.746C14.9712 13.9693 14.7151 14.1992 14.4835 14.4587C14.0801 14.866 13.5994 15.0565 12.9784 15.0565C12.9188 15.0565 12.8556 15.0532 12.796 15.0499C11.6453 14.981 10.5752 14.5605 9.77178 14.2025C7.58957 13.2139 5.674 11.8113 4.08471 10.0311C2.77608 8.55633 1.89548 7.18338 1.31309 5.71188C0.95173 4.80862 0.814904 4.08273 0.871038 3.42253Z" fill="black"/>
</svg>
