<svg width="79" height="14" viewBox="0 0 79 14" fill="none" xmlns="http://www.w3.org/2000/svg">
<rect width="79" height="14" fill="#777777"/>
<rect x="-48" y="-337" width="430" height="932" rx="30" fill="white"/>
<rect x="-26" y="-64" width="387" height="318" rx="30" fill="#EFEFEF"/>
<path d="M4.06725 1.186C4.65525 1.186 5.17325 1.30733 5.62125 1.55C6.06925 1.79267 6.41459 2.138 6.65725 2.586C6.90925 3.02467 7.03525 3.53333 7.03525 4.112C7.03525 4.68133 6.90925 5.18533 6.65725 5.624C6.40525 6.06267 6.04592 6.40333 5.57925 6.646C5.12192 6.87933 4.58992 6.996 3.98325 6.996H1.74325C1.69659 6.996 1.67325 7.01933 1.67325 7.066V10.832C1.67325 10.8787 1.65459 10.9207 1.61725 10.958C1.58925 10.986 1.55192 11 1.50525 11H0.217252C0.170585 11 0.128585 10.986 0.0912518 10.958C0.0632518 10.9207 0.0492519 10.8787 0.0492519 10.832V1.354C0.0492519 1.30733 0.0632518 1.27 0.0912518 1.242C0.128585 1.20467 0.170585 1.186 0.217252 1.186H4.06725ZM3.82925 5.68C4.30525 5.68 4.68792 5.54 4.97725 5.26C5.26659 4.98 5.41125 4.61133 5.41125 4.154C5.41125 3.68733 5.26659 3.30933 4.97725 3.02C4.68792 2.73067 4.30525 2.586 3.82925 2.586H1.74325C1.69659 2.586 1.67325 2.60933 1.67325 2.656V5.61C1.67325 5.65667 1.69659 5.68 1.74325 5.68H3.82925ZM11.6413 3.762C11.94 3.762 12.2013 3.82267 12.4253 3.944C12.5 3.98133 12.528 4.05133 12.5093 4.154L12.2713 5.414C12.262 5.526 12.1967 5.55867 12.0753 5.512C11.9353 5.46533 11.772 5.442 11.5853 5.442C11.464 5.442 11.3707 5.44667 11.3053 5.456C10.9133 5.47467 10.5867 5.61467 10.3253 5.876C10.064 6.128 9.93334 6.45933 9.93334 6.87V10.832C9.93334 10.8787 9.91468 10.9207 9.87734 10.958C9.84934 10.986 9.81201 11 9.76534 11H8.47734C8.43068 11 8.38868 10.986 8.35134 10.958C8.32334 10.9207 8.30934 10.8787 8.30934 10.832V4.014C8.30934 3.96733 8.32334 3.93 8.35134 3.902C8.38868 3.86467 8.43068 3.846 8.47734 3.846H9.76534C9.81201 3.846 9.84934 3.86467 9.87734 3.902C9.91468 3.93 9.93334 3.96733 9.93334 4.014V4.644C9.93334 4.68133 9.93801 4.70467 9.94734 4.714C9.96601 4.714 9.98468 4.7 10.0033 4.672C10.3953 4.06533 10.9413 3.762 11.6413 3.762ZM16.4782 11.112C15.7409 11.112 15.1062 10.9253 14.5742 10.552C14.0516 10.1787 13.6829 9.66067 13.4682 8.998C13.3096 8.494 13.2302 7.962 13.2302 7.402C13.2302 6.80467 13.3049 6.27267 13.4542 5.806C13.6689 5.15267 14.0422 4.644 14.5742 4.28C15.1062 3.916 15.7456 3.734 16.4922 3.734C17.2016 3.734 17.8129 3.916 18.3262 4.28C18.8489 4.644 19.2176 5.148 19.4322 5.792C19.6002 6.24 19.6842 6.772 19.6842 7.388C19.6842 7.976 19.6049 8.508 19.4462 8.984C19.2316 9.64667 18.8629 10.1693 18.3402 10.552C17.8176 10.9253 17.1969 11.112 16.4782 11.112ZM16.4782 9.712C16.8236 9.712 17.1176 9.614 17.3602 9.418C17.6122 9.222 17.7942 8.94667 17.9062 8.592C17.9996 8.284 18.0462 7.892 18.0462 7.416C18.0462 6.912 17.9996 6.52 17.9062 6.24C17.8036 5.88533 17.6262 5.61467 17.3742 5.428C17.1222 5.232 16.8142 5.134 16.4502 5.134C16.1049 5.134 15.8062 5.232 15.5542 5.428C15.3022 5.61467 15.1202 5.88533 15.0082 6.24C14.9149 6.56667 14.8682 6.95867 14.8682 7.416C14.8682 7.87333 14.9149 8.26533 15.0082 8.592C15.1109 8.94667 15.2882 9.222 15.5402 9.418C15.8016 9.614 16.1142 9.712 16.4782 9.712ZM24.9474 3.832C24.9941 3.832 25.0314 3.85067 25.0594 3.888C25.0968 3.916 25.1154 3.95333 25.1154 4V5.106C25.1154 5.15267 25.0968 5.19467 25.0594 5.232C25.0314 5.26 24.9941 5.274 24.9474 5.274H23.5614C23.5148 5.274 23.4914 5.29733 23.4914 5.344V10.832C23.4914 10.8787 23.4728 10.9207 23.4354 10.958C23.4074 10.986 23.3701 11 23.3234 11H22.0354C21.9888 11 21.9468 10.986 21.9094 10.958C21.8814 10.9207 21.8674 10.8787 21.8674 10.832V5.344C21.8674 5.29733 21.8441 5.274 21.7974 5.274H20.9294C20.8828 5.274 20.8408 5.26 20.8034 5.232C20.7754 5.19467 20.7614 5.15267 20.7614 5.106V4C20.7614 3.95333 20.7754 3.916 20.8034 3.888C20.8408 3.85067 20.8828 3.832 20.9294 3.832H21.7974C21.8441 3.832 21.8674 3.80867 21.8674 3.762V3.51C21.8674 2.90333 21.9468 2.43667 22.1054 2.11C22.2641 1.774 22.5254 1.536 22.8894 1.396C23.2534 1.256 23.7668 1.19067 24.4294 1.2H24.9194C24.9661 1.2 25.0034 1.21867 25.0314 1.256C25.0688 1.284 25.0874 1.32133 25.0874 1.368V2.348C25.0874 2.39467 25.0688 2.43667 25.0314 2.474C25.0034 2.502 24.9661 2.516 24.9194 2.516H24.5554C24.1541 2.516 23.8741 2.59533 23.7154 2.754C23.5661 2.91267 23.4914 3.202 23.4914 3.622V3.762C23.4914 3.80867 23.5148 3.832 23.5614 3.832H24.9474ZM27.4114 2.866C27.1221 2.866 26.8841 2.77267 26.6974 2.586C26.5108 2.39933 26.4174 2.16133 26.4174 1.872C26.4174 1.58267 26.5108 1.34467 26.6974 1.158C26.8841 0.971333 27.1221 0.877999 27.4114 0.877999C27.7008 0.877999 27.9388 0.971333 28.1254 1.158C28.3121 1.34467 28.4054 1.58267 28.4054 1.872C28.4054 2.16133 28.3121 2.39933 28.1254 2.586C27.9388 2.77267 27.7008 2.866 27.4114 2.866ZM26.7394 11C26.6928 11 26.6508 10.986 26.6134 10.958C26.5854 10.9207 26.5714 10.8787 26.5714 10.832V4C26.5714 3.95333 26.5854 3.916 26.6134 3.888C26.6508 3.85067 26.6928 3.832 26.7394 3.832H28.0274C28.0741 3.832 28.1114 3.85067 28.1394 3.888C28.1768 3.916 28.1954 3.95333 28.1954 4V10.832C28.1954 10.8787 28.1768 10.9207 28.1394 10.958C28.1114 10.986 28.0741 11 28.0274 11H26.7394ZM30.2274 11C30.1807 11 30.1387 10.986 30.1014 10.958C30.0734 10.9207 30.0594 10.8787 30.0594 10.832V1.368C30.0594 1.32133 30.0734 1.284 30.1014 1.256C30.1387 1.21867 30.1807 1.2 30.2274 1.2H31.5154C31.5621 1.2 31.5994 1.21867 31.6274 1.256C31.6647 1.284 31.6834 1.32133 31.6834 1.368V10.832C31.6834 10.8787 31.6647 10.9207 31.6274 10.958C31.5994 10.986 31.5621 11 31.5154 11H30.2274ZM39.4469 6.618C39.4842 6.85133 39.5029 7.11267 39.5029 7.402L39.4889 7.836C39.4889 7.948 39.4329 8.004 39.3209 8.004H34.9389C34.8922 8.004 34.8689 8.02733 34.8689 8.074C34.8969 8.382 34.9389 8.592 34.9949 8.704C35.2189 9.376 35.7649 9.71667 36.6329 9.726C37.2676 9.726 37.7716 9.46467 38.1449 8.942C38.1822 8.886 38.2289 8.858 38.2849 8.858C38.3222 8.858 38.3549 8.872 38.3829 8.9L39.2509 9.614C39.3349 9.67933 39.3489 9.754 39.2929 9.838C39.0036 10.2487 38.6162 10.566 38.1309 10.79C37.6549 11.014 37.1229 11.126 36.5349 11.126C35.8069 11.126 35.1862 10.9627 34.6729 10.636C34.1689 10.3093 33.8002 9.852 33.5669 9.264C33.3522 8.76 33.2449 8.06 33.2449 7.164C33.2449 6.62267 33.3009 6.184 33.4129 5.848C33.5996 5.19467 33.9496 4.68133 34.4629 4.308C34.9856 3.92533 35.6109 3.734 36.3389 3.734C38.1776 3.734 39.2136 4.69533 39.4469 6.618ZM36.3389 5.134C35.9936 5.134 35.7042 5.22267 35.4709 5.4C35.2469 5.568 35.0882 5.806 34.9949 6.114C34.9389 6.27267 34.9016 6.478 34.8829 6.73C34.8642 6.77667 34.8829 6.8 34.9389 6.8H37.7809C37.8276 6.8 37.8509 6.77667 37.8509 6.73C37.8322 6.49667 37.8042 6.31933 37.7669 6.198C37.6829 5.862 37.5149 5.60067 37.2629 5.414C37.0202 5.22733 36.7122 5.134 36.3389 5.134ZM49.8597 5.694C50.0277 6.17 50.1117 6.75333 50.1117 7.444C50.1117 8.10667 50.0324 8.676 49.8737 9.152C49.6684 9.768 49.337 10.2487 48.8797 10.594C48.4317 10.9393 47.8624 11.112 47.1717 11.112C46.509 11.112 45.977 10.874 45.5757 10.398C45.557 10.3793 45.5384 10.3747 45.5197 10.384C45.501 10.3933 45.4917 10.412 45.4917 10.44V13.478C45.4917 13.5247 45.473 13.562 45.4357 13.59C45.4077 13.6273 45.3704 13.646 45.3237 13.646H44.0357C43.989 13.646 43.947 13.6273 43.9097 13.59C43.8817 13.562 43.8677 13.5247 43.8677 13.478V4.014C43.8677 3.96733 43.8817 3.93 43.9097 3.902C43.947 3.86467 43.989 3.846 44.0357 3.846H45.3237C45.3704 3.846 45.4077 3.86467 45.4357 3.902C45.473 3.93 45.4917 3.96733 45.4917 4.014V4.434C45.4917 4.462 45.501 4.48067 45.5197 4.49C45.5384 4.49933 45.557 4.49 45.5757 4.462C45.9864 3.97667 46.523 3.734 47.1857 3.734C47.8484 3.734 48.4084 3.90667 48.8657 4.252C49.323 4.59733 49.6544 5.078 49.8597 5.694ZM48.0397 9.124C48.3197 8.69467 48.4597 8.12533 48.4597 7.416C48.4597 6.73467 48.3477 6.198 48.1237 5.806C47.8624 5.34867 47.4657 5.12 46.9337 5.12C46.4484 5.12 46.0844 5.344 45.8417 5.792C45.627 6.156 45.5197 6.69733 45.5197 7.416C45.5197 8.15333 45.6364 8.71333 45.8697 9.096C46.1124 9.50667 46.4624 9.712 46.9197 9.712C47.4144 9.712 47.7877 9.516 48.0397 9.124ZM55.1066 3.734C55.8626 3.734 56.4646 3.958 56.9126 4.406C57.37 4.854 57.5986 5.46533 57.5986 6.24V10.832C57.5986 10.8787 57.58 10.9207 57.5426 10.958C57.5146 10.986 57.4773 11 57.4306 11H56.1426C56.096 11 56.054 10.986 56.0166 10.958C55.9886 10.9207 55.9746 10.8787 55.9746 10.832V6.576C55.9746 6.14667 55.8533 5.80133 55.6106 5.54C55.368 5.26933 55.046 5.134 54.6446 5.134C54.2433 5.134 53.9166 5.26467 53.6646 5.526C53.422 5.78733 53.3006 6.13267 53.3006 6.562V10.832C53.3006 10.8787 53.282 10.9207 53.2446 10.958C53.2166 10.986 53.1793 11 53.1326 11H51.8446C51.798 11 51.756 10.986 51.7186 10.958C51.6906 10.9207 51.6766 10.8787 51.6766 10.832V1.368C51.6766 1.32133 51.6906 1.284 51.7186 1.256C51.756 1.21867 51.798 1.2 51.8446 1.2H53.1326C53.1793 1.2 53.2166 1.21867 53.2446 1.256C53.282 1.284 53.3006 1.32133 53.3006 1.368V4.462C53.3006 4.49 53.31 4.50867 53.3286 4.518C53.3473 4.52733 53.3613 4.518 53.3706 4.49C53.7533 3.986 54.332 3.734 55.1066 3.734ZM62.2791 11.112C61.5418 11.112 60.9071 10.9253 60.3751 10.552C59.8524 10.1787 59.4838 9.66067 59.2691 8.998C59.1104 8.494 59.0311 7.962 59.0311 7.402C59.0311 6.80467 59.1058 6.27267 59.2551 5.806C59.4698 5.15267 59.8431 4.644 60.3751 4.28C60.9071 3.916 61.5464 3.734 62.2931 3.734C63.0024 3.734 63.6138 3.916 64.1271 4.28C64.6498 4.644 65.0184 5.148 65.2331 5.792C65.4011 6.24 65.4851 6.772 65.4851 7.388C65.4851 7.976 65.4058 8.508 65.2471 8.984C65.0324 9.64667 64.6638 10.1693 64.1411 10.552C63.6184 10.9253 62.9978 11.112 62.2791 11.112ZM62.2791 9.712C62.6244 9.712 62.9184 9.614 63.1611 9.418C63.4131 9.222 63.5951 8.94667 63.7071 8.592C63.8004 8.284 63.8471 7.892 63.8471 7.416C63.8471 6.912 63.8004 6.52 63.7071 6.24C63.6044 5.88533 63.4271 5.61467 63.1751 5.428C62.9231 5.232 62.6151 5.134 62.2511 5.134C61.9058 5.134 61.6071 5.232 61.3551 5.428C61.1031 5.61467 60.9211 5.88533 60.8091 6.24C60.7158 6.56667 60.6691 6.95867 60.6691 7.416C60.6691 7.87333 60.7158 8.26533 60.8091 8.592C60.9118 8.94667 61.0891 9.222 61.3411 9.418C61.6024 9.614 61.9151 9.712 62.2791 9.712ZM70.6679 4.994C70.6679 5.04067 70.6493 5.08267 70.6119 5.12C70.5839 5.148 70.5466 5.162 70.4999 5.162H69.0719C69.0253 5.162 69.0019 5.18533 69.0019 5.232V8.606C69.0019 8.96067 69.0766 9.21733 69.2259 9.376C69.3846 9.53467 69.6319 9.614 69.9679 9.614H70.3879C70.4346 9.614 70.4719 9.63267 70.4999 9.67C70.5373 9.698 70.5559 9.73533 70.5559 9.782V10.832C70.5559 10.9347 70.4999 10.9953 70.3879 11.014L69.6599 11.028C68.9226 11.028 68.3719 10.902 68.0079 10.65C67.6439 10.398 67.4573 9.922 67.4479 9.222V5.232C67.4479 5.18533 67.4246 5.162 67.3779 5.162H66.5799C66.5333 5.162 66.4913 5.148 66.4539 5.12C66.4259 5.08267 66.4119 5.04067 66.4119 4.994V4.014C66.4119 3.96733 66.4259 3.93 66.4539 3.902C66.4913 3.86467 66.5333 3.846 66.5799 3.846H67.3779C67.4246 3.846 67.4479 3.82267 67.4479 3.776V2.138C67.4479 2.09133 67.4619 2.054 67.4899 2.026C67.5273 1.98867 67.5693 1.97 67.6159 1.97H68.8339C68.8806 1.97 68.9179 1.98867 68.9459 2.026C68.9833 2.054 69.0019 2.09133 69.0019 2.138V3.776C69.0019 3.82267 69.0253 3.846 69.0719 3.846H70.4999C70.5466 3.846 70.5839 3.86467 70.6119 3.902C70.6493 3.93 70.6679 3.96733 70.6679 4.014V4.994ZM75.0155 11.112C74.2781 11.112 73.6435 10.9253 73.1115 10.552C72.5888 10.1787 72.2201 9.66067 72.0055 8.998C71.8468 8.494 71.7675 7.962 71.7675 7.402C71.7675 6.80467 71.8421 6.27267 71.9915 5.806C72.2061 5.15267 72.5795 4.644 73.1115 4.28C73.6435 3.916 74.2828 3.734 75.0295 3.734C75.7388 3.734 76.3501 3.916 76.8635 4.28C77.3861 4.644 77.7548 5.148 77.9695 5.792C78.1375 6.24 78.2215 6.772 78.2215 7.388C78.2215 7.976 78.1421 8.508 77.9835 8.984C77.7688 9.64667 77.4001 10.1693 76.8775 10.552C76.3548 10.9253 75.7341 11.112 75.0155 11.112ZM75.0155 9.712C75.3608 9.712 75.6548 9.614 75.8975 9.418C76.1495 9.222 76.3315 8.94667 76.4435 8.592C76.5368 8.284 76.5835 7.892 76.5835 7.416C76.5835 6.912 76.5368 6.52 76.4435 6.24C76.3408 5.88533 76.1635 5.61467 75.9115 5.428C75.6595 5.232 75.3515 5.134 74.9875 5.134C74.6421 5.134 74.3435 5.232 74.0915 5.428C73.8395 5.61467 73.6575 5.88533 73.5455 6.24C73.4521 6.56667 73.4055 6.95867 73.4055 7.416C73.4055 7.87333 73.4521 8.26533 73.5455 8.592C73.6481 8.94667 73.8255 9.222 74.0775 9.418C74.3388 9.614 74.6515 9.712 75.0155 9.712Z" fill="#909091"/>
</svg>
