<svg width="26" height="26" viewBox="0 0 26 26" fill="none" xmlns="http://www.w3.org/2000/svg">
<g clip-path="url(#clip0_18_45893)">
<path d="M3.25 3.25H6.5V6.5H3.25V3.25Z" fill="#201E43"/>
<path d="M9.75 0V9.75H0V0H9.75ZM8.125 1.625H1.625V8.125H8.125V1.625ZM6.5 19.5H3.25V22.75H6.5V19.5Z" fill="#201E43"/>
<path d="M9.75 16.25V26H0V16.25H9.75ZM1.625 17.875V24.375H8.125V17.875H1.625ZM19.5 3.25H22.75V6.5H19.5V3.25Z" fill="#201E43"/>
<path d="M16.25 0V9.75H26V0H16.25ZM24.375 1.625V8.125H17.875V1.625H24.375ZM13 1.625V0H14.625V3.25H13V6.5H11.375V1.625H13ZM13 9.75V6.5H14.625V9.75H13ZM9.75 13V11.375H11.375V9.75H13V13H14.625V11.375H22.75V13H16.25V14.625H11.375V13H9.75ZM9.75 13V14.625H3.25V13H1.625V14.625H0V11.375H4.875V13H9.75ZM26 14.625H24.375V11.375H26V14.625ZM24.375 14.625H22.75V17.875H26V16.25H24.375V14.625ZM17.875 14.625H21.125V16.25H19.5V17.875H17.875V14.625ZM21.125 19.5V17.875H19.5V19.5H17.875V21.125H14.625V22.75H19.5V19.5H21.125ZM21.125 19.5H26V21.125H22.75V22.75H21.125V19.5ZM14.625 17.875V19.5H16.25V16.25H11.375V17.875H14.625Z" fill="#201E43"/>
<path d="M11.375 19.5H13V24.375H19.5V26H11.375V19.5ZM26 22.75V26H21.125V24.375H24.375V22.75H26Z" fill="#201E43"/>
</g>
<defs>
<clipPath id="clip0_18_45893">
<rect width="26" height="26" fill="white"/>
</clipPath>
</defs>
</svg>
