<svg width="38" height="38" viewBox="0 0 38 38" fill="none" xmlns="http://www.w3.org/2000/svg">
<path d="M29.5557 0H27.4446C26.1779 0 25.3335 0.844444 25.3335 2.11111C25.3335 3.37778 26.1779 4.22222 27.4446 4.22222H29.5557C31.8779 4.22222 33.7779 6.12222 33.7779 8.44444V10.7667C33.7779 12.0333 34.6224 12.8778 35.8891 12.8778C37.1557 12.8778 38.0002 12.0333 38.0002 10.7667V8.44444C38.0002 3.8 34.2002 0 29.5557 0Z" fill="black"/>
<path d="M35.8891 25.3335C34.6224 25.3335 33.7779 26.1779 33.7779 27.4446V29.5557C33.7779 31.8779 31.8779 33.7779 29.5557 33.7779H27.4446C26.1779 33.7779 25.3335 34.6224 25.3335 35.8891C25.3335 37.1557 26.1779 38.0002 27.4446 38.0002H29.5557C34.2002 38.0002 38.0002 34.2002 38.0002 29.5557V27.4446C38.0002 26.1779 37.1557 25.3335 35.8891 25.3335Z" fill="black"/>
<path d="M10.5556 33.7779H8.44444C6.12222 33.7779 4.22222 31.8779 4.22222 29.5557V27.4446C4.22222 26.1779 3.37778 25.3335 2.11111 25.3335C0.844444 25.3335 0 26.1779 0 27.4446V29.5557C0 34.2002 3.8 38.0002 8.44444 38.0002H10.5556C11.8222 38.0002 12.6667 37.1557 12.6667 35.8891C12.6667 34.6224 11.8222 33.7779 10.5556 33.7779Z" fill="black"/>
<path d="M2.11111 12.6667C3.37778 12.6667 4.22222 11.8222 4.22222 10.5556V8.44444C4.22222 6.12222 6.12222 4.22222 8.44444 4.22222H10.5556C11.8222 4.22222 12.6667 3.37778 12.6667 2.11111C12.6667 0.844444 11.8222 0 10.5556 0H8.44444C3.8 0 0 3.8 0 8.44444V10.5556C0 11.6111 0.844444 12.6667 2.11111 12.6667Z" fill="black"/>
<path d="M19.0002 10.5557C19.0002 8.2335 17.1002 6.3335 14.7779 6.3335H10.5557C8.2335 6.3335 6.3335 8.2335 6.3335 10.5557V14.7779C6.3335 17.1002 8.2335 19.0002 10.5557 19.0002H14.7779C17.1002 19.0002 19.0002 17.1002 19.0002 14.7779V10.5557ZM10.5557 14.7779V10.5557H14.7779V14.7779H10.5557Z" fill="black"/>
<path d="M31.6667 27.4444V23.2222C31.6667 20.9 29.7667 19 27.4444 19H23.2222C20.9 19 19 20.9 19 23.2222V27.4444C19 29.7667 20.9 31.6667 23.2222 31.6667H27.4444C29.7667 31.6667 31.6667 29.7667 31.6667 27.4444ZM23.2222 23.2222H27.4444V27.4444H23.2222V23.2222Z" fill="black"/>
<path d="M23.2222 16.8891H25.3333C26.6 16.8891 27.4444 16.0446 27.4444 14.7779V10.5557H29.5555C30.8222 10.5557 31.6666 9.71127 31.6666 8.44461C31.6666 7.17794 30.8222 6.3335 29.5555 6.3335H25.3333C24.0666 6.3335 23.2222 7.17794 23.2222 8.44461V12.6668C21.9555 12.6668 21.1111 13.5113 21.1111 14.7779C21.1111 16.0446 21.9555 16.8891 23.2222 16.8891Z" fill="black"/>
<path d="M14.7779 21.1111H8.44461C7.17794 21.1111 6.3335 21.9555 6.3335 23.2222C6.3335 24.4889 7.17794 25.3333 8.44461 25.3333H12.6668V29.5555C12.6668 30.8222 13.5113 31.6666 14.7779 31.6666C16.0446 31.6666 16.8891 30.8222 16.8891 29.5555V23.2222C16.8891 21.9555 16.0446 21.1111 14.7779 21.1111Z" fill="black"/>
</svg>
