<svg width="26" height="23" viewBox="0 0 26 23" fill="none" xmlns="http://www.w3.org/2000/svg">
<path d="M25 2.16406V9.1659H18.4546" stroke="#727272" stroke-width="2" stroke-linecap="round" stroke-linejoin="round"/>
<path d="M1 20.8356V13.8337H7.54545" stroke="#727272" stroke-width="2" stroke-linecap="round" stroke-linejoin="round"/>
<path d="M3.73818 7.99908C4.29146 6.32656 5.23178 4.83122 6.47142 3.65259C7.71106 2.47397 9.2096 1.65047 10.8272 1.25894C12.4448 0.867415 14.1288 0.920617 15.722 1.41358C17.3152 1.90655 18.7657 2.82322 19.9382 4.07805L25 9.16605M1 13.8339L6.06182 18.922C7.23427 20.1768 8.68477 21.0934 10.278 21.5864C11.8712 22.0794 13.5552 22.1326 15.1728 21.7411C16.7904 21.3495 18.2889 20.526 19.5286 19.3474C20.7682 18.1688 21.7085 16.6734 22.2618 15.0009" stroke="#727272" stroke-width="2" stroke-linecap="round" stroke-linejoin="round"/>
</svg>
