<svg width="387" height="318" viewBox="0 0 387 318" fill="none" xmlns="http://www.w3.org/2000/svg">
<rect width="387" height="318" fill="#777777"/>
<rect x="-22" y="-273" width="430" height="932" rx="30" fill="white"/>
<rect width="387" height="318" rx="30" fill="#EFEFEF"/>
<path d="M31.6216 44.16C30.635 44.16 29.7616 43.9667 29.0016 43.58C28.2416 43.1933 27.6483 42.6467 27.2216 41.94C26.8083 41.22 26.6016 40.3933 26.6016 39.46V30.24C26.6016 30.1733 26.6216 30.12 26.6616 30.08C26.715 30.0267 26.775 30 26.8416 30H28.6816C28.7483 30 28.8016 30.0267 28.8416 30.08C28.895 30.12 28.9216 30.1733 28.9216 30.24V39.5C28.9216 40.2867 29.1683 40.9267 29.6616 41.42C30.155 41.9133 30.8083 42.16 31.6216 42.16C32.435 42.16 33.0883 41.9133 33.5816 41.42C34.075 40.9267 34.3216 40.2867 34.3216 39.5V30.24C34.3216 30.1733 34.3416 30.12 34.3816 30.08C34.435 30.0267 34.495 30 34.5616 30H36.4016C36.4683 30 36.5216 30.0267 36.5616 30.08C36.615 30.12 36.6416 30.1733 36.6416 30.24V39.46C36.6416 40.3933 36.435 41.22 36.0216 41.94C35.6083 42.6467 35.0216 43.1933 34.2616 43.58C33.5016 43.9667 32.6216 44.16 31.6216 44.16ZM47.8804 36.42C48.1204 37.1 48.2404 37.9333 48.2404 38.92C48.2404 39.8667 48.1271 40.68 47.9004 41.36C47.6071 42.24 47.1337 42.9267 46.4804 43.42C45.8404 43.9133 45.0271 44.16 44.0404 44.16C43.0937 44.16 42.3337 43.82 41.7604 43.14C41.7337 43.1133 41.7071 43.1067 41.6804 43.12C41.6537 43.1333 41.6404 43.16 41.6404 43.2V47.54C41.6404 47.6067 41.6137 47.66 41.5604 47.7C41.5204 47.7533 41.4671 47.78 41.4004 47.78H39.5604C39.4937 47.78 39.4337 47.7533 39.3804 47.7C39.3404 47.66 39.3204 47.6067 39.3204 47.54V34.02C39.3204 33.9533 39.3404 33.9 39.3804 33.86C39.4337 33.8067 39.4937 33.78 39.5604 33.78H41.4004C41.4671 33.78 41.5204 33.8067 41.5604 33.86C41.6137 33.9 41.6404 33.9533 41.6404 34.02V34.62C41.6404 34.66 41.6537 34.6867 41.6804 34.7C41.7071 34.7133 41.7337 34.7 41.7604 34.66C42.3471 33.9667 43.1137 33.62 44.0604 33.62C45.0071 33.62 45.8071 33.8667 46.4604 34.36C47.1137 34.8533 47.5871 35.54 47.8804 36.42ZM45.2804 41.32C45.6804 40.7067 45.8804 39.8933 45.8804 38.88C45.8804 37.9067 45.7204 37.14 45.4004 36.58C45.0271 35.9267 44.4604 35.6 43.7004 35.6C43.0071 35.6 42.4871 35.92 42.1404 36.56C41.8337 37.08 41.6804 37.8533 41.6804 38.88C41.6804 39.9333 41.8471 40.7333 42.1804 41.28C42.5271 41.8667 43.0271 42.16 43.6804 42.16C44.3871 42.16 44.9204 41.88 45.2804 41.32ZM50.7339 44C50.6672 44 50.6072 43.98 50.5539 43.94C50.5139 43.8867 50.4939 43.8267 50.4939 43.76V30.24C50.4939 30.1733 50.5139 30.12 50.5539 30.08C50.6072 30.0267 50.6672 30 50.7339 30H52.5739C52.6405 30 52.6939 30.0267 52.7339 30.08C52.7872 30.12 52.8139 30.1733 52.8139 30.24V43.76C52.8139 43.8267 52.7872 43.8867 52.7339 43.94C52.6939 43.98 52.6405 44 52.5739 44H50.7339ZM59.6229 44.16C58.5696 44.16 57.6629 43.8933 56.9029 43.36C56.1563 42.8267 55.6296 42.0867 55.3229 41.14C55.0963 40.42 54.9829 39.66 54.9829 38.86C54.9829 38.0067 55.0896 37.2467 55.3029 36.58C55.6096 35.6467 56.1429 34.92 56.9029 34.4C57.6629 33.88 58.5763 33.62 59.6429 33.62C60.6563 33.62 61.5296 33.88 62.2629 34.4C63.0096 34.92 63.5363 35.64 63.8429 36.56C64.0829 37.2 64.2029 37.96 64.2029 38.84C64.2029 39.68 64.0896 40.44 63.8629 41.12C63.5563 42.0667 63.0296 42.8133 62.2829 43.36C61.5363 43.8933 60.6496 44.16 59.6229 44.16ZM59.6229 42.16C60.1163 42.16 60.5363 42.02 60.8829 41.74C61.2429 41.46 61.5029 41.0667 61.6629 40.56C61.7963 40.12 61.8629 39.56 61.8629 38.88C61.8629 38.16 61.7963 37.6 61.6629 37.2C61.5163 36.6933 61.2629 36.3067 60.9029 36.04C60.5429 35.76 60.1029 35.62 59.5829 35.62C59.0896 35.62 58.6629 35.76 58.3029 36.04C57.9429 36.3067 57.6829 36.6933 57.5229 37.2C57.3896 37.6667 57.3229 38.2267 57.3229 38.88C57.3229 39.5333 57.3896 40.0933 57.5229 40.56C57.6696 41.0667 57.9229 41.46 58.2829 41.74C58.6563 42.02 59.1029 42.16 59.6229 42.16ZM70.3001 33.62C71.1401 33.62 71.8801 33.7667 72.5201 34.06C73.1601 34.3533 73.6535 34.76 74.0001 35.28C74.3468 35.7867 74.5201 36.3667 74.5201 37.02V43.76C74.5201 43.8267 74.4935 43.8867 74.4401 43.94C74.4001 43.98 74.3468 44 74.2801 44H72.4401C72.3735 44 72.3135 43.98 72.2601 43.94C72.2201 43.8867 72.2001 43.8267 72.2001 43.76V43.12C72.2001 43.08 72.1868 43.06 72.1601 43.06C72.1335 43.0467 72.1068 43.0533 72.0801 43.08C71.4268 43.8 70.4801 44.16 69.2401 44.16C68.2401 44.16 67.4135 43.9067 66.7601 43.4C66.1201 42.8933 65.8001 42.14 65.8001 41.14C65.8001 40.1 66.1601 39.2933 66.8801 38.72C67.6135 38.1333 68.6401 37.84 69.9601 37.84H72.1001C72.1668 37.84 72.2001 37.8067 72.2001 37.74V37.26C72.2001 36.74 72.0468 36.34 71.7401 36.06C71.4335 35.7667 70.9735 35.62 70.3601 35.62C69.8535 35.62 69.4401 35.7133 69.1201 35.9C68.8135 36.0733 68.6201 36.32 68.5401 36.64C68.5001 36.8 68.4068 36.8667 68.2601 36.84L66.3201 36.6C66.2535 36.5867 66.1935 36.5667 66.1401 36.54C66.1001 36.5 66.0868 36.4533 66.1001 36.4C66.2068 35.5867 66.6401 34.92 67.4001 34.4C68.1735 33.88 69.1401 33.62 70.3001 33.62ZM69.8201 42.32C70.4735 42.32 71.0335 42.1467 71.5001 41.8C71.9668 41.4533 72.2001 41.0133 72.2001 40.48V39.54C72.2001 39.4733 72.1668 39.44 72.1001 39.44H70.4201C69.7135 39.44 69.1535 39.5733 68.7401 39.84C68.3401 40.1067 68.1401 40.4867 68.1401 40.98C68.1401 41.4067 68.2935 41.74 68.6001 41.98C68.9201 42.2067 69.3268 42.32 69.8201 42.32ZM83.1933 30.24C83.1933 30.1733 83.2133 30.12 83.2533 30.08C83.3066 30.0267 83.3666 30 83.4333 30H85.2733C85.3399 30 85.3933 30.0267 85.4333 30.08C85.4866 30.12 85.5133 30.1733 85.5133 30.24V43.76C85.5133 43.8267 85.4866 43.8867 85.4333 43.94C85.3933 43.98 85.3399 44 85.2733 44H83.4333C83.3666 44 83.3066 43.98 83.2533 43.94C83.2133 43.8867 83.1933 43.8267 83.1933 43.76V43.16C83.1933 43.12 83.1799 43.0933 83.1533 43.08C83.1266 43.0667 83.0999 43.08 83.0733 43.12C82.4866 43.8133 81.7199 44.16 80.7733 44.16C79.8266 44.16 79.0266 43.9133 78.3733 43.42C77.7199 42.9267 77.2466 42.24 76.9533 41.36C76.7133 40.6133 76.5933 39.78 76.5933 38.86C76.5933 37.9133 76.7066 37.1 76.9333 36.42C77.2266 35.54 77.6999 34.8533 78.3533 34.36C79.0066 33.8667 79.8266 33.62 80.8133 33.62C81.7333 33.62 82.4866 33.9533 83.0733 34.62C83.0999 34.6467 83.1266 34.66 83.1533 34.66C83.1799 34.6467 83.1933 34.62 83.1933 34.58V30.24ZM82.7133 41.2C83.0199 40.6533 83.1733 39.88 83.1733 38.88C83.1733 37.84 83.0066 37.0467 82.6733 36.5C82.3133 35.9133 81.8066 35.62 81.1533 35.62C80.4733 35.62 79.9399 35.9 79.5533 36.46C79.1533 37.0467 78.9533 37.86 78.9533 38.9C78.9533 39.8333 79.1133 40.6 79.4333 41.2C79.8066 41.84 80.3733 42.16 81.1333 42.16C81.8133 42.16 82.3399 41.84 82.7133 41.2ZM93.3569 32.38C92.9436 32.38 92.6036 32.2467 92.3369 31.98C92.0702 31.7133 91.9369 31.3733 91.9369 30.96C91.9369 30.5467 92.0702 30.2067 92.3369 29.94C92.6036 29.6733 92.9436 29.54 93.3569 29.54C93.7702 29.54 94.1102 29.6733 94.3769 29.94C94.6436 30.2067 94.7769 30.5467 94.7769 30.96C94.7769 31.3733 94.6436 31.7133 94.3769 31.98C94.1102 32.2467 93.7702 32.38 93.3569 32.38ZM92.3969 44C92.3302 44 92.2702 43.98 92.2169 43.94C92.1769 43.8867 92.1569 43.8267 92.1569 43.76V34C92.1569 33.9333 92.1769 33.88 92.2169 33.84C92.2702 33.7867 92.3302 33.76 92.3969 33.76H94.2369C94.3036 33.76 94.3569 33.7867 94.3969 33.84C94.4502 33.88 94.4769 33.9333 94.4769 34V43.76C94.4769 43.8267 94.4502 43.8867 94.3969 43.94C94.3569 43.98 94.3036 44 94.2369 44H92.3969ZM108.078 33.62C109.105 33.62 109.905 33.9333 110.478 34.56C111.065 35.1733 111.358 36.0333 111.358 37.14V43.76C111.358 43.8267 111.332 43.8867 111.278 43.94C111.238 43.98 111.185 44 111.118 44H109.298C109.232 44 109.172 43.98 109.118 43.94C109.078 43.8867 109.058 43.8267 109.058 43.76V37.62C109.058 37.0067 108.892 36.52 108.558 36.16C108.238 35.8 107.805 35.62 107.258 35.62C106.712 35.62 106.265 35.8 105.918 36.16C105.572 36.52 105.398 37 105.398 37.6V43.76C105.398 43.8267 105.372 43.8867 105.318 43.94C105.278 43.98 105.225 44 105.158 44H103.338C103.272 44 103.212 43.98 103.158 43.94C103.118 43.8867 103.098 43.8267 103.098 43.76V37.62C103.098 37.0067 102.932 36.52 102.598 36.16C102.265 35.8 101.825 35.62 101.278 35.62C100.772 35.62 100.352 35.7667 100.018 36.06C99.6985 36.3533 99.5118 36.7533 99.4585 37.26V43.76C99.4585 43.8267 99.4318 43.8867 99.3785 43.94C99.3385 43.98 99.2851 44 99.2185 44H97.3785C97.3118 44 97.2518 43.98 97.1985 43.94C97.1585 43.8867 97.1385 43.8267 97.1385 43.76V34.02C97.1385 33.9533 97.1585 33.9 97.1985 33.86C97.2518 33.8067 97.3118 33.78 97.3785 33.78H99.2185C99.2851 33.78 99.3385 33.8067 99.3785 33.86C99.4318 33.9 99.4585 33.9533 99.4585 34.02V34.68C99.4585 34.72 99.4718 34.7467 99.4985 34.76C99.5251 34.7733 99.5518 34.76 99.5785 34.72C99.8718 34.3467 100.232 34.0733 100.658 33.9C101.098 33.7133 101.585 33.62 102.118 33.62C102.772 33.62 103.345 33.7533 103.838 34.02C104.332 34.2867 104.712 34.6733 104.978 35.18C105.018 35.2333 105.065 35.2333 105.118 35.18C105.412 34.6467 105.818 34.2533 106.338 34C106.858 33.7467 107.438 33.62 108.078 33.62ZM117.624 33.62C118.464 33.62 119.204 33.7667 119.844 34.06C120.484 34.3533 120.978 34.76 121.324 35.28C121.671 35.7867 121.844 36.3667 121.844 37.02V43.76C121.844 43.8267 121.818 43.8867 121.764 43.94C121.724 43.98 121.671 44 121.604 44H119.764C119.698 44 119.638 43.98 119.584 43.94C119.544 43.8867 119.524 43.8267 119.524 43.76V43.12C119.524 43.08 119.511 43.06 119.484 43.06C119.458 43.0467 119.431 43.0533 119.404 43.08C118.751 43.8 117.804 44.16 116.564 44.16C115.564 44.16 114.738 43.9067 114.084 43.4C113.444 42.8933 113.124 42.14 113.124 41.14C113.124 40.1 113.484 39.2933 114.204 38.72C114.938 38.1333 115.964 37.84 117.284 37.84H119.424C119.491 37.84 119.524 37.8067 119.524 37.74V37.26C119.524 36.74 119.371 36.34 119.064 36.06C118.758 35.7667 118.298 35.62 117.684 35.62C117.178 35.62 116.764 35.7133 116.444 35.9C116.138 36.0733 115.944 36.32 115.864 36.64C115.824 36.8 115.731 36.8667 115.584 36.84L113.644 36.6C113.578 36.5867 113.518 36.5667 113.464 36.54C113.424 36.5 113.411 36.4533 113.424 36.4C113.531 35.5867 113.964 34.92 114.724 34.4C115.498 33.88 116.464 33.62 117.624 33.62ZM117.144 42.32C117.798 42.32 118.358 42.1467 118.824 41.8C119.291 41.4533 119.524 41.0133 119.524 40.48V39.54C119.524 39.4733 119.491 39.44 119.424 39.44H117.744C117.038 39.44 116.478 39.5733 116.064 39.84C115.664 40.1067 115.464 40.4867 115.464 40.98C115.464 41.4067 115.618 41.74 115.924 41.98C116.244 42.2067 116.651 42.32 117.144 42.32ZM130.438 34.02C130.438 33.9533 130.458 33.9 130.498 33.86C130.551 33.8067 130.611 33.78 130.678 33.78H132.518C132.584 33.78 132.638 33.8067 132.678 33.86C132.731 33.9 132.758 33.9533 132.758 34.02V43.32C132.758 44.9867 132.278 46.1733 131.318 46.88C130.371 47.6 129.124 47.96 127.578 47.96C127.164 47.96 126.758 47.94 126.358 47.9C126.211 47.8867 126.138 47.8 126.138 47.64L126.198 46C126.198 45.8533 126.291 45.78 126.478 45.78C126.864 45.82 127.211 45.84 127.518 45.84C128.518 45.84 129.251 45.64 129.718 45.24C130.198 44.8533 130.438 44.1933 130.438 43.26V43.1C130.438 43.06 130.424 43.04 130.398 43.04C130.371 43.0267 130.344 43.0333 130.318 43.06C129.771 43.6467 128.998 43.94 127.998 43.94C127.131 43.94 126.338 43.72 125.618 43.28C124.898 42.84 124.398 42.1667 124.118 41.26C123.944 40.6333 123.858 39.8267 123.858 38.84C123.858 37.7333 123.964 36.8867 124.178 36.3C124.444 35.4867 124.904 34.84 125.558 34.36C126.211 33.8667 126.978 33.62 127.858 33.62C128.911 33.62 129.731 33.9267 130.318 34.54C130.344 34.58 130.371 34.5933 130.398 34.58C130.424 34.5667 130.438 34.54 130.438 34.5V34.02ZM130.298 40.6C130.351 40.4 130.384 40.1867 130.398 39.96C130.424 39.72 130.438 39.34 130.438 38.82C130.438 38.3133 130.424 37.9533 130.398 37.74C130.384 37.5133 130.344 37.2933 130.278 37.08C130.171 36.64 129.951 36.2867 129.618 36.02C129.298 35.7533 128.884 35.62 128.378 35.62C127.898 35.62 127.491 35.7533 127.158 36.02C126.824 36.2867 126.584 36.64 126.438 37.08C126.278 37.4533 126.198 38.04 126.198 38.84C126.198 39.6667 126.264 40.2467 126.398 40.58C126.531 41.0067 126.771 41.36 127.118 41.64C127.478 41.9067 127.904 42.04 128.398 42.04C128.918 42.04 129.338 41.9067 129.658 41.64C129.978 41.3733 130.191 41.0267 130.298 40.6ZM143.778 37.74C143.831 38.0733 143.858 38.4467 143.858 38.86L143.838 39.48C143.838 39.64 143.758 39.72 143.598 39.72H137.338C137.271 39.72 137.238 39.7533 137.238 39.82C137.278 40.26 137.338 40.56 137.418 40.72C137.738 41.68 138.518 42.1667 139.758 42.18C140.665 42.18 141.385 41.8067 141.918 41.06C141.971 40.98 142.038 40.94 142.118 40.94C142.171 40.94 142.218 40.96 142.258 41L143.498 42.02C143.618 42.1133 143.638 42.22 143.558 42.34C143.145 42.9267 142.591 43.38 141.898 43.7C141.218 44.02 140.458 44.18 139.618 44.18C138.578 44.18 137.691 43.9467 136.958 43.48C136.238 43.0133 135.711 42.36 135.378 41.52C135.071 40.8 134.918 39.8 134.918 38.52C134.918 37.7467 134.998 37.12 135.158 36.64C135.425 35.7067 135.925 34.9733 136.658 34.44C137.405 33.8933 138.298 33.62 139.338 33.62C141.965 33.62 143.445 34.9933 143.778 37.74ZM139.338 35.62C138.845 35.62 138.431 35.7467 138.098 36C137.778 36.24 137.551 36.58 137.418 37.02C137.338 37.2467 137.285 37.54 137.258 37.9C137.231 37.9667 137.258 38 137.338 38H141.398C141.465 38 141.498 37.9667 141.498 37.9C141.471 37.5667 141.431 37.3133 141.378 37.14C141.258 36.66 141.018 36.2867 140.658 36.02C140.311 35.7533 139.871 35.62 139.338 35.62Z" fill="black"/>
<path d="M30.0673 65.186C30.6553 65.186 31.1733 65.3073 31.6213 65.55C32.0693 65.7927 32.4146 66.138 32.6573 66.586C32.9093 67.0247 33.0353 67.5333 33.0353 68.112C33.0353 68.6813 32.9093 69.1853 32.6573 69.624C32.4053 70.0627 32.0459 70.4033 31.5793 70.646C31.1219 70.8793 30.5899 70.996 29.9833 70.996H27.7433C27.6966 70.996 27.6733 71.0193 27.6733 71.066V74.832C27.6733 74.8787 27.6546 74.9207 27.6173 74.958C27.5893 74.986 27.5519 75 27.5053 75H26.2173C26.1706 75 26.1286 74.986 26.0913 74.958C26.0633 74.9207 26.0493 74.8787 26.0493 74.832V65.354C26.0493 65.3073 26.0633 65.27 26.0913 65.242C26.1286 65.2047 26.1706 65.186 26.2173 65.186H30.0673ZM29.8293 69.68C30.3053 69.68 30.6879 69.54 30.9773 69.26C31.2666 68.98 31.4113 68.6113 31.4113 68.154C31.4113 67.6873 31.2666 67.3093 30.9773 67.02C30.6879 66.7307 30.3053 66.586 29.8293 66.586H27.7433C27.6966 66.586 27.6733 66.6093 27.6733 66.656V69.61C27.6733 69.6567 27.6966 69.68 27.7433 69.68H29.8293ZM37.6413 67.762C37.94 67.762 38.2013 67.8227 38.4253 67.944C38.5 67.9813 38.528 68.0513 38.5093 68.154L38.2713 69.414C38.262 69.526 38.1967 69.5587 38.0753 69.512C37.9353 69.4653 37.772 69.442 37.5853 69.442C37.464 69.442 37.3707 69.4467 37.3053 69.456C36.9133 69.4747 36.5867 69.6147 36.3253 69.876C36.064 70.128 35.9333 70.4593 35.9333 70.87V74.832C35.9333 74.8787 35.9147 74.9207 35.8773 74.958C35.8493 74.986 35.812 75 35.7653 75H34.4773C34.4307 75 34.3887 74.986 34.3513 74.958C34.3233 74.9207 34.3093 74.8787 34.3093 74.832V68.014C34.3093 67.9673 34.3233 67.93 34.3513 67.902C34.3887 67.8647 34.4307 67.846 34.4773 67.846H35.7653C35.812 67.846 35.8493 67.8647 35.8773 67.902C35.9147 67.93 35.9333 67.9673 35.9333 68.014V68.644C35.9333 68.6813 35.938 68.7047 35.9473 68.714C35.966 68.714 35.9847 68.7 36.0033 68.672C36.3953 68.0653 36.9413 67.762 37.6413 67.762ZM42.4782 75.112C41.7409 75.112 41.1062 74.9253 40.5742 74.552C40.0516 74.1787 39.6829 73.6607 39.4682 72.998C39.3096 72.494 39.2302 71.962 39.2302 71.402C39.2302 70.8047 39.3049 70.2727 39.4542 69.806C39.6689 69.1527 40.0422 68.644 40.5742 68.28C41.1062 67.916 41.7456 67.734 42.4922 67.734C43.2016 67.734 43.8129 67.916 44.3262 68.28C44.8489 68.644 45.2176 69.148 45.4322 69.792C45.6002 70.24 45.6842 70.772 45.6842 71.388C45.6842 71.976 45.6049 72.508 45.4462 72.984C45.2316 73.6467 44.8629 74.1693 44.3402 74.552C43.8176 74.9253 43.1969 75.112 42.4782 75.112ZM42.4782 73.712C42.8236 73.712 43.1176 73.614 43.3602 73.418C43.6122 73.222 43.7942 72.9467 43.9062 72.592C43.9996 72.284 44.0462 71.892 44.0462 71.416C44.0462 70.912 43.9996 70.52 43.9062 70.24C43.8036 69.8853 43.6262 69.6147 43.3742 69.428C43.1222 69.232 42.8142 69.134 42.4502 69.134C42.1049 69.134 41.8062 69.232 41.5542 69.428C41.3022 69.6147 41.1202 69.8853 41.0082 70.24C40.9149 70.5667 40.8682 70.9587 40.8682 71.416C40.8682 71.8733 40.9149 72.2653 41.0082 72.592C41.1109 72.9467 41.2882 73.222 41.5402 73.418C41.8016 73.614 42.1142 73.712 42.4782 73.712ZM50.9474 67.832C50.9941 67.832 51.0314 67.8507 51.0594 67.888C51.0968 67.916 51.1154 67.9533 51.1154 68V69.106C51.1154 69.1527 51.0968 69.1947 51.0594 69.232C51.0314 69.26 50.9941 69.274 50.9474 69.274H49.5614C49.5148 69.274 49.4914 69.2973 49.4914 69.344V74.832C49.4914 74.8787 49.4728 74.9207 49.4354 74.958C49.4074 74.986 49.3701 75 49.3234 75H48.0354C47.9888 75 47.9468 74.986 47.9094 74.958C47.8814 74.9207 47.8674 74.8787 47.8674 74.832V69.344C47.8674 69.2973 47.8441 69.274 47.7974 69.274H46.9294C46.8828 69.274 46.8408 69.26 46.8034 69.232C46.7754 69.1947 46.7614 69.1527 46.7614 69.106V68C46.7614 67.9533 46.7754 67.916 46.8034 67.888C46.8408 67.8507 46.8828 67.832 46.9294 67.832H47.7974C47.8441 67.832 47.8674 67.8087 47.8674 67.762V67.51C47.8674 66.9033 47.9468 66.4367 48.1054 66.11C48.2641 65.774 48.5254 65.536 48.8894 65.396C49.2534 65.256 49.7668 65.1907 50.4294 65.2H50.9194C50.9661 65.2 51.0034 65.2187 51.0314 65.256C51.0688 65.284 51.0874 65.3213 51.0874 65.368V66.348C51.0874 66.3947 51.0688 66.4367 51.0314 66.474C51.0034 66.502 50.9661 66.516 50.9194 66.516H50.5554C50.1541 66.516 49.8741 66.5953 49.7154 66.754C49.5661 66.9127 49.4914 67.202 49.4914 67.622V67.762C49.4914 67.8087 49.5148 67.832 49.5614 67.832H50.9474ZM53.4114 66.866C53.1221 66.866 52.8841 66.7727 52.6974 66.586C52.5108 66.3993 52.4174 66.1613 52.4174 65.872C52.4174 65.5827 52.5108 65.3447 52.6974 65.158C52.8841 64.9713 53.1221 64.878 53.4114 64.878C53.7008 64.878 53.9388 64.9713 54.1254 65.158C54.3121 65.3447 54.4054 65.5827 54.4054 65.872C54.4054 66.1613 54.3121 66.3993 54.1254 66.586C53.9388 66.7727 53.7008 66.866 53.4114 66.866ZM52.7394 75C52.6928 75 52.6508 74.986 52.6134 74.958C52.5854 74.9207 52.5714 74.8787 52.5714 74.832V68C52.5714 67.9533 52.5854 67.916 52.6134 67.888C52.6508 67.8507 52.6928 67.832 52.7394 67.832H54.0274C54.0741 67.832 54.1114 67.8507 54.1394 67.888C54.1768 67.916 54.1954 67.9533 54.1954 68V74.832C54.1954 74.8787 54.1768 74.9207 54.1394 74.958C54.1114 74.986 54.0741 75 54.0274 75H52.7394ZM56.2274 75C56.1807 75 56.1387 74.986 56.1014 74.958C56.0734 74.9207 56.0594 74.8787 56.0594 74.832V65.368C56.0594 65.3213 56.0734 65.284 56.1014 65.256C56.1387 65.2187 56.1807 65.2 56.2274 65.2H57.5154C57.5621 65.2 57.5994 65.2187 57.6274 65.256C57.6647 65.284 57.6834 65.3213 57.6834 65.368V74.832C57.6834 74.8787 57.6647 74.9207 57.6274 74.958C57.5994 74.986 57.5621 75 57.5154 75H56.2274ZM65.4469 70.618C65.4842 70.8513 65.5029 71.1127 65.5029 71.402L65.4889 71.836C65.4889 71.948 65.4329 72.004 65.3209 72.004H60.9389C60.8922 72.004 60.8689 72.0273 60.8689 72.074C60.8969 72.382 60.9389 72.592 60.9949 72.704C61.2189 73.376 61.7649 73.7167 62.6329 73.726C63.2676 73.726 63.7716 73.4647 64.1449 72.942C64.1822 72.886 64.2289 72.858 64.2849 72.858C64.3222 72.858 64.3549 72.872 64.3829 72.9L65.2509 73.614C65.3349 73.6793 65.3489 73.754 65.2929 73.838C65.0036 74.2487 64.6162 74.566 64.1309 74.79C63.6549 75.014 63.1229 75.126 62.5349 75.126C61.8069 75.126 61.1862 74.9627 60.6729 74.636C60.1689 74.3093 59.8002 73.852 59.5669 73.264C59.3522 72.76 59.2449 72.06 59.2449 71.164C59.2449 70.6227 59.3009 70.184 59.4129 69.848C59.5996 69.1947 59.9496 68.6813 60.4629 68.308C60.9856 67.9253 61.6109 67.734 62.3389 67.734C64.1776 67.734 65.2136 68.6953 65.4469 70.618ZM62.3389 69.134C61.9936 69.134 61.7042 69.2227 61.4709 69.4C61.2469 69.568 61.0882 69.806 60.9949 70.114C60.9389 70.2727 60.9016 70.478 60.8829 70.73C60.8642 70.7767 60.8829 70.8 60.9389 70.8H63.7809C63.8276 70.8 63.8509 70.7767 63.8509 70.73C63.8322 70.4967 63.8042 70.3193 63.7669 70.198C63.6829 69.862 63.5149 69.6007 63.2629 69.414C63.0202 69.2273 62.7122 69.134 62.3389 69.134ZM75.8597 69.694C76.0277 70.17 76.1117 70.7533 76.1117 71.444C76.1117 72.1067 76.0324 72.676 75.8737 73.152C75.6684 73.768 75.337 74.2487 74.8797 74.594C74.4317 74.9393 73.8624 75.112 73.1717 75.112C72.509 75.112 71.977 74.874 71.5757 74.398C71.557 74.3793 71.5384 74.3747 71.5197 74.384C71.501 74.3933 71.4917 74.412 71.4917 74.44V77.478C71.4917 77.5247 71.473 77.562 71.4357 77.59C71.4077 77.6273 71.3704 77.646 71.3237 77.646H70.0357C69.989 77.646 69.947 77.6273 69.9097 77.59C69.8817 77.562 69.8677 77.5247 69.8677 77.478V68.014C69.8677 67.9673 69.8817 67.93 69.9097 67.902C69.947 67.8647 69.989 67.846 70.0357 67.846H71.3237C71.3704 67.846 71.4077 67.8647 71.4357 67.902C71.473 67.93 71.4917 67.9673 71.4917 68.014V68.434C71.4917 68.462 71.501 68.4807 71.5197 68.49C71.5384 68.4993 71.557 68.49 71.5757 68.462C71.9864 67.9767 72.523 67.734 73.1857 67.734C73.8484 67.734 74.4084 67.9067 74.8657 68.252C75.323 68.5973 75.6544 69.078 75.8597 69.694ZM74.0397 73.124C74.3197 72.6947 74.4597 72.1253 74.4597 71.416C74.4597 70.7347 74.3477 70.198 74.1237 69.806C73.8624 69.3487 73.4657 69.12 72.9337 69.12C72.4484 69.12 72.0844 69.344 71.8417 69.792C71.627 70.156 71.5197 70.6973 71.5197 71.416C71.5197 72.1533 71.6364 72.7133 71.8697 73.096C72.1124 73.5067 72.4624 73.712 72.9197 73.712C73.4144 73.712 73.7877 73.516 74.0397 73.124ZM81.1066 67.734C81.8626 67.734 82.4646 67.958 82.9126 68.406C83.37 68.854 83.5986 69.4653 83.5986 70.24V74.832C83.5986 74.8787 83.58 74.9207 83.5426 74.958C83.5146 74.986 83.4773 75 83.4306 75H82.1426C82.096 75 82.054 74.986 82.0166 74.958C81.9886 74.9207 81.9746 74.8787 81.9746 74.832V70.576C81.9746 70.1467 81.8533 69.8013 81.6106 69.54C81.368 69.2693 81.046 69.134 80.6446 69.134C80.2433 69.134 79.9166 69.2647 79.6646 69.526C79.422 69.7873 79.3006 70.1327 79.3006 70.562V74.832C79.3006 74.8787 79.282 74.9207 79.2446 74.958C79.2166 74.986 79.1793 75 79.1326 75H77.8446C77.798 75 77.756 74.986 77.7186 74.958C77.6906 74.9207 77.6766 74.8787 77.6766 74.832V65.368C77.6766 65.3213 77.6906 65.284 77.7186 65.256C77.756 65.2187 77.798 65.2 77.8446 65.2H79.1326C79.1793 65.2 79.2166 65.2187 79.2446 65.256C79.282 65.284 79.3006 65.3213 79.3006 65.368V68.462C79.3006 68.49 79.31 68.5087 79.3286 68.518C79.3473 68.5273 79.3613 68.518 79.3706 68.49C79.7533 67.986 80.332 67.734 81.1066 67.734ZM88.2791 75.112C87.5418 75.112 86.9071 74.9253 86.3751 74.552C85.8524 74.1787 85.4838 73.6607 85.2691 72.998C85.1104 72.494 85.0311 71.962 85.0311 71.402C85.0311 70.8047 85.1058 70.2727 85.2551 69.806C85.4698 69.1527 85.8431 68.644 86.3751 68.28C86.9071 67.916 87.5464 67.734 88.2931 67.734C89.0024 67.734 89.6138 67.916 90.1271 68.28C90.6498 68.644 91.0184 69.148 91.2331 69.792C91.4011 70.24 91.4851 70.772 91.4851 71.388C91.4851 71.976 91.4058 72.508 91.2471 72.984C91.0324 73.6467 90.6638 74.1693 90.1411 74.552C89.6184 74.9253 88.9978 75.112 88.2791 75.112ZM88.2791 73.712C88.6244 73.712 88.9184 73.614 89.1611 73.418C89.4131 73.222 89.5951 72.9467 89.7071 72.592C89.8004 72.284 89.8471 71.892 89.8471 71.416C89.8471 70.912 89.8004 70.52 89.7071 70.24C89.6044 69.8853 89.4271 69.6147 89.1751 69.428C88.9231 69.232 88.6151 69.134 88.2511 69.134C87.9058 69.134 87.6071 69.232 87.3551 69.428C87.1031 69.6147 86.9211 69.8853 86.8091 70.24C86.7158 70.5667 86.6691 70.9587 86.6691 71.416C86.6691 71.8733 86.7158 72.2653 86.8091 72.592C86.9118 72.9467 87.0891 73.222 87.3411 73.418C87.6024 73.614 87.9151 73.712 88.2791 73.712ZM96.6679 68.994C96.6679 69.0407 96.6493 69.0827 96.6119 69.12C96.5839 69.148 96.5466 69.162 96.4999 69.162H95.0719C95.0253 69.162 95.0019 69.1853 95.0019 69.232V72.606C95.0019 72.9607 95.0766 73.2173 95.2259 73.376C95.3846 73.5347 95.6319 73.614 95.9679 73.614H96.3879C96.4346 73.614 96.4719 73.6327 96.4999 73.67C96.5373 73.698 96.5559 73.7353 96.5559 73.782V74.832C96.5559 74.9347 96.4999 74.9953 96.3879 75.014L95.6599 75.028C94.9226 75.028 94.3719 74.902 94.0079 74.65C93.6439 74.398 93.4573 73.922 93.4479 73.222V69.232C93.4479 69.1853 93.4246 69.162 93.3779 69.162H92.5799C92.5333 69.162 92.4913 69.148 92.4539 69.12C92.4259 69.0827 92.4119 69.0407 92.4119 68.994V68.014C92.4119 67.9673 92.4259 67.93 92.4539 67.902C92.4913 67.8647 92.5333 67.846 92.5799 67.846H93.3779C93.4246 67.846 93.4479 67.8227 93.4479 67.776V66.138C93.4479 66.0913 93.4619 66.054 93.4899 66.026C93.5273 65.9887 93.5693 65.97 93.6159 65.97H94.8339C94.8806 65.97 94.9179 65.9887 94.9459 66.026C94.9833 66.054 95.0019 66.0913 95.0019 66.138V67.776C95.0019 67.8227 95.0253 67.846 95.0719 67.846H96.4999C96.5466 67.846 96.5839 67.8647 96.6119 67.902C96.6493 67.93 96.6679 67.9673 96.6679 68.014V68.994ZM101.015 75.112C100.278 75.112 99.6435 74.9253 99.1115 74.552C98.5888 74.1787 98.2201 73.6607 98.0055 72.998C97.8468 72.494 97.7675 71.962 97.7675 71.402C97.7675 70.8047 97.8421 70.2727 97.9915 69.806C98.2061 69.1527 98.5795 68.644 99.1115 68.28C99.6435 67.916 100.283 67.734 101.029 67.734C101.739 67.734 102.35 67.916 102.863 68.28C103.386 68.644 103.755 69.148 103.969 69.792C104.137 70.24 104.221 70.772 104.221 71.388C104.221 71.976 104.142 72.508 103.983 72.984C103.769 73.6467 103.4 74.1693 102.877 74.552C102.355 74.9253 101.734 75.112 101.015 75.112ZM101.015 73.712C101.361 73.712 101.655 73.614 101.897 73.418C102.149 73.222 102.331 72.9467 102.443 72.592C102.537 72.284 102.583 71.892 102.583 71.416C102.583 70.912 102.537 70.52 102.443 70.24C102.341 69.8853 102.163 69.6147 101.911 69.428C101.659 69.232 101.351 69.134 100.987 69.134C100.642 69.134 100.343 69.232 100.091 69.428C99.8395 69.6147 99.6575 69.8853 99.5455 70.24C99.4521 70.5667 99.4055 70.9587 99.4055 71.416C99.4055 71.8733 99.4521 72.2653 99.5455 72.592C99.6481 72.9467 99.8255 73.222 100.077 73.418C100.339 73.614 100.651 73.712 101.015 73.712Z" fill="#909091"/>
<rect x="23" y="96" width="341" height="194" rx="20" fill="white"/>
<circle cx="193.5" cy="193.5" r="86.5" fill="#EFEFEF"/>
<path d="M170.125 177C173.457 176.445 178.763 176.305 184.244 177.576M184.244 177.576C190.485 179.024 196.954 182.3 201 188.875M184.244 177.576C188.875 172.215 197.575 167.5 212.875 167.5H215.25M183.188 155.625C182 155.625 179.625 156.337 179.625 159.188C179.625 162.038 182 162.75 183.188 162.75C184.375 162.75 186.75 162.038 186.75 159.188C186.75 156.337 184.375 155.625 183.188 155.625Z" stroke="black" stroke-width="2" stroke-linecap="round" stroke-linejoin="round"/>
<path d="M215.25 167.5C215.25 180.617 204.617 191.25 191.5 191.25C178.383 191.25 167.75 180.617 167.75 167.5C167.75 154.383 178.383 143.75 191.5 143.75" stroke="black" stroke-width="2" stroke-linecap="round" stroke-linejoin="round"/>
<path d="M208.125 143.75V150.875M208.125 150.875V158M208.125 150.875H215.25M208.125 150.875H201" stroke="black" stroke-width="2" stroke-linecap="round" stroke-linejoin="round"/>
<path d="M156.629 221.112C155.938 221.112 155.327 220.977 154.795 220.706C154.263 220.435 153.847 220.053 153.549 219.558C153.259 219.054 153.115 218.475 153.115 217.822V211.368C153.115 211.321 153.129 211.284 153.157 211.256C153.194 211.219 153.236 211.2 153.283 211.2H154.571C154.617 211.2 154.655 211.219 154.683 211.256C154.72 211.284 154.739 211.321 154.739 211.368V217.85C154.739 218.401 154.911 218.849 155.257 219.194C155.602 219.539 156.059 219.712 156.629 219.712C157.198 219.712 157.655 219.539 158.001 219.194C158.346 218.849 158.519 218.401 158.519 217.85V211.368C158.519 211.321 158.533 211.284 158.561 211.256C158.598 211.219 158.64 211.2 158.687 211.2H159.975C160.021 211.2 160.059 211.219 160.087 211.256C160.124 211.284 160.143 211.321 160.143 211.368V217.822C160.143 218.475 159.998 219.054 159.709 219.558C159.419 220.053 159.009 220.435 158.477 220.706C157.945 220.977 157.329 221.112 156.629 221.112ZM168.011 215.694C168.179 216.17 168.263 216.753 168.263 217.444C168.263 218.107 168.184 218.676 168.025 219.152C167.82 219.768 167.488 220.249 167.031 220.594C166.583 220.939 166.014 221.112 165.323 221.112C164.66 221.112 164.128 220.874 163.727 220.398C163.708 220.379 163.69 220.375 163.671 220.384C163.652 220.393 163.643 220.412 163.643 220.44V223.478C163.643 223.525 163.624 223.562 163.587 223.59C163.559 223.627 163.522 223.646 163.475 223.646H162.187C162.14 223.646 162.098 223.627 162.061 223.59C162.033 223.562 162.019 223.525 162.019 223.478V214.014C162.019 213.967 162.033 213.93 162.061 213.902C162.098 213.865 162.14 213.846 162.187 213.846H163.475C163.522 213.846 163.559 213.865 163.587 213.902C163.624 213.93 163.643 213.967 163.643 214.014V214.434C163.643 214.462 163.652 214.481 163.671 214.49C163.69 214.499 163.708 214.49 163.727 214.462C164.138 213.977 164.674 213.734 165.337 213.734C166 213.734 166.56 213.907 167.017 214.252C167.474 214.597 167.806 215.078 168.011 215.694ZM166.191 219.124C166.471 218.695 166.611 218.125 166.611 217.416C166.611 216.735 166.499 216.198 166.275 215.806C166.014 215.349 165.617 215.12 165.085 215.12C164.6 215.12 164.236 215.344 163.993 215.792C163.778 216.156 163.671 216.697 163.671 217.416C163.671 218.153 163.788 218.713 164.021 219.096C164.264 219.507 164.614 219.712 165.071 219.712C165.566 219.712 165.939 219.516 166.191 219.124ZM170.01 221C169.963 221 169.921 220.986 169.884 220.958C169.856 220.921 169.842 220.879 169.842 220.832V211.368C169.842 211.321 169.856 211.284 169.884 211.256C169.921 211.219 169.963 211.2 170.01 211.2H171.298C171.344 211.2 171.382 211.219 171.41 211.256C171.447 211.284 171.466 211.321 171.466 211.368V220.832C171.466 220.879 171.447 220.921 171.41 220.958C171.382 220.986 171.344 221 171.298 221H170.01ZM176.233 221.112C175.496 221.112 174.861 220.925 174.329 220.552C173.806 220.179 173.438 219.661 173.223 218.998C173.064 218.494 172.985 217.962 172.985 217.402C172.985 216.805 173.06 216.273 173.209 215.806C173.424 215.153 173.797 214.644 174.329 214.28C174.861 213.916 175.5 213.734 176.247 213.734C176.956 213.734 177.568 213.916 178.081 214.28C178.604 214.644 178.972 215.148 179.187 215.792C179.355 216.24 179.439 216.772 179.439 217.388C179.439 217.976 179.36 218.508 179.201 218.984C178.986 219.647 178.618 220.169 178.095 220.552C177.572 220.925 176.952 221.112 176.233 221.112ZM176.233 219.712C176.578 219.712 176.872 219.614 177.115 219.418C177.367 219.222 177.549 218.947 177.661 218.592C177.754 218.284 177.801 217.892 177.801 217.416C177.801 216.912 177.754 216.52 177.661 216.24C177.558 215.885 177.381 215.615 177.129 215.428C176.877 215.232 176.569 215.134 176.205 215.134C175.86 215.134 175.561 215.232 175.309 215.428C175.057 215.615 174.875 215.885 174.763 216.24C174.67 216.567 174.623 216.959 174.623 217.416C174.623 217.873 174.67 218.265 174.763 218.592C174.866 218.947 175.043 219.222 175.295 219.418C175.556 219.614 175.869 219.712 176.233 219.712ZM183.708 213.734C184.296 213.734 184.814 213.837 185.262 214.042C185.71 214.247 186.056 214.532 186.298 214.896C186.541 215.251 186.662 215.657 186.662 216.114V220.832C186.662 220.879 186.644 220.921 186.606 220.958C186.578 220.986 186.541 221 186.494 221H185.206C185.16 221 185.118 220.986 185.08 220.958C185.052 220.921 185.038 220.879 185.038 220.832V220.384C185.038 220.356 185.029 220.342 185.01 220.342C184.992 220.333 184.973 220.337 184.954 220.356C184.497 220.86 183.834 221.112 182.966 221.112C182.266 221.112 181.688 220.935 181.23 220.58C180.782 220.225 180.558 219.698 180.558 218.998C180.558 218.27 180.81 217.705 181.314 217.304C181.828 216.893 182.546 216.688 183.47 216.688H184.968C185.015 216.688 185.038 216.665 185.038 216.618V216.282C185.038 215.918 184.931 215.638 184.716 215.442C184.502 215.237 184.18 215.134 183.75 215.134C183.396 215.134 183.106 215.199 182.882 215.33C182.668 215.451 182.532 215.624 182.476 215.848C182.448 215.96 182.383 216.007 182.28 215.988L180.922 215.82C180.876 215.811 180.834 215.797 180.796 215.778C180.768 215.75 180.759 215.717 180.768 215.68C180.843 215.111 181.146 214.644 181.678 214.28C182.22 213.916 182.896 213.734 183.708 213.734ZM183.372 219.824C183.83 219.824 184.222 219.703 184.548 219.46C184.875 219.217 185.038 218.909 185.038 218.536V217.878C185.038 217.831 185.015 217.808 184.968 217.808H183.792C183.298 217.808 182.906 217.901 182.616 218.088C182.336 218.275 182.196 218.541 182.196 218.886C182.196 219.185 182.304 219.418 182.518 219.586C182.742 219.745 183.027 219.824 183.372 219.824ZM192.735 211.368C192.735 211.321 192.749 211.284 192.777 211.256C192.814 211.219 192.856 211.2 192.903 211.2H194.191C194.237 211.2 194.275 211.219 194.303 211.256C194.34 211.284 194.359 211.321 194.359 211.368V220.832C194.359 220.879 194.34 220.921 194.303 220.958C194.275 220.986 194.237 221 194.191 221H192.903C192.856 221 192.814 220.986 192.777 220.958C192.749 220.921 192.735 220.879 192.735 220.832V220.412C192.735 220.384 192.725 220.365 192.707 220.356C192.688 220.347 192.669 220.356 192.651 220.384C192.24 220.869 191.703 221.112 191.041 221.112C190.378 221.112 189.818 220.939 189.361 220.594C188.903 220.249 188.572 219.768 188.367 219.152C188.199 218.629 188.115 218.046 188.115 217.402C188.115 216.739 188.194 216.17 188.353 215.694C188.558 215.078 188.889 214.597 189.347 214.252C189.804 213.907 190.378 213.734 191.069 213.734C191.713 213.734 192.24 213.967 192.651 214.434C192.669 214.453 192.688 214.462 192.707 214.462C192.725 214.453 192.735 214.434 192.735 214.406V211.368ZM192.399 219.04C192.613 218.657 192.721 218.116 192.721 217.416C192.721 216.688 192.604 216.133 192.371 215.75C192.119 215.339 191.764 215.134 191.307 215.134C190.831 215.134 190.457 215.33 190.187 215.722C189.907 216.133 189.767 216.702 189.767 217.43C189.767 218.083 189.879 218.62 190.103 219.04C190.364 219.488 190.761 219.712 191.293 219.712C191.769 219.712 192.137 219.488 192.399 219.04ZM199.852 212.866C199.562 212.866 199.324 212.773 199.138 212.586C198.951 212.399 198.858 212.161 198.858 211.872C198.858 211.583 198.951 211.345 199.138 211.158C199.324 210.971 199.562 210.878 199.852 210.878C200.141 210.878 200.379 210.971 200.566 211.158C200.752 211.345 200.846 211.583 200.846 211.872C200.846 212.161 200.752 212.399 200.566 212.586C200.379 212.773 200.141 212.866 199.852 212.866ZM199.18 221C199.133 221 199.091 220.986 199.054 220.958C199.026 220.921 199.012 220.879 199.012 220.832V214C199.012 213.953 199.026 213.916 199.054 213.888C199.091 213.851 199.133 213.832 199.18 213.832H200.468C200.514 213.832 200.552 213.851 200.58 213.888C200.617 213.916 200.636 213.953 200.636 214V220.832C200.636 220.879 200.617 220.921 200.58 220.958C200.552 220.986 200.514 221 200.468 221H199.18ZM210.158 213.734C210.877 213.734 211.437 213.953 211.838 214.392C212.249 214.821 212.454 215.423 212.454 216.198V220.832C212.454 220.879 212.435 220.921 212.398 220.958C212.37 220.986 212.333 221 212.286 221H211.012C210.965 221 210.923 220.986 210.886 220.958C210.858 220.921 210.844 220.879 210.844 220.832V216.534C210.844 216.105 210.727 215.764 210.494 215.512C210.27 215.26 209.967 215.134 209.584 215.134C209.201 215.134 208.889 215.26 208.646 215.512C208.403 215.764 208.282 216.1 208.282 216.52V220.832C208.282 220.879 208.263 220.921 208.226 220.958C208.198 220.986 208.161 221 208.114 221H206.84C206.793 221 206.751 220.986 206.714 220.958C206.686 220.921 206.672 220.879 206.672 220.832V216.534C206.672 216.105 206.555 215.764 206.322 215.512C206.089 215.26 205.781 215.134 205.398 215.134C205.043 215.134 204.749 215.237 204.516 215.442C204.292 215.647 204.161 215.927 204.124 216.282V220.832C204.124 220.879 204.105 220.921 204.068 220.958C204.04 220.986 204.003 221 203.956 221H202.668C202.621 221 202.579 220.986 202.542 220.958C202.514 220.921 202.5 220.879 202.5 220.832V214.014C202.5 213.967 202.514 213.93 202.542 213.902C202.579 213.865 202.621 213.846 202.668 213.846H203.956C204.003 213.846 204.04 213.865 204.068 213.902C204.105 213.93 204.124 213.967 204.124 214.014V214.476C204.124 214.504 204.133 214.523 204.152 214.532C204.171 214.541 204.189 214.532 204.208 214.504C204.413 214.243 204.665 214.051 204.964 213.93C205.272 213.799 205.613 213.734 205.986 213.734C206.443 213.734 206.845 213.827 207.19 214.014C207.535 214.201 207.801 214.471 207.988 214.826C208.016 214.863 208.049 214.863 208.086 214.826C208.291 214.453 208.576 214.177 208.94 214C209.304 213.823 209.71 213.734 210.158 213.734ZM216.841 213.734C217.429 213.734 217.947 213.837 218.395 214.042C218.843 214.247 219.189 214.532 219.431 214.896C219.674 215.251 219.795 215.657 219.795 216.114V220.832C219.795 220.879 219.777 220.921 219.739 220.958C219.711 220.986 219.674 221 219.627 221H218.339C218.293 221 218.251 220.986 218.213 220.958C218.185 220.921 218.171 220.879 218.171 220.832V220.384C218.171 220.356 218.162 220.342 218.143 220.342C218.125 220.333 218.106 220.337 218.087 220.356C217.63 220.86 216.967 221.112 216.099 221.112C215.399 221.112 214.821 220.935 214.363 220.58C213.915 220.225 213.691 219.698 213.691 218.998C213.691 218.27 213.943 217.705 214.447 217.304C214.961 216.893 215.679 216.688 216.603 216.688H218.101C218.148 216.688 218.171 216.665 218.171 216.618V216.282C218.171 215.918 218.064 215.638 217.849 215.442C217.635 215.237 217.313 215.134 216.883 215.134C216.529 215.134 216.239 215.199 216.015 215.33C215.801 215.451 215.665 215.624 215.609 215.848C215.581 215.96 215.516 216.007 215.413 215.988L214.055 215.82C214.009 215.811 213.967 215.797 213.929 215.778C213.901 215.75 213.892 215.717 213.901 215.68C213.976 215.111 214.279 214.644 214.811 214.28C215.353 213.916 216.029 213.734 216.841 213.734ZM216.505 219.824C216.963 219.824 217.355 219.703 217.681 219.46C218.008 219.217 218.171 218.909 218.171 218.536V217.878C218.171 217.831 218.148 217.808 218.101 217.808H216.925C216.431 217.808 216.039 217.901 215.749 218.088C215.469 218.275 215.329 218.541 215.329 218.886C215.329 219.185 215.437 219.418 215.651 219.586C215.875 219.745 216.16 219.824 216.505 219.824ZM225.812 214.014C225.812 213.967 225.826 213.93 225.854 213.902C225.891 213.865 225.933 213.846 225.98 213.846H227.268C227.314 213.846 227.352 213.865 227.38 213.902C227.417 213.93 227.436 213.967 227.436 214.014V220.524C227.436 221.691 227.1 222.521 226.428 223.016C225.765 223.52 224.892 223.772 223.81 223.772C223.52 223.772 223.236 223.758 222.956 223.73C222.853 223.721 222.802 223.66 222.802 223.548L222.844 222.4C222.844 222.297 222.909 222.246 223.04 222.246C223.31 222.274 223.553 222.288 223.768 222.288C224.468 222.288 224.981 222.148 225.308 221.868C225.644 221.597 225.812 221.135 225.812 220.482V220.37C225.812 220.342 225.802 220.328 225.784 220.328C225.765 220.319 225.746 220.323 225.728 220.342C225.345 220.753 224.804 220.958 224.104 220.958C223.497 220.958 222.942 220.804 222.438 220.496C221.934 220.188 221.584 219.717 221.388 219.082C221.266 218.643 221.206 218.079 221.206 217.388C221.206 216.613 221.28 216.021 221.43 215.61C221.616 215.041 221.938 214.588 222.396 214.252C222.853 213.907 223.39 213.734 224.006 213.734C224.743 213.734 225.317 213.949 225.728 214.378C225.746 214.406 225.765 214.415 225.784 214.406C225.802 214.397 225.812 214.378 225.812 214.35V214.014ZM225.714 218.62C225.751 218.48 225.774 218.331 225.784 218.172C225.802 218.004 225.812 217.738 225.812 217.374C225.812 217.019 225.802 216.767 225.784 216.618C225.774 216.459 225.746 216.305 225.7 216.156C225.625 215.848 225.471 215.601 225.238 215.414C225.014 215.227 224.724 215.134 224.37 215.134C224.034 215.134 223.749 215.227 223.516 215.414C223.282 215.601 223.114 215.848 223.012 216.156C222.9 216.417 222.844 216.828 222.844 217.388C222.844 217.967 222.89 218.373 222.984 218.606C223.077 218.905 223.245 219.152 223.488 219.348C223.74 219.535 224.038 219.628 224.384 219.628C224.748 219.628 225.042 219.535 225.266 219.348C225.49 219.161 225.639 218.919 225.714 218.62ZM235.151 216.618C235.188 216.851 235.207 217.113 235.207 217.402L235.193 217.836C235.193 217.948 235.137 218.004 235.025 218.004H230.643C230.596 218.004 230.573 218.027 230.573 218.074C230.601 218.382 230.643 218.592 230.699 218.704C230.923 219.376 231.469 219.717 232.337 219.726C232.972 219.726 233.476 219.465 233.849 218.942C233.886 218.886 233.933 218.858 233.989 218.858C234.026 218.858 234.059 218.872 234.087 218.9L234.955 219.614C235.039 219.679 235.053 219.754 234.997 219.838C234.708 220.249 234.32 220.566 233.835 220.79C233.359 221.014 232.827 221.126 232.239 221.126C231.511 221.126 230.89 220.963 230.377 220.636C229.873 220.309 229.504 219.852 229.271 219.264C229.056 218.76 228.949 218.06 228.949 217.164C228.949 216.623 229.005 216.184 229.117 215.848C229.304 215.195 229.654 214.681 230.167 214.308C230.69 213.925 231.315 213.734 232.043 213.734C233.882 213.734 234.918 214.695 235.151 216.618ZM232.043 215.134C231.698 215.134 231.408 215.223 231.175 215.4C230.951 215.568 230.792 215.806 230.699 216.114C230.643 216.273 230.606 216.478 230.587 216.73C230.568 216.777 230.587 216.8 230.643 216.8H233.485C233.532 216.8 233.555 216.777 233.555 216.73C233.536 216.497 233.508 216.319 233.471 216.198C233.387 215.862 233.219 215.601 232.967 215.414C232.724 215.227 232.416 215.134 232.043 215.134Z" fill="#909091"/>
<path d="M145.979 238.604C146.1 239.024 146.161 239.458 146.161 239.906C146.161 240.345 146.1 240.76 145.979 241.152C145.783 241.749 145.424 242.225 144.901 242.58C144.378 242.925 143.767 243.098 143.067 243.098C142.376 243.098 141.774 242.93 141.261 242.594C140.748 242.249 140.388 241.787 140.183 241.208C140.108 241.003 140.048 240.769 140.001 240.508V240.48C140.001 240.377 140.057 240.326 140.169 240.326H141.499C141.592 240.326 141.653 240.377 141.681 240.48C141.69 240.536 141.714 240.62 141.751 240.732C141.854 241.04 142.017 241.278 142.241 241.446C142.465 241.614 142.736 241.698 143.053 241.698C143.38 241.698 143.66 241.609 143.893 241.432C144.126 241.245 144.29 240.993 144.383 240.676C144.467 240.452 144.509 240.195 144.509 239.906C144.509 239.635 144.472 239.369 144.397 239.108C144.332 238.8 144.182 238.567 143.949 238.408C143.716 238.24 143.431 238.156 143.095 238.156C142.778 238.156 142.488 238.231 142.227 238.38C141.975 238.52 141.812 238.707 141.737 238.94C141.7 239.033 141.634 239.08 141.541 239.08H140.183C140.136 239.08 140.094 239.066 140.057 239.038C140.029 239.001 140.015 238.959 140.015 238.912V233.368C140.015 233.321 140.029 233.284 140.057 233.256C140.094 233.219 140.136 233.2 140.183 233.2H145.629C145.676 233.2 145.713 233.219 145.741 233.256C145.778 233.284 145.797 233.321 145.797 233.368V234.432C145.797 234.479 145.778 234.521 145.741 234.558C145.713 234.586 145.676 234.6 145.629 234.6H141.709C141.662 234.6 141.639 234.623 141.639 234.67L141.625 237.19C141.625 237.227 141.634 237.251 141.653 237.26C141.672 237.26 141.69 237.251 141.709 237.232C142.148 236.905 142.675 236.742 143.291 236.742C143.944 236.742 144.509 236.91 144.985 237.246C145.47 237.573 145.802 238.025 145.979 238.604ZM158.047 235.734C158.766 235.734 159.326 235.953 159.727 236.392C160.138 236.821 160.343 237.423 160.343 238.198V242.832C160.343 242.879 160.325 242.921 160.287 242.958C160.259 242.986 160.222 243 160.175 243H158.901C158.855 243 158.813 242.986 158.775 242.958C158.747 242.921 158.733 242.879 158.733 242.832V238.534C158.733 238.105 158.617 237.764 158.383 237.512C158.159 237.26 157.856 237.134 157.473 237.134C157.091 237.134 156.778 237.26 156.535 237.512C156.293 237.764 156.171 238.1 156.171 238.52V242.832C156.171 242.879 156.153 242.921 156.115 242.958C156.087 242.986 156.05 243 156.003 243H154.729C154.683 243 154.641 242.986 154.603 242.958C154.575 242.921 154.561 242.879 154.561 242.832V238.534C154.561 238.105 154.445 237.764 154.211 237.512C153.978 237.26 153.67 237.134 153.287 237.134C152.933 237.134 152.639 237.237 152.405 237.442C152.181 237.647 152.051 237.927 152.013 238.282V242.832C152.013 242.879 151.995 242.921 151.957 242.958C151.929 242.986 151.892 243 151.845 243H150.557C150.511 243 150.469 242.986 150.431 242.958C150.403 242.921 150.389 242.879 150.389 242.832V236.014C150.389 235.967 150.403 235.93 150.431 235.902C150.469 235.865 150.511 235.846 150.557 235.846H151.845C151.892 235.846 151.929 235.865 151.957 235.902C151.995 235.93 152.013 235.967 152.013 236.014V236.476C152.013 236.504 152.023 236.523 152.041 236.532C152.06 236.541 152.079 236.532 152.097 236.504C152.303 236.243 152.555 236.051 152.853 235.93C153.161 235.799 153.502 235.734 153.875 235.734C154.333 235.734 154.734 235.827 155.079 236.014C155.425 236.201 155.691 236.471 155.877 236.826C155.905 236.863 155.938 236.863 155.975 236.826C156.181 236.453 156.465 236.177 156.829 236C157.193 235.823 157.599 235.734 158.047 235.734ZM168.021 237.694C168.18 238.217 168.259 238.786 168.259 239.402C168.259 240.065 168.17 240.648 167.993 241.152C167.788 241.768 167.456 242.249 166.999 242.594C166.542 242.939 165.982 243.112 165.319 243.112C164.666 243.112 164.129 242.865 163.709 242.37C163.69 242.342 163.672 242.333 163.653 242.342C163.634 242.351 163.625 242.37 163.625 242.398V242.832C163.625 242.879 163.606 242.921 163.569 242.958C163.541 242.986 163.504 243 163.457 243H162.169C162.122 243 162.08 242.986 162.043 242.958C162.015 242.921 162.001 242.879 162.001 242.832V233.368C162.001 233.321 162.015 233.284 162.043 233.256C162.08 233.219 162.122 233.2 162.169 233.2H163.457C163.504 233.2 163.541 233.219 163.569 233.256C163.606 233.284 163.625 233.321 163.625 233.368V236.406C163.625 236.434 163.634 236.453 163.653 236.462C163.672 236.471 163.69 236.467 163.709 236.448C164.11 235.972 164.642 235.734 165.305 235.734C165.996 235.734 166.565 235.907 167.013 236.252C167.47 236.597 167.806 237.078 168.021 237.694ZM166.257 241.04C166.481 240.648 166.593 240.111 166.593 239.43C166.593 238.702 166.453 238.133 166.173 237.722C165.921 237.33 165.548 237.134 165.053 237.134C164.596 237.134 164.246 237.339 164.003 237.75C163.77 238.133 163.653 238.688 163.653 239.416C163.653 240.135 163.76 240.676 163.975 241.04C164.218 241.488 164.582 241.712 165.067 241.712C165.328 241.712 165.562 241.656 165.767 241.544C165.972 241.423 166.136 241.255 166.257 241.04ZM180.276 235.734C180.995 235.734 181.555 235.953 181.956 236.392C182.367 236.821 182.572 237.423 182.572 238.198V242.832C182.572 242.879 182.553 242.921 182.516 242.958C182.488 242.986 182.451 243 182.404 243H181.13C181.083 243 181.041 242.986 181.004 242.958C180.976 242.921 180.962 242.879 180.962 242.832V238.534C180.962 238.105 180.845 237.764 180.612 237.512C180.388 237.26 180.085 237.134 179.702 237.134C179.319 237.134 179.007 237.26 178.764 237.512C178.521 237.764 178.4 238.1 178.4 238.52V242.832C178.4 242.879 178.381 242.921 178.344 242.958C178.316 242.986 178.279 243 178.232 243H176.958C176.911 243 176.869 242.986 176.832 242.958C176.804 242.921 176.79 242.879 176.79 242.832V238.534C176.79 238.105 176.673 237.764 176.44 237.512C176.207 237.26 175.899 237.134 175.516 237.134C175.161 237.134 174.867 237.237 174.634 237.442C174.41 237.647 174.279 237.927 174.242 238.282V242.832C174.242 242.879 174.223 242.921 174.186 242.958C174.158 242.986 174.121 243 174.074 243H172.786C172.739 243 172.697 242.986 172.66 242.958C172.632 242.921 172.618 242.879 172.618 242.832V236.014C172.618 235.967 172.632 235.93 172.66 235.902C172.697 235.865 172.739 235.846 172.786 235.846H174.074C174.121 235.846 174.158 235.865 174.186 235.902C174.223 235.93 174.242 235.967 174.242 236.014V236.476C174.242 236.504 174.251 236.523 174.27 236.532C174.289 236.541 174.307 236.532 174.326 236.504C174.531 236.243 174.783 236.051 175.082 235.93C175.39 235.799 175.731 235.734 176.104 235.734C176.561 235.734 176.963 235.827 177.308 236.014C177.653 236.201 177.919 236.471 178.106 236.826C178.134 236.863 178.167 236.863 178.204 236.826C178.409 236.453 178.694 236.177 179.058 236C179.422 235.823 179.828 235.734 180.276 235.734ZM186.959 235.734C187.547 235.734 188.065 235.837 188.513 236.042C188.961 236.247 189.307 236.532 189.549 236.896C189.792 237.251 189.913 237.657 189.913 238.114V242.832C189.913 242.879 189.895 242.921 189.857 242.958C189.829 242.986 189.792 243 189.745 243H188.457C188.411 243 188.369 242.986 188.331 242.958C188.303 242.921 188.289 242.879 188.289 242.832V242.384C188.289 242.356 188.28 242.342 188.261 242.342C188.243 242.333 188.224 242.337 188.205 242.356C187.748 242.86 187.085 243.112 186.217 243.112C185.517 243.112 184.939 242.935 184.481 242.58C184.033 242.225 183.809 241.698 183.809 240.998C183.809 240.27 184.061 239.705 184.565 239.304C185.079 238.893 185.797 238.688 186.721 238.688H188.219C188.266 238.688 188.289 238.665 188.289 238.618V238.282C188.289 237.918 188.182 237.638 187.967 237.442C187.753 237.237 187.431 237.134 187.001 237.134C186.647 237.134 186.357 237.199 186.133 237.33C185.919 237.451 185.783 237.624 185.727 237.848C185.699 237.96 185.634 238.007 185.531 237.988L184.173 237.82C184.127 237.811 184.085 237.797 184.047 237.778C184.019 237.75 184.01 237.717 184.019 237.68C184.094 237.111 184.397 236.644 184.929 236.28C185.471 235.916 186.147 235.734 186.959 235.734ZM186.623 241.824C187.081 241.824 187.473 241.703 187.799 241.46C188.126 241.217 188.289 240.909 188.289 240.536V239.878C188.289 239.831 188.266 239.808 188.219 239.808H187.043C186.549 239.808 186.157 239.901 185.867 240.088C185.587 240.275 185.447 240.541 185.447 240.886C185.447 241.185 185.555 241.418 185.769 241.586C185.993 241.745 186.278 241.824 186.623 241.824ZM191.17 243C191.104 243 191.058 242.981 191.03 242.944C191.011 242.897 191.02 242.846 191.058 242.79L193.326 239.458C193.344 239.43 193.344 239.402 193.326 239.374L191.058 236.056C191.039 236.019 191.03 235.986 191.03 235.958C191.03 235.883 191.076 235.846 191.17 235.846H192.542C192.626 235.846 192.691 235.883 192.738 235.958L194.194 238.114C194.212 238.133 194.231 238.142 194.25 238.142C194.268 238.142 194.282 238.133 194.292 238.114L195.748 235.958C195.794 235.883 195.86 235.846 195.944 235.846H197.414C197.479 235.846 197.521 235.869 197.54 235.916C197.568 235.953 197.563 236 197.526 236.056L195.258 239.374C195.248 239.402 195.248 239.43 195.258 239.458L197.526 242.79C197.544 242.827 197.554 242.86 197.554 242.888C197.554 242.963 197.507 243 197.414 243H196.042C195.958 243 195.892 242.963 195.846 242.888L194.39 240.732C194.38 240.713 194.366 240.704 194.348 240.704C194.329 240.704 194.31 240.713 194.292 240.732L192.836 242.888C192.789 242.963 192.724 243 192.64 243H191.17ZM205.301 235.832C205.348 235.832 205.385 235.851 205.413 235.888C205.45 235.916 205.469 235.953 205.469 236V237.106C205.469 237.153 205.45 237.195 205.413 237.232C205.385 237.26 205.348 237.274 205.301 237.274H203.915C203.868 237.274 203.845 237.297 203.845 237.344V242.832C203.845 242.879 203.826 242.921 203.789 242.958C203.761 242.986 203.724 243 203.677 243H202.389C202.342 243 202.3 242.986 202.263 242.958C202.235 242.921 202.221 242.879 202.221 242.832V237.344C202.221 237.297 202.198 237.274 202.151 237.274H201.283C201.236 237.274 201.194 237.26 201.157 237.232C201.129 237.195 201.115 237.153 201.115 237.106V236C201.115 235.953 201.129 235.916 201.157 235.888C201.194 235.851 201.236 235.832 201.283 235.832H202.151C202.198 235.832 202.221 235.809 202.221 235.762V235.51C202.221 234.903 202.3 234.437 202.459 234.11C202.618 233.774 202.879 233.536 203.243 233.396C203.607 233.256 204.12 233.191 204.783 233.2H205.273C205.32 233.2 205.357 233.219 205.385 233.256C205.422 233.284 205.441 233.321 205.441 233.368V234.348C205.441 234.395 205.422 234.437 205.385 234.474C205.357 234.502 205.32 234.516 205.273 234.516H204.909C204.508 234.516 204.228 234.595 204.069 234.754C203.92 234.913 203.845 235.202 203.845 235.622V235.762C203.845 235.809 203.868 235.832 203.915 235.832H205.301ZM207.765 234.866C207.476 234.866 207.238 234.773 207.051 234.586C206.864 234.399 206.771 234.161 206.771 233.872C206.771 233.583 206.864 233.345 207.051 233.158C207.238 232.971 207.476 232.878 207.765 232.878C208.054 232.878 208.292 232.971 208.479 233.158C208.666 233.345 208.759 233.583 208.759 233.872C208.759 234.161 208.666 234.399 208.479 234.586C208.292 234.773 208.054 234.866 207.765 234.866ZM207.093 243C207.046 243 207.004 242.986 206.967 242.958C206.939 242.921 206.925 242.879 206.925 242.832V236C206.925 235.953 206.939 235.916 206.967 235.888C207.004 235.851 207.046 235.832 207.093 235.832H208.381C208.428 235.832 208.465 235.851 208.493 235.888C208.53 235.916 208.549 235.953 208.549 236V242.832C208.549 242.879 208.53 242.921 208.493 242.958C208.465 242.986 208.428 243 208.381 243H207.093ZM210.581 243C210.534 243 210.492 242.986 210.455 242.958C210.427 242.921 210.413 242.879 210.413 242.832V233.368C210.413 233.321 210.427 233.284 210.455 233.256C210.492 233.219 210.534 233.2 210.581 233.2H211.869C211.916 233.2 211.953 233.219 211.981 233.256C212.018 233.284 212.037 233.321 212.037 233.368V242.832C212.037 242.879 212.018 242.921 211.981 242.958C211.953 242.986 211.916 243 211.869 243H210.581ZM219.8 238.618C219.838 238.851 219.856 239.113 219.856 239.402L219.842 239.836C219.842 239.948 219.786 240.004 219.674 240.004H215.292C215.246 240.004 215.222 240.027 215.222 240.074C215.25 240.382 215.292 240.592 215.348 240.704C215.572 241.376 216.118 241.717 216.986 241.726C217.621 241.726 218.125 241.465 218.498 240.942C218.536 240.886 218.582 240.858 218.638 240.858C218.676 240.858 218.708 240.872 218.736 240.9L219.604 241.614C219.688 241.679 219.702 241.754 219.646 241.838C219.357 242.249 218.97 242.566 218.484 242.79C218.008 243.014 217.476 243.126 216.888 243.126C216.16 243.126 215.54 242.963 215.026 242.636C214.522 242.309 214.154 241.852 213.92 241.264C213.706 240.76 213.598 240.06 213.598 239.164C213.598 238.623 213.654 238.184 213.766 237.848C213.953 237.195 214.303 236.681 214.816 236.308C215.339 235.925 215.964 235.734 216.692 235.734C218.531 235.734 219.567 236.695 219.8 238.618ZM216.692 237.134C216.347 237.134 216.058 237.223 215.824 237.4C215.6 237.568 215.442 237.806 215.348 238.114C215.292 238.273 215.255 238.478 215.236 238.73C215.218 238.777 215.236 238.8 215.292 238.8H218.134C218.181 238.8 218.204 238.777 218.204 238.73C218.186 238.497 218.158 238.319 218.12 238.198C218.036 237.862 217.868 237.601 217.616 237.414C217.374 237.227 217.066 237.134 216.692 237.134ZM226.811 243.084C226.223 243.084 225.705 243 225.257 242.832C224.819 242.655 224.478 242.417 224.235 242.118C223.993 241.81 223.871 241.469 223.871 241.096V240.97C223.871 240.923 223.885 240.886 223.913 240.858C223.951 240.821 223.993 240.802 224.039 240.802H225.271C225.318 240.802 225.355 240.821 225.383 240.858C225.421 240.886 225.439 240.923 225.439 240.97V240.998C225.439 241.231 225.565 241.437 225.817 241.614C226.079 241.782 226.405 241.866 226.797 241.866C227.171 241.866 227.474 241.791 227.707 241.642C227.941 241.483 228.057 241.287 228.057 241.054C228.057 240.839 227.959 240.681 227.763 240.578C227.577 240.466 227.269 240.349 226.839 240.228L226.307 240.06C225.831 239.92 225.43 239.771 225.103 239.612C224.777 239.453 224.501 239.239 224.277 238.968C224.053 238.688 223.941 238.333 223.941 237.904C223.941 237.251 224.198 236.733 224.711 236.35C225.225 235.958 225.901 235.762 226.741 235.762C227.311 235.762 227.81 235.855 228.239 236.042C228.669 236.219 229 236.471 229.233 236.798C229.467 237.115 229.583 237.479 229.583 237.89C229.583 237.937 229.565 237.979 229.527 238.016C229.499 238.044 229.462 238.058 229.415 238.058H228.225C228.179 238.058 228.137 238.044 228.099 238.016C228.071 237.979 228.057 237.937 228.057 237.89C228.057 237.647 227.936 237.447 227.693 237.288C227.46 237.12 227.138 237.036 226.727 237.036C226.363 237.036 226.065 237.106 225.831 237.246C225.607 237.377 225.495 237.563 225.495 237.806C225.495 238.03 225.603 238.203 225.817 238.324C226.041 238.436 226.41 238.562 226.923 238.702L227.231 238.786C227.726 238.935 228.141 239.089 228.477 239.248C228.813 239.397 229.098 239.612 229.331 239.892C229.565 240.163 229.681 240.517 229.681 240.956C229.681 241.619 229.42 242.141 228.897 242.524C228.375 242.897 227.679 243.084 226.811 243.084ZM231.983 234.866C231.694 234.866 231.456 234.773 231.269 234.586C231.083 234.399 230.989 234.161 230.989 233.872C230.989 233.583 231.083 233.345 231.269 233.158C231.456 232.971 231.694 232.878 231.983 232.878C232.273 232.878 232.511 232.971 232.697 233.158C232.884 233.345 232.977 233.583 232.977 233.872C232.977 234.161 232.884 234.399 232.697 234.586C232.511 234.773 232.273 234.866 231.983 234.866ZM231.311 243C231.265 243 231.223 242.986 231.185 242.958C231.157 242.921 231.143 242.879 231.143 242.832V236C231.143 235.953 231.157 235.916 231.185 235.888C231.223 235.851 231.265 235.832 231.311 235.832H232.599C232.646 235.832 232.683 235.851 232.711 235.888C232.749 235.916 232.767 235.953 232.767 236V242.832C232.767 242.879 232.749 242.921 232.711 242.958C232.683 242.986 232.646 243 232.599 243H231.311ZM234.324 243C234.277 243 234.235 242.986 234.198 242.958C234.17 242.921 234.156 242.879 234.156 242.832V241.642C234.156 241.558 234.179 241.493 234.226 241.446L237.67 237.4C237.716 237.344 237.702 237.316 237.628 237.316H234.394C234.347 237.316 234.305 237.302 234.268 237.274C234.24 237.237 234.226 237.195 234.226 237.148V236.014C234.226 235.967 234.24 235.93 234.268 235.902C234.305 235.865 234.347 235.846 234.394 235.846H239.49C239.536 235.846 239.574 235.865 239.602 235.902C239.639 235.93 239.658 235.967 239.658 236.014V237.204C239.658 237.279 239.63 237.344 239.574 237.4L236.06 241.446C236.022 241.502 236.036 241.53 236.102 241.53H239.532C239.578 241.53 239.616 241.549 239.644 241.586C239.681 241.614 239.7 241.651 239.7 241.698V242.832C239.7 242.879 239.681 242.921 239.644 242.958C239.616 242.986 239.578 243 239.532 243H234.324ZM247.041 238.618C247.078 238.851 247.097 239.113 247.097 239.402L247.083 239.836C247.083 239.948 247.027 240.004 246.915 240.004H242.533C242.486 240.004 242.463 240.027 242.463 240.074C242.491 240.382 242.533 240.592 242.589 240.704C242.813 241.376 243.359 241.717 244.227 241.726C244.861 241.726 245.365 241.465 245.739 240.942C245.776 240.886 245.823 240.858 245.879 240.858C245.916 240.858 245.949 240.872 245.977 240.9L246.845 241.614C246.929 241.679 246.943 241.754 246.887 241.838C246.597 242.249 246.21 242.566 245.725 242.79C245.249 243.014 244.717 243.126 244.129 243.126C243.401 243.126 242.78 242.963 242.267 242.636C241.763 242.309 241.394 241.852 241.161 241.264C240.946 240.76 240.839 240.06 240.839 239.164C240.839 238.623 240.895 238.184 241.007 237.848C241.193 237.195 241.543 236.681 242.057 236.308C242.579 235.925 243.205 235.734 243.933 235.734C245.771 235.734 246.807 236.695 247.041 238.618ZM243.933 237.134C243.587 237.134 243.298 237.223 243.065 237.4C242.841 237.568 242.682 237.806 242.589 238.114C242.533 238.273 242.495 238.478 242.477 238.73C242.458 238.777 242.477 238.8 242.533 238.8H245.375C245.421 238.8 245.445 238.777 245.445 238.73C245.426 238.497 245.398 238.319 245.361 238.198C245.277 237.862 245.109 237.601 244.857 237.414C244.614 237.227 244.306 237.134 243.933 237.134Z" fill="#909091"/>
</svg>
