<svg width="341" height="194" viewBox="0 0 341 194" fill="none" xmlns="http://www.w3.org/2000/svg">
<rect width="341" height="194" fill="#777777"/>
<rect x="-45" y="-369" width="430" height="932" rx="30" fill="white"/>
<rect x="-23" y="-96" width="387" height="318" rx="30" fill="#EFEFEF"/>
<rect width="341" height="194" rx="20" fill="white"/>
<circle cx="170.5" cy="97.5" r="86.5" fill="#EFEFEF"/>
<path d="M147.125 81C150.457 80.4447 155.763 80.3048 161.244 81.5764M161.244 81.5764C167.485 83.024 173.954 86.3003 178 92.875M161.244 81.5764C165.875 76.2149 174.575 71.5 189.875 71.5H192.25M160.188 59.625C159 59.625 156.625 60.3375 156.625 63.1875C156.625 66.0375 159 66.75 160.188 66.75C161.375 66.75 163.75 66.0375 163.75 63.1875C163.75 60.3375 161.375 59.625 160.188 59.625Z" stroke="black" stroke-width="2" stroke-linecap="round" stroke-linejoin="round"/>
<path d="M192.25 71.5C192.25 84.6166 181.617 95.25 168.5 95.25C155.383 95.25 144.75 84.6166 144.75 71.5C144.75 58.3832 155.383 47.75 168.5 47.75" stroke="black" stroke-width="2" stroke-linecap="round" stroke-linejoin="round"/>
<path d="M185.125 47.75V54.875M185.125 54.875V62M185.125 54.875H192.25M185.125 54.875H178" stroke="black" stroke-width="2" stroke-linecap="round" stroke-linejoin="round"/>
<path d="M133.629 125.112C132.938 125.112 132.327 124.977 131.795 124.706C131.263 124.435 130.847 124.053 130.549 123.558C130.259 123.054 130.115 122.475 130.115 121.822V115.368C130.115 115.321 130.129 115.284 130.157 115.256C130.194 115.219 130.236 115.2 130.283 115.2H131.571C131.617 115.2 131.655 115.219 131.683 115.256C131.72 115.284 131.739 115.321 131.739 115.368V121.85C131.739 122.401 131.911 122.849 132.257 123.194C132.602 123.539 133.059 123.712 133.629 123.712C134.198 123.712 134.655 123.539 135.001 123.194C135.346 122.849 135.519 122.401 135.519 121.85V115.368C135.519 115.321 135.533 115.284 135.561 115.256C135.598 115.219 135.64 115.2 135.687 115.2H136.975C137.021 115.2 137.059 115.219 137.087 115.256C137.124 115.284 137.143 115.321 137.143 115.368V121.822C137.143 122.475 136.998 123.054 136.709 123.558C136.419 124.053 136.009 124.435 135.477 124.706C134.945 124.977 134.329 125.112 133.629 125.112ZM145.011 119.694C145.179 120.17 145.263 120.753 145.263 121.444C145.263 122.107 145.184 122.676 145.025 123.152C144.82 123.768 144.488 124.249 144.031 124.594C143.583 124.939 143.014 125.112 142.323 125.112C141.66 125.112 141.128 124.874 140.727 124.398C140.708 124.379 140.69 124.375 140.671 124.384C140.652 124.393 140.643 124.412 140.643 124.44V127.478C140.643 127.525 140.624 127.562 140.587 127.59C140.559 127.627 140.522 127.646 140.475 127.646H139.187C139.14 127.646 139.098 127.627 139.061 127.59C139.033 127.562 139.019 127.525 139.019 127.478V118.014C139.019 117.967 139.033 117.93 139.061 117.902C139.098 117.865 139.14 117.846 139.187 117.846H140.475C140.522 117.846 140.559 117.865 140.587 117.902C140.624 117.93 140.643 117.967 140.643 118.014V118.434C140.643 118.462 140.652 118.481 140.671 118.49C140.69 118.499 140.708 118.49 140.727 118.462C141.138 117.977 141.674 117.734 142.337 117.734C143 117.734 143.56 117.907 144.017 118.252C144.474 118.597 144.806 119.078 145.011 119.694ZM143.191 123.124C143.471 122.695 143.611 122.125 143.611 121.416C143.611 120.735 143.499 120.198 143.275 119.806C143.014 119.349 142.617 119.12 142.085 119.12C141.6 119.12 141.236 119.344 140.993 119.792C140.778 120.156 140.671 120.697 140.671 121.416C140.671 122.153 140.788 122.713 141.021 123.096C141.264 123.507 141.614 123.712 142.071 123.712C142.566 123.712 142.939 123.516 143.191 123.124ZM147.01 125C146.963 125 146.921 124.986 146.884 124.958C146.856 124.921 146.842 124.879 146.842 124.832V115.368C146.842 115.321 146.856 115.284 146.884 115.256C146.921 115.219 146.963 115.2 147.01 115.2H148.298C148.344 115.2 148.382 115.219 148.41 115.256C148.447 115.284 148.466 115.321 148.466 115.368V124.832C148.466 124.879 148.447 124.921 148.41 124.958C148.382 124.986 148.344 125 148.298 125H147.01ZM153.233 125.112C152.496 125.112 151.861 124.925 151.329 124.552C150.806 124.179 150.438 123.661 150.223 122.998C150.064 122.494 149.985 121.962 149.985 121.402C149.985 120.805 150.06 120.273 150.209 119.806C150.424 119.153 150.797 118.644 151.329 118.28C151.861 117.916 152.5 117.734 153.247 117.734C153.956 117.734 154.568 117.916 155.081 118.28C155.604 118.644 155.972 119.148 156.187 119.792C156.355 120.24 156.439 120.772 156.439 121.388C156.439 121.976 156.36 122.508 156.201 122.984C155.986 123.647 155.618 124.169 155.095 124.552C154.572 124.925 153.952 125.112 153.233 125.112ZM153.233 123.712C153.578 123.712 153.872 123.614 154.115 123.418C154.367 123.222 154.549 122.947 154.661 122.592C154.754 122.284 154.801 121.892 154.801 121.416C154.801 120.912 154.754 120.52 154.661 120.24C154.558 119.885 154.381 119.615 154.129 119.428C153.877 119.232 153.569 119.134 153.205 119.134C152.86 119.134 152.561 119.232 152.309 119.428C152.057 119.615 151.875 119.885 151.763 120.24C151.67 120.567 151.623 120.959 151.623 121.416C151.623 121.873 151.67 122.265 151.763 122.592C151.866 122.947 152.043 123.222 152.295 123.418C152.556 123.614 152.869 123.712 153.233 123.712ZM160.708 117.734C161.296 117.734 161.814 117.837 162.262 118.042C162.71 118.247 163.056 118.532 163.298 118.896C163.541 119.251 163.662 119.657 163.662 120.114V124.832C163.662 124.879 163.644 124.921 163.606 124.958C163.578 124.986 163.541 125 163.494 125H162.206C162.16 125 162.118 124.986 162.08 124.958C162.052 124.921 162.038 124.879 162.038 124.832V124.384C162.038 124.356 162.029 124.342 162.01 124.342C161.992 124.333 161.973 124.337 161.954 124.356C161.497 124.86 160.834 125.112 159.966 125.112C159.266 125.112 158.688 124.935 158.23 124.58C157.782 124.225 157.558 123.698 157.558 122.998C157.558 122.27 157.81 121.705 158.314 121.304C158.828 120.893 159.546 120.688 160.47 120.688H161.968C162.015 120.688 162.038 120.665 162.038 120.618V120.282C162.038 119.918 161.931 119.638 161.716 119.442C161.502 119.237 161.18 119.134 160.75 119.134C160.396 119.134 160.106 119.199 159.882 119.33C159.668 119.451 159.532 119.624 159.476 119.848C159.448 119.96 159.383 120.007 159.28 119.988L157.922 119.82C157.876 119.811 157.834 119.797 157.796 119.778C157.768 119.75 157.759 119.717 157.768 119.68C157.843 119.111 158.146 118.644 158.678 118.28C159.22 117.916 159.896 117.734 160.708 117.734ZM160.372 123.824C160.83 123.824 161.222 123.703 161.548 123.46C161.875 123.217 162.038 122.909 162.038 122.536V121.878C162.038 121.831 162.015 121.808 161.968 121.808H160.792C160.298 121.808 159.906 121.901 159.616 122.088C159.336 122.275 159.196 122.541 159.196 122.886C159.196 123.185 159.304 123.418 159.518 123.586C159.742 123.745 160.027 123.824 160.372 123.824ZM169.735 115.368C169.735 115.321 169.749 115.284 169.777 115.256C169.814 115.219 169.856 115.2 169.903 115.2H171.191C171.237 115.2 171.275 115.219 171.303 115.256C171.34 115.284 171.359 115.321 171.359 115.368V124.832C171.359 124.879 171.34 124.921 171.303 124.958C171.275 124.986 171.237 125 171.191 125H169.903C169.856 125 169.814 124.986 169.777 124.958C169.749 124.921 169.735 124.879 169.735 124.832V124.412C169.735 124.384 169.725 124.365 169.707 124.356C169.688 124.347 169.669 124.356 169.651 124.384C169.24 124.869 168.703 125.112 168.041 125.112C167.378 125.112 166.818 124.939 166.361 124.594C165.903 124.249 165.572 123.768 165.367 123.152C165.199 122.629 165.115 122.046 165.115 121.402C165.115 120.739 165.194 120.17 165.353 119.694C165.558 119.078 165.889 118.597 166.347 118.252C166.804 117.907 167.378 117.734 168.069 117.734C168.713 117.734 169.24 117.967 169.651 118.434C169.669 118.453 169.688 118.462 169.707 118.462C169.725 118.453 169.735 118.434 169.735 118.406V115.368ZM169.399 123.04C169.613 122.657 169.721 122.116 169.721 121.416C169.721 120.688 169.604 120.133 169.371 119.75C169.119 119.339 168.764 119.134 168.307 119.134C167.831 119.134 167.457 119.33 167.187 119.722C166.907 120.133 166.767 120.702 166.767 121.43C166.767 122.083 166.879 122.62 167.103 123.04C167.364 123.488 167.761 123.712 168.293 123.712C168.769 123.712 169.137 123.488 169.399 123.04ZM176.852 116.866C176.562 116.866 176.324 116.773 176.138 116.586C175.951 116.399 175.858 116.161 175.858 115.872C175.858 115.583 175.951 115.345 176.138 115.158C176.324 114.971 176.562 114.878 176.852 114.878C177.141 114.878 177.379 114.971 177.566 115.158C177.752 115.345 177.846 115.583 177.846 115.872C177.846 116.161 177.752 116.399 177.566 116.586C177.379 116.773 177.141 116.866 176.852 116.866ZM176.18 125C176.133 125 176.091 124.986 176.054 124.958C176.026 124.921 176.012 124.879 176.012 124.832V118C176.012 117.953 176.026 117.916 176.054 117.888C176.091 117.851 176.133 117.832 176.18 117.832H177.468C177.514 117.832 177.552 117.851 177.58 117.888C177.617 117.916 177.636 117.953 177.636 118V124.832C177.636 124.879 177.617 124.921 177.58 124.958C177.552 124.986 177.514 125 177.468 125H176.18ZM187.158 117.734C187.877 117.734 188.437 117.953 188.838 118.392C189.249 118.821 189.454 119.423 189.454 120.198V124.832C189.454 124.879 189.435 124.921 189.398 124.958C189.37 124.986 189.333 125 189.286 125H188.012C187.965 125 187.923 124.986 187.886 124.958C187.858 124.921 187.844 124.879 187.844 124.832V120.534C187.844 120.105 187.727 119.764 187.494 119.512C187.27 119.26 186.967 119.134 186.584 119.134C186.201 119.134 185.889 119.26 185.646 119.512C185.403 119.764 185.282 120.1 185.282 120.52V124.832C185.282 124.879 185.263 124.921 185.226 124.958C185.198 124.986 185.161 125 185.114 125H183.84C183.793 125 183.751 124.986 183.714 124.958C183.686 124.921 183.672 124.879 183.672 124.832V120.534C183.672 120.105 183.555 119.764 183.322 119.512C183.089 119.26 182.781 119.134 182.398 119.134C182.043 119.134 181.749 119.237 181.516 119.442C181.292 119.647 181.161 119.927 181.124 120.282V124.832C181.124 124.879 181.105 124.921 181.068 124.958C181.04 124.986 181.003 125 180.956 125H179.668C179.621 125 179.579 124.986 179.542 124.958C179.514 124.921 179.5 124.879 179.5 124.832V118.014C179.5 117.967 179.514 117.93 179.542 117.902C179.579 117.865 179.621 117.846 179.668 117.846H180.956C181.003 117.846 181.04 117.865 181.068 117.902C181.105 117.93 181.124 117.967 181.124 118.014V118.476C181.124 118.504 181.133 118.523 181.152 118.532C181.171 118.541 181.189 118.532 181.208 118.504C181.413 118.243 181.665 118.051 181.964 117.93C182.272 117.799 182.613 117.734 182.986 117.734C183.443 117.734 183.845 117.827 184.19 118.014C184.535 118.201 184.801 118.471 184.988 118.826C185.016 118.863 185.049 118.863 185.086 118.826C185.291 118.453 185.576 118.177 185.94 118C186.304 117.823 186.71 117.734 187.158 117.734ZM193.841 117.734C194.429 117.734 194.947 117.837 195.395 118.042C195.843 118.247 196.189 118.532 196.431 118.896C196.674 119.251 196.795 119.657 196.795 120.114V124.832C196.795 124.879 196.777 124.921 196.739 124.958C196.711 124.986 196.674 125 196.627 125H195.339C195.293 125 195.251 124.986 195.213 124.958C195.185 124.921 195.171 124.879 195.171 124.832V124.384C195.171 124.356 195.162 124.342 195.143 124.342C195.125 124.333 195.106 124.337 195.087 124.356C194.63 124.86 193.967 125.112 193.099 125.112C192.399 125.112 191.821 124.935 191.363 124.58C190.915 124.225 190.691 123.698 190.691 122.998C190.691 122.27 190.943 121.705 191.447 121.304C191.961 120.893 192.679 120.688 193.603 120.688H195.101C195.148 120.688 195.171 120.665 195.171 120.618V120.282C195.171 119.918 195.064 119.638 194.849 119.442C194.635 119.237 194.313 119.134 193.883 119.134C193.529 119.134 193.239 119.199 193.015 119.33C192.801 119.451 192.665 119.624 192.609 119.848C192.581 119.96 192.516 120.007 192.413 119.988L191.055 119.82C191.009 119.811 190.967 119.797 190.929 119.778C190.901 119.75 190.892 119.717 190.901 119.68C190.976 119.111 191.279 118.644 191.811 118.28C192.353 117.916 193.029 117.734 193.841 117.734ZM193.505 123.824C193.963 123.824 194.355 123.703 194.681 123.46C195.008 123.217 195.171 122.909 195.171 122.536V121.878C195.171 121.831 195.148 121.808 195.101 121.808H193.925C193.431 121.808 193.039 121.901 192.749 122.088C192.469 122.275 192.329 122.541 192.329 122.886C192.329 123.185 192.437 123.418 192.651 123.586C192.875 123.745 193.16 123.824 193.505 123.824ZM202.812 118.014C202.812 117.967 202.826 117.93 202.854 117.902C202.891 117.865 202.933 117.846 202.98 117.846H204.268C204.314 117.846 204.352 117.865 204.38 117.902C204.417 117.93 204.436 117.967 204.436 118.014V124.524C204.436 125.691 204.1 126.521 203.428 127.016C202.765 127.52 201.892 127.772 200.81 127.772C200.52 127.772 200.236 127.758 199.956 127.73C199.853 127.721 199.802 127.66 199.802 127.548L199.844 126.4C199.844 126.297 199.909 126.246 200.04 126.246C200.31 126.274 200.553 126.288 200.768 126.288C201.468 126.288 201.981 126.148 202.308 125.868C202.644 125.597 202.812 125.135 202.812 124.482V124.37C202.812 124.342 202.802 124.328 202.784 124.328C202.765 124.319 202.746 124.323 202.728 124.342C202.345 124.753 201.804 124.958 201.104 124.958C200.497 124.958 199.942 124.804 199.438 124.496C198.934 124.188 198.584 123.717 198.388 123.082C198.266 122.643 198.206 122.079 198.206 121.388C198.206 120.613 198.28 120.021 198.43 119.61C198.616 119.041 198.938 118.588 199.396 118.252C199.853 117.907 200.39 117.734 201.006 117.734C201.743 117.734 202.317 117.949 202.728 118.378C202.746 118.406 202.765 118.415 202.784 118.406C202.802 118.397 202.812 118.378 202.812 118.35V118.014ZM202.714 122.62C202.751 122.48 202.774 122.331 202.784 122.172C202.802 122.004 202.812 121.738 202.812 121.374C202.812 121.019 202.802 120.767 202.784 120.618C202.774 120.459 202.746 120.305 202.7 120.156C202.625 119.848 202.471 119.601 202.238 119.414C202.014 119.227 201.724 119.134 201.37 119.134C201.034 119.134 200.749 119.227 200.516 119.414C200.282 119.601 200.114 119.848 200.012 120.156C199.9 120.417 199.844 120.828 199.844 121.388C199.844 121.967 199.89 122.373 199.984 122.606C200.077 122.905 200.245 123.152 200.488 123.348C200.74 123.535 201.038 123.628 201.384 123.628C201.748 123.628 202.042 123.535 202.266 123.348C202.49 123.161 202.639 122.919 202.714 122.62ZM212.151 120.618C212.188 120.851 212.207 121.113 212.207 121.402L212.193 121.836C212.193 121.948 212.137 122.004 212.025 122.004H207.643C207.596 122.004 207.573 122.027 207.573 122.074C207.601 122.382 207.643 122.592 207.699 122.704C207.923 123.376 208.469 123.717 209.337 123.726C209.972 123.726 210.476 123.465 210.849 122.942C210.886 122.886 210.933 122.858 210.989 122.858C211.026 122.858 211.059 122.872 211.087 122.9L211.955 123.614C212.039 123.679 212.053 123.754 211.997 123.838C211.708 124.249 211.32 124.566 210.835 124.79C210.359 125.014 209.827 125.126 209.239 125.126C208.511 125.126 207.89 124.963 207.377 124.636C206.873 124.309 206.504 123.852 206.271 123.264C206.056 122.76 205.949 122.06 205.949 121.164C205.949 120.623 206.005 120.184 206.117 119.848C206.304 119.195 206.654 118.681 207.167 118.308C207.69 117.925 208.315 117.734 209.043 117.734C210.882 117.734 211.918 118.695 212.151 120.618ZM209.043 119.134C208.698 119.134 208.408 119.223 208.175 119.4C207.951 119.568 207.792 119.806 207.699 120.114C207.643 120.273 207.606 120.478 207.587 120.73C207.568 120.777 207.587 120.8 207.643 120.8H210.485C210.532 120.8 210.555 120.777 210.555 120.73C210.536 120.497 210.508 120.319 210.471 120.198C210.387 119.862 210.219 119.601 209.967 119.414C209.724 119.227 209.416 119.134 209.043 119.134Z" fill="#909091"/>
<path d="M122.979 142.604C123.1 143.024 123.161 143.458 123.161 143.906C123.161 144.345 123.1 144.76 122.979 145.152C122.783 145.749 122.424 146.225 121.901 146.58C121.378 146.925 120.767 147.098 120.067 147.098C119.376 147.098 118.774 146.93 118.261 146.594C117.748 146.249 117.388 145.787 117.183 145.208C117.108 145.003 117.048 144.769 117.001 144.508V144.48C117.001 144.377 117.057 144.326 117.169 144.326H118.499C118.592 144.326 118.653 144.377 118.681 144.48C118.69 144.536 118.714 144.62 118.751 144.732C118.854 145.04 119.017 145.278 119.241 145.446C119.465 145.614 119.736 145.698 120.053 145.698C120.38 145.698 120.66 145.609 120.893 145.432C121.126 145.245 121.29 144.993 121.383 144.676C121.467 144.452 121.509 144.195 121.509 143.906C121.509 143.635 121.472 143.369 121.397 143.108C121.332 142.8 121.182 142.567 120.949 142.408C120.716 142.24 120.431 142.156 120.095 142.156C119.778 142.156 119.488 142.231 119.227 142.38C118.975 142.52 118.812 142.707 118.737 142.94C118.7 143.033 118.634 143.08 118.541 143.08H117.183C117.136 143.08 117.094 143.066 117.057 143.038C117.029 143.001 117.015 142.959 117.015 142.912V137.368C117.015 137.321 117.029 137.284 117.057 137.256C117.094 137.219 117.136 137.2 117.183 137.2H122.629C122.676 137.2 122.713 137.219 122.741 137.256C122.778 137.284 122.797 137.321 122.797 137.368V138.432C122.797 138.479 122.778 138.521 122.741 138.558C122.713 138.586 122.676 138.6 122.629 138.6H118.709C118.662 138.6 118.639 138.623 118.639 138.67L118.625 141.19C118.625 141.227 118.634 141.251 118.653 141.26C118.672 141.26 118.69 141.251 118.709 141.232C119.148 140.905 119.675 140.742 120.291 140.742C120.944 140.742 121.509 140.91 121.985 141.246C122.47 141.573 122.802 142.025 122.979 142.604ZM135.047 139.734C135.766 139.734 136.326 139.953 136.727 140.392C137.138 140.821 137.343 141.423 137.343 142.198V146.832C137.343 146.879 137.325 146.921 137.287 146.958C137.259 146.986 137.222 147 137.175 147H135.901C135.855 147 135.813 146.986 135.775 146.958C135.747 146.921 135.733 146.879 135.733 146.832V142.534C135.733 142.105 135.617 141.764 135.383 141.512C135.159 141.26 134.856 141.134 134.473 141.134C134.091 141.134 133.778 141.26 133.535 141.512C133.293 141.764 133.171 142.1 133.171 142.52V146.832C133.171 146.879 133.153 146.921 133.115 146.958C133.087 146.986 133.05 147 133.003 147H131.729C131.683 147 131.641 146.986 131.603 146.958C131.575 146.921 131.561 146.879 131.561 146.832V142.534C131.561 142.105 131.445 141.764 131.211 141.512C130.978 141.26 130.67 141.134 130.287 141.134C129.933 141.134 129.639 141.237 129.405 141.442C129.181 141.647 129.051 141.927 129.013 142.282V146.832C129.013 146.879 128.995 146.921 128.957 146.958C128.929 146.986 128.892 147 128.845 147H127.557C127.511 147 127.469 146.986 127.431 146.958C127.403 146.921 127.389 146.879 127.389 146.832V140.014C127.389 139.967 127.403 139.93 127.431 139.902C127.469 139.865 127.511 139.846 127.557 139.846H128.845C128.892 139.846 128.929 139.865 128.957 139.902C128.995 139.93 129.013 139.967 129.013 140.014V140.476C129.013 140.504 129.023 140.523 129.041 140.532C129.06 140.541 129.079 140.532 129.097 140.504C129.303 140.243 129.555 140.051 129.853 139.93C130.161 139.799 130.502 139.734 130.875 139.734C131.333 139.734 131.734 139.827 132.079 140.014C132.425 140.201 132.691 140.471 132.877 140.826C132.905 140.863 132.938 140.863 132.975 140.826C133.181 140.453 133.465 140.177 133.829 140C134.193 139.823 134.599 139.734 135.047 139.734ZM145.021 141.694C145.18 142.217 145.259 142.786 145.259 143.402C145.259 144.065 145.17 144.648 144.993 145.152C144.788 145.768 144.456 146.249 143.999 146.594C143.542 146.939 142.982 147.112 142.319 147.112C141.666 147.112 141.129 146.865 140.709 146.37C140.69 146.342 140.672 146.333 140.653 146.342C140.634 146.351 140.625 146.37 140.625 146.398V146.832C140.625 146.879 140.606 146.921 140.569 146.958C140.541 146.986 140.504 147 140.457 147H139.169C139.122 147 139.08 146.986 139.043 146.958C139.015 146.921 139.001 146.879 139.001 146.832V137.368C139.001 137.321 139.015 137.284 139.043 137.256C139.08 137.219 139.122 137.2 139.169 137.2H140.457C140.504 137.2 140.541 137.219 140.569 137.256C140.606 137.284 140.625 137.321 140.625 137.368V140.406C140.625 140.434 140.634 140.453 140.653 140.462C140.672 140.471 140.69 140.467 140.709 140.448C141.11 139.972 141.642 139.734 142.305 139.734C142.996 139.734 143.565 139.907 144.013 140.252C144.47 140.597 144.806 141.078 145.021 141.694ZM143.257 145.04C143.481 144.648 143.593 144.111 143.593 143.43C143.593 142.702 143.453 142.133 143.173 141.722C142.921 141.33 142.548 141.134 142.053 141.134C141.596 141.134 141.246 141.339 141.003 141.75C140.77 142.133 140.653 142.688 140.653 143.416C140.653 144.135 140.76 144.676 140.975 145.04C141.218 145.488 141.582 145.712 142.067 145.712C142.328 145.712 142.562 145.656 142.767 145.544C142.972 145.423 143.136 145.255 143.257 145.04ZM157.276 139.734C157.995 139.734 158.555 139.953 158.956 140.392C159.367 140.821 159.572 141.423 159.572 142.198V146.832C159.572 146.879 159.553 146.921 159.516 146.958C159.488 146.986 159.451 147 159.404 147H158.13C158.083 147 158.041 146.986 158.004 146.958C157.976 146.921 157.962 146.879 157.962 146.832V142.534C157.962 142.105 157.845 141.764 157.612 141.512C157.388 141.26 157.085 141.134 156.702 141.134C156.319 141.134 156.007 141.26 155.764 141.512C155.521 141.764 155.4 142.1 155.4 142.52V146.832C155.4 146.879 155.381 146.921 155.344 146.958C155.316 146.986 155.279 147 155.232 147H153.958C153.911 147 153.869 146.986 153.832 146.958C153.804 146.921 153.79 146.879 153.79 146.832V142.534C153.79 142.105 153.673 141.764 153.44 141.512C153.207 141.26 152.899 141.134 152.516 141.134C152.161 141.134 151.867 141.237 151.634 141.442C151.41 141.647 151.279 141.927 151.242 142.282V146.832C151.242 146.879 151.223 146.921 151.186 146.958C151.158 146.986 151.121 147 151.074 147H149.786C149.739 147 149.697 146.986 149.66 146.958C149.632 146.921 149.618 146.879 149.618 146.832V140.014C149.618 139.967 149.632 139.93 149.66 139.902C149.697 139.865 149.739 139.846 149.786 139.846H151.074C151.121 139.846 151.158 139.865 151.186 139.902C151.223 139.93 151.242 139.967 151.242 140.014V140.476C151.242 140.504 151.251 140.523 151.27 140.532C151.289 140.541 151.307 140.532 151.326 140.504C151.531 140.243 151.783 140.051 152.082 139.93C152.39 139.799 152.731 139.734 153.104 139.734C153.561 139.734 153.963 139.827 154.308 140.014C154.653 140.201 154.919 140.471 155.106 140.826C155.134 140.863 155.167 140.863 155.204 140.826C155.409 140.453 155.694 140.177 156.058 140C156.422 139.823 156.828 139.734 157.276 139.734ZM163.959 139.734C164.547 139.734 165.065 139.837 165.513 140.042C165.961 140.247 166.307 140.532 166.549 140.896C166.792 141.251 166.913 141.657 166.913 142.114V146.832C166.913 146.879 166.895 146.921 166.857 146.958C166.829 146.986 166.792 147 166.745 147H165.457C165.411 147 165.369 146.986 165.331 146.958C165.303 146.921 165.289 146.879 165.289 146.832V146.384C165.289 146.356 165.28 146.342 165.261 146.342C165.243 146.333 165.224 146.337 165.205 146.356C164.748 146.86 164.085 147.112 163.217 147.112C162.517 147.112 161.939 146.935 161.481 146.58C161.033 146.225 160.809 145.698 160.809 144.998C160.809 144.27 161.061 143.705 161.565 143.304C162.079 142.893 162.797 142.688 163.721 142.688H165.219C165.266 142.688 165.289 142.665 165.289 142.618V142.282C165.289 141.918 165.182 141.638 164.967 141.442C164.753 141.237 164.431 141.134 164.001 141.134C163.647 141.134 163.357 141.199 163.133 141.33C162.919 141.451 162.783 141.624 162.727 141.848C162.699 141.96 162.634 142.007 162.531 141.988L161.173 141.82C161.127 141.811 161.085 141.797 161.047 141.778C161.019 141.75 161.01 141.717 161.019 141.68C161.094 141.111 161.397 140.644 161.929 140.28C162.471 139.916 163.147 139.734 163.959 139.734ZM163.623 145.824C164.081 145.824 164.473 145.703 164.799 145.46C165.126 145.217 165.289 144.909 165.289 144.536V143.878C165.289 143.831 165.266 143.808 165.219 143.808H164.043C163.549 143.808 163.157 143.901 162.867 144.088C162.587 144.275 162.447 144.541 162.447 144.886C162.447 145.185 162.555 145.418 162.769 145.586C162.993 145.745 163.278 145.824 163.623 145.824ZM168.17 147C168.104 147 168.058 146.981 168.03 146.944C168.011 146.897 168.02 146.846 168.058 146.79L170.326 143.458C170.344 143.43 170.344 143.402 170.326 143.374L168.058 140.056C168.039 140.019 168.03 139.986 168.03 139.958C168.03 139.883 168.076 139.846 168.17 139.846H169.542C169.626 139.846 169.691 139.883 169.738 139.958L171.194 142.114C171.212 142.133 171.231 142.142 171.25 142.142C171.268 142.142 171.282 142.133 171.292 142.114L172.748 139.958C172.794 139.883 172.86 139.846 172.944 139.846H174.414C174.479 139.846 174.521 139.869 174.54 139.916C174.568 139.953 174.563 140 174.526 140.056L172.258 143.374C172.248 143.402 172.248 143.43 172.258 143.458L174.526 146.79C174.544 146.827 174.554 146.86 174.554 146.888C174.554 146.963 174.507 147 174.414 147H173.042C172.958 147 172.892 146.963 172.846 146.888L171.39 144.732C171.38 144.713 171.366 144.704 171.348 144.704C171.329 144.704 171.31 144.713 171.292 144.732L169.836 146.888C169.789 146.963 169.724 147 169.64 147H168.17ZM182.301 139.832C182.348 139.832 182.385 139.851 182.413 139.888C182.45 139.916 182.469 139.953 182.469 140V141.106C182.469 141.153 182.45 141.195 182.413 141.232C182.385 141.26 182.348 141.274 182.301 141.274H180.915C180.868 141.274 180.845 141.297 180.845 141.344V146.832C180.845 146.879 180.826 146.921 180.789 146.958C180.761 146.986 180.724 147 180.677 147H179.389C179.342 147 179.3 146.986 179.263 146.958C179.235 146.921 179.221 146.879 179.221 146.832V141.344C179.221 141.297 179.198 141.274 179.151 141.274H178.283C178.236 141.274 178.194 141.26 178.157 141.232C178.129 141.195 178.115 141.153 178.115 141.106V140C178.115 139.953 178.129 139.916 178.157 139.888C178.194 139.851 178.236 139.832 178.283 139.832H179.151C179.198 139.832 179.221 139.809 179.221 139.762V139.51C179.221 138.903 179.3 138.437 179.459 138.11C179.618 137.774 179.879 137.536 180.243 137.396C180.607 137.256 181.12 137.191 181.783 137.2H182.273C182.32 137.2 182.357 137.219 182.385 137.256C182.422 137.284 182.441 137.321 182.441 137.368V138.348C182.441 138.395 182.422 138.437 182.385 138.474C182.357 138.502 182.32 138.516 182.273 138.516H181.909C181.508 138.516 181.228 138.595 181.069 138.754C180.92 138.913 180.845 139.202 180.845 139.622V139.762C180.845 139.809 180.868 139.832 180.915 139.832H182.301ZM184.765 138.866C184.476 138.866 184.238 138.773 184.051 138.586C183.864 138.399 183.771 138.161 183.771 137.872C183.771 137.583 183.864 137.345 184.051 137.158C184.238 136.971 184.476 136.878 184.765 136.878C185.054 136.878 185.292 136.971 185.479 137.158C185.666 137.345 185.759 137.583 185.759 137.872C185.759 138.161 185.666 138.399 185.479 138.586C185.292 138.773 185.054 138.866 184.765 138.866ZM184.093 147C184.046 147 184.004 146.986 183.967 146.958C183.939 146.921 183.925 146.879 183.925 146.832V140C183.925 139.953 183.939 139.916 183.967 139.888C184.004 139.851 184.046 139.832 184.093 139.832H185.381C185.428 139.832 185.465 139.851 185.493 139.888C185.53 139.916 185.549 139.953 185.549 140V146.832C185.549 146.879 185.53 146.921 185.493 146.958C185.465 146.986 185.428 147 185.381 147H184.093ZM187.581 147C187.534 147 187.492 146.986 187.455 146.958C187.427 146.921 187.413 146.879 187.413 146.832V137.368C187.413 137.321 187.427 137.284 187.455 137.256C187.492 137.219 187.534 137.2 187.581 137.2H188.869C188.916 137.2 188.953 137.219 188.981 137.256C189.018 137.284 189.037 137.321 189.037 137.368V146.832C189.037 146.879 189.018 146.921 188.981 146.958C188.953 146.986 188.916 147 188.869 147H187.581ZM196.8 142.618C196.838 142.851 196.856 143.113 196.856 143.402L196.842 143.836C196.842 143.948 196.786 144.004 196.674 144.004H192.292C192.246 144.004 192.222 144.027 192.222 144.074C192.25 144.382 192.292 144.592 192.348 144.704C192.572 145.376 193.118 145.717 193.986 145.726C194.621 145.726 195.125 145.465 195.498 144.942C195.536 144.886 195.582 144.858 195.638 144.858C195.676 144.858 195.708 144.872 195.736 144.9L196.604 145.614C196.688 145.679 196.702 145.754 196.646 145.838C196.357 146.249 195.97 146.566 195.484 146.79C195.008 147.014 194.476 147.126 193.888 147.126C193.16 147.126 192.54 146.963 192.026 146.636C191.522 146.309 191.154 145.852 190.92 145.264C190.706 144.76 190.598 144.06 190.598 143.164C190.598 142.623 190.654 142.184 190.766 141.848C190.953 141.195 191.303 140.681 191.816 140.308C192.339 139.925 192.964 139.734 193.692 139.734C195.531 139.734 196.567 140.695 196.8 142.618ZM193.692 141.134C193.347 141.134 193.058 141.223 192.824 141.4C192.6 141.568 192.442 141.806 192.348 142.114C192.292 142.273 192.255 142.478 192.236 142.73C192.218 142.777 192.236 142.8 192.292 142.8H195.134C195.181 142.8 195.204 142.777 195.204 142.73C195.186 142.497 195.158 142.319 195.12 142.198C195.036 141.862 194.868 141.601 194.616 141.414C194.374 141.227 194.066 141.134 193.692 141.134ZM203.811 147.084C203.223 147.084 202.705 147 202.257 146.832C201.819 146.655 201.478 146.417 201.235 146.118C200.993 145.81 200.871 145.469 200.871 145.096V144.97C200.871 144.923 200.885 144.886 200.913 144.858C200.951 144.821 200.993 144.802 201.039 144.802H202.271C202.318 144.802 202.355 144.821 202.383 144.858C202.421 144.886 202.439 144.923 202.439 144.97V144.998C202.439 145.231 202.565 145.437 202.817 145.614C203.079 145.782 203.405 145.866 203.797 145.866C204.171 145.866 204.474 145.791 204.707 145.642C204.941 145.483 205.057 145.287 205.057 145.054C205.057 144.839 204.959 144.681 204.763 144.578C204.577 144.466 204.269 144.349 203.839 144.228L203.307 144.06C202.831 143.92 202.43 143.771 202.103 143.612C201.777 143.453 201.501 143.239 201.277 142.968C201.053 142.688 200.941 142.333 200.941 141.904C200.941 141.251 201.198 140.733 201.711 140.35C202.225 139.958 202.901 139.762 203.741 139.762C204.311 139.762 204.81 139.855 205.239 140.042C205.669 140.219 206 140.471 206.233 140.798C206.467 141.115 206.583 141.479 206.583 141.89C206.583 141.937 206.565 141.979 206.527 142.016C206.499 142.044 206.462 142.058 206.415 142.058H205.225C205.179 142.058 205.137 142.044 205.099 142.016C205.071 141.979 205.057 141.937 205.057 141.89C205.057 141.647 204.936 141.447 204.693 141.288C204.46 141.12 204.138 141.036 203.727 141.036C203.363 141.036 203.065 141.106 202.831 141.246C202.607 141.377 202.495 141.563 202.495 141.806C202.495 142.03 202.603 142.203 202.817 142.324C203.041 142.436 203.41 142.562 203.923 142.702L204.231 142.786C204.726 142.935 205.141 143.089 205.477 143.248C205.813 143.397 206.098 143.612 206.331 143.892C206.565 144.163 206.681 144.517 206.681 144.956C206.681 145.619 206.42 146.141 205.897 146.524C205.375 146.897 204.679 147.084 203.811 147.084ZM208.983 138.866C208.694 138.866 208.456 138.773 208.269 138.586C208.083 138.399 207.989 138.161 207.989 137.872C207.989 137.583 208.083 137.345 208.269 137.158C208.456 136.971 208.694 136.878 208.983 136.878C209.273 136.878 209.511 136.971 209.697 137.158C209.884 137.345 209.977 137.583 209.977 137.872C209.977 138.161 209.884 138.399 209.697 138.586C209.511 138.773 209.273 138.866 208.983 138.866ZM208.311 147C208.265 147 208.223 146.986 208.185 146.958C208.157 146.921 208.143 146.879 208.143 146.832V140C208.143 139.953 208.157 139.916 208.185 139.888C208.223 139.851 208.265 139.832 208.311 139.832H209.599C209.646 139.832 209.683 139.851 209.711 139.888C209.749 139.916 209.767 139.953 209.767 140V146.832C209.767 146.879 209.749 146.921 209.711 146.958C209.683 146.986 209.646 147 209.599 147H208.311ZM211.324 147C211.277 147 211.235 146.986 211.198 146.958C211.17 146.921 211.156 146.879 211.156 146.832V145.642C211.156 145.558 211.179 145.493 211.226 145.446L214.67 141.4C214.716 141.344 214.702 141.316 214.628 141.316H211.394C211.347 141.316 211.305 141.302 211.268 141.274C211.24 141.237 211.226 141.195 211.226 141.148V140.014C211.226 139.967 211.24 139.93 211.268 139.902C211.305 139.865 211.347 139.846 211.394 139.846H216.49C216.536 139.846 216.574 139.865 216.602 139.902C216.639 139.93 216.658 139.967 216.658 140.014V141.204C216.658 141.279 216.63 141.344 216.574 141.4L213.06 145.446C213.022 145.502 213.036 145.53 213.102 145.53H216.532C216.578 145.53 216.616 145.549 216.644 145.586C216.681 145.614 216.7 145.651 216.7 145.698V146.832C216.7 146.879 216.681 146.921 216.644 146.958C216.616 146.986 216.578 147 216.532 147H211.324ZM224.041 142.618C224.078 142.851 224.097 143.113 224.097 143.402L224.083 143.836C224.083 143.948 224.027 144.004 223.915 144.004H219.533C219.486 144.004 219.463 144.027 219.463 144.074C219.491 144.382 219.533 144.592 219.589 144.704C219.813 145.376 220.359 145.717 221.227 145.726C221.861 145.726 222.365 145.465 222.739 144.942C222.776 144.886 222.823 144.858 222.879 144.858C222.916 144.858 222.949 144.872 222.977 144.9L223.845 145.614C223.929 145.679 223.943 145.754 223.887 145.838C223.597 146.249 223.21 146.566 222.725 146.79C222.249 147.014 221.717 147.126 221.129 147.126C220.401 147.126 219.78 146.963 219.267 146.636C218.763 146.309 218.394 145.852 218.161 145.264C217.946 144.76 217.839 144.06 217.839 143.164C217.839 142.623 217.895 142.184 218.007 141.848C218.193 141.195 218.543 140.681 219.057 140.308C219.579 139.925 220.205 139.734 220.933 139.734C222.771 139.734 223.807 140.695 224.041 142.618ZM220.933 141.134C220.587 141.134 220.298 141.223 220.065 141.4C219.841 141.568 219.682 141.806 219.589 142.114C219.533 142.273 219.495 142.478 219.477 142.73C219.458 142.777 219.477 142.8 219.533 142.8H222.375C222.421 142.8 222.445 142.777 222.445 142.73C222.426 142.497 222.398 142.319 222.361 142.198C222.277 141.862 222.109 141.601 221.857 141.414C221.614 141.227 221.306 141.134 220.933 141.134Z" fill="#909091"/>
</svg>
