<svg width="47" height="46" viewBox="0 0 47 46" fill="none" xmlns="http://www.w3.org/2000/svg">
<path fill-rule="evenodd" clip-rule="evenodd" d="M25.8325 35.7973C25.3132 36 24.6535 36 23.3354 36C22.0173 36 21.359 36 20.8383 35.7973C20.4956 35.6643 20.184 35.4682 19.9214 35.2204C19.6589 34.9725 19.4505 34.6778 19.3082 34.3531C19.1763 34.0558 19.1258 33.7077 19.1047 33.2023C19.0947 32.8363 18.9869 32.4786 18.7914 32.163C18.596 31.8474 18.3193 31.5842 17.9874 31.3981C17.6487 31.2193 17.2681 31.1245 16.8806 31.1227C16.4932 31.1208 16.1115 31.2119 15.771 31.3874C15.2965 31.6248 14.9526 31.7555 14.6129 31.7981C13.8698 31.8903 13.1184 31.7005 12.5215 31.2701C12.0751 30.9474 11.7452 30.4086 11.0869 29.3325C10.4272 28.2564 10.0987 27.719 10.0243 27.1922C9.92605 26.4908 10.1282 25.7814 10.5858 25.22C10.7935 24.964 11.0869 24.7493 11.5403 24.4799C12.2098 24.0838 12.6394 23.4091 12.6394 22.665C12.6394 21.9209 12.2098 21.2462 11.5417 20.8514C11.0869 20.5807 10.7935 20.366 10.5844 20.11C10.3592 19.8324 10.1938 19.5153 10.0977 19.1769C10.0016 18.8384 9.97666 18.4853 10.0243 18.1378C10.0987 17.6124 10.4272 17.0736 11.0869 15.9975C11.7466 14.9214 12.0751 14.384 12.5215 14.0599C13.1166 13.6292 13.869 13.4398 14.6129 13.5319C14.9526 13.5745 15.2965 13.7052 15.771 13.9426C16.1117 14.1184 16.4936 14.2096 16.8813 14.2077C17.269 14.2058 17.65 14.111 17.9888 13.9319C18.671 13.5585 19.0752 12.8718 19.1047 12.1277C19.1258 11.621 19.1763 11.2742 19.3082 10.9769C19.5946 10.3235 20.1448 9.80339 20.8383 9.53269C21.3576 9.33 22.0173 9.33 23.3354 9.33C24.6535 9.33 25.3132 9.33 25.8325 9.53269C26.1752 9.6657 26.4868 9.86177 26.7494 10.1096C27.0119 10.3575 27.2203 10.6522 27.3626 10.9769C27.4945 11.2742 27.545 11.621 27.5661 12.1277C27.5942 12.8718 27.9998 13.5599 28.6834 13.9319C29.0221 14.1107 29.4027 14.2055 29.7902 14.2073C30.1776 14.2092 30.5593 14.1181 30.8998 13.9426C31.3743 13.7052 31.7182 13.5745 32.0579 13.5319C32.8018 13.4385 33.5542 13.6292 34.1493 14.0599C34.5957 14.3826 34.9256 14.9214 35.5839 15.9975C36.2436 17.0736 36.5721 17.611 36.6465 18.1378C36.6939 18.4854 36.6688 18.8386 36.5724 19.177C36.4761 19.5154 36.3105 19.8325 36.085 20.11C35.8773 20.366 35.5839 20.5807 35.1305 20.8501C34.461 21.2462 34.0314 21.9209 34.0314 22.665C34.0314 23.4091 34.461 24.0838 35.1291 24.4786C35.5839 24.7493 35.8773 24.964 36.0864 25.22C36.3116 25.4976 36.477 25.8147 36.5731 26.1531C36.6692 26.4916 36.6941 26.8447 36.6465 27.1922C36.5721 27.7176 36.2436 28.2564 35.5839 29.3325C34.9242 30.4086 34.5957 30.946 34.1493 31.2701C33.5524 31.7005 32.801 31.8903 32.0579 31.7981C31.7182 31.7555 31.3743 31.6248 30.8998 31.3874C30.5591 31.2116 30.1772 31.1204 29.7895 31.1223C29.4018 31.1242 29.0208 31.219 28.682 31.3981C28.3503 31.5844 28.0739 31.8477 27.8787 32.1633C27.6835 32.4789 27.576 32.8364 27.5661 33.2023C27.545 33.709 27.4945 34.0558 27.3626 34.3531C27.2203 34.6778 27.0119 34.9725 26.7494 35.2204C26.4868 35.4682 26.1752 35.6643 25.8325 35.7973ZM23.3354 18.6645C25.6795 18.6645 27.5787 20.4554 27.5787 22.665C27.5787 24.8746 25.6781 26.6655 23.3354 26.6655C20.9927 26.6655 19.0921 24.8746 19.0921 22.665C19.0921 20.4554 20.9927 18.6645 23.3354 18.6645Z" fill="#201E43"/>
</svg>
