<svg width="20" height="20" viewBox="0 0 20 20" fill="none" xmlns="http://www.w3.org/2000/svg">
<path d="M5.83333 8.33317V5.83317C5.83333 4.7281 6.27232 3.66829 7.05372 2.88689C7.83512 2.10549 8.89493 1.6665 10 1.6665C11.1051 1.6665 12.1649 2.10549 12.9463 2.88689C13.7277 3.66829 14.1667 4.7281 14.1667 5.83317V8.33317M10.8333 13.3332C10.8333 13.7934 10.4602 14.1665 10 14.1665C9.53976 14.1665 9.16667 13.7934 9.16667 13.3332C9.16667 12.8729 9.53976 12.4998 10 12.4998C10.4602 12.4998 10.8333 12.8729 10.8333 13.3332ZM4.16667 8.33317H15.8333C16.7538 8.33317 17.5 9.07936 17.5 9.99984V16.6665C17.5 17.587 16.7538 18.3332 15.8333 18.3332H4.16667C3.24619 18.3332 2.5 17.587 2.5 16.6665V9.99984C2.5 9.07936 3.24619 8.33317 4.16667 8.33317Z" stroke="#727272" stroke-width="1.6" stroke-linecap="round" stroke-linejoin="round"/>
</svg>
