<svg width="24" height="24" viewBox="0 0 24 24" fill="none" xmlns="http://www.w3.org/2000/svg">
<path d="M12.75 2V5.6C12.75 6.07739 12.9344 6.53523 13.2626 6.87279C13.5908 7.21036 14.0359 7.4 14.5 7.4H18M9.25 8.3H7.5M14.5 11.9H7.5M14.5 15.5H7.5M13.625 2H5.75C5.28587 2 4.84075 2.18964 4.51256 2.52721C4.18437 2.86477 4 3.32261 4 3.8V18.2C4 18.6774 4.18437 19.1352 4.51256 19.4728C4.84075 19.8104 5.28587 20 5.75 20H16.25C16.7141 20 17.1592 19.8104 17.4874 19.4728C17.8156 19.1352 18 18.6774 18 18.2V6.5L13.625 2Z" stroke="#727272" stroke-width="1.6" stroke-linecap="round" stroke-linejoin="round"/>
</svg>
