<svg width="20" height="25" viewBox="0 0 20 25" fill="none" xmlns="http://www.w3.org/2000/svg">
<path d="M15.8334 22.5V20.8333C15.8334 19.9493 15.4822 19.1014 14.857 18.4763C14.2319 17.8512 13.3841 17.5 12.5 17.5H7.50002C6.61597 17.5 5.76812 17.8512 5.143 18.4763C4.51788 19.1014 4.16669 19.9493 4.16669 20.8333V22.5M13.3334 10.8333C13.3334 12.6743 11.841 14.1667 10 14.1667C8.15907 14.1667 6.66669 12.6743 6.66669 10.8333C6.66669 8.99238 8.15907 7.5 10 7.5C11.841 7.5 13.3334 8.99238 13.3334 10.8333Z" stroke="#727272" stroke-width="1.6" stroke-linecap="round" stroke-linejoin="round"/>
<path d="M14.1666 4.16649V6.66649M7.49998 5.20816V6.66649C7.49998 6.99801 7.76337 7.31595 8.23221 7.55037C8.70105 7.78479 9.33694 7.91649 9.99998 7.91649C10.663 7.91649 11.2989 7.78479 11.7677 7.55037C12.2366 7.31595 12.5 6.99801 12.5 6.66649V5.20816M13.925 4.55066C13.9996 4.51775 14.0629 4.46369 14.107 4.39516C14.1512 4.32663 14.1743 4.24665 14.1734 4.16513C14.1726 4.08361 14.1479 4.00412 14.1023 3.93652C14.0567 3.86893 13.9923 3.81618 13.9171 3.78482L10.3458 2.15816C10.2372 2.10864 10.1193 2.08301 9.99998 2.08301C9.88065 2.08301 9.76271 2.10864 9.65414 2.15816L6.08331 3.78316C6.00913 3.81565 5.94603 3.86905 5.90171 3.93683C5.8574 4.00461 5.8338 4.08384 5.8338 4.16482C5.8338 4.24581 5.8574 4.32503 5.90171 4.39282C5.94603 4.4606 6.00913 4.514 6.08331 4.54649L9.65414 6.17482C9.76271 6.22434 9.88065 6.24997 9.99998 6.24997C10.1193 6.24997 10.2372 6.22434 10.3458 6.17482L13.925 4.55066Z" stroke="#727272" stroke-linecap="round" stroke-linejoin="round"/>
</svg>
