<svg width="20" height="20" viewBox="0 0 20 20" fill="none" xmlns="http://www.w3.org/2000/svg">
<path d="M7.57502 7.5002C7.77094 6.94326 8.15765 6.47362 8.66665 6.17448C9.17565 5.87533 9.7741 5.76598 10.356 5.86579C10.9379 5.96561 11.4657 6.26814 11.8459 6.71981C12.2261 7.17148 12.4342 7.74314 12.4334 8.33354C12.4334 10.0002 9.93335 10.8335 9.93335 10.8335M10 14.1669H10.0084M6.58335 16.6669C8.17384 17.4827 10.0034 17.7037 11.7424 17.29C13.4814 16.8763 15.0155 15.8551 16.0681 14.4104C17.1208 12.9656 17.6229 11.1925 17.4838 9.41034C17.3448 7.62821 16.5738 5.95434 15.3099 4.69036C14.0459 3.42638 12.372 2.65541 10.5899 2.51638C8.80776 2.37735 7.03458 2.87941 5.58987 3.93207C4.14516 4.98474 3.12393 6.51879 2.71021 8.2578C2.29648 9.9968 2.51747 11.8264 3.33335 13.4169L1.66669 18.3335L6.58335 16.6669Z" stroke="#727272" stroke-width="1.6" stroke-linecap="round" stroke-linejoin="round"/>
</svg>
