<svg width="78" height="40" viewBox="0 0 78 40" fill="none" xmlns="http://www.w3.org/2000/svg">
<path d="M49.9209 22.4L48.6361 21.7C47.2442 20.9 47.2442 19 48.6361 18.2L49.9209 17.5C50.9916 16.9 51.3128 15.7 50.6704 14.8L49.5997 13.1C48.9573 12.1 47.6725 11.8 46.7089 12.4L45.4241 13.1C44.0322 13.9 42.212 12.9 42.212 11.4V10C42.212 8.9 41.2484 8 40.0707 8H37.9293C36.7516 8 35.788 8.9 35.788 10V11.3C35.788 12.8 33.9678 13.8 32.5759 13L31.2911 12.4C30.2204 11.8 28.9356 12.2 28.4003 13.1L27.3296 14.8C26.7943 15.8 27.1155 17 28.0791 17.6L29.3639 18.3C30.7558 19 30.7558 21 29.3639 21.7L28.0791 22.4C27.0084 23 26.6872 24.2 27.3296 25.1L28.4003 26.8C29.0427 27.8 30.3275 28.1 31.2911 27.5L32.5759 26.9C33.9678 26.1 35.788 27.1 35.788 28.6V30C35.788 31.1 36.7516 32 37.9293 32H40.0707C41.2484 32 42.212 31.1 42.212 30V28.7C42.212 27.2 44.0322 26.2 45.4241 27L46.7089 27.7C47.7796 28.3 49.0644 27.9 49.5997 27L50.6704 25.3C51.2057 24.2 50.8845 23 49.9209 22.4ZM39 24C36.6445 24 34.7173 22.2 34.7173 20C34.7173 17.8 36.6445 16 39 16C41.3555 16 43.2827 17.8 43.2827 20C43.2827 22.2 41.3555 24 39 24Z" fill="black"/>
</svg>
