<svg width="40" height="40" viewBox="0 0 40 40" fill="none" xmlns="http://www.w3.org/2000/svg">
<circle cx="20" cy="20" r="20" fill="#95989A"/>
<path d="M13.9625 23.1573C12.3125 23.1573 11 21.604 11 19.6513C11 17.6985 12.3125 16.1452 13.9625 16.1452C15.6125 16.1452 16.925 17.6985 16.925 19.6513C16.925 21.5596 15.6125 23.1573 13.9625 23.1573ZM13.9625 17.4322C12.95 17.4322 12.125 18.4086 12.125 19.6069C12.125 20.8051 12.95 21.7815 13.9625 21.7815C14.975 21.7815 15.8 20.8051 15.8 19.6069C15.8 18.453 14.975 17.4322 13.9625 17.4322Z" fill="white"/>
<path d="M26.0001 16.0121C24.3501 16.0121 23.0376 14.4588 23.0376 12.506C23.0376 10.5533 24.3501 9 26.0001 9C27.6501 9 28.9626 10.5533 28.9626 12.506C28.9626 14.4588 27.6126 16.0121 26.0001 16.0121ZM26.0001 10.3314C24.9876 10.3314 24.1626 11.3078 24.1626 12.506C24.1626 13.7043 24.9876 14.6807 26.0001 14.6807C27.0126 14.6807 27.8376 13.7043 27.8376 12.506C27.8376 11.3078 27.0126 10.3314 26.0001 10.3314Z" fill="white"/>
<path d="M26.0001 30.2582C24.3501 30.2582 23.0376 28.7049 23.0376 26.7522C23.0376 24.7994 24.3501 23.2461 26.0001 23.2461C27.6501 23.2461 28.9626 24.7994 28.9626 26.7522C28.9626 28.7049 27.6126 30.2582 26.0001 30.2582ZM26.0001 24.5775C24.9876 24.5775 24.1626 25.5539 24.1626 26.7522C24.1626 27.9504 24.9876 28.9268 26.0001 28.9268C27.0126 28.9268 27.8376 27.9504 27.8376 26.7522C27.8376 25.5539 27.0126 24.5775 26.0001 24.5775Z" fill="white"/>
<path d="M23.5624 26.1308L15.8374 21.5596L16.3624 20.2726L24.1249 24.8438L23.5624 26.1308Z" fill="white"/>
<path d="M16.3624 18.9856L15.8374 17.7429L23.5624 13.1718L24.1249 14.4144L16.3624 18.9856Z" fill="white"/>
</svg>
