<svg width="27" height="27" viewBox="0 0 27 27" fill="none" xmlns="http://www.w3.org/2000/svg">
<circle cx="13.5" cy="13.5" r="13.5" fill="#DFDFDF"/>
<path d="M7.99969 15.4476C6.88594 15.4476 6 14.5208 6 13.3556C6 12.1905 6.88594 11.2637 7.99969 11.2637C9.11344 11.2637 9.99938 12.1905 9.99938 13.3556C9.99938 14.4943 9.11344 15.4476 7.99969 15.4476ZM7.99969 12.0316C7.31625 12.0316 6.75938 12.6142 6.75938 13.3291C6.75938 14.0441 7.31625 14.6267 7.99969 14.6267C8.68312 14.6267 9.24 14.0441 9.24 13.3291C9.24 12.6407 8.68312 12.0316 7.99969 12.0316Z" fill="#201E43"/>
<path d="M16.1251 11.1836C15.0113 11.1836 14.1254 10.2568 14.1254 9.0917C14.1254 7.92657 15.0113 6.99976 16.1251 6.99976C17.2388 6.99976 18.1247 7.92657 18.1247 9.0917C18.1247 10.2568 17.2135 11.1836 16.1251 11.1836ZM16.1251 7.79417C15.4416 7.79417 14.8847 8.37673 14.8847 9.0917C14.8847 9.80667 15.4416 10.3892 16.1251 10.3892C16.8085 10.3892 17.3654 9.80667 17.3654 9.0917C17.3654 8.37673 16.8085 7.79417 16.1251 7.79417Z" fill="#201E43"/>
<path d="M16.1252 19.6839C15.0114 19.6839 14.1255 18.7571 14.1255 17.592C14.1255 16.4268 15.0114 15.5 16.1252 15.5C17.2389 15.5 18.1249 16.4268 18.1249 17.592C18.1249 18.7571 17.2136 19.6839 16.1252 19.6839ZM16.1252 16.2944C15.4417 16.2944 14.8849 16.877 14.8849 17.592C14.8849 18.3069 15.4417 18.8895 16.1252 18.8895C16.8086 18.8895 17.3655 18.3069 17.3655 17.592C17.3655 16.877 16.8086 16.2944 16.1252 16.2944Z" fill="#201E43"/>
<path d="M14.4795 17.2215L9.26514 14.494L9.61952 13.7261L14.8592 16.4535L14.4795 17.2215Z" fill="#201E43"/>
<path d="M9.61952 12.9579L9.26514 12.2165L14.4795 9.48901L14.8592 10.2305L9.61952 12.9579Z" fill="#201E43"/>
</svg>
