<svg width="20" height="20" viewBox="0 0 20 20" fill="none" xmlns="http://www.w3.org/2000/svg">
<g clip-path="url(#clip0_6646_8790)">
<path d="M3.33372 12.4993C3.33372 15.2635 5.56955 17.4993 8.33372 17.4993L7.61955 16.071M16.6671 7.49935C16.6671 4.73518 14.4312 2.49935 11.6671 2.49935L12.3812 3.92768M3.15788 7.53018C2.56788 7.84935 1.02288 8.50102 1.96372 9.31602C2.42372 9.71435 2.93622 9.99935 3.58038 9.99935H7.25455C7.89788 9.99935 8.41038 9.71435 8.87038 9.31602C9.81205 8.50102 8.26622 7.84935 7.67622 7.53018C6.29372 6.78185 4.54038 6.78185 3.15788 7.53018ZM7.29205 3.56018C7.29337 3.80765 7.2459 4.05294 7.15236 4.28205C7.05883 4.51116 6.92106 4.71959 6.74693 4.89542C6.57279 5.07126 6.36572 5.21105 6.13753 5.30681C5.90934 5.40257 5.66452 5.45242 5.41705 5.45352C5.16959 5.45242 4.92476 5.40257 4.69658 5.30681C4.46839 5.21105 4.26131 5.07126 4.08718 4.89542C3.91304 4.71959 3.77527 4.51116 3.68174 4.28205C3.5882 4.05294 3.54073 3.80765 3.54205 3.56018C3.54062 3.31265 3.58801 3.06726 3.6815 2.83806C3.77498 2.60885 3.91274 2.40033 4.08688 2.2244C4.26102 2.04848 4.46814 1.90861 4.69638 1.8128C4.92462 1.71699 5.16952 1.66711 5.41705 1.66602C5.66459 1.66711 5.90948 1.71699 6.13772 1.8128C6.36596 1.90861 6.57308 2.04848 6.74722 2.2244C6.92136 2.40033 7.05912 2.60885 7.15261 2.83806C7.24609 3.06726 7.29348 3.31265 7.29205 3.56018ZM12.3246 15.8635C11.7346 16.1827 10.1896 16.8343 11.1304 17.6493C11.5904 18.0477 12.1029 18.3327 12.7471 18.3327H16.4212C17.0646 18.3327 17.5771 18.0477 18.0371 17.6493C18.9787 16.8343 17.4329 16.1827 16.8429 15.8635C15.4604 15.1152 13.7071 15.1152 12.3246 15.8635ZM16.4587 11.8935C16.4601 12.141 16.4128 12.3864 16.3193 12.6156C16.2258 12.8448 16.088 13.0534 15.9139 13.2293C15.7397 13.4052 15.5326 13.5451 15.3044 13.6409C15.0761 13.7367 14.8313 13.7866 14.5837 13.7877C14.3362 13.7866 14.0913 13.7367 13.863 13.6409C13.6348 13.5451 13.4277 13.4052 13.2535 13.2293C13.0794 13.0534 12.9417 12.8448 12.8482 12.6156C12.7547 12.3864 12.7073 12.141 12.7087 11.8935C12.7073 11.646 12.7547 11.4006 12.8482 11.1714C12.9417 10.9422 13.0794 10.7337 13.2535 10.5577C13.4277 10.3818 13.6348 10.2419 13.863 10.1461C14.0913 10.0503 14.3362 10.0004 14.5837 9.99935C14.8313 10.0004 15.0761 10.0503 15.3044 10.1461C15.5326 10.2419 15.7397 10.3818 15.9139 10.5577C16.088 10.7337 16.2258 10.9422 16.3193 11.1714C16.4128 11.4006 16.4601 11.646 16.4587 11.8935Z" stroke="#727272" stroke-width="1.5" stroke-linecap="round" stroke-linejoin="round"/>
</g>
<defs>
<clipPath id="clip0_6646_8790">
<rect width="20" height="20" fill="white"/>
</clipPath>
</defs>
</svg>
