<svg width="24" height="27" viewBox="0 0 24 27" fill="none" xmlns="http://www.w3.org/2000/svg">
<mask id="mask0_1953_1344" style="mask-type:luminance" maskUnits="userSpaceOnUse" x="0" y="0" width="24" height="27">
<path d="M24 0H0V27H24V0Z" fill="white"/>
</mask>
<g mask="url(#mask0_1953_1344)">
<path d="M23.344 14.2915C23.2072 14.05 23.0018 13.8344 22.7424 13.6602C22.4828 13.4861 22.1756 13.3577 21.8431 13.2843C21.4808 13.2044 21.1 13.1854 20.7272 13.2287C20.3543 13.272 19.9985 13.3766 19.6844 13.5351C19.6095 13.5721 19.5361 13.6112 19.4595 13.6519L19.4226 13.6715C19.2253 13.3452 18.9307 13.0582 18.5621 12.833C18.1933 12.608 17.7607 12.4513 17.2984 12.3751C16.9014 12.3169 16.4917 12.3327 16.1045 12.4209C15.7172 12.5092 15.3638 12.6674 15.0749 12.8819C14.7475 12.4984 14.3062 12.1061 13.5483 11.9906C12.8283 11.8813 12.2605 12.1439 11.7106 12.3977L11.678 12.4127C11.6592 12.1989 11.6412 11.9886 11.6242 11.7817C11.5807 11.2567 11.5395 10.7616 11.4741 10.2615C11.45 10.0765 11.4265 9.89127 11.4035 9.70599C11.2935 8.83041 11.1797 7.92495 10.9697 7.04681C10.8568 6.57271 10.5771 6.05798 10.1163 5.4732C9.84809 5.13249 9.49853 4.9286 9.0781 4.86709C8.67842 4.8086 8.22592 4.88798 7.76809 5.09594C7.53105 5.2025 7.32475 5.34425 7.16153 5.5127C6.99832 5.68114 6.8815 5.87282 6.81811 6.07631C6.71972 6.34434 6.65756 6.61931 6.63261 6.89692C6.61953 7.10542 6.60587 7.31395 6.59165 7.52252C6.53123 8.43238 6.46872 9.37331 6.46969 10.2993C6.47111 11.5132 6.50654 12.7034 6.54409 13.9636C6.55859 14.4565 6.57268 14.9535 6.5864 15.4546L6.55407 15.4332C6.4578 15.3694 6.37464 15.3144 6.28374 15.2647C4.83991 14.4732 3.30491 14.197 1.72118 14.4438C1.38248 14.491 1.06467 14.6017 0.79664 14.7657C0.528612 14.9298 0.318851 15.1421 0.186434 15.3834C0.0540543 15.6351 0.00663938 15.9077 0.0484295 16.1769C0.0902188 16.4459 0.219934 16.7029 0.425774 16.9242C0.596147 17.102 0.791796 17.2651 1.00923 17.4104C1.13149 17.4983 1.25786 17.5893 1.37052 17.6841C1.57395 17.8555 1.78782 18.0253 1.99479 18.1898C2.52866 18.5899 3.01498 19.025 3.44806 19.4899C3.90518 20.0389 4.32084 20.6071 4.69285 21.1919C4.90068 21.5034 5.11567 21.8256 5.3407 22.1366L5.37882 22.1895C5.9153 22.9293 6.46829 23.6944 7.07577 24.4181C7.37598 24.7565 7.74808 25.0546 8.17692 25.3006C9.04349 25.8084 10.0081 26.2118 11.0367 26.4963C12.0619 26.7964 13.1515 26.9498 14.2502 26.949C15.5162 26.94 16.7696 26.7582 17.9505 26.4121C18.7562 26.1836 19.4958 25.7854 20.2453 25.3629C21.5365 24.635 22.4152 23.5628 23.0106 21.9872C23.7391 20.0789 24.048 18.0925 23.9248 16.1079C23.8747 15.4811 23.6781 14.866 23.344 14.2915ZM9.09714 24.2636C8.84403 24.1347 8.6233 23.9724 8.44543 23.7845C8.00734 23.3049 7.60158 22.809 7.22965 22.2984C6.67059 21.5117 6.12581 20.696 5.56378 19.8046C4.67351 18.3932 3.55778 17.3054 2.15291 16.4786C2.13615 16.4691 2.12021 16.4588 2.10522 16.4479C2.0616 16.4141 2.01626 16.3808 1.97066 16.3473C1.67165 16.1272 1.38913 15.9193 1.56559 15.5772C1.73416 15.2502 2.16042 15.1939 2.57562 15.1939C2.60483 15.1939 2.63421 15.1939 2.66329 15.1947C4.05134 15.2178 5.12255 15.5886 5.84737 16.2964C6.05748 16.5318 6.21708 16.7907 6.3202 17.0639C6.34343 17.115 6.36696 17.1656 6.39079 17.2159C6.49709 17.4401 6.64054 17.7463 7.13409 17.7368C7.51625 17.7288 7.76936 17.5421 7.86817 17.1965C7.90781 17.0496 7.92517 16.8994 7.91988 16.7494C7.89164 15.5407 7.8552 14.1063 7.80904 12.6317C7.8007 12.3639 7.78366 12.0925 7.76671 11.8298C7.73847 11.3733 7.70863 10.9015 7.72431 10.4392C7.76976 9.06614 7.87254 7.69706 7.95681 6.65777C8.00566 6.05424 8.14038 5.90424 8.84992 5.69885C9.29012 5.93584 9.56641 6.31085 9.69403 6.8441C9.87902 7.59672 10.0082 8.35662 10.081 9.12024C10.1834 10.2614 10.2595 11.4238 10.3333 12.5471C10.3662 13.0488 10.3999 13.5506 10.4344 14.0522C10.4522 14.3066 10.534 14.6084 11.0119 14.6856C11.4572 14.7571 11.6958 14.4775 11.8704 14.1941C11.9056 14.1371 11.9402 14.0796 11.9751 14.022C12.152 13.6982 12.3752 13.3901 12.6406 13.1032C12.8635 12.8816 13.1466 12.7746 13.4153 12.8083C13.6961 12.844 13.9278 13.0257 14.0506 13.3069C14.1338 13.5324 14.1794 13.7647 14.1866 13.9987C14.1928 14.0699 14.199 14.1411 14.207 14.2116C14.2137 14.3006 14.2104 14.3898 14.197 14.4783C14.1908 14.5335 14.1847 14.5888 14.1829 14.6439C14.1729 14.9206 14.3423 15.0908 14.6726 15.1361C15.0397 15.1862 15.2972 15.0565 15.3984 14.7707C15.4126 14.7303 15.4246 14.6892 15.436 14.6482C15.4518 14.5837 15.4741 14.5201 15.5025 14.4581C15.5449 14.3742 15.5838 14.2893 15.6236 14.2044C15.7261 13.9635 15.8549 13.7295 16.0086 13.5048C16.2739 13.1439 16.5942 13.0548 17.1521 13.1889C17.751 13.3324 18.1174 13.6245 18.2412 14.0567C18.3074 14.3266 18.3438 14.6002 18.3503 14.8746L18.353 14.9183C18.379 15.3486 18.4768 15.6107 18.8988 15.6772C19.3706 15.7515 19.5633 15.5068 19.7333 15.2914C19.7516 15.2681 19.7701 15.2447 19.7889 15.2217C19.8313 15.169 19.8736 15.1156 19.916 15.0621C20.0505 14.8797 20.2055 14.7062 20.3789 14.5438C20.6754 14.2839 21.0114 14.1572 21.3248 14.1869C21.6342 14.2162 21.9134 14.3969 22.1108 14.696C22.4875 15.2636 22.6886 15.889 22.6989 16.5244C22.7252 17.9494 22.4899 19.4307 21.9583 21.1876C21.6905 22.0576 21.197 22.8782 20.5065 23.6017C19.7554 24.398 18.6184 24.9819 17.1272 25.3375C14.3213 26.0056 11.6949 25.6545 9.09714 24.2636Z" fill="#727272"/>
<path d="M4.25653 9.34608C4.89662 9.49811 5.28588 9.44251 5.44626 9.17464C5.61313 8.89607 5.39707 8.61632 4.80426 8.34171L4.66737 8.27893C4.34547 8.13214 4.01259 7.98044 3.79659 7.77215C3.07708 7.08872 2.66932 6.24653 2.63458 5.37215C2.55354 3.6839 3.85572 2.24807 6.03322 1.62525C7.40477 1.22834 8.86866 1.04805 10.3352 1.09543C11.9658 1.15039 13.1567 1.47964 14.0836 2.1316C14.6925 2.56018 16.5824 4.11096 15.3429 6.08518C15.0786 6.51013 14.7388 6.90559 14.3329 7.26043C14.0035 7.52897 13.6483 7.77858 13.2701 8.00722C13.1075 8.11061 12.9454 8.214 12.7868 8.32029C12.7141 8.36915 12.6395 8.41672 12.5647 8.46408C12.3941 8.56731 12.2333 8.67951 12.0835 8.79985C11.8294 9.01414 11.7954 9.2594 11.9915 9.47304C12.0575 9.55081 12.1477 9.61508 12.2541 9.66018C12.3605 9.70528 12.4799 9.72984 12.6018 9.73168C12.6828 9.73145 12.7632 9.72099 12.8396 9.70071C13.2099 9.606 13.5634 9.47682 13.8918 9.31618C14.8283 8.84434 15.6261 8.23072 16.2354 7.51382C17.9946 5.47811 17.6276 3.1649 15.2777 1.47685C13.8837 0.475605 12.1795 0.0550683 9.39576 0.0253906H9.38998L9.38438 0.0260338C9.24659 0.0413542 9.07376 0.0581765 8.87415 0.0767111C8.31861 0.129212 7.55784 0.201212 6.81157 0.321856C5.00604 0.613926 3.5662 1.24703 2.53179 2.20361C0.302465 4.26482 0.971485 6.85822 2.62368 8.51432C3.03624 8.91739 3.60872 9.20901 4.25653 9.34608Z" fill="#727272"/>
<path d="M11.6421 5.75925C11.5683 5.85471 11.4922 5.95339 11.4283 6.05571C11.3463 6.1626 11.3163 6.28793 11.3435 6.40987C11.3706 6.53181 11.4532 6.64269 11.5769 6.72322C11.6405 6.77025 11.7158 6.80729 11.7984 6.83221C11.8809 6.85712 11.9691 6.86945 12.058 6.86845C12.1468 6.86746 12.2345 6.85316 12.3161 6.82642C12.3976 6.79965 12.4714 6.76094 12.5332 6.71249C12.8435 6.50258 13.1011 6.2517 13.2934 5.97203C13.8036 5.1256 13.418 4.08997 12.3333 3.39406C11.378 2.75054 10.1323 2.41163 8.85584 2.448C7.77048 2.40214 6.70065 2.6641 5.67317 3.22714C4.16483 4.05395 3.85716 5.54646 4.33364 6.531C4.56827 7.01539 4.969 7.28046 5.5255 7.31892C5.54288 7.3201 5.56091 7.32075 5.5794 7.32075C5.78553 7.32075 6.05277 7.24799 6.14199 7.1355C6.21117 7.04849 6.16912 6.90224 6.00549 6.66095C5.94856 6.58379 5.88166 6.51106 5.80586 6.44389C5.71289 6.36739 5.63944 6.27844 5.58926 6.18161C5.27868 5.40032 5.74843 4.43389 6.63728 4.02728C7.16012 3.77876 7.73669 3.60226 8.34045 3.50593C9.46278 3.34874 10.5286 3.59163 11.4241 4.20856C12.0485 4.63895 12.1398 5.10289 11.7112 5.6685L11.6421 5.75925Z" fill="#727272"/>
</g>
</svg>
