<svg width="118" height="19" viewBox="0 0 118 19" fill="none" xmlns="http://www.w3.org/2000/svg">
<rect width="118" height="19" fill="#777777"/>
<rect x="-48" y="-302" width="430" height="932" rx="30" fill="white"/>
<rect x="-26" y="-29" width="387" height="318" rx="30" fill="#EFEFEF"/>
<path d="M5.62164 15.16C4.63498 15.16 3.76164 14.9667 3.00164 14.58C2.24164 14.1933 1.64831 13.6467 1.22164 12.94C0.808309 12.22 0.601642 11.3933 0.601642 10.46V1.24C0.601642 1.17333 0.621642 1.12 0.661642 1.08C0.714976 1.02667 0.774976 0.999999 0.841643 0.999999H2.68164C2.74831 0.999999 2.80164 1.02667 2.84164 1.08C2.89498 1.12 2.92164 1.17333 2.92164 1.24V10.5C2.92164 11.2867 3.16831 11.9267 3.66164 12.42C4.15498 12.9133 4.80831 13.16 5.62164 13.16C6.43498 13.16 7.08831 12.9133 7.58164 12.42C8.07498 11.9267 8.32164 11.2867 8.32164 10.5V1.24C8.32164 1.17333 8.34164 1.12 8.38164 1.08C8.43498 1.02667 8.49498 0.999999 8.56164 0.999999H10.4016C10.4683 0.999999 10.5216 1.02667 10.5616 1.08C10.615 1.12 10.6416 1.17333 10.6416 1.24V10.46C10.6416 11.3933 10.435 12.22 10.0216 12.94C9.60831 13.6467 9.02164 14.1933 8.26164 14.58C7.50164 14.9667 6.62164 15.16 5.62164 15.16ZM21.8804 7.42C22.1204 8.1 22.2404 8.93333 22.2404 9.92C22.2404 10.8667 22.1271 11.68 21.9004 12.36C21.6071 13.24 21.1337 13.9267 20.4804 14.42C19.8404 14.9133 19.0271 15.16 18.0404 15.16C17.0937 15.16 16.3337 14.82 15.7604 14.14C15.7337 14.1133 15.7071 14.1067 15.6804 14.12C15.6537 14.1333 15.6404 14.16 15.6404 14.2V18.54C15.6404 18.6067 15.6137 18.66 15.5604 18.7C15.5204 18.7533 15.4671 18.78 15.4004 18.78H13.5604C13.4937 18.78 13.4337 18.7533 13.3804 18.7C13.3404 18.66 13.3204 18.6067 13.3204 18.54V5.02C13.3204 4.95333 13.3404 4.9 13.3804 4.86C13.4337 4.80667 13.4937 4.78 13.5604 4.78H15.4004C15.4671 4.78 15.5204 4.80667 15.5604 4.86C15.6137 4.9 15.6404 4.95333 15.6404 5.02V5.62C15.6404 5.66 15.6537 5.68667 15.6804 5.7C15.7071 5.71333 15.7337 5.7 15.7604 5.66C16.3471 4.96667 17.1137 4.62 18.0604 4.62C19.0071 4.62 19.8071 4.86667 20.4604 5.36C21.1137 5.85333 21.5871 6.54 21.8804 7.42ZM19.2804 12.32C19.6804 11.7067 19.8804 10.8933 19.8804 9.88C19.8804 8.90667 19.7204 8.14 19.4004 7.58C19.0271 6.92667 18.4604 6.6 17.7004 6.6C17.0071 6.6 16.4871 6.92 16.1404 7.56C15.8337 8.08 15.6804 8.85333 15.6804 9.88C15.6804 10.9333 15.8471 11.7333 16.1804 12.28C16.5271 12.8667 17.0271 13.16 17.6804 13.16C18.3871 13.16 18.9204 12.88 19.2804 12.32ZM24.7339 15C24.6672 15 24.6072 14.98 24.5539 14.94C24.5139 14.8867 24.4939 14.8267 24.4939 14.76V1.24C24.4939 1.17333 24.5139 1.12 24.5539 1.08C24.6072 1.02667 24.6672 0.999999 24.7339 0.999999H26.5739C26.6405 0.999999 26.6939 1.02667 26.7339 1.08C26.7872 1.12 26.8139 1.17333 26.8139 1.24V14.76C26.8139 14.8267 26.7872 14.8867 26.7339 14.94C26.6939 14.98 26.6405 15 26.5739 15H24.7339ZM33.6229 15.16C32.5696 15.16 31.6629 14.8933 30.9029 14.36C30.1563 13.8267 29.6296 13.0867 29.3229 12.14C29.0963 11.42 28.9829 10.66 28.9829 9.86C28.9829 9.00667 29.0896 8.24667 29.3029 7.58C29.6096 6.64667 30.1429 5.92 30.9029 5.4C31.6629 4.88 32.5763 4.62 33.6429 4.62C34.6563 4.62 35.5296 4.88 36.2629 5.4C37.0096 5.92 37.5363 6.64 37.8429 7.56C38.0829 8.2 38.2029 8.96 38.2029 9.84C38.2029 10.68 38.0896 11.44 37.8629 12.12C37.5563 13.0667 37.0296 13.8133 36.2829 14.36C35.5363 14.8933 34.6496 15.16 33.6229 15.16ZM33.6229 13.16C34.1163 13.16 34.5363 13.02 34.8829 12.74C35.2429 12.46 35.5029 12.0667 35.6629 11.56C35.7963 11.12 35.8629 10.56 35.8629 9.88C35.8629 9.16 35.7963 8.6 35.6629 8.2C35.5163 7.69333 35.2629 7.30667 34.9029 7.04C34.5429 6.76 34.1029 6.62 33.5829 6.62C33.0896 6.62 32.6629 6.76 32.3029 7.04C31.9429 7.30667 31.6829 7.69333 31.5229 8.2C31.3896 8.66667 31.3229 9.22667 31.3229 9.88C31.3229 10.5333 31.3896 11.0933 31.5229 11.56C31.6696 12.0667 31.9229 12.46 32.2829 12.74C32.6563 13.02 33.1029 13.16 33.6229 13.16ZM44.3001 4.62C45.1401 4.62 45.8801 4.76667 46.5201 5.06C47.1601 5.35333 47.6535 5.76 48.0001 6.28C48.3468 6.78667 48.5201 7.36667 48.5201 8.02V14.76C48.5201 14.8267 48.4935 14.8867 48.4401 14.94C48.4001 14.98 48.3468 15 48.2801 15H46.4401C46.3735 15 46.3135 14.98 46.2601 14.94C46.2201 14.8867 46.2001 14.8267 46.2001 14.76V14.12C46.2001 14.08 46.1868 14.06 46.1601 14.06C46.1335 14.0467 46.1068 14.0533 46.0801 14.08C45.4268 14.8 44.4801 15.16 43.2401 15.16C42.2401 15.16 41.4135 14.9067 40.7601 14.4C40.1201 13.8933 39.8001 13.14 39.8001 12.14C39.8001 11.1 40.1601 10.2933 40.8801 9.72C41.6135 9.13333 42.6401 8.84 43.9601 8.84H46.1001C46.1668 8.84 46.2001 8.80667 46.2001 8.74V8.26C46.2001 7.74 46.0468 7.34 45.7401 7.06C45.4335 6.76667 44.9735 6.62 44.3601 6.62C43.8535 6.62 43.4401 6.71333 43.1201 6.9C42.8135 7.07333 42.6201 7.32 42.5401 7.64C42.5001 7.8 42.4068 7.86667 42.2601 7.84L40.3201 7.6C40.2535 7.58667 40.1935 7.56667 40.1401 7.54C40.1001 7.5 40.0868 7.45333 40.1001 7.4C40.2068 6.58667 40.6401 5.92 41.4001 5.4C42.1735 4.88 43.1401 4.62 44.3001 4.62ZM43.8201 13.32C44.4735 13.32 45.0335 13.1467 45.5001 12.8C45.9668 12.4533 46.2001 12.0133 46.2001 11.48V10.54C46.2001 10.4733 46.1668 10.44 46.1001 10.44H44.4201C43.7135 10.44 43.1535 10.5733 42.7401 10.84C42.3401 11.1067 42.1401 11.4867 42.1401 11.98C42.1401 12.4067 42.2935 12.74 42.6001 12.98C42.9201 13.2067 43.3268 13.32 43.8201 13.32ZM57.1933 1.24C57.1933 1.17333 57.2133 1.12 57.2533 1.08C57.3066 1.02667 57.3666 0.999999 57.4333 0.999999H59.2733C59.3399 0.999999 59.3933 1.02667 59.4333 1.08C59.4866 1.12 59.5133 1.17333 59.5133 1.24V14.76C59.5133 14.8267 59.4866 14.8867 59.4333 14.94C59.3933 14.98 59.3399 15 59.2733 15H57.4333C57.3666 15 57.3066 14.98 57.2533 14.94C57.2133 14.8867 57.1933 14.8267 57.1933 14.76V14.16C57.1933 14.12 57.1799 14.0933 57.1533 14.08C57.1266 14.0667 57.0999 14.08 57.0733 14.12C56.4866 14.8133 55.7199 15.16 54.7733 15.16C53.8266 15.16 53.0266 14.9133 52.3733 14.42C51.7199 13.9267 51.2466 13.24 50.9533 12.36C50.7133 11.6133 50.5933 10.78 50.5933 9.86C50.5933 8.91333 50.7066 8.1 50.9333 7.42C51.2266 6.54 51.6999 5.85333 52.3533 5.36C53.0066 4.86667 53.8266 4.62 54.8133 4.62C55.7333 4.62 56.4866 4.95333 57.0733 5.62C57.0999 5.64667 57.1266 5.66 57.1533 5.66C57.1799 5.64667 57.1933 5.62 57.1933 5.58V1.24ZM56.7133 12.2C57.0199 11.6533 57.1733 10.88 57.1733 9.88C57.1733 8.84 57.0066 8.04667 56.6733 7.5C56.3133 6.91333 55.8066 6.62 55.1533 6.62C54.4733 6.62 53.9399 6.9 53.5533 7.46C53.1533 8.04667 52.9533 8.86 52.9533 9.9C52.9533 10.8333 53.1133 11.6 53.4333 12.2C53.8066 12.84 54.3733 13.16 55.1333 13.16C55.8133 13.16 56.3399 12.84 56.7133 12.2ZM67.3569 3.38C66.9436 3.38 66.6036 3.24667 66.3369 2.98C66.0702 2.71333 65.9369 2.37333 65.9369 1.96C65.9369 1.54667 66.0702 1.20667 66.3369 0.94C66.6036 0.673333 66.9436 0.539999 67.3569 0.539999C67.7702 0.539999 68.1102 0.673333 68.3769 0.94C68.6436 1.20667 68.7769 1.54667 68.7769 1.96C68.7769 2.37333 68.6436 2.71333 68.3769 2.98C68.1102 3.24667 67.7702 3.38 67.3569 3.38ZM66.3969 15C66.3302 15 66.2702 14.98 66.2169 14.94C66.1769 14.8867 66.1569 14.8267 66.1569 14.76V5C66.1569 4.93333 66.1769 4.88 66.2169 4.84C66.2702 4.78667 66.3302 4.76 66.3969 4.76H68.2369C68.3036 4.76 68.3569 4.78667 68.3969 4.84C68.4502 4.88 68.4769 4.93333 68.4769 5V14.76C68.4769 14.8267 68.4502 14.8867 68.3969 14.94C68.3569 14.98 68.3036 15 68.2369 15H66.3969ZM82.0785 4.62C83.1051 4.62 83.9051 4.93333 84.4785 5.56C85.0651 6.17333 85.3585 7.03333 85.3585 8.14V14.76C85.3585 14.8267 85.3318 14.8867 85.2785 14.94C85.2385 14.98 85.1851 15 85.1185 15H83.2985C83.2318 15 83.1718 14.98 83.1185 14.94C83.0785 14.8867 83.0585 14.8267 83.0585 14.76V8.62C83.0585 8.00667 82.8918 7.52 82.5585 7.16C82.2385 6.8 81.8051 6.62 81.2585 6.62C80.7118 6.62 80.2651 6.8 79.9185 7.16C79.5718 7.52 79.3985 8 79.3985 8.6V14.76C79.3985 14.8267 79.3718 14.8867 79.3185 14.94C79.2785 14.98 79.2251 15 79.1585 15H77.3385C77.2718 15 77.2118 14.98 77.1585 14.94C77.1185 14.8867 77.0985 14.8267 77.0985 14.76V8.62C77.0985 8.00667 76.9318 7.52 76.5985 7.16C76.2651 6.8 75.8251 6.62 75.2785 6.62C74.7718 6.62 74.3518 6.76667 74.0185 7.06C73.6985 7.35333 73.5118 7.75333 73.4585 8.26V14.76C73.4585 14.8267 73.4318 14.8867 73.3785 14.94C73.3385 14.98 73.2851 15 73.2185 15H71.3785C71.3118 15 71.2518 14.98 71.1985 14.94C71.1585 14.8867 71.1385 14.8267 71.1385 14.76V5.02C71.1385 4.95333 71.1585 4.9 71.1985 4.86C71.2518 4.80667 71.3118 4.78 71.3785 4.78H73.2185C73.2851 4.78 73.3385 4.80667 73.3785 4.86C73.4318 4.9 73.4585 4.95333 73.4585 5.02V5.68C73.4585 5.72 73.4718 5.74667 73.4985 5.76C73.5251 5.77333 73.5518 5.76 73.5785 5.72C73.8718 5.34667 74.2318 5.07333 74.6585 4.9C75.0985 4.71333 75.5851 4.62 76.1185 4.62C76.7718 4.62 77.3451 4.75333 77.8385 5.02C78.3318 5.28667 78.7118 5.67333 78.9785 6.18C79.0185 6.23333 79.0651 6.23333 79.1185 6.18C79.4118 5.64667 79.8185 5.25333 80.3385 5C80.8585 4.74667 81.4385 4.62 82.0785 4.62ZM91.6244 4.62C92.4644 4.62 93.2044 4.76667 93.8444 5.06C94.4844 5.35333 94.9778 5.76 95.3244 6.28C95.6711 6.78667 95.8444 7.36667 95.8444 8.02V14.76C95.8444 14.8267 95.8178 14.8867 95.7644 14.94C95.7244 14.98 95.6711 15 95.6044 15H93.7644C93.6978 15 93.6378 14.98 93.5844 14.94C93.5444 14.8867 93.5244 14.8267 93.5244 14.76V14.12C93.5244 14.08 93.5111 14.06 93.4844 14.06C93.4578 14.0467 93.4311 14.0533 93.4044 14.08C92.7511 14.8 91.8044 15.16 90.5644 15.16C89.5644 15.16 88.7378 14.9067 88.0844 14.4C87.4444 13.8933 87.1244 13.14 87.1244 12.14C87.1244 11.1 87.4844 10.2933 88.2044 9.72C88.9378 9.13333 89.9644 8.84 91.2844 8.84H93.4244C93.4911 8.84 93.5244 8.80667 93.5244 8.74V8.26C93.5244 7.74 93.3711 7.34 93.0644 7.06C92.7578 6.76667 92.2978 6.62 91.6844 6.62C91.1778 6.62 90.7644 6.71333 90.4444 6.9C90.1378 7.07333 89.9444 7.32 89.8644 7.64C89.8244 7.8 89.7311 7.86667 89.5844 7.84L87.6444 7.6C87.5778 7.58667 87.5178 7.56667 87.4644 7.54C87.4244 7.5 87.4111 7.45333 87.4244 7.4C87.5311 6.58667 87.9644 5.92 88.7244 5.4C89.4978 4.88 90.4644 4.62 91.6244 4.62ZM91.1444 13.32C91.7978 13.32 92.3578 13.1467 92.8244 12.8C93.2911 12.4533 93.5244 12.0133 93.5244 11.48V10.54C93.5244 10.4733 93.4911 10.44 93.4244 10.44H91.7444C91.0378 10.44 90.4778 10.5733 90.0644 10.84C89.6644 11.1067 89.4644 11.4867 89.4644 11.98C89.4644 12.4067 89.6178 12.74 89.9244 12.98C90.2444 13.2067 90.6511 13.32 91.1444 13.32ZM104.438 5.02C104.438 4.95333 104.458 4.9 104.498 4.86C104.551 4.80667 104.611 4.78 104.678 4.78H106.518C106.584 4.78 106.638 4.80667 106.678 4.86C106.731 4.9 106.758 4.95333 106.758 5.02V14.32C106.758 15.9867 106.278 17.1733 105.318 17.88C104.371 18.6 103.124 18.96 101.578 18.96C101.164 18.96 100.758 18.94 100.358 18.9C100.211 18.8867 100.138 18.8 100.138 18.64L100.198 17C100.198 16.8533 100.291 16.78 100.478 16.78C100.864 16.82 101.211 16.84 101.518 16.84C102.518 16.84 103.251 16.64 103.718 16.24C104.198 15.8533 104.438 15.1933 104.438 14.26V14.1C104.438 14.06 104.424 14.04 104.398 14.04C104.371 14.0267 104.344 14.0333 104.318 14.06C103.771 14.6467 102.998 14.94 101.998 14.94C101.131 14.94 100.338 14.72 99.6176 14.28C98.8976 13.84 98.3976 13.1667 98.1176 12.26C97.9442 11.6333 97.8576 10.8267 97.8576 9.84C97.8576 8.73333 97.9642 7.88667 98.1776 7.3C98.4442 6.48667 98.9042 5.84 99.5576 5.36C100.211 4.86667 100.978 4.62 101.858 4.62C102.911 4.62 103.731 4.92667 104.318 5.54C104.344 5.58 104.371 5.59333 104.398 5.58C104.424 5.56667 104.438 5.54 104.438 5.5V5.02ZM104.298 11.6C104.351 11.4 104.384 11.1867 104.398 10.96C104.424 10.72 104.438 10.34 104.438 9.82C104.438 9.31333 104.424 8.95333 104.398 8.74C104.384 8.51333 104.344 8.29333 104.278 8.08C104.171 7.64 103.951 7.28667 103.618 7.02C103.298 6.75333 102.884 6.62 102.378 6.62C101.898 6.62 101.491 6.75333 101.158 7.02C100.824 7.28667 100.584 7.64 100.438 8.08C100.278 8.45333 100.198 9.04 100.198 9.84C100.198 10.6667 100.264 11.2467 100.398 11.58C100.531 12.0067 100.771 12.36 101.118 12.64C101.478 12.9067 101.904 13.04 102.398 13.04C102.918 13.04 103.338 12.9067 103.658 12.64C103.978 12.3733 104.191 12.0267 104.298 11.6ZM117.778 8.74C117.831 9.07333 117.858 9.44667 117.858 9.86L117.838 10.48C117.838 10.64 117.758 10.72 117.598 10.72H111.338C111.271 10.72 111.238 10.7533 111.238 10.82C111.278 11.26 111.338 11.56 111.418 11.72C111.738 12.68 112.518 13.1667 113.758 13.18C114.665 13.18 115.385 12.8067 115.918 12.06C115.971 11.98 116.038 11.94 116.118 11.94C116.171 11.94 116.218 11.96 116.258 12L117.498 13.02C117.618 13.1133 117.638 13.22 117.558 13.34C117.145 13.9267 116.591 14.38 115.898 14.7C115.218 15.02 114.458 15.18 113.618 15.18C112.578 15.18 111.691 14.9467 110.958 14.48C110.238 14.0133 109.711 13.36 109.378 12.52C109.071 11.8 108.918 10.8 108.918 9.52C108.918 8.74667 108.998 8.12 109.158 7.64C109.425 6.70667 109.925 5.97333 110.658 5.44C111.405 4.89333 112.298 4.62 113.338 4.62C115.965 4.62 117.445 5.99333 117.778 8.74ZM113.338 6.62C112.845 6.62 112.431 6.74667 112.098 7C111.778 7.24 111.551 7.58 111.418 8.02C111.338 8.24667 111.285 8.54 111.258 8.9C111.231 8.96667 111.258 9 111.338 9H115.398C115.465 9 115.498 8.96667 115.498 8.9C115.471 8.56667 115.431 8.31333 115.378 8.14C115.258 7.66 115.018 7.28667 114.658 7.02C114.311 6.75333 113.871 6.62 113.338 6.62Z" fill="black"/>
</svg>
