<svg width="18" height="18" viewBox="0 0 18 18" fill="none" xmlns="http://www.w3.org/2000/svg">
<circle cx="9" cy="9" r="9" fill="white"/>
<circle cx="9" cy="9" r="7" fill="black"/>
<path fill-rule="evenodd" clip-rule="evenodd" d="M8.99996 10.6667C8.44767 10.6667 7.99996 10.219 7.99996 9.6667C7.99996 9.11441 8.44767 8.6667 8.99996 8.6667C9.55224 8.6667 9.99996 9.11441 9.99996 9.6667C9.99996 10.219 9.55224 10.6667 8.99996 10.6667ZM10.5333 6.12336C10.42 6.11003 10.3333 6.0167 10.3333 5.90336C10.3333 5.77336 10.4466 5.6667 10.5766 5.68336C11.4833 5.79336 12.2066 6.5167 12.3166 7.42336C12.3333 7.55336 12.2266 7.6667 12.0966 7.6667C11.9833 7.6667 11.89 7.58003 11.8766 7.4667C11.79 6.7667 11.2333 6.21336 10.5333 6.12336ZM11.41 7.3967C11.4433 7.53336 11.3366 7.6667 11.1933 7.6667C11.0933 7.6667 11.0033 7.60336 10.98 7.5067C10.9233 7.2667 10.7333 7.08003 10.4933 7.02003C10.3966 6.9967 10.3333 6.90336 10.3333 6.8067C10.3333 6.66336 10.4666 6.5567 10.6033 6.59003C11 6.69003 11.31 7.00003 11.41 7.3967ZM10.6666 8.00003H11.6666C12.0333 8.00003 12.3333 8.30003 12.3333 8.6667V11.6667C12.3333 12.0334 12.0333 12.3334 11.6666 12.3334H6.33329C5.96663 12.3334 5.66663 12.0334 5.66663 11.6667V7.6667C5.66663 7.30003 5.96663 7.00003 6.33329 7.00003H7.38996L7.79996 6.55003C7.92663 6.41336 8.10663 6.33336 8.29329 6.33336H9.66663C9.84996 6.33336 9.99996 6.48336 9.99996 6.6667V7.33336C10.3666 7.33336 10.6666 7.63336 10.6666 8.00003ZM8.99996 11.3334C9.91996 11.3334 10.6666 10.5867 10.6666 9.6667C10.6666 8.7467 9.91996 8.00003 8.99996 8.00003C8.07996 8.00003 7.33329 8.7467 7.33329 9.6667C7.33329 10.5867 8.07996 11.3334 8.99996 11.3334Z" fill="white"/>
</svg>
