<svg width="83" height="14" viewBox="0 0 83 14" fill="none" xmlns="http://www.w3.org/2000/svg">
<rect width="83" height="14" fill="#777777"/>
<rect x="-175" y="-483" width="430" height="932" rx="30" fill="white"/>
<rect x="-153" y="-210" width="387" height="318" rx="30" fill="#EFEFEF"/>
<rect x="-130" y="-114" width="341" height="194" rx="20" fill="white"/>
<circle cx="40.5" cy="-16.5" r="86.5" fill="#EFEFEF"/>
<path d="M3.62868 11.112C2.93802 11.112 2.32668 10.9767 1.79468 10.706C1.26268 10.4353 0.847348 10.0527 0.548682 9.558C0.259348 9.054 0.114682 8.47533 0.114682 7.822V1.368C0.114682 1.32133 0.128682 1.284 0.156682 1.256C0.194015 1.21867 0.236015 1.2 0.282682 1.2H1.57068C1.61735 1.2 1.65468 1.21867 1.68268 1.256C1.72001 1.284 1.73868 1.32133 1.73868 1.368V7.85C1.73868 8.40067 1.91135 8.84867 2.25668 9.194C2.60201 9.53933 3.05935 9.712 3.62868 9.712C4.19802 9.712 4.65535 9.53933 5.00068 9.194C5.34601 8.84867 5.51868 8.40067 5.51868 7.85V1.368C5.51868 1.32133 5.53268 1.284 5.56068 1.256C5.59802 1.21867 5.64002 1.2 5.68668 1.2H6.97468C7.02135 1.2 7.05868 1.21867 7.08668 1.256C7.12401 1.284 7.14268 1.32133 7.14268 1.368V7.822C7.14268 8.47533 6.99802 9.054 6.70868 9.558C6.41935 10.0527 6.00868 10.4353 5.47668 10.706C4.94468 10.9767 4.32868 11.112 3.62868 11.112ZM15.011 5.694C15.179 6.17 15.263 6.75333 15.263 7.444C15.263 8.10667 15.1837 8.676 15.025 9.152C14.8197 9.768 14.4883 10.2487 14.031 10.594C13.583 10.9393 13.0137 11.112 12.323 11.112C11.6603 11.112 11.1283 10.874 10.727 10.398C10.7083 10.3793 10.6897 10.3747 10.671 10.384C10.6523 10.3933 10.643 10.412 10.643 10.44V13.478C10.643 13.5247 10.6243 13.562 10.587 13.59C10.559 13.6273 10.5217 13.646 10.475 13.646H9.18699C9.14033 13.646 9.09833 13.6273 9.06099 13.59C9.03299 13.562 9.01899 13.5247 9.01899 13.478V4.014C9.01899 3.96733 9.03299 3.93 9.06099 3.902C9.09833 3.86467 9.14033 3.846 9.18699 3.846H10.475C10.5217 3.846 10.559 3.86467 10.587 3.902C10.6243 3.93 10.643 3.96733 10.643 4.014V4.434C10.643 4.462 10.6523 4.48067 10.671 4.49C10.6897 4.49933 10.7083 4.49 10.727 4.462C11.1377 3.97667 11.6743 3.734 12.337 3.734C12.9997 3.734 13.5597 3.90667 14.017 4.252C14.4743 4.59733 14.8057 5.078 15.011 5.694ZM13.191 9.124C13.471 8.69467 13.611 8.12533 13.611 7.416C13.611 6.73467 13.499 6.198 13.275 5.806C13.0137 5.34867 12.617 5.12 12.085 5.12C11.5997 5.12 11.2357 5.344 10.993 5.792C10.7783 6.156 10.671 6.69733 10.671 7.416C10.671 8.15333 10.7877 8.71333 11.021 9.096C11.2637 9.50667 11.6137 9.712 12.071 9.712C12.5657 9.712 12.939 9.516 13.191 9.124ZM17.0096 11C16.9629 11 16.9209 10.986 16.8836 10.958C16.8556 10.9207 16.8416 10.8787 16.8416 10.832V1.368C16.8416 1.32133 16.8556 1.284 16.8836 1.256C16.9209 1.21867 16.9629 1.2 17.0096 1.2H18.2976C18.3442 1.2 18.3816 1.21867 18.4096 1.256C18.4469 1.284 18.4656 1.32133 18.4656 1.368V10.832C18.4656 10.8787 18.4469 10.9207 18.4096 10.958C18.3816 10.986 18.3442 11 18.2976 11H17.0096ZM23.2331 11.112C22.4958 11.112 21.8611 10.9253 21.3291 10.552C20.8064 10.1787 20.4378 9.66067 20.2231 8.998C20.0644 8.494 19.9851 7.962 19.9851 7.402C19.9851 6.80467 20.0598 6.27267 20.2091 5.806C20.4238 5.15267 20.7971 4.644 21.3291 4.28C21.8611 3.916 22.5004 3.734 23.2471 3.734C23.9564 3.734 24.5678 3.916 25.0811 4.28C25.6038 4.644 25.9724 5.148 26.1871 5.792C26.3551 6.24 26.4391 6.772 26.4391 7.388C26.4391 7.976 26.3598 8.508 26.2011 8.984C25.9864 9.64667 25.6178 10.1693 25.0951 10.552C24.5724 10.9253 23.9518 11.112 23.2331 11.112ZM23.2331 9.712C23.5784 9.712 23.8724 9.614 24.1151 9.418C24.3671 9.222 24.5491 8.94667 24.6611 8.592C24.7544 8.284 24.8011 7.892 24.8011 7.416C24.8011 6.912 24.7544 6.52 24.6611 6.24C24.5584 5.88533 24.3811 5.61467 24.1291 5.428C23.8771 5.232 23.5691 5.134 23.2051 5.134C22.8598 5.134 22.5611 5.232 22.3091 5.428C22.0571 5.61467 21.8751 5.88533 21.7631 6.24C21.6698 6.56667 21.6231 6.95867 21.6231 7.416C21.6231 7.87333 21.6698 8.26533 21.7631 8.592C21.8658 8.94667 22.0431 9.222 22.2951 9.418C22.5564 9.614 22.8691 9.712 23.2331 9.712ZM30.7083 3.734C31.2963 3.734 31.8143 3.83667 32.2623 4.042C32.7103 4.24733 33.0557 4.532 33.2983 4.896C33.541 5.25067 33.6623 5.65667 33.6623 6.114V10.832C33.6623 10.8787 33.6437 10.9207 33.6063 10.958C33.5783 10.986 33.541 11 33.4943 11H32.2063C32.1597 11 32.1177 10.986 32.0803 10.958C32.0523 10.9207 32.0383 10.8787 32.0383 10.832V10.384C32.0383 10.356 32.029 10.342 32.0103 10.342C31.9917 10.3327 31.973 10.3373 31.9543 10.356C31.497 10.86 30.8343 11.112 29.9663 11.112C29.2663 11.112 28.6877 10.9347 28.2303 10.58C27.7823 10.2253 27.5583 9.698 27.5583 8.998C27.5583 8.27 27.8103 7.70533 28.3143 7.304C28.8277 6.89333 29.5463 6.688 30.4703 6.688H31.9683C32.015 6.688 32.0383 6.66467 32.0383 6.618V6.282C32.0383 5.918 31.931 5.638 31.7163 5.442C31.5017 5.23667 31.1797 5.134 30.7503 5.134C30.3957 5.134 30.1063 5.19933 29.8823 5.33C29.6677 5.45133 29.5323 5.624 29.4763 5.848C29.4483 5.96 29.383 6.00667 29.2803 5.988L27.9223 5.82C27.8757 5.81067 27.8337 5.79667 27.7963 5.778C27.7683 5.75 27.759 5.71733 27.7683 5.68C27.843 5.11067 28.1463 4.644 28.6783 4.28C29.2197 3.916 29.8963 3.734 30.7083 3.734ZM30.3723 9.824C30.8297 9.824 31.2217 9.70267 31.5483 9.46C31.875 9.21733 32.0383 8.90933 32.0383 8.536V7.878C32.0383 7.83133 32.015 7.808 31.9683 7.808H30.7923C30.2977 7.808 29.9057 7.90133 29.6163 8.088C29.3363 8.27467 29.1963 8.54067 29.1963 8.886C29.1963 9.18467 29.3037 9.418 29.5183 9.586C29.7423 9.74467 30.027 9.824 30.3723 9.824ZM39.7347 1.368C39.7347 1.32133 39.7487 1.284 39.7767 1.256C39.814 1.21867 39.856 1.2 39.9027 1.2H41.1907C41.2374 1.2 41.2747 1.21867 41.3027 1.256C41.34 1.284 41.3587 1.32133 41.3587 1.368V10.832C41.3587 10.8787 41.34 10.9207 41.3027 10.958C41.2747 10.986 41.2374 11 41.1907 11H39.9027C39.856 11 39.814 10.986 39.7767 10.958C39.7487 10.9207 39.7347 10.8787 39.7347 10.832V10.412C39.7347 10.384 39.7254 10.3653 39.7067 10.356C39.688 10.3467 39.6694 10.356 39.6507 10.384C39.24 10.8693 38.7034 11.112 38.0407 11.112C37.378 11.112 36.818 10.9393 36.3607 10.594C35.9034 10.2487 35.572 9.768 35.3667 9.152C35.1987 8.62933 35.1147 8.046 35.1147 7.402C35.1147 6.73933 35.194 6.17 35.3527 5.694C35.558 5.078 35.8894 4.59733 36.3467 4.252C36.804 3.90667 37.378 3.734 38.0687 3.734C38.7127 3.734 39.24 3.96733 39.6507 4.434C39.6694 4.45267 39.688 4.462 39.7067 4.462C39.7254 4.45267 39.7347 4.434 39.7347 4.406V1.368ZM39.3987 9.04C39.6134 8.65733 39.7207 8.116 39.7207 7.416C39.7207 6.688 39.604 6.13267 39.3707 5.75C39.1187 5.33933 38.764 5.134 38.3067 5.134C37.8307 5.134 37.4574 5.33 37.1867 5.722C36.9067 6.13267 36.7667 6.702 36.7667 7.43C36.7667 8.08333 36.8787 8.62 37.1027 9.04C37.364 9.488 37.7607 9.712 38.2927 9.712C38.7687 9.712 39.1374 9.488 39.3987 9.04ZM46.8516 2.866C46.5623 2.866 46.3243 2.77267 46.1376 2.586C45.9509 2.39933 45.8576 2.16133 45.8576 1.872C45.8576 1.58267 45.9509 1.34467 46.1376 1.158C46.3243 0.971333 46.5623 0.877999 46.8516 0.877999C47.1409 0.877999 47.3789 0.971333 47.5656 1.158C47.7523 1.34467 47.8456 1.58267 47.8456 1.872C47.8456 2.16133 47.7523 2.39933 47.5656 2.586C47.3789 2.77267 47.1409 2.866 46.8516 2.866ZM46.1796 11C46.1329 11 46.0909 10.986 46.0536 10.958C46.0256 10.9207 46.0116 10.8787 46.0116 10.832V4C46.0116 3.95333 46.0256 3.916 46.0536 3.888C46.0909 3.85067 46.1329 3.832 46.1796 3.832H47.4676C47.5143 3.832 47.5516 3.85067 47.5796 3.888C47.6169 3.916 47.6356 3.95333 47.6356 4V10.832C47.6356 10.8787 47.6169 10.9207 47.5796 10.958C47.5516 10.986 47.5143 11 47.4676 11H46.1796ZM57.1579 3.734C57.8765 3.734 58.4365 3.95333 58.8379 4.392C59.2485 4.82133 59.4539 5.42333 59.4539 6.198V10.832C59.4539 10.8787 59.4352 10.9207 59.3979 10.958C59.3699 10.986 59.3325 11 59.2859 11H58.0119C57.9652 11 57.9232 10.986 57.8859 10.958C57.8579 10.9207 57.8439 10.8787 57.8439 10.832V6.534C57.8439 6.10467 57.7272 5.764 57.4939 5.512C57.2699 5.26 56.9665 5.134 56.5839 5.134C56.2012 5.134 55.8885 5.26 55.6459 5.512C55.4032 5.764 55.2819 6.1 55.2819 6.52V10.832C55.2819 10.8787 55.2632 10.9207 55.2259 10.958C55.1979 10.986 55.1605 11 55.1139 11H53.8399C53.7932 11 53.7512 10.986 53.7139 10.958C53.6859 10.9207 53.6719 10.8787 53.6719 10.832V6.534C53.6719 6.10467 53.5552 5.764 53.3219 5.512C53.0885 5.26 52.7805 5.134 52.3979 5.134C52.0432 5.134 51.7492 5.23667 51.5159 5.442C51.2919 5.64733 51.1612 5.92733 51.1239 6.282V10.832C51.1239 10.8787 51.1052 10.9207 51.0679 10.958C51.0399 10.986 51.0025 11 50.9559 11H49.6679C49.6212 11 49.5792 10.986 49.5419 10.958C49.5139 10.9207 49.4999 10.8787 49.4999 10.832V4.014C49.4999 3.96733 49.5139 3.93 49.5419 3.902C49.5792 3.86467 49.6212 3.846 49.6679 3.846H50.9559C51.0025 3.846 51.0399 3.86467 51.0679 3.902C51.1052 3.93 51.1239 3.96733 51.1239 4.014V4.476C51.1239 4.504 51.1332 4.52267 51.1519 4.532C51.1705 4.54133 51.1892 4.532 51.2079 4.504C51.4132 4.24267 51.6652 4.05133 51.9639 3.93C52.2719 3.79933 52.6125 3.734 52.9859 3.734C53.4432 3.734 53.8445 3.82733 54.1899 4.014C54.5352 4.20067 54.8012 4.47133 54.9879 4.826C55.0159 4.86333 55.0485 4.86333 55.0859 4.826C55.2912 4.45267 55.5759 4.17733 55.9399 4C56.3039 3.82267 56.7099 3.734 57.1579 3.734ZM63.8412 3.734C64.4292 3.734 64.9472 3.83667 65.3952 4.042C65.8432 4.24733 66.1885 4.532 66.4312 4.896C66.6739 5.25067 66.7952 5.65667 66.7952 6.114V10.832C66.7952 10.8787 66.7765 10.9207 66.7392 10.958C66.7112 10.986 66.6739 11 66.6272 11H65.3392C65.2925 11 65.2505 10.986 65.2132 10.958C65.1852 10.9207 65.1712 10.8787 65.1712 10.832V10.384C65.1712 10.356 65.1619 10.342 65.1432 10.342C65.1245 10.3327 65.1059 10.3373 65.0872 10.356C64.6299 10.86 63.9672 11.112 63.0992 11.112C62.3992 11.112 61.8205 10.9347 61.3632 10.58C60.9152 10.2253 60.6912 9.698 60.6912 8.998C60.6912 8.27 60.9432 7.70533 61.4472 7.304C61.9605 6.89333 62.6792 6.688 63.6032 6.688H65.1012C65.1479 6.688 65.1712 6.66467 65.1712 6.618V6.282C65.1712 5.918 65.0639 5.638 64.8492 5.442C64.6345 5.23667 64.3125 5.134 63.8832 5.134C63.5285 5.134 63.2392 5.19933 63.0152 5.33C62.8005 5.45133 62.6652 5.624 62.6092 5.848C62.5812 5.96 62.5159 6.00667 62.4132 5.988L61.0552 5.82C61.0085 5.81067 60.9665 5.79667 60.9292 5.778C60.9012 5.75 60.8919 5.71733 60.9012 5.68C60.9759 5.11067 61.2792 4.644 61.8112 4.28C62.3525 3.916 63.0292 3.734 63.8412 3.734ZM63.5052 9.824C63.9625 9.824 64.3545 9.70267 64.6812 9.46C65.0079 9.21733 65.1712 8.90933 65.1712 8.536V7.878C65.1712 7.83133 65.1479 7.808 65.1012 7.808H63.9252C63.4305 7.808 63.0385 7.90133 62.7492 8.088C62.4692 8.27467 62.3292 8.54067 62.3292 8.886C62.3292 9.18467 62.4365 9.418 62.6512 9.586C62.8752 9.74467 63.1599 9.824 63.5052 9.824ZM72.8116 4.014C72.8116 3.96733 72.8256 3.93 72.8536 3.902C72.8909 3.86467 72.9329 3.846 72.9796 3.846H74.2676C74.3143 3.846 74.3516 3.86467 74.3796 3.902C74.4169 3.93 74.4356 3.96733 74.4356 4.014V10.524C74.4356 11.6907 74.0996 12.5213 73.4276 13.016C72.7649 13.52 71.8923 13.772 70.8096 13.772C70.5203 13.772 70.2356 13.758 69.9556 13.73C69.8529 13.7207 69.8016 13.66 69.8016 13.548L69.8436 12.4C69.8436 12.2973 69.9089 12.246 70.0396 12.246C70.3103 12.274 70.5529 12.288 70.7676 12.288C71.4676 12.288 71.9809 12.148 72.3076 11.868C72.6436 11.5973 72.8116 11.1353 72.8116 10.482V10.37C72.8116 10.342 72.8023 10.328 72.7836 10.328C72.7649 10.3187 72.7463 10.3233 72.7276 10.342C72.3449 10.7527 71.8036 10.958 71.1036 10.958C70.4969 10.958 69.9416 10.804 69.4376 10.496C68.9336 10.188 68.5836 9.71667 68.3876 9.082C68.2663 8.64333 68.2056 8.07867 68.2056 7.388C68.2056 6.61333 68.2803 6.02067 68.4296 5.61C68.6163 5.04067 68.9383 4.588 69.3956 4.252C69.8529 3.90667 70.3896 3.734 71.0056 3.734C71.7429 3.734 72.3169 3.94867 72.7276 4.378C72.7463 4.406 72.7649 4.41533 72.7836 4.406C72.8023 4.39667 72.8116 4.378 72.8116 4.35V4.014ZM72.7136 8.62C72.7509 8.48 72.7743 8.33067 72.7836 8.172C72.8023 8.004 72.8116 7.738 72.8116 7.374C72.8116 7.01933 72.8023 6.76733 72.7836 6.618C72.7743 6.45933 72.7463 6.30533 72.6996 6.156C72.6249 5.848 72.4709 5.60067 72.2376 5.414C72.0136 5.22733 71.7243 5.134 71.3696 5.134C71.0336 5.134 70.7489 5.22733 70.5156 5.414C70.2823 5.60067 70.1143 5.848 70.0116 6.156C69.8996 6.41733 69.8436 6.828 69.8436 7.388C69.8436 7.96667 69.8903 8.37267 69.9836 8.606C70.0769 8.90467 70.2449 9.152 70.4876 9.348C70.7396 9.53467 71.0383 9.628 71.3836 9.628C71.7476 9.628 72.0416 9.53467 72.2656 9.348C72.4896 9.16133 72.6389 8.91867 72.7136 8.62ZM82.1511 6.618C82.1884 6.85133 82.2071 7.11267 82.2071 7.402L82.1931 7.836C82.1931 7.948 82.1371 8.004 82.0251 8.004H77.6431C77.5964 8.004 77.5731 8.02733 77.5731 8.074C77.6011 8.382 77.6431 8.592 77.6991 8.704C77.9231 9.376 78.4691 9.71667 79.3371 9.726C79.9718 9.726 80.4758 9.46467 80.8491 8.942C80.8864 8.886 80.9331 8.858 80.9891 8.858C81.0264 8.858 81.0591 8.872 81.0871 8.9L81.9551 9.614C82.0391 9.67933 82.0531 9.754 81.9971 9.838C81.7078 10.2487 81.3204 10.566 80.8351 10.79C80.3591 11.014 79.8271 11.126 79.2391 11.126C78.5111 11.126 77.8904 10.9627 77.3771 10.636C76.8731 10.3093 76.5044 9.852 76.2711 9.264C76.0564 8.76 75.9491 8.06 75.9491 7.164C75.9491 6.62267 76.0051 6.184 76.1171 5.848C76.3038 5.19467 76.6538 4.68133 77.1671 4.308C77.6898 3.92533 78.3151 3.734 79.0431 3.734C80.8818 3.734 81.9178 4.69533 82.1511 6.618ZM79.0431 5.134C78.6978 5.134 78.4084 5.22267 78.1751 5.4C77.9511 5.568 77.7924 5.806 77.6991 6.114C77.6431 6.27267 77.6058 6.478 77.5871 6.73C77.5684 6.77667 77.5871 6.8 77.6431 6.8H80.4851C80.5318 6.8 80.5551 6.77667 80.5551 6.73C80.5364 6.49667 80.5084 6.31933 80.4711 6.198C80.3871 5.862 80.2191 5.60067 79.9671 5.414C79.7244 5.22733 79.4164 5.134 79.0431 5.134Z" fill="#909091"/>
</svg>
