<svg width="24" height="21" viewBox="0 0 24 21" fill="none" xmlns="http://www.w3.org/2000/svg">
<path d="M23.8321 9.81324C23.6201 9.41027 18.5048 0 11.9976 0C5.49035 0 0.374974 9.41027 0.163 9.81324C0.0572519 10.0107 0 10.252 0 10.5C0 10.748 0.0572519 10.9893 0.163 11.1868C0.374974 11.5897 5.49035 21 11.9976 21C18.5048 21 23.6201 11.5897 23.8321 11.1868C23.9378 10.9893 23.9951 10.748 23.9951 10.5C23.9951 10.252 23.9378 10.0107 23.8321 9.81324ZM11.9976 18.7297C7.23813 18.7297 3.10264 12.5886 1.83479 10.5C3.10264 8.40568 7.22613 2.27027 11.9976 2.27027C16.769 2.27027 20.8925 8.41135 22.1603 10.5C20.8925 12.5943 16.769 18.7297 11.9976 18.7297Z" fill="#727272"/>
<path d="M11.9976 5.47681C11.2975 5.47681 10.6132 5.7714 10.0311 6.32333C9.44902 6.87526 8.99534 7.65974 8.72744 8.57757C8.45954 9.4954 8.38945 10.5054 8.52602 11.4797C8.6626 12.4541 8.99971 13.3491 9.49472 14.0516C9.98974 14.754 10.6204 15.2324 11.307 15.4262C11.9936 15.6201 12.7053 15.5206 13.3521 15.1404C13.9989 14.7602 14.5517 14.1164 14.9406 13.2904C15.3296 12.4644 15.5371 11.4932 15.5371 10.4998C15.5361 9.16807 15.1628 7.89132 14.4993 6.94966C13.8357 6.008 12.936 5.47831 11.9976 5.47681ZM11.9976 13.2525C11.6139 13.2525 11.2389 13.091 10.9199 12.7886C10.6009 12.4861 10.3523 12.0562 10.2055 11.5532C10.0587 11.0502 10.0202 10.4967 10.0951 9.96275C10.1699 9.42878 10.3547 8.9383 10.626 8.55332C10.8972 8.16835 11.2429 7.90618 11.6191 7.79997C11.9954 7.69376 12.3854 7.74827 12.7399 7.95661C13.0943 8.16496 13.3973 8.51778 13.6104 8.97046C13.8236 9.42314 13.9373 9.95535 13.9373 10.4998C13.9363 11.2294 13.7316 11.9287 13.368 12.4446C13.0045 12.9605 12.5117 13.251 11.9976 13.2525Z" fill="#727272"/>
</svg>
