<svg width="20" height="20" viewBox="0 0 20 20" fill="none" xmlns="http://www.w3.org/2000/svg">
<path d="M10.0001 4.58334C9.03655 4.58331 8.10995 4.95419 7.41251 5.61905C6.71507 6.2839 6.30032 7.19171 6.25428 8.15417C6.24677 8.31483 6.17763 8.46641 6.06122 8.57738C5.94481 8.68835 5.79011 8.75018 5.62928 8.75001H5.41678C4.75374 8.75001 4.11785 9.0134 3.64901 9.48224C3.18017 9.95108 2.91678 10.587 2.91678 11.25C2.91678 11.913 3.18017 12.5489 3.64901 13.0178C4.11785 13.4866 4.75374 13.75 5.41678 13.75H8.33928C8.36178 14.1892 8.45595 14.61 8.61095 15H5.41678C4.45309 14.9992 3.52671 14.6274 2.82982 13.9618C2.13293 13.2962 1.71904 12.3878 1.67402 11.4252C1.629 10.4626 1.9563 9.51955 2.58802 8.7918C3.21973 8.06405 4.10738 7.60743 5.06678 7.51668C5.26071 6.34832 5.86302 5.28671 6.76644 4.52088C7.66986 3.75505 8.81577 3.33472 10.0001 3.33472C11.1845 3.33472 12.3304 3.75505 13.2338 4.52088C14.1372 5.28671 14.7395 6.34832 14.9334 7.51668C15.839 7.60152 16.6829 8.01259 17.3079 8.67333C17.9329 9.33408 18.2965 10.1995 18.3309 11.1083C17.8955 10.55 17.3186 10.1184 16.6601 9.85834C16.4316 9.51729 16.1226 9.23777 15.7604 9.04447C15.3982 8.85117 14.994 8.75004 14.5834 8.75001H14.3701C14.2094 8.74997 14.0549 8.68804 13.9387 8.57709C13.8225 8.46614 13.7534 8.31468 13.7459 8.15417C13.6999 7.19171 13.2852 6.2839 12.5877 5.61905C11.8903 4.95419 10.9637 4.58331 10.0001 4.58334ZM18.3334 13.5417C18.3334 12.7129 18.0042 11.918 17.4182 11.332C16.8321 10.7459 16.0372 10.4167 15.2084 10.4167L15.1234 10.4225C14.9666 10.4441 14.8237 10.5244 14.7238 10.6473C14.6239 10.7701 14.5743 10.9263 14.5851 11.0843C14.5959 11.2423 14.6662 11.3903 14.782 11.4984C14.8977 11.6065 15.0501 11.6666 15.2084 11.6667L15.3368 11.6708C15.8225 11.7033 16.2765 11.9233 16.6029 12.2844C16.9293 12.6455 17.1025 13.1194 17.0858 13.6059C17.0691 14.0924 16.8639 14.5533 16.5136 14.8912C16.1632 15.2291 15.6952 15.4176 15.2084 15.4167L15.2059 15.4208L15.1209 15.4267C14.9636 15.4483 14.8204 15.529 14.7204 15.6524C14.6204 15.7757 14.5712 15.9326 14.5826 16.091C14.5941 16.2493 14.6654 16.3974 14.7821 16.5052C14.8988 16.6129 15.0521 16.6721 15.2109 16.6708V16.6667L15.3776 16.6625C16.176 16.6192 16.9275 16.2715 17.4773 15.691C18.0272 15.1105 18.3336 14.3413 18.3334 13.5417ZM12.9168 11.0417C12.9168 10.8759 12.8509 10.7169 12.7337 10.5997C12.6165 10.4825 12.4575 10.4167 12.2918 10.4167L12.1251 10.4208C11.3109 10.4629 10.5454 10.8215 9.99185 11.4201C9.43834 12.0188 9.14071 12.81 9.16245 13.625C9.1842 14.4401 9.52361 15.2143 10.1083 15.7826C10.6929 16.3508 11.4765 16.6681 12.2918 16.6667L12.3768 16.6608C12.5337 16.6393 12.6765 16.5589 12.7764 16.4361C12.8764 16.3133 12.9259 16.1571 12.9151 15.9991C12.9043 15.8411 12.834 15.6931 12.7183 15.585C12.6026 15.4769 12.4501 15.4167 12.2918 15.4167L12.1634 15.4125C11.6778 15.3801 11.2237 15.1601 10.8973 14.799C10.5709 14.4378 10.3978 13.9639 10.4144 13.4775C10.4311 12.991 10.6363 12.5301 10.9866 12.1921C11.337 11.8542 11.805 11.6658 12.2918 11.6667L12.3768 11.6608C12.5264 11.6403 12.6635 11.5663 12.7628 11.4525C12.8621 11.3386 12.9168 11.1927 12.9168 11.0417ZM15.8334 13.5417C15.8334 13.3759 15.7676 13.2169 15.6504 13.0997C15.5332 12.9825 15.3742 12.9167 15.2084 12.9167H12.2918L12.2068 12.9225C12.0499 12.9441 11.9071 13.0244 11.8071 13.1473C11.7072 13.2701 11.6576 13.4263 11.6684 13.5843C11.6792 13.7423 11.7496 13.8903 11.8653 13.9984C11.981 14.1065 12.1334 14.1666 12.2918 14.1667H15.2084L15.2934 14.1608C15.4431 14.1403 15.5802 14.0663 15.6795 13.9525C15.7787 13.8386 15.8334 13.6927 15.8334 13.5417Z" fill="#201E43"/>
</svg>
