<svg width="20" height="20" viewBox="0 0 20 20" fill="none" xmlns="http://www.w3.org/2000/svg">
<g clip-path="url(#clip0_1986_2175)">
<path d="M9.26 13.0002C9.08412 12.6941 8.99239 12.3469 8.99415 11.9939C8.99591 11.6408 9.09108 11.2946 9.27 10.9902C10.0443 10.9272 10.764 10.5663 11.2776 9.98341C11.7912 9.40051 12.0587 8.64111 12.0237 7.86502C11.9887 7.08893 11.654 6.35667 11.09 5.82234C10.5261 5.28802 9.77685 4.99331 9 5.00023H5C4.20435 5.00023 3.44129 5.3163 2.87868 5.87891C2.31607 6.44152 2 7.20458 2 8.00023C2 8.79588 2.31607 9.55894 2.87868 10.1215C3.44129 10.6842 4.20435 11.0002 5 11.0002H5.08C4.96923 11.6623 4.96923 12.3382 5.08 13.0002H5C3.67392 13.0002 2.40215 12.4734 1.46447 11.5358C0.526784 10.5981 0 9.32631 0 8.00023C0 6.67414 0.526784 5.40237 1.46447 4.46469C2.40215 3.52701 3.67392 3.00023 5 3.00023H9C10.3261 2.96575 11.6115 3.45947 12.5736 4.37277C13.5357 5.28607 14.0955 6.54414 14.13 7.87023C14.1645 9.19631 13.6708 10.4818 12.7575 11.4438C11.8442 12.4059 10.5861 12.9657 9.26 13.0002ZM10.74 7.00023C10.9159 7.30633 11.0076 7.65354 11.0058 8.00657C11.0041 8.35961 10.9089 8.70589 10.73 9.01023C9.95568 9.07323 9.23599 9.43415 8.72239 10.017C8.2088 10.5999 7.94135 11.3593 7.97633 12.1354C8.01131 12.9115 8.346 13.6438 8.90995 14.1781C9.47391 14.7124 10.2231 15.0071 11 15.0002H15C15.7956 15.0002 16.5587 14.6842 17.1213 14.1215C17.6839 13.5589 18 12.7959 18 12.0002C18 11.2046 17.6839 10.4415 17.1213 9.87891C16.5587 9.3163 15.7956 9.00023 15 9.00023H14.92C15.0308 8.33816 15.0308 7.66229 14.92 7.00023H15C16.3261 7.00023 17.5979 7.52701 18.5355 8.46469C19.4732 9.40238 20 10.6741 20 12.0002C20 13.3263 19.4732 14.5981 18.5355 15.5358C17.5979 16.4734 16.3261 17.0002 15 17.0002H11C10.3434 17.0173 9.68985 16.9049 9.07669 16.6694C8.46353 16.4339 7.90275 16.0799 7.42639 15.6277C6.46433 14.7144 5.90448 13.4563 5.87 12.1302C5.83552 10.8041 6.32924 9.51868 7.24254 8.55662C8.15584 7.59455 9.41392 7.03471 10.74 7.00023Z" fill="black"/>
</g>
<defs>
<clipPath id="clip0_1986_2175">
<rect width="20" height="20" fill="white"/>
</clipPath>
</defs>
</svg>
