<svg width="24" height="24" viewBox="0 0 24 24" fill="none" xmlns="http://www.w3.org/2000/svg">
<path d="M2.9999 1.93934L1.93924 3L21 22.0607L22.0606 21.0001L2.9999 1.93934Z" fill="black"/>
<path d="M1.815 9.97385C0.627656 11.0567 0 12.5351 0 14.2498C0 15.9373 0.674063 17.4785 1.89797 18.5899C3.07687 19.6606 4.66687 20.2498 6.375 20.2498H17.0681L5.18016 8.36182C3.86719 8.61447 2.69156 9.17416 1.815 9.97385Z" fill="black"/>
<path d="M22.3402 19.089C23.4262 18.2241 24 16.9402 24 15.3751C24 12.4758 21.7294 10.906 19.418 10.5638C19.1123 8.63351 18.2906 6.98257 17.0222 5.76101C15.6733 4.46322 13.8718 3.74192 12 3.75007C10.5717 3.75007 9.23906 4.15413 8.10609 4.92194L22.3008 19.1185C22.3125 19.1087 22.3275 19.0993 22.3402 19.089Z" fill="black"/>
</svg>
