<svg width="24" height="24" viewBox="0 0 24 24" fill="none" xmlns="http://www.w3.org/2000/svg">
<g clip-path="url(#clip0_1986_2163)">
<path d="M6.25 6.50012C6.0391 6.50012 5.8241 6.51272 5.625 6.56262C5.5084 6.59222 5.3934 6.64212 5.2812 6.68762C5.2378 6.70532 5.1988 6.73002 5.1562 6.75012C5.1385 6.75832 5.1426 6.77272 5.125 6.78132C5.0192 6.83372 4.9122 6.87172 4.8125 6.93762C4.7985 6.94672 4.7639 6.95952 4.75 6.96892C4.7207 6.98892 4.7162 7.01012 4.6875 7.03132C4.6059 7.08992 4.5141 7.15232 4.4375 7.21892C4.3676 7.28172 4.3154 7.36792 4.25 7.43762C4.0288 7.66452 3.8124 7.90622 3.6562 8.18762C3.388 8.65792 3.2094 9.17312 3.125 9.71892C3.0843 9.71032 3.0357 9.70712 3 9.71892C2.7267 9.80772 2.6658 10.3281 2.8438 10.8751C2.9482 11.1961 3.1041 11.4511 3.2812 11.5941C3.5192 12.5191 4.0309 13.2981 4.6875 13.7811V14.3121L4.1562 14.8121L3.125 15.3441C2.2834 15.7611 1.4344 16.1771 0.5938 16.5941C0.1279 16.8751 -0.04441 17.4201 -3.77186e-08 17.9381C0.021682 18.2631 -0.10493 18.6891 0.21875 18.9061C0.52625 19.0641 0.91614 18.9741 1.24995 19.0001H3.06245C3.24415 18.7621 3.47125 18.5421 3.74995 18.3751L3.78115 18.3441H3.81245C5.22345 17.6511 6.61655 16.9441 8.03115 16.2501L9.65615 15.4691C9.56405 15.4231 9.46695 15.3891 9.37495 15.3441L8.34375 14.8121L7.81245 14.3121V13.7811C8.22795 13.4761 8.57915 13.0341 8.84375 12.5311C8.48725 11.9551 8.21285 11.2931 8.03115 10.5941C7.72925 10.2841 7.44625 9.93992 7.28115 9.43762C7.11125 8.92052 7.06275 8.38622 7.12495 7.93762C7.18005 7.54022 7.37095 7.16402 7.74995 6.96892C7.63835 6.89642 7.49315 6.83992 7.37495 6.78132C7.31535 6.75212 7.27995 6.71242 7.21875 6.68762C7.17525 6.66992 7.13795 6.67172 7.09375 6.65632C6.96085 6.61032 6.82565 6.55492 6.68745 6.53132C6.67685 6.52972 6.66685 6.53312 6.65615 6.53132C6.52645 6.51092 6.3829 6.49862 6.25 6.50012Z" fill="black"/>
<path d="M13.499 2.2002C13.145 2.2002 12.796 2.20017 12.461 2.30017C12.266 2.30017 12.076 2.40024 11.888 2.50024C11.815 2.50024 11.741 2.50022 11.669 2.60022H11.587C11.41 2.70022 11.236 2.80027 11.068 2.90027H10.986C10.937 3.00027 10.898 3.00022 10.85 3.10022C10.713 3.20022 10.569 3.20027 10.44 3.40027C10.323 3.50027 10.222 3.6002 10.112 3.7002C9.7409 4.1002 9.4188 4.50024 9.1565 5.00024C8.706 5.70024 8.3697 6.60024 8.2278 7.50024H8.0366C7.5776 7.70024 7.4646 8.50027 7.7635 9.40027C7.9389 10.0003 8.2308 10.4002 8.5283 10.6002C8.9279 12.2002 9.7744 13.5002 10.877 14.3002V15.2002L10.003 16.0002L8.2551 16.9003C6.8416 17.6003 5.4335 18.3002 4.0216 19.0002C3.2391 19.4002 2.9364 20.4002 3.011 21.2002C3.0474 21.8002 2.8497 22.5002 3.3933 22.8002C3.9098 23.1002 4.526 22.9003 5.0868 22.9003H10.003H16.995C19.064 22.9003 21.127 23.0003 23.196 22.9003C23.867 22.9003 24.053 22.2002 23.988 21.6002C24 20.8002 24.048 19.9002 23.414 19.3002C22.897 18.8002 22.161 18.6002 21.53 18.2002C20.603 17.8002 19.67 17.3003 18.744 16.9003L16.995 16.0002L16.121 15.2002V14.3002C17.224 13.5002 18.071 12.2002 18.47 10.6002C18.768 10.4002 19.06 10.0003 19.235 9.40027C19.534 8.50027 19.421 7.70024 18.962 7.50024H18.771C18.629 6.60024 18.293 5.70024 17.842 5.00024C17.58 4.50024 17.258 4.1002 16.886 3.7002C16.776 3.6002 16.676 3.50027 16.558 3.40027H16.531C16.189 3.10027 15.808 2.80022 15.411 2.60022C15.311 2.60022 15.214 2.50024 15.111 2.50024C15.038 2.50024 14.967 2.40027 14.892 2.40027C14.669 2.30027 14.442 2.3002 14.209 2.2002H14.155H13.499Z" fill="black"/>
</g>
<defs>
<clipPath id="clip0_1986_2163">
<rect width="24" height="24" fill="white"/>
</clipPath>
</defs>
</svg>
