<svg width="24" height="24" viewBox="0 0 24 24" fill="none" xmlns="http://www.w3.org/2000/svg">
<g clip-path="url(#clip0_1986_2132)">
<path d="M23.5608 10.1747L13.8253 0.439219C13.5323 0.14625 13.1484 0 12.7645 0C12.3806 0 11.9967 0.14625 11.7042 0.439219L7.88016 4.26328L3.84047 0.223594C3.54797 -0.069375 3.07266 -0.069375 2.78016 0.223594L1.71984 1.28344C1.42734 1.57641 1.42734 2.05125 1.71984 2.34422L5.76 6.38391L1.31813 10.8258C-0.439219 12.5831 -0.439219 15.4317 1.31813 17.1891L6.81141 22.6823C7.69031 23.5608 8.84156 24.0005 9.99281 24.0005C11.1445 24.0005 12.2958 23.5613 13.1747 22.6823L23.5608 12.2963C24.1463 11.7103 24.1463 10.7606 23.5608 10.1747ZM18.113 13.5014H3.09047C3.15422 13.3214 3.25781 13.1273 3.43875 12.9469L4.05516 12.3305L7.88062 8.505L10.628 11.2519C11.2134 11.8373 12.1631 11.8373 12.7486 11.2519C13.3341 10.6664 13.3341 9.71672 12.7486 9.13125L10.0013 6.38437L12.7645 3.62109L20.3794 11.2355L18.113 13.5014Z" fill="black"/>
</g>
<defs>
<clipPath id="clip0_1986_2132">
<rect width="24" height="24" fill="white"/>
</clipPath>
</defs>
</svg>
