<svg width="24" height="24" viewBox="0 0 24 24" fill="none" xmlns="http://www.w3.org/2000/svg">
<path d="M1.5 22.5H22.5V1.5H1.5V22.5ZM3 3H21V21H3V3Z" fill="black"/>
<path d="M5.28772 11.25H11.2877V5.25H5.28772V11.25ZM6.78772 6.75H9.78772V9.75H6.78772V6.75Z" fill="black"/>
<path d="M12.75 11.25H18.75V5.25H12.75V11.25ZM14.25 6.75H17.25V9.75H14.25V6.75Z" fill="black"/>
<path d="M5.28772 18.75H11.2877V12.75H5.28772V18.75ZM6.78772 14.25H9.78772V17.25H6.78772V14.25Z" fill="black"/>
<path d="M12.75 18.75H18.75V12.75H12.75V18.75ZM14.25 14.25H17.25V17.25H14.25V14.25Z" fill="black"/>
</svg>
