<svg width="24" height="24" viewBox="0 0 24 24" fill="none" xmlns="http://www.w3.org/2000/svg">
<path d="M17 3H16C15.4 3 15 3.4 15 4C15 4.6 15.4 5 16 5H17C18.1 5 19 5.9 19 7V8.1C19 8.7 19.4 9.1 20 9.1C20.6 9.1 21 8.7 21 8.1V7C21 4.8 19.2 3 17 3Z" fill="black"/>
<path d="M20 15C19.4 15 19 15.4 19 16V17C19 18.1 18.1 19 17 19H16C15.4 19 15 19.4 15 20C15 20.6 15.4 21 16 21H17C19.2 21 21 19.2 21 17V16C21 15.4 20.6 15 20 15Z" fill="black"/>
<path d="M8 19H7C5.9 19 5 18.1 5 17V16C5 15.4 4.6 15 4 15C3.4 15 3 15.4 3 16V17C3 19.2 4.8 21 7 21H8C8.6 21 9 20.6 9 20C9 19.4 8.6 19 8 19Z" fill="black"/>
<path d="M4 9C4.6 9 5 8.6 5 8V7C5 5.9 5.9 5 7 5H8C8.6 5 9 4.6 9 4C9 3.4 8.6 3 8 3H7C4.8 3 3 4.8 3 7V8C3 8.5 3.4 9 4 9Z" fill="black"/>
<path d="M20 11H4C3.4 11 3 11.4 3 12C3 12.6 3.4 13 4 13H20C20.6 13 21 12.6 21 12C21 11.4 20.6 11 20 11Z" fill="black"/>
</svg>
