<svg width="24" height="24" viewBox="0 0 24 24" fill="none" xmlns="http://www.w3.org/2000/svg">
<path d="M20.2027 4.5775C20.1739 4.40863 20.1122 4.24707 20.0211 4.102L18.4528 1.64012C18.3415 1.46534 18.1878 1.32145 18.0061 1.22176C17.8245 1.12208 17.6206 1.06982 17.4133 1.06982H14.2588L16.3951 4.5775H20.2027Z" fill="black"/>
<path d="M9.6645 1.06982H7.08416C6.87692 1.06981 6.67301 1.12206 6.49132 1.22174C6.30962 1.32143 6.156 1.46532 6.04466 1.64012L4.47637 4.102C4.38525 4.24707 4.32351 4.40863 4.29465 4.5775H8.03569L9.6645 1.06982Z" fill="black"/>
<path d="M12.66 4.5775C12.7843 4.5775 12.9035 4.62689 12.9915 4.71479C13.0794 4.8027 13.1287 4.92193 13.1287 5.04625C13.1287 5.17057 13.0794 5.2898 12.9915 5.37771C12.9035 5.46561 12.7843 5.515 12.66 5.515H9.00338L11.6948 13.3182C11.7334 13.4304 11.8061 13.5277 11.9027 13.5966C11.9993 13.6654 12.115 13.7025 12.2336 13.7025C12.3523 13.7026 12.468 13.6656 12.5646 13.5968C12.6613 13.528 12.734 13.4307 12.7728 13.3186L15.6146 5.09807L13.1611 1.06982H10.6981L9.06923 4.5775H12.66Z" fill="black"/>
<path d="M19.9357 5.63544C19.9654 5.59693 19.9928 5.55676 20.0179 5.51514H16.4602L13.8603 12.6823L19.9357 5.63544Z" fill="black"/>
<path d="M4.47949 5.51514C4.50466 5.55671 4.5321 5.59687 4.56169 5.63544L10.6021 12.6714L8.00625 5.51514H4.47949Z" fill="black"/>
<path d="M6.30589 15.1548H4.1142C4.02171 15.1548 3.933 15.1915 3.8676 15.2569C3.80219 15.3223 3.76545 15.411 3.76545 15.5035V22.9833C3.76545 23.0758 3.80219 23.1645 3.8676 23.2299C3.933 23.2953 4.02171 23.332 4.1142 23.332H6.30589C6.4057 23.332 6.50454 23.3124 6.59675 23.2742C6.68897 23.236 6.77276 23.18 6.84334 23.1094C6.91391 23.0388 6.9699 22.955 7.00809 22.8628C7.04629 22.7706 7.06594 22.6718 7.06594 22.5719V15.9149C7.06594 15.7133 6.98586 15.52 6.84333 15.3774C6.70079 15.2349 6.50747 15.1548 6.30589 15.1548Z" fill="black"/>
<path d="M20.1573 16.0108C20.0378 15.8285 19.8747 15.679 19.6829 15.5756C19.491 15.4722 19.2764 15.4182 19.0585 15.4186H18.1998C17.8232 15.4179 17.4549 15.5294 17.1419 15.7388C16.8289 15.9482 16.5853 16.2462 16.4423 16.5945C16.3632 16.7837 16.2537 16.9587 16.1181 17.1125C15.8708 17.5124 15.5295 17.8456 15.1238 18.0832C14.7181 18.3209 14.2605 18.4556 13.7908 18.4758H11.2457C11.1136 18.4726 10.988 18.4178 10.8957 18.3233C10.8034 18.2287 10.7518 18.1018 10.7518 17.9697C10.7518 17.8375 10.8034 17.7106 10.8957 17.6161C10.988 17.5215 11.1136 17.4668 11.2457 17.4636H13.7777C14.1648 17.4522 14.5361 17.3079 14.8293 17.0549C14.7959 16.6088 14.5947 16.1919 14.2662 15.8882C13.9377 15.5846 13.5063 15.4167 13.059 15.4185H11.192C10.8455 15.4175 10.5021 15.4851 10.1818 15.6175C9.86151 15.7499 9.57059 15.9444 9.32584 16.1897L9.27859 16.2366C8.95021 16.5651 8.53294 16.7905 8.07814 16.8849V21.9624H14.8169C15.8343 21.9631 16.8295 21.6651 17.6792 21.1055C18.5289 20.5458 19.1956 19.7491 19.5967 18.8141L20.2672 17.2533C20.3535 17.0533 20.3886 16.835 20.3694 16.6181C20.3502 16.4012 20.2773 16.1925 20.1573 16.0108Z" fill="black"/>
</svg>
