<svg width="19" height="19" viewBox="0 0 19 19" fill="none" xmlns="http://www.w3.org/2000/svg">
<path d="M15.8333 15.5469H3.16667C2.74674 15.5469 2.34402 15.7288 2.04708 16.0526C1.75015 16.3764 1.58334 16.8156 1.58334 17.2735C1.58334 17.7314 1.75015 18.1706 2.04708 18.4944C2.34402 18.8182 2.74674 19.0001 3.16667 19.0001H15.8333C16.2533 19.0001 16.656 18.8182 16.9529 18.4944C17.2499 18.1706 17.4167 17.7314 17.4167 17.2735C17.4167 16.8156 17.2499 16.3764 16.9529 16.0526C16.656 15.7288 16.2533 15.5469 15.8333 15.5469Z" fill="black"/>
<path d="M17.4167 4.32312C16.9967 4.32312 16.594 4.50503 16.2971 4.82883C16.0001 5.15264 15.8333 5.59181 15.8333 6.04973C15.8335 6.16835 15.8446 6.28665 15.8666 6.40282L12.9913 8.28569L10.568 3.00054C10.8034 2.76562 10.9683 2.45858 11.041 2.11969C11.1136 1.7808 11.0907 1.42588 10.9751 1.10147C10.8596 0.77705 10.6568 0.498287 10.3934 0.301731C10.1301 0.105174 9.81836 0 9.49921 0C9.18006 0 8.86836 0.105174 8.60499 0.301731C8.34161 0.498287 8.13885 0.77705 8.0233 1.10147C7.90775 1.42588 7.8848 1.7808 7.95745 2.11969C8.03011 2.45858 8.19499 2.76562 8.43046 3.00054L6.00875 8.28569L3.13342 6.40282C3.15537 6.28665 3.16651 6.16835 3.16667 6.04973C3.16667 5.70824 3.07381 5.37442 2.89983 5.09048C2.72585 4.80654 2.47857 4.58523 2.18925 4.45455C1.89993 4.32387 1.58158 4.28968 1.27444 4.3563C0.967305 4.42292 0.685181 4.58736 0.463748 4.82883C0.242315 5.0703 0.0915173 5.37796 0.030424 5.71289C-0.0306692 6.04782 0.000686028 6.39498 0.120525 6.71048C0.240364 7.02597 0.443303 7.29563 0.703681 7.48536C0.964059 7.67508 1.27018 7.77634 1.58333 7.77634C1.61263 7.77634 1.63954 7.76857 1.66804 7.76685L2.28 13.8195H16.72L17.332 7.76685C17.3605 7.76685 17.3874 7.77634 17.4167 7.77634C17.8366 7.77634 18.2393 7.59443 18.5363 7.27063C18.8332 6.94683 19 6.50766 19 6.04973C19 5.59181 18.8332 5.15264 18.5363 4.82883C18.2393 4.50503 17.8366 4.32312 17.4167 4.32312Z" fill="black"/>
</svg>
